<svg xmlns="http://www.w3.org/2000/svg" xmlns:xlink="http://www.w3.org/1999/xlink" version="1.1" x="0px" y="0px" viewBox="0 0 48 60" enable-background="new 0 0 48 48" xml:space="preserve"><path d="M26.288,21.408c-0.269,4.145-0.269,8.337,0,12.481h-2.64c0.269-4.145,0.269-8.338,0-12.481H26.288z"/><path d="M36.288,21.408c-0.269,4.145-0.269,8.337,0,12.481h-2.64c0.269-4.145,0.269-8.338,0-12.481H36.288z"/><path d="M8.104,37.464c0,0.275,0.224,0.5,0.5,0.5h32.727c0.276,0,0.5-0.225,0.5-0.5c0-0.276-0.224-0.5-0.5-0.5H8.604  C8.327,36.964,8.104,37.188,8.104,37.464z"/><path d="M44.031,40.508H5.903c-0.276,0-0.5,0.224-0.5,0.5s0.224,0.5,0.5,0.5h38.128c0.276,0,0.5-0.224,0.5-0.5  S44.309,40.508,44.031,40.508z"/><path d="M16.287,33.89h-2.639c0.268-4.145,0.268-8.338,0-12.481h2.639C16.02,25.552,16.02,29.745,16.287,33.89z"/><path d="M23.827,11.814c0.125-0.046,0.227-0.14,0.281-0.26s0.063-0.258,0.016-0.383c-0.072-0.199-0.072-0.419,0-0.618  c0.084-0.226,0.248-0.405,0.467-0.506c0.218-0.1,0.461-0.109,0.688-0.027c0.225,0.082,0.404,0.247,0.504,0.466  c0.102,0.218,0.111,0.462,0.028,0.687c-0.046,0.125-0.04,0.263,0.016,0.383s0.157,0.214,0.281,0.261l12.28,4.509l-0.355,2.306  H16.226c1.146-1.28,1.879-2.934,1.992-4.755L23.827,11.814z"/><path d="M10.356,6.492c-3.798,0-6.888,3.09-6.888,6.888c0,3.797,3.09,6.887,6.888,6.887s6.887-3.09,6.887-6.887  C17.243,9.581,14.154,6.492,10.356,6.492z M14.757,13.879h-3.9v3.9c0,0.275-0.225,0.5-0.5,0.5c-0.276,0-0.5-0.225-0.5-0.5v-3.9h-3.9  c-0.276,0-0.5-0.224-0.5-0.5s0.224-0.5,0.5-0.5h3.9V8.978c0-0.275,0.224-0.5,0.5-0.5c0.275,0,0.5,0.225,0.5,0.5v3.901h3.9  c0.276,0,0.5,0.224,0.5,0.5S15.033,13.879,14.757,13.879z"/><text x="0" y="63" fill="#000000" font-size="5px" font-weight="bold" font-family="'Helvetica Neue', Helvetica, Arial-Unicode, Arial, Sans-serif">Created by Kieu Thi Kim Cuong</text><text x="0" y="68" fill="#000000" font-size="5px" font-weight="bold" font-family="'Helvetica Neue', Helvetica, Arial-Unicode, Arial, Sans-serif">from the Noun Project</text></svg>