<svg xmlns="http://www.w3.org/2000/svg" xmlns:xlink="http://www.w3.org/1999/xlink" version="1.1" x="0px" y="0px" viewBox="0 0 64 80" style="enable-background:new 0 0 64 64;" xml:space="preserve"><style type="text/css">
	.st0{display:none;}
	.st1{display:inline;}
	.st2{fill:none;stroke:#B3B3B3;stroke-width:0.1;stroke-miterlimit:10;}
</style><g class="st0"><g class="st1"><rect x="2" y="2" class="st2" width="60" height="60"/><line class="st2" x1="32" y1="2" x2="32" y2="62"/><line class="st2" x1="62" y1="32" x2="2" y2="32"/><line class="st2" x1="2" y1="2" x2="62" y2="62"/><rect x="10" y="10" class="st2" width="44" height="44"/><line class="st2" x1="62" y1="2" x2="2" y2="62"/><line class="st2" x1="2" y1="32" x2="32" y2="2"/><line class="st2" x1="32" y1="2" x2="62" y2="32"/><line class="st2" x1="62" y1="32" x2="32" y2="62"/><line class="st2" x1="32" y1="62" x2="2" y2="32"/><circle class="st2" cx="32" cy="32" r="21"/></g></g><path d="M19,20c-3.9,0-7-3.1-7-7s3.1-7,7-7s7,3.1,7,7S22.9,20,19,20z M19,8c-2.8,0-5,2.2-5,5s2.2,5,5,5s5-2.2,5-5S21.8,8,19,8z"/><path d="M57,2H7C4.2,2,2,4.2,2,7v30c0,2.8,2.2,5,5,5h8.3c-0.2,1-0.3,2-0.3,3c0,9.4,7.6,17,17,17s17-7.6,17-17c0-1-0.1-2-0.3-3H57  c2.8,0,5-2.2,5-5V7C62,4.2,59.8,2,57,2z M32,60c-8.3,0-15-6.7-15-15s6.7-15,15-15s15,6.7,15,15S40.3,60,32,60z M9.1,34l0.8-9.6  c0.1-0.4,0.3-0.8,0.7-0.9l3.9-1.3l4.5,9l4.5-9l3.9,1.3c0.4,0.2,0.7,0.5,0.7,0.9l0.3,4c-3.8,0.8-7.1,2.8-9.4,5.7v0H9.1z M60,37  c0,1.7-1.3,3-3,3h-8.7c-2.1-7-8.6-12-16.3-12c-0.5,0-1.1,0-1.6,0.1l-0.3-3.9c-0.1-1.2-0.9-2.2-2-2.6l-5.6-1.9l-3.5,7l-3.5-7  l-5.6,1.9C8.8,22,8,23,7.9,24.2L6.9,36h10.7c-0.8,1.2-1.4,2.6-1.8,4H7c-1.7,0-3-1.3-3-3V7c0-1.7,1.3-3,3-3h50c1.7,0,3,1.3,3,3V37z"/><rect x="33" y="8" width="23" height="2"/><rect x="33" y="14" width="20" height="2"/><rect x="33" y="21" width="23" height="2"/><path d="M43,42v-2l-11-6l-11,6v2h2v7h-1v2h-1v2h22v-2h-1v-2h-1v-7H43z M35,49h-2v-7h2V49z M29,42h2v7h-2V42z M25,42h2v7h-2V42z   M39,49h-2v-7h2V49z"/><text x="0" y="79" fill="#000000" font-size="5px" font-weight="bold" font-family="'Helvetica Neue', Helvetica, Arial-Unicode, Arial, Sans-serif">Created by I Putu Kharismayadi</text><text x="0" y="84" fill="#000000" font-size="5px" font-weight="bold" font-family="'Helvetica Neue', Helvetica, Arial-Unicode, Arial, Sans-serif">from the Noun Project</text></svg>