<svg width="20" height="20" viewBox="0 0 20 20" fill="none" xmlns="http://www.w3.org/2000/svg">
<path fill-rule="evenodd" clip-rule="evenodd" d="M2.5 4.16667C2.03976 4.16667 1.66667 4.53976 1.66667 5V15C1.66667 15.4602 2.03976 15.8333 2.5 15.8333H17.5C17.9602 15.8333 18.3333 15.4602 18.3333 15V5C18.3333 4.53976 17.9602 4.16667 17.5 4.16667H2.5ZM0 5C0 3.61929 1.11929 2.5 2.5 2.5H17.5C18.8807 2.5 20 3.61929 20 5V15C20 16.3807 18.8807 17.5 17.5 17.5H2.5C1.11929 17.5 0 16.3807 0 15V5Z" fill="#2D2D2D"/>
<path fill-rule="evenodd" clip-rule="evenodd" d="M0 8.33333C0 7.8731 0.373096 7.5 0.833333 7.5H19.1667C19.6269 7.5 20 7.8731 20 8.33333C20 8.79357 19.6269 9.16667 19.1667 9.16667H0.833333C0.373096 9.16667 0 8.79357 0 8.33333Z" fill="#2D2D2D"/>
</svg>
