<svg width="200" height="200" viewBox="0 0 200 200" fill="none" xmlns="http://www.w3.org/2000/svg">
<path d="M43.058 105.095L41.2863 104.708L40.883 102.94C40.8762 102.91 40.8593 102.883 40.8351 102.863C40.8108 102.844 40.7807 102.833 40.7497 102.833C40.7185 102.834 40.6883 102.844 40.6639 102.864C40.6394 102.883 40.6221 102.91 40.6147 102.94L40.2113 104.717L38.4397 105.137C38.4091 105.144 38.382 105.162 38.3626 105.187C38.3433 105.211 38.3329 105.242 38.333 105.273C38.3332 105.305 38.344 105.335 38.3638 105.359C38.3835 105.383 38.4109 105.399 38.4413 105.405L40.213 105.792L40.6147 107.56C40.6221 107.59 40.6394 107.617 40.6639 107.637C40.6883 107.656 40.7185 107.667 40.7497 107.667C40.7807 107.667 40.8108 107.656 40.8351 107.637C40.8593 107.617 40.8762 107.59 40.883 107.56L41.288 105.783L43.0597 105.363C43.0908 105.357 43.1189 105.341 43.1391 105.316C43.1593 105.292 43.1703 105.261 43.1703 105.229C43.1703 105.198 43.1593 105.167 43.1391 105.142C43.1189 105.118 43.0908 105.101 43.0597 105.095H43.058ZM87.803 43.6784L86.5147 43.3985L86.2213 42.1118C86.2164 42.0897 86.2042 42.07 86.1867 42.0558C86.1691 42.0415 86.1473 42.0337 86.1247 42.0334C86.102 42.0339 86.08 42.0418 86.0622 42.0559C86.0444 42.0701 86.0318 42.0897 86.0263 42.1118L85.733 43.4035L84.4447 43.7101C84.4223 43.7151 84.4024 43.7275 84.3881 43.7454C84.3739 43.7633 84.3662 43.7856 84.3663 43.8084C84.3669 43.8312 84.3751 43.8531 84.3896 43.8706C84.4042 43.8881 84.4241 43.9003 84.4463 43.9051L85.7347 44.1851L86.0263 45.4718C86.0318 45.4938 86.0444 45.5135 86.0622 45.5276C86.08 45.5418 86.102 45.5497 86.1247 45.5501C86.1473 45.5499 86.1691 45.542 86.1867 45.5278C86.2042 45.5136 86.2164 45.4938 86.2213 45.4718L86.5163 44.1801L87.8047 43.8734C87.827 43.8687 87.847 43.8563 87.861 43.8383C87.875 43.8203 87.8822 43.7979 87.8813 43.7751C87.8814 43.7524 87.8737 43.7304 87.8594 43.7128C87.8451 43.6952 87.8252 43.6831 87.803 43.6784ZM122.441 80.2618L124.213 79.8751L124.615 78.1068C124.622 78.0765 124.639 78.0496 124.664 78.0303C124.688 78.0109 124.719 78.0003 124.75 78.0001C124.781 78.0001 124.811 78.0107 124.835 78.0301C124.859 78.0494 124.876 78.0765 124.883 78.1068L125.288 79.8834L127.06 80.3035C127.091 80.3095 127.119 80.3262 127.139 80.3507C127.159 80.3751 127.17 80.4059 127.17 80.4376C127.17 80.4693 127.159 80.5001 127.139 80.5246C127.119 80.549 127.091 80.5657 127.06 80.5718L125.288 80.9585L124.885 82.7268C124.878 82.7571 124.861 82.7841 124.837 82.8035C124.812 82.8229 124.782 82.8335 124.751 82.8335C124.72 82.8332 124.69 82.8226 124.666 82.8033C124.641 82.784 124.624 82.757 124.616 82.7268L124.213 80.9501L122.441 80.5301C122.411 80.5226 122.384 80.5051 122.364 80.4803C122.345 80.4555 122.335 80.4249 122.335 80.3934C122.335 80.3626 122.345 80.3327 122.365 80.3088C122.384 80.2848 122.411 80.2683 122.441 80.2618ZM129.89 65.3334L130.806 65.1334L131.013 64.2184C131.017 64.2025 131.025 64.1882 131.038 64.178C131.051 64.1677 131.067 64.1621 131.083 64.1621C131.099 64.1621 131.115 64.1677 131.128 64.178C131.141 64.1882 131.15 64.2025 131.153 64.2184L131.361 65.1384L132.278 65.3551C132.294 65.3591 132.307 65.3682 132.317 65.3808C132.327 65.3935 132.333 65.409 132.333 65.4251C132.333 65.4413 132.327 65.457 132.317 65.4694C132.307 65.4819 132.292 65.4904 132.276 65.4934L131.36 65.6934L131.153 66.6084C131.15 66.6244 131.141 66.6387 131.128 66.6489C131.115 66.6592 131.099 66.6647 131.083 66.6647C131.067 66.6647 131.051 66.6592 131.038 66.6489C131.025 66.6387 131.017 66.6244 131.013 66.6084L130.805 65.6884L129.888 65.4718C129.872 65.468 129.858 65.4591 129.848 65.4464C129.838 65.4337 129.833 65.4179 129.833 65.4018C129.833 65.3856 129.839 65.3699 129.849 65.3575C129.859 65.345 129.874 65.3365 129.89 65.3334Z" fill="#4F3CC9"/>
<path d="M71.2217 155.299V100.667C71.2217 99.1839 71.8108 97.7616 72.8594 96.713C73.9081 95.6643 75.3303 95.0752 76.8133 95.0752H93.8133C94.8867 95.0754 95.9374 95.3844 96.8399 95.9654C97.7425 96.5464 98.4588 97.3749 98.9033 98.3519L100.723 102.334C101.168 103.311 101.884 104.14 102.786 104.721C103.689 105.302 104.74 105.612 105.813 105.612H132.567C133.302 105.611 134.03 105.755 134.71 106.035C135.389 106.316 136.007 106.728 136.527 107.248C137.047 107.768 137.46 108.385 137.741 109.064C138.023 109.743 138.167 110.472 138.167 111.207V155.299C138.166 156.781 137.577 158.203 136.528 159.251C135.48 160.3 134.058 160.889 132.575 160.889H76.8133C75.3306 160.889 73.9086 160.3 72.86 159.251C71.8114 158.203 71.2221 156.781 71.2217 155.299Z" fill="#5564D7"/>
<path d="M132.567 161.389H76.8133C75.1986 161.387 73.6504 160.745 72.5084 159.603C71.3664 158.461 70.7239 156.913 70.7217 155.299V100.667C70.7234 99.0518 71.3658 97.5034 72.5078 96.3613C73.6499 95.2193 75.1983 94.577 76.8133 94.5752H93.8133C94.9824 94.5771 96.1263 94.9145 97.1092 95.5473C98.0921 96.1801 98.8727 97.0818 99.3584 98.1452L101.172 102.134C101.577 103.023 102.229 103.777 103.05 104.306C103.872 104.835 104.828 105.117 105.805 105.119H132.567C134.183 105.118 135.733 105.759 136.876 106.901C138.02 108.042 138.664 109.591 138.667 111.207V155.299C138.664 156.915 138.021 158.464 136.877 159.606C135.733 160.748 134.183 161.389 132.567 161.389ZM76.8133 95.5719C75.4629 95.5736 74.1684 96.1111 73.2138 97.0663C72.2592 98.0215 71.7226 99.3164 71.7217 100.667V155.299C71.7234 156.648 72.2605 157.942 73.215 158.896C74.1696 159.851 75.4636 160.387 76.8133 160.389H132.567C133.918 160.389 135.214 159.854 136.17 158.899C137.127 157.945 137.665 156.65 137.667 155.299V111.207C137.665 109.857 137.128 108.563 136.173 107.608C135.219 106.654 133.925 106.117 132.575 106.115H105.813C104.644 106.113 103.5 105.776 102.517 105.143C101.534 104.509 100.754 103.607 100.268 102.544L98.4567 98.5552C98.0508 97.6664 97.3982 96.9128 96.5766 96.3839C95.755 95.8551 94.7988 95.5732 93.8217 95.5719H76.8133Z" fill="#4F3CC9"/>
<path d="M129.692 160.888C129.692 160.888 123.142 160.57 121.544 152.262L115.81 119.818C115.582 118.525 114.906 117.353 113.9 116.509C112.894 115.665 111.623 115.201 110.31 115.2H59.5969C58.7743 115.199 57.9617 115.38 57.217 115.729C56.4723 116.079 55.8138 116.588 55.2885 117.221C54.7632 117.854 54.3841 118.595 54.1781 119.392C53.9722 120.188 53.9444 121.02 54.0969 121.828L60.6169 156.333C60.859 157.614 61.5412 158.771 62.5455 159.602C63.5498 160.434 64.8131 160.888 66.1169 160.887L129.692 160.888Z" fill="#FF8B6A"/>
<path d="M129.692 161.388H66.1119C64.6929 161.388 63.3187 160.892 62.2261 159.986C61.1336 159.081 60.3912 157.823 60.1269 156.428L53.6119 121.928C53.4455 121.048 53.4752 120.142 53.6991 119.275C53.9229 118.408 54.3353 117.6 54.9069 116.911C55.4784 116.221 56.1951 115.666 57.0058 115.285C57.8165 114.904 58.7012 114.707 59.5969 114.707H110.304C111.736 114.705 113.123 115.208 114.221 116.129C115.319 117.049 116.056 118.327 116.304 119.738L122.039 152.182C123.539 160.005 129.655 160.393 129.717 160.397L129.692 161.388ZM59.5969 115.7C58.8485 115.701 58.1093 115.866 57.4321 116.185C56.7549 116.503 56.1563 116.968 55.6789 117.544C55.2014 118.12 54.857 118.795 54.67 119.52C54.483 120.244 54.458 121.001 54.5969 121.737L61.1119 156.237C61.3326 157.402 61.9527 158.453 62.8654 159.21C63.7781 159.967 64.9262 160.382 66.1119 160.383H126.432C126.277 160.3 126.117 160.217 125.957 160.113C124.194 159.04 121.912 156.823 121.054 152.352L115.319 119.905C115.111 118.726 114.494 117.658 113.577 116.889C112.66 116.12 111.501 115.699 110.304 115.7H59.5969Z" fill="#4F3CC9"/>
<path d="M92.4681 64.3984L76.1748 70.9484L88.7948 75.9018C88.7948 75.9018 100.136 72.7068 92.4681 64.3984Z" fill="#4F3CC9"/>
<path d="M34 59.1267C34 59.1267 34 111.367 90.5517 74.7834C90.5517 74.7834 76.9733 77.3384 71.0617 46.6667L34 59.1267Z" fill="white"/>
<path d="M56.9833 88.2917C53.04 88.2917 49.5367 87.4583 46.4733 85.7917C41.1533 82.8983 37.2233 77.36 35.1067 69.7783C34.1335 66.3077 33.5939 62.7299 33.5 59.1267V58.7683L71.445 46.01L71.5533 46.5717C74.5767 62.2633 79.6267 68.9683 83.3333 71.8333C87.2433 74.855 90.4317 74.3 90.4633 74.2933L92.9633 73.8233L90.8267 75.205C77.3517 83.9167 66.0233 88.2917 56.9833 88.2917ZM34.5 59.485C34.637 62.8858 35.1643 66.2596 36.0717 69.54C37.4967 74.6317 40.54 81.435 46.9483 84.9183C56.445 90.0783 70.53 86.8333 88.8333 75.2833C87.375 75.1167 85.1667 74.52 82.7117 72.6167C80.2567 70.7133 78.045 67.8933 76.15 64.225C73.8633 59.7983 72.0233 54.1117 70.675 47.3167L34.5 59.485Z" fill="#4F3CC9"/>
<path d="M51.8767 83.7284L51.5883 82.7717C51.705 82.7367 63.3433 79.21 73.8933 74.4867L74.3017 75.3984C63.6917 80.15 52 83.6934 51.8767 83.7284ZM48.5233 79.415L48.2317 78.4584C48.33 78.4284 58.2533 75.3717 70.2317 70.3284L70.6183 71.25C58.5917 76.3134 48.6233 79.3834 48.5233 79.415ZM44.8483 74.6217L44.5567 73.6667C44.6517 73.6384 54.1117 70.74 66.5667 65.8517L66.9317 66.7834C54.4383 71.685 44.9433 74.5934 44.8483 74.6217ZM42.2883 69.3517L42 68.3934C42.0967 68.3634 51.765 65.5034 56.3133 63.4634L56.7233 64.3767C52.12 66.4434 42.3867 69.3234 42.2883 69.3517Z" fill="#4F3CC9"/>
<path d="M137.818 121.018L141.738 118.547L149.574 130.981L145.654 133.451L137.818 121.018Z" fill="#4F3CC9"/>
<path d="M132.024 124.909C141.641 124.909 149.437 117.112 149.437 107.495C149.437 97.8782 141.641 90.082 132.024 90.082C122.407 90.082 114.61 97.8782 114.61 107.495C114.61 117.112 122.407 124.909 132.024 124.909Z" fill="#FF8B6A"/>
<path d="M132.058 125.413C130.712 125.413 129.371 125.262 128.058 124.963C123.622 123.947 119.742 121.271 117.215 117.485C114.689 113.699 113.707 109.09 114.471 104.603C115.234 100.116 117.686 96.091 121.323 93.3543C124.96 90.6176 129.507 89.3763 134.03 89.8852C138.553 90.394 142.71 92.6144 145.648 96.0909C148.586 99.5673 150.083 104.036 149.83 108.581C149.578 113.126 147.597 117.401 144.292 120.531C140.987 123.661 136.61 125.408 132.058 125.413ZM131.997 90.5801C128.248 90.587 124.607 91.8396 121.648 94.141C118.688 96.4424 116.578 99.6622 115.648 103.294C114.718 106.926 115.021 110.764 116.51 114.204C117.999 117.645 120.59 120.493 123.874 122.301C127.158 124.109 130.95 124.774 134.654 124.192C138.357 123.609 141.762 121.813 144.333 119.084C146.904 116.356 148.496 112.85 148.857 109.119C149.219 105.387 148.33 101.641 146.33 98.4701C144.811 96.0441 142.697 94.0464 140.189 92.6667C137.681 91.287 134.862 90.5711 132 90.5868L131.997 90.5801Z" fill="#4F3CC9"/>
<path d="M132.023 120.775C139.358 120.775 145.303 114.829 145.303 107.495C145.303 100.161 139.358 94.2151 132.023 94.2151C124.689 94.2151 118.743 100.161 118.743 107.495C118.743 114.829 124.689 120.775 132.023 120.775Z" fill="white"/>
<path d="M132.047 121.27C129.65 121.274 127.294 120.652 125.212 119.466C123.129 118.281 121.391 116.573 120.171 114.51C118.95 112.448 118.289 110.102 118.252 107.706C118.215 105.31 118.803 102.945 119.96 100.846C121.116 98.7472 122.8 96.986 124.845 95.7367C126.89 94.4874 129.226 93.7932 131.622 93.7228C134.017 93.6523 136.39 94.2079 138.505 95.3348C140.62 96.4617 142.404 98.1209 143.682 100.148C144.996 102.231 145.727 104.628 145.8 107.089C145.873 109.55 145.285 111.986 144.097 114.142C142.909 116.299 141.164 118.098 139.045 119.351C136.926 120.605 134.509 121.268 132.047 121.27ZM132 94.7101C129.166 94.7135 126.412 95.6589 124.173 97.3977C121.934 99.1365 120.337 101.57 119.632 104.316C118.927 107.062 119.155 109.964 120.279 112.566C121.404 115.168 123.361 117.323 125.844 118.692C128.326 120.06 131.193 120.565 133.994 120.126C136.794 119.687 139.37 118.33 141.315 116.268C143.261 114.206 144.465 111.556 144.74 108.735C145.015 105.913 144.344 103.081 142.834 100.682C141.943 99.2587 140.778 98.0266 139.407 97.0567C138.037 96.0869 136.487 95.3986 134.849 95.0318C133.914 94.8189 132.959 94.711 132 94.7101Z" fill="#4F3CC9"/>
<path d="M151.807 131.887C150.598 129.938 148.038 129.337 146.088 130.546C144.139 131.754 143.538 134.315 144.747 136.264L154.092 151.336C155.301 153.285 157.861 153.886 159.81 152.677C161.76 151.468 162.36 148.908 161.152 146.958L151.807 131.887Z" fill="#FF8B6A"/>
<path d="M157.521 152.72C156.733 152.722 155.959 152.524 155.269 152.145C154.579 151.766 153.996 151.218 153.576 150.553L144.122 135.553C143.463 134.509 143.247 133.245 143.519 132.04C143.792 130.836 144.532 129.789 145.577 129.13C146.622 128.471 147.886 128.254 149.09 128.527C150.295 128.8 151.342 129.54 152.001 130.585L161.456 145.585C161.899 146.288 162.146 147.098 162.171 147.929C162.195 148.76 161.997 149.583 161.595 150.311C161.194 151.04 160.605 151.647 159.889 152.071C159.173 152.494 158.357 152.718 157.526 152.718L157.521 152.72ZM148.052 129.412C147.399 129.413 146.759 129.589 146.197 129.922C145.635 130.255 145.173 130.732 144.858 131.304C144.543 131.876 144.387 132.522 144.406 133.174C144.425 133.827 144.619 134.463 144.967 135.015L154.422 150.015C154.678 150.421 155.011 150.772 155.403 151.05C155.795 151.327 156.237 151.524 156.705 151.63C157.173 151.736 157.657 151.749 158.13 151.668C158.603 151.587 159.055 151.413 159.461 151.158C159.867 150.902 160.219 150.568 160.496 150.177C160.773 149.785 160.97 149.342 161.076 148.875C161.182 148.407 161.195 147.922 161.114 147.449C161.033 146.977 160.86 146.524 160.604 146.118L151.149 131.118C150.894 130.711 150.562 130.358 150.17 130.081C149.778 129.803 149.336 129.606 148.867 129.5C148.6 129.44 148.326 129.411 148.052 129.412Z" fill="#4F3CC9"/>
</svg>
