<svg width="304" height="139" viewBox="0 0 304 139" fill="none" xmlns="http://www.w3.org/2000/svg">
<path d="M0 86C0 83.2386 2.23858 81 5 81C7.76142 81 10 83.2386 10 86V139H0V86Z" fill="#5564D7"/>
<path d="M48.9167 49C48.9167 46.2386 51.1553 44 53.9167 44C56.6782 44 58.9167 46.2386 58.9167 49V139H48.9167V49Z" fill="#5564D7"/>
<path d="M97.8333 67C97.8333 64.2386 100.072 62 102.833 62C105.595 62 107.833 64.2386 107.833 67V139H97.8333V67Z" fill="#5564D7"/>
<path d="M146.75 5C146.75 2.23858 148.989 0 151.75 0C154.511 0 156.75 2.23858 156.75 5V139H146.75V5Z" fill="#FFC95F"/>
<path d="M195.667 67C195.667 64.2386 197.905 62 200.667 62C203.428 62 205.667 64.2386 205.667 67V139H195.667V67Z" fill="#5564D7"/>
<path d="M244.583 104C244.583 101.239 246.822 99 249.583 99C252.345 99 254.583 101.239 254.583 104V139H244.583V104Z" fill="#5564D7"/>
<path d="M293.5 67C293.5 64.2386 295.739 62 298.5 62C301.261 62 303.5 64.2386 303.5 67V139H293.5V67Z" fill="#5564D7"/>
</svg>
