<svg width="200" height="153" viewBox="0 0 200 153" fill="none" xmlns="http://www.w3.org/2000/svg">
<path d="M128.094 15.577L126.184 15.1627L125.751 13.256C125.744 13.2231 125.726 13.1936 125.699 13.1725C125.673 13.1514 125.64 13.1399 125.606 13.1399C125.573 13.1399 125.54 13.1514 125.514 13.1725C125.487 13.1936 125.469 13.2231 125.462 13.256L125.026 15.1697L123.117 15.624C123.084 15.6311 123.054 15.6496 123.033 15.6762C123.012 15.7029 123.001 15.736 123.002 15.77C123.003 15.8035 123.015 15.8357 123.036 15.8617C123.057 15.8876 123.087 15.9058 123.119 15.9136L125.029 16.3278L125.462 18.2321C125.469 18.2651 125.487 18.2945 125.514 18.3156C125.54 18.3367 125.573 18.3483 125.606 18.3483C125.64 18.3483 125.673 18.3367 125.699 18.3156C125.726 18.2945 125.744 18.2651 125.751 18.2321L126.187 16.3184L128.096 15.8665C128.129 15.8592 128.158 15.8408 128.179 15.8145C128.201 15.7882 128.212 15.7555 128.212 15.7217C128.212 15.688 128.201 15.6552 128.179 15.6289C128.158 15.6026 128.129 15.5843 128.096 15.577H128.094ZM21.6185 23.8461L24.2434 23.2741L24.8508 20.6543C24.8617 20.6098 24.8872 20.5702 24.9233 20.5419C24.9593 20.5136 25.0039 20.4982 25.0497 20.4982C25.0955 20.4982 25.14 20.5136 25.1761 20.5419C25.2122 20.5702 25.2377 20.6098 25.2486 20.6543L25.8466 23.2859L28.4738 23.9097C28.519 23.9199 28.5594 23.9454 28.5881 23.9818C28.6168 24.0182 28.6321 24.0634 28.6315 24.1098C28.6302 24.1557 28.6138 24.2 28.5849 24.2357C28.556 24.2714 28.5161 24.2967 28.4714 24.3075L25.8442 24.8771L25.2486 27.497C25.2377 27.5415 25.2122 27.5811 25.1761 27.6094C25.14 27.6377 25.0955 27.653 25.0497 27.653C25.0039 27.653 24.9593 27.6377 24.9233 27.6094C24.8872 27.5811 24.8617 27.5415 24.8508 27.497L24.2528 24.8654L21.628 24.2416C21.5829 24.2317 21.5425 24.2067 21.5136 24.1707C21.4847 24.1348 21.4689 24.09 21.4689 24.0439C21.4689 23.9977 21.4847 23.9529 21.5136 23.917C21.5425 23.881 21.5829 23.856 21.628 23.8461H21.6185ZM32.6547 1.73379L34.0107 1.43955L34.3191 0.0837161C34.3242 0.0600187 34.3372 0.038783 34.3561 0.0235474C34.3749 0.00831187 34.3984 0 34.4227 0C34.4469 0 34.4704 0.00831187 34.4893 0.0235474C34.5081 0.038783 34.5212 0.0600187 34.5263 0.0837161L34.8346 1.44426L36.193 1.76674C36.2175 1.77046 36.2398 1.78284 36.256 1.80163C36.2721 1.82041 36.281 1.84437 36.281 1.86914C36.281 1.89391 36.2721 1.91786 36.256 1.93664C36.2398 1.95543 36.2175 1.96781 36.193 1.97153L34.837 2.26812L34.5286 3.62395C34.5235 3.64765 34.5105 3.66889 34.4916 3.68412C34.4728 3.69936 34.4493 3.70767 34.425 3.70767C34.4008 3.70767 34.3773 3.69936 34.3584 3.68412C34.3396 3.66889 34.3265 3.64765 34.3214 3.62395L34.0131 2.26105L32.6547 1.93857C32.6311 1.93364 32.6099 1.92058 32.5948 1.90167C32.5798 1.88275 32.5718 1.85917 32.5723 1.835C32.5736 1.81158 32.5822 1.78915 32.597 1.77095C32.6118 1.75276 32.632 1.73974 32.6547 1.73379Z" fill="#4F3CC9"/>
<path d="M8.7402 65.1873L18.6181 152.102H138.015L147.893 65.1873H8.7402Z" fill="#FF8B6A"/>
<path d="M138.648 152.809H17.9892L17.9185 152.183L7.95114 64.4822H148.679L148.589 65.2684L138.648 152.809ZM19.251 151.397H137.379L147.097 65.8945H9.53312L19.251 151.397Z" fill="#4F3CC9"/>
<path d="M147.891 55.5564H8.98789C4.48677 55.5564 0.837888 59.2044 0.837888 63.7044C0.837888 68.2044 4.48677 71.8524 8.98789 71.8524H147.891C152.392 71.8524 156.041 68.2044 156.041 63.7044C156.041 59.2044 152.392 55.5564 147.891 55.5564Z" fill="#5564D7"/>
<path d="M147.894 72.5608H9.00063C7.82562 72.5799 6.65854 72.3651 5.56741 71.9287C4.47627 71.4923 3.48291 70.8432 2.64519 70.0191C1.80747 69.1951 1.14216 68.2125 0.688021 67.1288C0.233881 66.045 0 64.8817 0 63.7067C0 62.5316 0.233881 61.3683 0.688021 60.2846C1.14216 59.2008 1.80747 58.2183 2.64519 57.3942C3.48291 56.5701 4.47627 55.921 5.56741 55.4846C6.65854 55.0483 7.82562 54.8334 9.00063 54.8525H147.894C150.218 54.8904 152.434 55.8399 154.063 57.4963C155.693 59.1526 156.606 61.3831 156.606 63.7067C156.606 66.0302 155.693 68.2607 154.063 69.917C152.434 71.5734 150.218 72.5229 147.894 72.5608ZM9.00063 56.2649C8.01212 56.2473 7.03001 56.4268 6.11163 56.7929C5.19326 57.159 4.35702 57.7043 3.65173 58.3971C2.94645 59.0899 2.38625 59.9162 2.00385 60.8278C1.62144 61.7394 1.42449 62.7181 1.42449 63.7067C1.42449 64.6952 1.62144 65.6739 2.00385 66.5855C2.38625 67.4971 2.94645 68.3235 3.65173 69.0162C4.35702 69.709 5.19326 70.2543 6.11163 70.6204C7.03001 70.9865 8.01212 71.166 9.00063 71.1485H147.894C149.845 71.1138 151.705 70.3145 153.072 68.9226C154.44 67.5308 155.206 65.6577 155.206 63.7067C155.206 61.7556 154.44 59.8825 153.072 58.4907C151.705 57.0989 149.845 56.2996 147.894 56.2649H9.00063Z" fill="#4F3CC9"/>
<path d="M65.7208 15.3356L37.476 62.2079C36.636 63.602 37.0852 65.4131 38.4795 66.2531L43.8996 69.5185C45.2938 70.3585 47.1051 69.9093 47.9452 68.5152L76.19 21.6429C77.03 20.2488 76.5808 18.4377 75.1865 17.5977L69.7664 14.3323C68.3722 13.4923 66.5609 13.9415 65.7208 15.3356Z" fill="#FF8B6A"/>
<path d="M45.4165 70.639C44.7525 70.6397 44.1011 70.4581 43.5332 70.1141L38.1187 66.8493C37.2889 66.3486 36.6918 65.5391 36.4587 64.5985C36.2257 63.6579 36.3756 62.6632 36.8757 61.8332L65.1064 14.9604C65.6071 14.1307 66.4168 13.5337 67.3575 13.3006C68.2982 13.0676 69.2929 13.2175 70.1231 13.7175L75.5376 16.98C75.949 17.2274 76.3075 17.5536 76.5926 17.9397C76.8778 18.3258 77.084 18.7644 77.1994 19.2303C77.3149 19.6962 77.3373 20.1803 77.2654 20.6549C77.1936 21.1295 77.0288 21.5852 76.7806 21.9961L48.531 68.8689C48.2848 69.2812 47.959 69.6405 47.5726 69.9258C47.1862 70.2111 46.747 70.4167 46.2804 70.5307C45.9978 70.601 45.7077 70.6373 45.4165 70.639ZM68.2516 14.6167C68.0683 14.6165 67.8857 14.6387 67.7078 14.6826C67.4217 14.7525 67.1524 14.8786 66.9156 15.0536C66.6787 15.2286 66.4791 15.4489 66.3282 15.7018L38.0786 62.5746C37.9263 62.8266 37.8252 63.1062 37.7811 63.3973C37.737 63.6884 37.7508 63.9853 37.8217 64.2711C37.8925 64.5569 38.0191 64.8259 38.194 65.0627C38.369 65.2995 38.589 65.4995 38.8414 65.6511L44.2559 68.916C44.7652 69.2223 45.3752 69.314 45.9521 69.171C46.529 69.028 47.0255 68.662 47.3327 68.1533L75.5823 21.2805C75.8886 20.7706 75.98 20.1601 75.8366 19.5829C75.6931 19.0057 75.3266 18.5089 74.8172 18.2016L69.4027 14.9392C69.0556 14.7234 68.6556 14.6077 68.2469 14.6049L68.2516 14.6167Z" fill="#4F3CC9"/>
<path d="M86.4647 14.0347L81.0227 17.3249C79.6228 18.1712 79.1742 19.9921 80.0206 21.3918L108.48 68.4536C109.326 69.8533 111.147 70.3019 112.547 69.4556L117.989 66.1654C119.389 65.3191 119.838 63.4982 118.991 62.0985L90.5321 15.0367C89.6857 13.637 87.8646 13.1884 86.4647 14.0347Z" fill="#FF8B6A"/>
<path d="M109.982 70.636C109.351 70.638 108.73 70.4762 108.18 70.1663C107.631 69.8564 107.171 69.4092 106.846 68.8683L78.5963 21.9955C78.0994 21.1652 77.9522 20.1718 78.187 19.2331C78.4218 18.2945 79.0194 17.4873 79.8487 16.9888L85.2632 13.7263C85.6743 13.4761 86.1307 13.3095 86.6063 13.2361C87.0819 13.1627 87.5674 13.1839 88.0348 13.2985C88.5021 13.4131 88.9423 13.6188 89.33 13.9039C89.7177 14.189 90.0453 14.5478 90.294 14.9597L118.544 61.8325C118.791 62.2436 118.956 62.6995 119.027 63.1741C119.099 63.6487 119.076 64.1328 118.96 64.5986C118.845 65.0644 118.638 65.5029 118.353 65.889C118.068 66.2751 117.71 66.6012 117.298 66.8486L111.884 70.1135C111.31 70.4601 110.652 70.641 109.982 70.636ZM87.1465 14.6137C86.7405 14.6134 86.3422 14.725 85.9953 14.9362L80.5808 18.1986C80.0715 18.5059 79.7049 19.0027 79.5615 19.5799C79.4181 20.1571 79.5095 20.7676 79.8157 21.2775L108.065 68.1503C108.373 68.6592 108.87 69.0252 109.447 69.1682C110.024 69.3112 110.635 69.2194 111.145 68.913L116.559 65.6481C116.811 65.4965 117.031 65.2965 117.206 65.0597C117.381 64.8229 117.508 64.5539 117.579 64.2681C117.65 63.9823 117.663 63.6854 117.619 63.3943C117.575 63.1032 117.474 62.8236 117.322 62.5716L89.0722 15.6988C88.9211 15.4462 88.7213 15.226 88.4845 15.0511C88.2477 14.8761 87.9786 14.7499 87.6927 14.6796C87.5151 14.6327 87.3325 14.6074 87.1489 14.6043L87.1465 14.6137Z" fill="#4F3CC9"/>
<path d="M44.6699 65.5568C46.6473 65.5568 48.2502 63.9538 48.2502 61.9765C48.2502 59.9992 46.6473 58.3963 44.6699 58.3963C42.6926 58.3963 41.0897 59.9992 41.0897 61.9765C41.0897 63.9538 42.6926 65.5568 44.6699 65.5568Z" fill="white"/>
<path d="M44.6691 66.264C43.8213 66.264 42.9926 66.0126 42.2877 65.5416C41.5828 65.0706 41.0334 64.4012 40.709 63.618C40.3845 62.8347 40.2996 61.9729 40.465 61.1414C40.6304 60.3099 41.0387 59.5461 41.6381 58.9467C42.2376 58.3472 43.0014 57.939 43.8328 57.7736C44.6643 57.6082 45.5262 57.6931 46.3094 58.0175C47.0927 58.3419 47.7621 58.8913 48.2331 59.5962C48.7041 60.3011 48.9555 61.1298 48.9555 61.9776C48.9542 63.1141 48.5022 64.2036 47.6987 65.0072C46.8951 65.8108 45.8055 66.2628 44.6691 66.264ZM44.6691 59.1035C44.1006 59.1035 43.545 59.2721 43.0723 59.5879C42.5997 59.9037 42.2313 60.3526 42.0138 60.8778C41.7962 61.4029 41.7393 61.9808 41.8502 62.5383C41.9611 63.0958 42.2348 63.608 42.6368 64.0099C43.0387 64.4119 43.5509 64.6856 44.1084 64.7965C44.6659 64.9074 45.2438 64.8505 45.769 64.6329C46.2941 64.4154 46.743 64.047 47.0588 63.5744C47.3746 63.1017 47.5432 62.5461 47.5432 61.9776C47.5419 61.2157 47.2387 60.4854 46.7 59.9467C46.1613 59.408 45.431 59.1048 44.6691 59.1035Z" fill="#4F3CC9"/>
<path d="M110.359 65.3087C112.336 65.3087 113.939 63.7058 113.939 61.7285C113.939 59.7512 112.336 58.1482 110.359 58.1482C108.382 58.1482 106.779 59.7512 106.779 61.7285C106.779 63.7058 108.382 65.3087 110.359 65.3087Z" fill="white"/>
<path d="M110.358 66.016C109.511 66.016 108.682 65.7646 107.977 65.2936C107.272 64.8226 106.723 64.1531 106.398 63.3699C106.074 62.5867 105.989 61.7248 106.154 60.8933C106.32 60.0618 106.728 59.2981 107.327 58.6986C107.927 58.0992 108.691 57.6909 109.522 57.5255C110.354 57.3601 111.215 57.445 111.999 57.7694C112.782 58.0939 113.451 58.6433 113.922 59.3482C114.393 60.0531 114.645 60.8818 114.645 61.7296C114.643 62.866 114.191 63.9555 113.388 64.7591C112.584 65.5627 111.495 66.0147 110.358 66.016ZM110.358 58.8555C109.79 58.8555 109.234 59.024 108.762 59.3399C108.289 59.6557 107.921 60.1045 107.703 60.6297C107.485 61.1549 107.429 61.7327 107.539 62.2903C107.65 62.8478 107.924 63.3599 108.326 63.7619C108.728 64.1638 109.24 64.4375 109.798 64.5484C110.355 64.6593 110.933 64.6024 111.458 64.3849C111.983 64.1673 112.432 63.799 112.748 63.3263C113.064 62.8537 113.232 62.298 113.232 61.7296C113.231 60.9677 112.928 60.2374 112.389 59.6987C111.85 59.1599 111.12 58.8567 110.358 58.8555Z" fill="#4F3CC9"/>
<path d="M28.7421 80.1247H37.1384V108.52H28.7421V80.1247Z" fill="white"/>
<path d="M37.8456 109.229H28.037V79.4196H37.8456V109.229ZM29.4493 107.817H36.4333V80.832H29.4493V107.817Z" fill="#4F3CC9"/>
<path d="M51.9568 80.1247H60.3531V108.52H51.9568V80.1247Z" fill="white"/>
<path d="M61.0561 109.229H51.2498V79.4196H61.0561V109.229ZM52.6621 107.817H59.6437V80.832H52.6621V107.817Z" fill="#4F3CC9"/>
<path d="M75.1677 80.1247H83.564V108.52H75.1677V80.1247Z" fill="white"/>
<path d="M84.2712 109.229H74.4626V79.4196H84.2712V109.229ZM75.8749 107.817H82.8589V80.832H75.8749V107.817Z" fill="#4F3CC9"/>
<path d="M98.1344 80.1247H106.531V108.52H98.1344V80.1247Z" fill="white"/>
<path d="M107.245 109.229H97.4293V79.4196H107.245V109.229ZM98.8511 107.817H105.833V80.832H98.8417L98.8511 107.817Z" fill="#4F3CC9"/>
<path d="M121.347 80.1247H129.743V108.52H121.347V80.1247Z" fill="white"/>
<path d="M130.449 109.229H120.64V79.4196H130.449V109.229ZM122.053 107.817H129.036V80.832H122.053V107.817Z" fill="#4F3CC9"/>
<path d="M28.7421 114.941H37.1384V143.336H28.7421V114.941Z" fill="white"/>
<path d="M37.8456 144.043H28.037V114.236H37.8456V144.043ZM29.4493 142.631H36.4333V115.648H29.4493V142.631Z" fill="#4F3CC9"/>
<path d="M51.9568 114.941H60.3531V143.336H51.9568V114.941Z" fill="white"/>
<path d="M61.0561 144.043H51.2498V114.236H61.0561V144.043ZM52.6621 142.631H59.6437V115.648H52.6621V142.631Z" fill="#4F3CC9"/>
<path d="M75.1677 114.941H83.564V143.336H75.1677V114.941Z" fill="white"/>
<path d="M84.2712 144.043H74.4626V114.236H84.2712V144.043ZM75.8749 142.631H82.8589V115.648H75.8749V142.631Z" fill="#4F3CC9"/>
<path d="M98.1344 114.941H106.531V143.336H98.1344V114.941Z" fill="white"/>
<path d="M107.245 144.043H97.4293V114.236H107.245V144.043ZM98.8511 142.631H105.833V115.648H98.8417L98.8511 142.631Z" fill="#4F3CC9"/>
<path d="M121.347 114.941H129.743V143.336H121.347V114.941Z" fill="white"/>
<path d="M130.449 144.043H120.64V114.236H130.449V144.043ZM122.053 142.631H129.036V115.648H122.053V142.631Z" fill="#4F3CC9"/>
<path d="M145.58 86.7387C158.878 86.7387 169.658 75.9597 169.658 62.6632C169.658 49.3667 158.878 38.5877 145.58 38.5877C132.282 38.5877 121.502 49.3667 121.502 62.6632C121.502 75.9597 132.282 86.7387 145.58 86.7387Z" fill="white"/>
<path d="M145.579 87.4411C140.677 87.4411 135.886 85.9878 131.81 83.2649C127.734 80.5421 124.558 76.672 122.682 72.144C120.806 67.6161 120.314 62.6335 121.27 57.8265C122.226 53.0195 124.586 48.6038 128.052 45.1378C131.518 41.6719 135.933 39.3113 140.741 38.3545C145.548 37.3978 150.531 37.8879 155.06 39.7628C159.589 41.6378 163.46 44.8134 166.184 48.8881C168.908 52.9628 170.362 57.7536 170.363 62.6547C170.358 69.2261 167.745 75.527 163.099 80.1741C158.452 84.8213 152.151 87.4348 145.579 87.4411ZM145.579 39.2925C140.956 39.2925 136.437 40.6632 132.593 43.2314C128.75 45.7996 125.754 49.4498 123.985 53.7204C122.217 57.991 121.754 62.6901 122.657 67.2235C123.559 71.7569 125.786 75.9209 129.055 79.1889C132.324 82.4569 136.489 84.682 141.024 85.5829C145.558 86.4838 150.257 86.02 154.528 84.2502C158.798 82.4803 162.448 79.4839 165.015 75.6399C167.582 71.7959 168.952 67.277 168.951 62.6547C168.942 56.4601 166.477 50.5218 162.095 46.1423C157.714 41.7627 151.774 39.2993 145.579 39.2925ZM158.423 9.26168H159.835V33.9539H158.423V9.26168Z" fill="#4F3CC9"/>
<path d="M170.122 38.0233L187.655 20.9872L188.64 22L171.107 39.0362L170.122 38.0233Z" fill="#4F3CC9"/>
<path d="M175.058 48.9256H200V50.3379H175.058V48.9256Z" fill="#4F3CC9"/>
<path d="M140.518 73.3388C139.036 72.3863 137.87 70.9959 137.02 69.1677C136.169 67.3395 135.74 65.1685 135.732 62.6545C135.732 60.1437 136.158 57.9742 137.01 56.1461C137.862 54.3179 139.028 52.9275 140.508 51.975C142.028 51.0411 143.778 50.5467 145.562 50.5467C147.346 50.5467 149.095 51.0411 150.615 51.975C152.107 52.9291 153.28 54.3195 154.132 56.1461C154.984 57.9727 155.412 60.1422 155.417 62.6545C155.417 65.1653 154.992 67.3341 154.141 69.1607C153.291 70.9873 152.118 72.3776 150.624 73.3317C149.104 74.2656 147.355 74.76 145.571 74.76C143.787 74.76 142.038 74.2656 140.518 73.3317V73.3388ZM149.548 68.8829C150.523 67.491 151.011 65.4172 151.013 62.6616C151.014 59.906 150.526 57.8314 149.548 56.438C149.117 55.7797 148.524 55.2425 147.826 54.8776C147.129 54.5126 146.35 54.3318 145.563 54.3524C143.904 54.3524 142.586 55.0476 141.61 56.438C140.634 57.8283 140.147 59.9005 140.148 62.6545C140.148 65.4117 140.636 67.4855 141.61 68.8758C142.053 69.5191 142.646 70.0451 143.337 70.4085C144.029 70.7718 144.798 70.9617 145.579 70.9617C146.36 70.9617 147.13 70.7718 147.821 70.4085C148.513 70.0451 149.105 69.5191 149.548 68.8758V68.8829Z" fill="#FF8B6A"/>
<path d="M145.564 75.4735C143.643 75.5001 141.756 74.9642 140.135 73.9317C138.549 72.9101 137.284 71.4084 136.369 69.4593C135.453 67.5103 135.027 65.2647 135.027 62.6543C135.027 60.0438 135.479 57.7606 136.371 55.8469C137.263 53.9332 138.539 52.4031 140.138 51.3745C141.772 50.3672 143.654 49.8338 145.573 49.8338C147.493 49.8338 149.375 50.3672 151.009 51.3745C152.668 52.4726 153.976 54.0253 154.776 55.8469C155.668 57.7606 156.12 60.0509 156.12 62.6543C156.12 65.2577 155.668 67.5456 154.776 69.4593C153.883 71.373 152.6 72.9054 151.009 73.9317C149.382 74.9626 147.49 75.4983 145.564 75.4735ZM145.564 51.2592C143.918 51.2369 142.302 51.6941 140.912 52.575C139.554 53.4506 138.462 54.7547 137.673 56.4518C136.884 58.149 136.439 60.2651 136.439 62.6543C136.439 65.0435 136.847 67.1384 137.652 68.8638C138.457 70.5892 139.535 71.8627 140.891 72.7383C142.297 73.5998 143.915 74.0557 145.564 74.0557C147.213 74.0557 148.83 73.5998 150.237 72.7383C151.605 71.865 152.702 70.561 153.493 68.8662C154.284 67.1714 154.703 65.0505 154.703 62.6566C154.703 60.2627 154.295 58.1843 153.493 56.4471C152.801 54.8704 151.671 53.5255 150.237 52.5726C148.839 51.6922 147.216 51.236 145.564 51.2592ZM145.564 71.6743C143.681 71.6743 142.143 70.8717 141.035 69.2875C139.978 67.7834 139.441 65.5543 139.441 62.6614C139.441 59.7684 139.978 57.5393 141.035 56.0328C141.543 55.2973 142.222 54.696 143.014 54.2807C143.806 53.8655 144.687 53.6485 145.582 53.6485C146.476 53.6485 147.357 53.8655 148.149 54.2807C148.941 54.696 149.62 55.2973 150.129 56.0328C151.183 57.5369 151.72 59.7684 151.72 62.6614C151.72 65.5543 151.183 67.7834 150.129 69.2875C149.633 70.0401 148.954 70.6541 148.155 71.0716C147.357 71.4892 146.465 71.6966 145.564 71.6743ZM145.564 55.0607C144.896 55.0426 144.234 55.1974 143.643 55.51C143.052 55.8225 142.552 56.2824 142.19 56.8449C141.303 58.1066 140.853 60.065 140.853 62.6614C140.853 65.2577 141.303 67.2137 142.19 68.4778C142.569 69.0278 143.075 69.4777 143.666 69.7884C144.257 70.0992 144.914 70.2616 145.582 70.2616C146.249 70.2616 146.907 70.0992 147.497 69.7884C148.088 69.4777 148.595 69.0278 148.973 68.4778C149.858 67.2137 150.308 65.2577 150.308 62.6614C150.308 60.065 149.858 58.1066 148.973 56.8449C148.606 56.2796 148.099 55.8183 147.502 55.5058C146.905 55.1933 146.238 55.0399 145.564 55.0607Z" fill="#4F3CC9"/>
</svg>
