<svg width="270" height="270" viewBox="0 0 270 270" fill="none" xmlns="http://www.w3.org/2000/svg">
<path d="M208.844 135.157C208.72 136.588 209.255 143.684 207.419 143.457C207.328 143.434 207.242 143.396 207.165 143.344C206.01 143.958 204.734 144.311 203.428 144.375C193.929 145.19 184.42 145.73 174.916 146.368C172.162 146.454 169.548 147.07 166.854 147.388C163.873 147.426 160.914 147.82 157.928 147.653C156.966 147.534 156.124 147.475 155.228 147.302C155.173 147.296 155.119 147.279 155.071 147.252C155.023 147.225 154.981 147.188 154.948 147.144C154.915 147.099 154.891 147.049 154.879 146.995C154.866 146.941 154.865 146.885 154.875 146.831C154.885 146.777 154.907 146.725 154.938 146.679C154.969 146.634 155.009 146.595 155.056 146.566C155.103 146.536 155.155 146.517 155.21 146.509C155.264 146.501 155.32 146.504 155.373 146.519C155.809 146.603 156.249 146.661 156.691 146.692C156.48 146.184 156.691 145.369 156.615 144.861C156.561 142.858 156.162 140.881 156 138.889C155.859 136.648 156.054 134.347 155.46 132.166C155.422 131.956 155.357 131.753 155.265 131.561C155.225 131.591 155.179 131.614 155.13 131.627C155.081 131.64 155.03 131.643 154.98 131.636C154.929 131.629 154.881 131.612 154.837 131.586C154.794 131.56 154.756 131.526 154.725 131.485C154.684 131.43 154.658 131.365 154.65 131.296C154.285 131.128 153.894 131.026 153.494 130.994C153.975 131.242 154.958 131.258 154.882 131.993C154.87 132.064 154.843 132.133 154.804 132.194C154.765 132.255 154.714 132.307 154.654 132.348C154.594 132.389 154.526 132.417 154.455 132.431C154.384 132.445 154.31 132.445 154.239 132.43C151.975 131.904 149.652 131.67 147.327 131.734C143.277 131.615 139.227 131.345 135.194 131.307C129.005 131.01 122.973 132.176 116.79 131.944C116.596 131.995 116.389 131.967 116.215 131.866C116.04 131.765 115.914 131.599 115.862 131.404C115.813 131.251 115.813 131.087 115.862 130.934C114.684 130.983 113.507 131.01 112.33 130.994C103.663 130.994 95.0986 132.484 86.4533 132.889C82.6301 132.889 78.7583 132.97 74.9621 133.143C72.2702 133.547 69.5517 133.748 66.8296 133.742C66.8674 134.282 66.9106 134.822 66.9214 135.362C66.9455 135.456 66.9506 135.553 66.9363 135.649C66.922 135.745 66.8888 135.837 66.8384 135.919C66.7881 136.002 66.7217 136.073 66.6432 136.13C66.5647 136.186 66.4757 136.226 66.3814 136.248C66.2906 136.267 66.1969 136.267 66.106 136.248C65.9475 136.215 65.8048 136.129 65.701 136.005C64.621 136.151 65.161 134.126 64.9018 133.445C64.6534 131.167 64.5184 128.85 64.4212 126.577C64.4212 125.794 64.3132 124.919 64.6696 124.201C64.1296 118.471 63.9838 112.693 63.7246 106.964C63.6274 105.589 63.5464 104.212 63.4816 102.833C63.4727 102.7 63.5164 102.569 63.6032 102.468C63.6901 102.367 63.8133 102.304 63.946 102.293C64.0617 102.282 64.1773 102.314 64.27 102.385C64.2268 100.64 64.108 98.8907 63.9568 97.1465C63.9305 97.1098 63.9138 97.0671 63.9082 97.0223C63.7678 95.8613 63.6706 94.7003 63.6058 93.5339C63.4438 91.9139 63.271 90.3263 63.1144 88.7387C63.0766 86.8055 63.0551 84.8723 63.0335 82.9391C63.0011 82.3289 62.9902 81.7781 62.9794 81.1787C62.6392 75.8975 62.6284 70.6325 62.5312 65.3567C62.5312 62.8403 62.5636 60.2699 62.5312 57.7643C62.5368 57.6702 62.5789 57.5821 62.6485 57.5185C62.718 57.455 62.8097 57.4211 62.9038 57.4241C62.9511 57.4255 62.9977 57.4363 63.0407 57.4558C63.0838 57.4754 63.1226 57.5033 63.1547 57.538C63.1869 57.5727 63.2118 57.6134 63.2281 57.6578C63.2444 57.7022 63.2516 57.7495 63.2494 57.7967V58.1261C63.443 56.8244 63.8061 55.5536 64.3294 54.3461L64.027 54.4757C63.9759 54.471 63.9262 54.4562 63.8808 54.4321C63.8354 54.4081 63.7952 54.3753 63.7626 54.3356C63.73 54.2959 63.7055 54.2502 63.6907 54.201C63.6758 54.1518 63.6708 54.1002 63.676 54.0491C63.682 53.9734 63.7104 53.9011 63.7575 53.8415C63.8046 53.7819 63.8683 53.7376 63.9407 53.7143C64.2917 53.5037 64.6426 53.2823 64.9882 53.0555C65.2751 52.5761 65.5983 52.1194 65.9548 51.6893C66.0366 51.5818 66.1558 51.5088 66.2887 51.4848C66.4217 51.4608 66.5588 51.4875 66.673 51.5597C66.7319 51.6013 66.7818 51.6543 66.8198 51.7155C66.8578 51.7767 66.8832 51.8449 66.8944 51.9161C67.2033 51.7591 67.5226 51.6238 67.8502 51.5111C69.8158 50.9711 71.8301 50.7875 73.8227 50.4311C73.7065 50.3607 73.6179 50.2527 73.5717 50.125C73.5255 49.9972 73.5245 49.8575 73.5689 49.7291C73.6117 49.604 73.6936 49.4961 73.8025 49.4212C73.9114 49.3463 74.0416 49.3085 74.1736 49.3133C74.8432 49.3133 75.5128 49.4105 76.1878 49.4321C78.8819 49.3321 81.5691 49.096 84.2392 48.7247C87.328 48.4223 90.4384 48.4493 93.5326 48.2441C95.0986 48.1253 96.6646 48.2441 98.2252 48.0875C99.397 48.0173 100.677 47.7311 101.8 48.1847H102.88C104.414 48.2279 106.066 47.8229 107.54 48.3413C108.507 48.4439 111.806 47.9741 113.734 48.2063H113.837C113.837 47.6663 114.452 47.6663 114.857 47.6663C119.798 47.4287 124.761 47.5043 129.707 47.4503C134.416 47.3369 139.141 46.0247 143.85 46.7159C143.914 46.7281 143.975 46.753 144.029 46.7891C144.083 46.8253 144.129 46.8719 144.165 46.9263C144.201 46.9807 144.225 47.0418 144.237 47.1058C144.249 47.1698 144.247 47.2356 144.233 47.2991C144.226 47.3486 144.21 47.3962 144.185 47.4395C147.56 47.2289 155.643 46.1381 156.648 47.3261H158.451C163.414 46.9319 168.371 46.4027 173.355 46.3271H173.404C174.152 46.3065 174.9 46.3535 175.64 46.4675C175.666 46.4613 175.694 46.4613 175.721 46.4675L177.702 46.3757C177.739 46.3319 177.784 46.2962 177.835 46.2711C177.887 46.246 177.942 46.2319 177.999 46.2299C179.787 46.1975 181.574 46.0895 183.356 45.9653L185.937 45.7385C188.448 45.5387 190.986 45.4091 193.497 45.3605C195.117 45.3605 196.737 45.2363 198.39 45.2741C198.479 45.2233 198.58 45.1989 198.683 45.2037C198.785 45.2085 198.884 45.2423 198.968 45.3011C199.324 45.3011 199.675 45.3443 200.048 45.3929C200.133 45.4275 200.208 45.4834 200.266 45.5553C200.323 45.6271 200.362 45.7125 200.377 45.8033C201.668 46.5485 202.478 48.0227 203.239 49.2593L203.271 49.3187C203.46 49.5509 203.639 49.7939 203.811 50.0423C204.533 51.19 205.108 52.4236 205.523 53.7143C206.549 56.2037 206.393 58.9199 206.63 61.5497C206.825 63.5693 206.9 65.5943 206.97 67.6193C207.073 67.6262 207.168 67.6721 207.238 67.7474C207.307 67.8228 207.345 67.9219 207.343 68.0243V71.6531C207.559 75.5033 207.915 79.3427 207.764 83.1983C207.624 84.1055 208.04 87.8477 207.408 89.0033C207.408 89.6459 207.365 90.2777 207.348 90.9149V94.2845C207.392 98.5019 207.683 102.703 208.131 106.894C208.391 110.371 208.229 113.865 208.493 117.321C208.52 120.021 208.542 122.721 208.769 125.459C208.844 128.704 208.806 131.939 208.844 135.157ZM138.952 130.043C141.225 130.114 143.493 130.216 145.761 130.292C143.704 130.146 141.485 129.968 139.481 129.984L138.941 130.043H138.952Z" fill="white"/>
<path d="M162.178 143.068C161.606 142.89 161.039 142.685 160.483 142.453L160.294 142.372C160.261 141.589 160.234 140.811 160.218 140.028C160.206 138.534 160.052 137.044 159.759 135.579C159.496 134.249 158.926 132.999 158.096 131.928C157.626 131.347 157.097 130.815 156.519 130.341C155.814 129.72 155.034 129.191 154.197 128.764C153.64 128.494 153.065 128.267 152.474 128.083C152.348 128.014 152.218 127.951 152.086 127.894C151.141 127.486 150.151 127.192 149.137 127.02C147.953 126.826 146.756 126.727 145.557 126.723C143.219 126.652 140.886 126.485 138.537 126.517C133.85 126.588 129.163 126.561 124.465 126.561C123.233 126.561 121.997 126.561 120.76 126.593C119.351 126.631 117.952 126.706 116.543 126.777C114.151 126.895 111.753 127.052 109.355 127.192H109.042H109.118L108.356 127.236H108.675L105.77 127.419C100.91 127.732 96.0174 128.083 91.1412 128.364C88.6842 128.505 86.2272 128.569 83.7756 128.661C81.513 128.742 79.2612 128.823 77.004 128.845C74.7468 128.866 72.4896 128.688 70.2324 128.764L69.1524 128.802C69.0606 127.133 68.958 125.459 68.7906 123.801C68.5206 121.22 68.2074 118.644 67.9158 116.068C67.6782 113.908 67.3758 111.792 67.1922 109.642C66.9492 106.942 66.7656 104.275 66.6036 101.58C66.4416 98.8856 66.2094 96.2558 66.0636 93.5882C65.9178 90.9206 65.7126 88.388 65.583 85.7798C65.4534 83.1716 65.3454 80.4284 65.259 77.7554C65.2617 77.7195 65.2617 77.6833 65.259 77.6474V77.4854L65.2266 75.7682C65.2266 73.6406 65.3562 71.5184 65.502 69.3908C65.6528 67.3597 65.9178 65.3387 66.2958 63.3374C66.366 63.008 66.4416 62.684 66.5118 62.36C66.7771 61.2408 67.0998 60.1359 67.4784 59.0498L67.3434 59.39L67.5216 58.9418C67.7862 58.3316 68.0616 57.7538 68.4072 57.1814C68.7096 56.69 69.0174 56.2094 69.3576 55.745C69.5628 55.4912 69.7788 55.2536 70.0056 55.016C70.2324 54.7784 70.3674 54.6974 70.5456 54.5408C70.8156 54.3536 71.091 54.1736 71.3718 54.0008C71.9118 53.7254 72.4518 53.4608 72.9918 53.2124C74.5614 52.5932 76.1508 52.0172 77.76 51.4844C78.9966 51.3764 80.2332 51.3062 81.4698 51.2306C84.6126 51.074 87.7662 51.0686 90.9144 51.0092C94.0626 50.9498 97.065 50.8742 100.143 50.7824C104.771 50.6474 109.399 50.4584 114.026 50.4584C116.267 50.4584 118.514 50.4908 120.749 50.6366C123.082 50.7878 125.404 50.9822 127.732 51.1766C130.21 51.3548 132.683 51.398 135.167 51.3548C137.36 51.3224 139.552 51.2468 141.745 51.1766C146.54 51.0182 151.33 50.8184 156.114 50.5772H155.779L157.907 50.4746L160.067 50.3774C161.897 50.3342 163.723 50.3018 165.553 50.291C167.384 50.2802 169.074 50.291 170.834 50.2532C173.183 50.1884 175.527 50.1074 177.881 50.0804C180.236 50.0534 182.525 49.9832 184.853 49.9022C189.362 49.7456 193.882 49.589 198.396 49.6268L198.509 49.6646C198.682 49.724 198.844 49.805 199.012 49.8752C199.179 49.9454 199.46 50.129 199.676 50.2586C199.897 50.7446 200.081 51.2414 200.275 51.7382C200.561 52.5968 200.815 53.4554 201.031 54.3356C201.344 55.7072 201.609 57.0788 201.787 58.4774C202.144 61.4042 202.327 64.331 202.495 67.2686C202.667 71.4122 202.792 75.5522 202.867 79.6886C202.916 83.0852 202.981 86.4818 202.986 89.873C202.986 93.032 203.105 96.1856 203.229 99.3392V98.918C203.386 103.351 203.515 107.779 203.548 112.218C203.548 116.495 203.499 120.772 203.548 125.049C203.548 127.111 203.596 129.174 203.602 131.242C203.602 133.1 203.521 134.947 203.396 136.799C203.359 137.204 203.337 137.614 203.267 138.009C203.197 138.403 203.116 138.813 203.045 139.213L202.937 139.612L202.786 139.742L202.619 139.877C200.308 140.151 198 140.422 195.696 140.692C194 140.871 192.305 141.049 190.615 141.232C188.789 141.405 186.964 141.551 185.139 141.697C181.683 141.972 178.222 142.156 174.766 142.334C171.158 142.518 167.551 142.69 163.966 143.036L163.031 143.139L162.178 143.068ZM198.455 49.6808L198.639 49.7456L198.455 49.6808ZM206.059 57.3488H206.113C206.15 57.581 206.183 57.8186 206.215 58.0562C206.167 57.8294 206.113 57.5918 206.059 57.3488Z" fill="#FF8B6A"/>
<path d="M129.762 110.884C129.503 110.831 129.257 110.727 129.039 110.576C128.911 110.485 128.803 110.369 128.72 110.236C128.24 110.425 127.775 110.657 127.284 110.819C127.124 110.866 126.953 110.861 126.796 110.805C126.639 110.75 126.503 110.647 126.408 110.511C126.312 110.375 126.261 110.212 126.262 110.046C126.263 109.879 126.317 109.717 126.414 109.583C126.078 109.743 125.706 109.814 125.334 109.788C125.169 109.747 125.021 109.653 124.916 109.518C124.81 109.384 124.753 109.219 124.753 109.048C124.753 108.877 124.81 108.712 124.916 108.578C125.021 108.443 125.169 108.349 125.334 108.308V108.254C124.627 108.384 123.601 109.021 123.174 108.141C123.093 107.941 123.091 107.718 123.17 107.517C123.248 107.316 123.4 107.153 123.596 107.061C123.644 107.039 123.695 107.023 123.747 107.012C123.288 106.872 122.883 106.607 122.899 106.073C122.953 105.797 123.045 105.441 123.369 105.376C123.685 105.379 124 105.4 124.314 105.441C128.04 105.673 131.809 104.868 135.497 104.48C138.737 104.161 141.939 103.988 145.098 103.194C145.87 102.989 146.629 102.74 147.372 102.449C147.577 102.345 147.806 102.297 148.035 102.311C148.265 102.324 148.487 102.398 148.679 102.525C149.278 103.13 148.63 103.864 148.009 104.118C147.906 104.517 147.383 104.501 147.053 104.604C143.262 105.802 139.344 106.554 135.378 106.845C135.334 106.997 135.233 107.126 135.098 107.207C133.71 107.973 132.29 108.686 130.848 109.367C132.3 109.156 133.731 108.827 135.168 108.648C135.194 108.566 135.247 108.495 135.318 108.446C135.39 108.397 135.476 108.373 135.562 108.378C136.102 108.378 136.642 108.459 137.209 108.508C137.371 108.508 137.527 108.572 137.642 108.686C137.758 108.801 137.823 108.956 137.825 109.118C137.826 109.205 137.809 109.29 137.775 109.37C137.74 109.449 137.689 109.52 137.625 109.577C137.415 109.72 137.193 109.842 136.961 109.944C135.491 110.442 133.966 110.76 132.419 110.889C131.539 111.034 130.642 111.032 129.762 110.884Z" fill="white"/>
<path d="M132.699 110.646C131.399 110.466 130.128 110.116 128.919 109.604C128.69 109.491 128.508 109.299 128.406 109.064C128.381 108.985 128.372 108.901 128.379 108.818C128.387 108.735 128.41 108.654 128.449 108.581C128.488 108.507 128.541 108.441 128.605 108.388C128.669 108.335 128.743 108.295 128.822 108.27H128.908C129.297 108.184 129.448 108.546 129.762 108.632C130.178 108.313 130.645 108.066 131.144 107.903C130.064 105.554 144.698 104.55 146.399 103.119C146.507 103.058 146.626 103.02 146.749 103.006C146.872 102.992 146.996 103.002 147.115 103.036C147.234 103.071 147.345 103.128 147.442 103.205C147.539 103.282 147.619 103.378 147.679 103.486C147.703 103.527 147.723 103.57 147.738 103.615C147.976 104.204 147.285 104.695 146.966 104.998C145.772 106.175 144.458 107.225 143.046 108.13C139.984 109.993 136.301 111.24 132.699 110.646Z" fill="white"/>
<path d="M133.142 119.773C131.009 119.627 128.778 119.233 126.926 118.153C125.846 117.165 124.556 116.495 123.686 115.297C123.249 114.886 122.606 114.508 122.606 113.833C122.596 113.554 122.685 113.28 122.857 113.06C123.029 112.84 123.273 112.687 123.546 112.629C124.042 112.173 124.585 111.771 125.166 111.43C126.726 110.809 128.341 109.616 130.069 109.81C130.137 109.849 130.196 109.901 130.244 109.962C130.291 110.024 130.326 110.095 130.346 110.17C130.367 110.245 130.371 110.324 130.361 110.401C130.35 110.479 130.325 110.553 130.285 110.62C130.21 110.75 130.089 110.846 129.946 110.891C129.802 110.935 129.648 110.923 129.513 110.858C127.806 111.673 126.392 113.018 124.745 113.914C125.73 114.939 126.803 115.875 127.952 116.711C128.523 116.923 129.106 117.104 129.696 117.251C131.635 117.872 133.806 117.489 135.68 118.25C136.997 119.579 133.989 119.881 133.142 119.773Z" fill="white"/>
<path d="M143.202 113.147C143.958 113.925 142.3 115.113 141.803 115.669C144.282 114.411 146.047 112.089 147.743 109.994C145.956 109.994 143.963 109.583 142.219 109.783C141.039 109.915 139.881 110.191 138.768 110.604C138.666 110.799 138.525 110.97 138.352 111.106L138.288 111.171C139.092 111.317 138.714 112.132 138.336 112.537C138.784 112.143 139.621 112.105 139.702 112.834C139.869 112.809 140.04 112.839 140.188 112.921C140.365 113.015 140.498 113.173 140.561 113.363C140.744 113.185 140.989 113.085 141.244 113.085C141.499 113.085 141.745 113.185 141.927 113.363C142.305 113.11 142.797 112.759 143.202 113.147ZM134.718 119.455C133.735 119.455 132.742 119.131 131.797 119.201C131.68 119.312 131.527 119.377 131.366 119.383C131.205 119.388 131.047 119.335 130.923 119.233C130.799 119.13 130.716 118.986 130.691 118.827C130.666 118.668 130.7 118.505 130.787 118.369C129.853 119.374 128.503 118.402 129.459 117.289C128.973 117.829 127.893 117.732 127.839 116.9C127.417 117.268 126.829 117.727 126.278 117.322C126.098 117.185 125.977 116.986 125.938 116.763C125.899 116.541 125.945 116.312 126.067 116.123C125.101 116.447 124.852 115.34 125.463 114.735C124.782 115.194 123.783 114.816 124.123 113.898C124.464 112.98 125.365 112.483 126.046 111.846C126.509 111.294 127.019 110.783 127.569 110.318C128.719 109.664 130.161 110.199 131.435 109.951C133.26 109.848 135.069 109.559 136.835 109.087C139.319 108.385 141.733 107.467 144.352 107.677C145.815 107.774 147.225 108.26 148.672 108.417C150.335 108.509 150.103 109.762 149.158 110.701C147.635 112.526 146.323 114.578 144.433 116.069C141.668 118.256 138.282 119.714 134.713 119.438L134.718 119.455Z" fill="white"/>
<path d="M140.676 117.062C140.585 117.053 140.497 117.026 140.417 116.983C140.337 116.941 140.266 116.883 140.208 116.812C140.151 116.742 140.107 116.661 140.081 116.574C140.055 116.487 140.046 116.396 140.055 116.306C140.052 116.277 140.052 116.248 140.055 116.219C140.281 115.614 140.881 115.236 141.345 114.815C141.197 114.923 141.025 114.992 140.843 115.015C140.716 115.023 140.589 114.997 140.476 114.939C140.368 115.126 140.19 115.262 139.981 115.318C139.773 115.373 139.55 115.344 139.363 115.236C139.184 115.136 139.05 114.969 138.991 114.772C138.93 114.757 138.872 114.733 138.818 114.702C138.698 114.636 138.596 114.542 138.52 114.428C138.443 114.315 138.396 114.184 138.381 114.048C138.23 114.065 138.078 114.044 137.938 113.987C137.797 113.931 137.673 113.84 137.576 113.724C137.49 113.621 137.429 113.5 137.396 113.37C137.364 113.241 137.36 113.105 137.387 112.974L137.338 112.941C137.152 113.133 136.898 113.242 136.631 113.245C136.364 113.249 136.107 113.146 135.916 112.96C135.724 112.774 135.615 112.52 135.611 112.253C135.608 111.986 135.71 111.729 135.897 111.537C135.941 111.492 135.99 111.45 136.042 111.413C136.582 111.105 137.214 110.981 137.76 110.684C138.462 110.069 139.482 108.967 140.46 109.458C141.091 109.205 141.88 108.427 142.533 108.978C143.116 108.605 144.153 107.541 144.661 108.551C144.823 108.576 144.969 108.661 145.071 108.789C145.187 108.931 145.243 109.113 145.228 109.296C145.47 109.09 145.732 108.909 146.011 108.756C146.093 108.721 146.181 108.702 146.27 108.7C146.359 108.699 146.448 108.715 146.531 108.749C146.614 108.782 146.689 108.831 146.753 108.894C146.816 108.956 146.867 109.031 146.902 109.113C146.95 109.227 146.967 109.352 146.95 109.475C147.193 109.323 147.701 109.053 147.809 109.475C147.987 109.637 147.858 109.885 147.809 110.069C147.194 111.486 146.308 112.77 145.201 113.849C144.14 114.859 143.001 115.784 141.793 116.613C141.481 116.883 141.088 117.041 140.676 117.062ZM165.159 90.58C165.197 90.0778 165.597 89.6943 165.634 89.1975C165.582 88.511 165.385 87.8433 165.058 87.2376C164.731 86.632 164.279 86.102 163.734 85.6821C162.715 85.1262 161.553 84.8882 160.398 84.9989C159.243 85.1096 158.148 85.5639 157.254 86.3032C156.873 86.8098 156.432 87.2685 155.941 87.6694C155.391 88.5869 154.954 89.5679 154.64 90.5907C154.601 90.7544 154.5 90.8961 154.357 90.9851C154.215 91.0742 154.043 91.1032 153.879 91.0659C152.556 90.6771 154.478 88.0689 154.743 87.2859C154.816 87.0132 154.985 86.7756 155.218 86.6163C156.024 85.6698 156.952 84.8345 157.977 84.1323C160.677 82.9227 164.457 83.0523 166.353 85.6065C166.952 86.5488 167.377 87.5915 167.605 88.6845C167.703 89.2503 167.596 89.8322 167.304 90.3266C167.012 90.821 166.555 91.1959 166.012 91.3845C165.836 91.4365 165.645 91.4162 165.483 91.3282C165.321 91.2401 165.201 91.0914 165.148 90.9147C165.122 90.8048 165.122 90.6899 165.148 90.58H165.159Z" fill="white"/>
<path d="M157.081 94.9705C152.296 95.0029 152.761 90.2509 154.629 87.2269C155.007 86.6869 155.79 87.3781 155.304 87.8155C154.948 89.4679 154.1 91.5415 155.347 92.9941C157.766 94.2739 160.407 92.4541 162.815 91.9735C163.269 91.8547 164.781 91.4335 164.349 92.3623C162.341 94.1161 159.746 95.0475 157.081 94.9705Z" fill="white"/>
<path d="M155.681 93.9619C154.504 93.3247 154.186 91.9153 154.245 90.6841C154.321 89.9983 154.034 88.6483 155.12 88.7941C156.043 89.0749 155.363 90.0631 155.563 90.7759C155.838 92.6983 156.848 92.3959 158.371 92.7253C158.445 92.7539 158.512 92.797 158.57 92.852C158.627 92.907 158.673 92.9728 158.705 93.0457C158.736 93.1185 158.753 93.1969 158.754 93.2764C158.755 93.3558 158.741 93.4347 158.711 93.5083C158.695 93.5524 158.673 93.5941 158.646 93.6325C158.003 94.6369 156.567 94.5019 155.681 93.9619ZM161.422 91.9369C161.233 91.2565 161.611 90.6031 161.805 89.9659C162.151 88.9674 162.112 87.8758 161.697 86.9041C161.476 86.1643 160.752 85.7809 160.558 85.0681C160.487 84.5281 161.33 84.4525 161.26 85.0033C165.596 87.1579 163.079 94.4317 161.422 91.9369Z" fill="white"/>
<path d="M162.94 91.3538C163.005 90.7223 163.188 90.1087 163.48 89.5448C163.618 88.8677 163.611 88.1687 163.459 87.4945C163.306 86.8203 163.011 86.1864 162.594 85.6352C162.501 85.5353 162.433 85.4144 162.397 85.2829C162.36 85.1513 162.355 85.0129 162.383 84.8792C162.545 84.2852 163.534 84.3392 163.463 85.0196C165.332 86.2778 166.25 89.075 165.17 91.1162C164.7 92.18 163.253 92.8442 162.94 91.3538Z" fill="white"/>
<path d="M162.636 91.692C162.345 91.0386 162.761 90.2394 162.685 89.5968C162.728 88.3926 161.913 87.6258 161.416 86.7132C161.119 85.779 160.233 85.482 159.575 84.8718C159.428 84.6904 159.339 84.4702 159.316 84.2384C159.294 84.0066 159.339 83.7732 159.448 83.5671C159.556 83.361 159.723 83.1912 159.927 83.0786C160.131 82.9659 160.363 82.9154 160.595 82.9332C162.42 83.3814 163.635 85.2012 164.408 86.8104C164.64 87.1636 164.753 87.5816 164.732 88.0038C165.034 89.2944 165.272 90.9738 164.024 91.854C163.619 92.1618 162.842 92.34 162.636 91.692Z" fill="white"/>
<path d="M162.033 93.0496C161.266 92.2612 163.226 90.7978 163.393 89.9662C163.392 89.7398 163.475 89.5212 163.628 89.3541C163.781 89.1871 163.991 89.0839 164.217 89.0655C164.442 89.047 164.667 89.1146 164.844 89.2546C165.022 89.3946 165.14 89.5967 165.175 89.8204C165.192 89.9096 165.192 90.0011 165.175 90.0904C164.856 91.0199 164.297 91.8487 163.555 92.4934C163.129 92.8498 162.594 93.5518 162.033 93.0496Z" fill="white"/>
<path d="M158.317 94.9856C157.61 94.8884 156.924 94.6778 156.216 94.5644C156.095 94.5336 155.99 94.4566 155.924 94.3496C155.859 94.2427 155.838 94.1143 155.865 93.992C155.879 93.9311 155.904 93.8735 155.94 93.8225C155.976 93.7715 156.022 93.7282 156.074 93.695C156.127 93.6618 156.186 93.6395 156.247 93.6293C156.309 93.6191 156.372 93.6212 156.432 93.6356C157.944 93.8516 159.424 93.1658 160.92 92.9714C163.08 92.2532 165.288 91.2866 166.498 89.2184C166.471 88.7864 166.147 88.2194 166.606 87.9224C167.54 87.539 168.005 89.0024 167.826 89.699C167.475 91.4648 165.963 92.6852 164.559 93.6626C162.637 94.6292 160.434 94.8722 158.317 94.9856Z" fill="white"/>
<path d="M164.193 90.9144C164.036 90.6918 163.968 90.4177 164.004 90.1472C164.04 89.8767 164.177 89.6299 164.388 89.4564C164.535 89.3455 164.659 89.2061 164.752 89.0466C164.844 88.8871 164.904 88.7106 164.928 88.5276C164.765 88.4042 164.657 88.2218 164.628 88.0197C164.599 87.8176 164.65 87.6121 164.771 87.4476C164.808 87.4036 164.848 87.3621 164.89 87.3234C165.543 86.7834 166.386 87.5664 166.348 88.2792C166.443 88.2997 166.533 88.3388 166.613 88.3941C166.693 88.4494 166.761 88.52 166.814 88.6018C166.867 88.6835 166.903 88.7748 166.92 88.8705C166.937 88.9662 166.936 89.0644 166.915 89.1594C166.899 89.2224 166.877 89.2839 166.85 89.343C166.697 89.6064 166.516 89.8526 166.31 90.0774C165.781 90.6444 164.955 91.7352 164.193 90.9144ZM161.461 90.72C159.949 89.91 161.898 87.7176 162.26 86.6484C161.374 86.7942 160.64 88.0362 159.668 87.5772C159.576 87.527 159.496 87.4592 159.43 87.3777C159.365 87.2962 159.316 87.2026 159.287 87.1022C159.258 87.0019 159.249 86.8968 159.261 86.793C159.272 86.6892 159.304 86.5887 159.355 86.4972C159.437 86.355 159.559 86.2403 159.706 86.1678C159.916 86.0706 160.122 85.968 160.316 85.8654C161.202 85.374 162.244 84.7854 163.281 85.104C164.506 85.3146 165.225 88.101 163.491 87.9606C163.162 88.8894 162.816 91.1088 161.461 90.72ZM98.8695 96.6276C98.8565 96.4454 98.8986 96.2635 98.9902 96.1054C99.0818 95.9473 99.2187 95.8204 99.3832 95.741C99.5478 95.6616 99.7324 95.6334 99.9131 95.6601C100.094 95.6868 100.262 95.7671 100.397 95.8907C100.532 96.0142 100.626 96.1753 100.668 96.3531C100.71 96.5309 100.698 96.7173 100.633 96.888C100.567 97.0587 100.453 97.2059 100.303 97.3107C100.153 97.4154 99.9756 97.4728 99.7929 97.4754C99.5598 97.4788 99.3343 97.3928 99.1626 97.2352C98.9909 97.0775 98.886 96.8601 98.8695 96.6276Z" fill="white"/>
<path d="M111.684 97.2823C111.376 96.6019 111.759 95.9971 111.603 95.3221C111.365 94.0747 111.387 92.4169 110.296 91.5961C109.605 90.9535 108.676 90.8401 107.828 90.6511C107.007 90.5971 106.165 90.3919 105.398 90.7699C103.541 91.1965 102.423 93.0487 101.456 94.5499C100.868 95.4571 101.046 97.6657 99.5608 97.4389C98.308 97.0879 99.0208 95.7163 99.2476 94.8631C99.5346 93.6741 100.089 92.5661 100.868 91.6231C101.712 90.3675 102.929 89.4083 104.347 88.8804C105.765 88.3525 107.313 88.2825 108.773 88.6801C109.718 88.8961 110.793 88.9393 111.473 89.6953C112.003 90.0264 112.422 90.5076 112.677 91.0777C113.633 92.8489 114.773 96.4777 112.397 97.6009C112.259 97.6441 112.111 97.6355 111.98 97.5768C111.848 97.5181 111.743 97.4133 111.684 97.2823Z" fill="white"/>
<path d="M103.999 99.0327C102.055 99.0327 99.3118 98.7303 98.7502 96.4947C98.748 96.3919 98.7662 96.2896 98.8036 96.1938C98.841 96.098 98.8968 96.0105 98.9681 95.9363C99.0393 95.8621 99.1244 95.8026 99.2186 95.7613C99.3127 95.72 99.4141 95.6976 99.517 95.6955C99.6198 95.6934 99.722 95.7115 99.8178 95.7489C99.9137 95.7863 100.001 95.8422 100.075 95.9134C100.15 95.9846 100.209 96.0697 100.25 96.1639C100.292 96.2581 100.314 96.3595 100.316 96.4623C103.086 98.4873 106.758 96.7215 109.88 97.0401C109.936 97.0539 109.99 97.079 110.037 97.1138C110.084 97.1486 110.123 97.1925 110.153 97.2428C110.183 97.2932 110.202 97.3489 110.21 97.4069C110.217 97.4648 110.214 97.5237 110.198 97.5801C110.18 97.6507 110.145 97.7157 110.096 97.7691C109.935 97.925 109.753 98.0577 109.556 98.1633C107.833 98.9463 105.84 99.0381 103.999 99.0327Z" fill="white"/>
<path d="M103.307 98.3727C103.164 98.3318 103.028 98.27 102.902 98.1891C102.683 98.3041 102.435 98.3549 102.188 98.3358C101.94 98.3167 101.703 98.2284 101.504 98.0811C101.424 98.0213 101.352 97.9524 101.288 97.8759C101.076 97.9193 100.856 97.9084 100.649 97.8442C100.443 97.78 100.255 97.6646 100.105 97.5087C98.7389 96.9147 99.6947 95.8023 100.402 95.1057C101.575 93.3224 102.962 91.6901 104.533 90.2457C104.992 89.7921 105.667 89.2791 106.326 89.6517C106.548 89.7737 106.712 89.9786 106.783 90.2216C106.854 90.4646 106.825 90.7257 106.704 90.9477C106.704 90.9801 106.666 91.0071 106.65 91.0341C106.461 91.2825 106.267 91.5255 106.067 91.7685C106.342 92.5245 105.586 93.0321 105.219 93.5883C105.759 93.2373 106.51 92.7243 107.039 93.3615C107.114 93.4585 107.169 93.5694 107.2 93.6877C107.232 93.806 107.24 93.9294 107.224 94.0509C107.208 94.1724 107.168 94.2895 107.107 94.3954C107.045 94.5014 106.963 94.5942 106.866 94.6683C107.048 94.6902 107.22 94.7615 107.365 94.8744C107.509 94.9873 107.62 95.1376 107.685 95.3089C107.75 95.4802 107.767 95.666 107.734 95.8463C107.701 96.0266 107.619 96.1944 107.498 96.3315C107.077 96.6933 106.617 97.0067 106.126 97.2657C105.251 97.7841 104.366 98.7237 103.307 98.3727Z" fill="white"/>
<path d="M101.013 98.145C99.933 98.0316 99.1123 96.8868 99.0312 95.8554C99.0376 95.7306 99.0904 95.6126 99.1791 95.5246C99.2678 95.4366 99.3862 95.3848 99.5111 95.3794C99.636 95.374 99.7584 95.4153 99.8544 95.4954C99.9504 95.5754 100.013 95.6884 100.03 95.8122C100.147 96.3667 100.474 96.8544 100.943 97.173C101.159 97.362 101.537 97.551 101.407 97.8912C101.377 97.9702 101.323 98.0374 101.252 98.0831C101.181 98.1288 101.097 98.1505 101.013 98.145Z" fill="white"/>
<path d="M104.792 99.5436C102.891 99.5484 101.055 98.8525 99.6353 97.5888C99.2735 97.2918 98.5229 96.5951 99.2249 96.2603C99.2777 96.2417 99.3337 96.2338 99.3896 96.237C99.4455 96.2403 99.5001 96.2547 99.5504 96.2793C99.6007 96.3039 99.6456 96.3383 99.6824 96.3805C99.7192 96.4227 99.7473 96.4718 99.7649 96.525C100.888 97.6698 102.611 97.8048 104.133 97.8696C105.254 97.9082 106.375 97.8794 107.492 97.7832C108.158 97.6311 108.848 97.6219 109.517 97.7562C109.987 97.9776 109.582 98.4527 109.301 98.6471C107.967 99.4841 106.315 99.576 104.792 99.5436Z" fill="white"/>
<path d="M106.746 98.7026C106.746 98.2706 107.205 98.2652 107.524 98.2382C108.394 98.0932 109.232 97.799 110.002 97.3688C109.933 96.7802 110.091 96.1871 110.444 95.7113C110.797 95.2354 111.319 94.9126 111.903 94.8092C112.129 94.8005 112.348 94.8813 112.514 95.0341C112.68 95.1869 112.779 95.3993 112.789 95.6246C112.797 95.6982 112.797 95.7725 112.789 95.846C112.749 96.0024 112.669 96.1456 112.556 96.2618C112.596 96.3319 112.62 96.41 112.625 96.4904C112.631 96.5707 112.618 96.6513 112.589 96.7262C112.545 96.8545 112.464 96.9672 112.357 97.0502V97.2014C112.351 97.4235 112.281 97.6391 112.154 97.8214C112.028 98.0038 111.85 98.145 111.644 98.2274C110.602 98.9132 109.343 98.8808 108.15 98.9888C107.664 98.978 106.843 99.3614 106.746 98.7026Z" fill="white"/>
<path d="M102.789 99.5926C100.926 99.5116 98.7606 98.2642 98.9712 96.1582C98.9257 96.0975 98.8935 96.028 98.8767 95.954C98.8599 95.8801 98.8589 95.8034 98.8736 95.7291C98.8884 95.6547 98.9187 95.5843 98.9625 95.5224C99.0063 95.4605 99.0626 95.4085 99.1278 95.3698C99.2438 95.2867 99.3867 95.2504 99.5283 95.268C99.6698 95.2857 99.7995 95.356 99.8915 95.465C99.9834 95.574 100.031 95.7137 100.025 95.8562C100.018 95.9987 99.9582 96.1335 99.8568 96.2338C100.219 98.2318 102.605 98.1562 104.177 98.005C105.656 97.8916 107.163 98.113 108.621 97.7836C109.376 97.6381 110.095 97.3464 110.738 96.925C110.979 96.7178 111.266 96.5721 111.576 96.5007C111.885 96.4292 112.207 96.4339 112.514 96.5146C113.054 96.3472 112.914 97.0924 112.817 97.4056C112.645 97.6796 112.419 97.9163 112.154 98.1018C111.889 98.2873 111.589 98.4178 111.272 98.4856C108.583 99.5062 105.662 99.6682 102.789 99.5926Z" fill="white"/>
<path d="M105.808 99.5068C104.923 99.3286 99.8682 99.199 100.667 97.687C101.008 97.2334 101.542 97.5466 101.747 97.9354C102.649 98.1082 103.648 98.1082 104.534 98.2378C105.721 98.278 106.909 98.1874 108.076 97.9678C108.854 97.9138 109.696 97.4764 110.436 97.7788C112.115 99.4312 106.667 99.7552 105.808 99.5068Z" fill="white"/>
<path d="M106.656 99.6358C105.323 99.6233 104.001 99.4048 102.735 98.9878C102.693 98.9706 102.654 98.9452 102.622 98.913C102.589 98.8809 102.564 98.8426 102.546 98.8004C102.529 98.7582 102.52 98.713 102.52 98.6673C102.52 98.6216 102.529 98.5763 102.546 98.5342C102.58 98.4514 102.644 98.3847 102.725 98.3476C102.807 98.3105 102.899 98.3057 102.984 98.3344C103.825 98.5772 104.707 98.647 105.576 98.5396C106.88 98.59 108.184 98.4184 109.431 98.032C110.29 97.6 111.348 97.5406 111.926 96.6982C112.174 96.2392 112.234 95.6668 112.682 95.3428C112.738 95.2936 112.803 95.2565 112.874 95.2338C112.945 95.2112 113.02 95.2034 113.094 95.211C113.168 95.2186 113.24 95.2414 113.304 95.278C113.369 95.3147 113.426 95.3643 113.47 95.4238C113.515 95.4767 113.55 95.537 113.573 95.602C114.291 98.8204 108.951 99.7546 106.656 99.6358ZM160.742 94.9972C159.765 95.0404 158.809 94.8082 157.837 94.819C157.158 94.824 156.482 94.7331 155.828 94.549C155.739 94.5795 155.644 94.5922 155.55 94.5862C155.456 94.5803 155.364 94.5558 155.279 94.5141C155.194 94.4725 155.118 94.4146 155.056 94.3436C154.994 94.2727 154.946 94.1902 154.915 94.1008C154.886 94.0176 154.874 93.9296 154.878 93.8416C154.898 93.6637 154.988 93.501 155.127 93.3888C155.267 93.2766 155.445 93.2239 155.623 93.2422H155.693C155.876 93.3106 156.07 93.3454 156.265 93.3448C157.772 93.0586 159.273 93.5662 160.78 93.4636C162.548 93.3719 164.293 93.0207 165.958 92.4214C166.66 91.849 166.498 90.877 166.536 90.0724C166.349 89.7383 166.226 89.3719 166.174 88.9924C166.255 87.5884 167.843 87.8206 168.334 88.879C169.015 89.905 168.788 91.363 168.194 92.3782L168.264 92.2756C166.779 94.8028 163.329 94.8028 160.742 94.9972ZM185.49 140.022C179.88 139.985 174.15 140.201 168.691 138.764C168.26 138.677 167.847 138.516 167.47 138.289C166.963 137.927 166.866 137.279 166.633 136.75C166.428 136.262 166.304 135.744 166.266 135.216C166.066 134.633 165.911 134.036 165.802 133.429C165.262 131.706 164.857 130.005 164.387 128.294C163.917 126.582 163.62 124.2 165.008 122.823C165.242 122.404 165.576 122.049 165.98 121.79C166.384 121.531 166.846 121.376 167.325 121.338C169.657 120.755 172.006 121.122 174.345 121.252C179.853 121.63 185.533 121.112 190.842 122.872C191.257 122.958 191.657 123.137 191.571 123.606C191.536 123.742 191.45 123.858 191.332 123.932C191.213 124.005 191.07 124.03 190.933 124.001C188.633 123.531 186.214 123.66 183.87 123.461C180.312 123.385 176.748 123.461 173.189 123.261C171.029 123.115 166.493 122.181 165.834 125.021C165.618 126.004 166.012 126.927 166.266 127.856C166.644 129.185 166.941 130.556 167.346 131.852C168.032 133.472 167.778 135.319 168.556 136.912C171.137 137.992 173.956 137.992 176.715 137.992C180.301 138.132 183.859 138.035 187.429 137.922C187.63 137.943 187.82 138.026 187.973 138.159C188.125 138.293 188.233 138.47 188.281 138.667C188.329 138.864 188.314 139.071 188.24 139.259C188.166 139.448 188.035 139.609 187.866 139.72C187.197 140.19 186.3 140.033 185.49 140.022Z" fill="white"/>
<path d="M186.743 139.688C186.587 139.563 186.467 139.4 186.394 139.214C186.32 139.028 186.297 138.826 186.326 138.629C186.355 138.431 186.435 138.245 186.559 138.087C186.682 137.93 186.844 137.808 187.029 137.733C187.991 135.627 189 133.484 190.113 131.432C190.866 129.755 191.491 128.024 191.981 126.253C192.088 125.733 191.996 125.191 191.723 124.735C191.45 124.279 191.016 123.942 190.507 123.791C188.768 123.283 186.878 123.251 185.188 122.684C185.136 122.688 185.085 122.701 185.037 122.721C184.605 122.721 184.653 122.181 185.107 122.181C187.645 121.344 192.667 121.328 193.92 124.169C194.676 125.54 194.26 127.198 193.785 128.591C193.477 129.621 193.116 130.633 192.705 131.626C191.9 133.5 190.896 135.287 189.918 137.069C189.54 138.408 188.46 140.633 186.743 139.688Z" fill="white"/>
<path d="M189.687 139.98C189.118 139.88 188.609 139.567 188.262 139.106C188.185 138.979 188.134 138.839 188.111 138.693C188.089 138.547 188.095 138.399 188.13 138.255C188.165 138.112 188.228 137.977 188.316 137.857C188.403 137.738 188.513 137.638 188.64 137.561C188.78 137.472 188.94 137.416 189.105 137.398C189.271 137.38 189.439 137.401 189.595 137.459C191.026 138.431 191.48 136.681 192.036 135.687C194.353 130.941 196.318 126.027 198.446 121.199C199.099 119.612 200.142 118.181 200.822 116.62C201.276 115.653 201.54 114.708 200.077 114.789C199.961 114.817 199.853 114.869 199.76 114.943C199.666 115.017 199.59 115.11 199.537 115.216C198.882 116.234 198.375 117.339 198.03 118.499C197.247 120.81 196.286 123.035 195.395 125.276C195.017 126.2 194.412 127.004 193.996 127.906C193.958 127.985 193.904 128.055 193.839 128.112C193.773 128.17 193.696 128.214 193.614 128.242C193.531 128.27 193.443 128.282 193.356 128.276C193.269 128.27 193.184 128.247 193.105 128.208C192.948 128.128 192.827 127.99 192.771 127.822C192.714 127.654 192.726 127.471 192.803 127.312V127.28C193.824 124.439 194.79 121.561 196.043 118.818C196.373 117.93 196.77 117.069 197.231 116.242C197.771 115.367 198.041 114.222 198.991 113.688C199.412 113.522 199.867 113.46 200.317 113.506C200.767 113.552 201.199 113.705 201.578 113.952C202.507 114.492 202.539 115.772 202.302 116.685C202.048 117.948 201.254 118.969 200.682 120.098C200.19 121.318 199.855 122.598 199.348 123.813C198.106 127.134 196.799 130.552 195.298 133.743C193.948 136.082 193.181 140.429 189.687 139.98ZM169.783 140.655C170.007 140.167 170.329 139.73 170.728 139.371C171.127 139.011 171.596 138.737 172.105 138.566C172.645 138.292 173.271 138.24 173.849 138.42C173.979 138.37 174.122 138.364 174.257 138.402C174.391 138.44 174.509 138.52 174.594 138.63C176.63 138.809 177.483 140.504 177.17 142.2L175.28 142.297C175.299 142.184 175.299 142.069 175.28 141.957C175.253 141.368 175.28 140.877 174.772 140.542C174.303 140.11 173.417 140.342 173.152 139.656C172.569 140.196 171.84 140.666 171.57 141.455C171.509 141.799 171.54 142.153 171.662 142.481L169.556 142.599C169.435 141.943 169.514 141.266 169.783 140.655ZM182.629 139.246C183.088 138.836 184.249 138.004 184.757 138.706C185.225 138.749 185.694 138.648 186.102 138.414C186.43 138.359 186.768 138.4 187.074 138.533C188.245 139.073 188.569 140.25 188.397 141.417C187.479 141.498 186.555 141.573 185.637 141.644C185.513 141.489 185.438 141.301 185.421 141.104C185.207 141.133 185.002 141.206 184.816 141.316C184.631 141.426 184.469 141.573 184.341 141.746C183.358 141.822 182.376 141.887 181.393 141.951C181.452 140.927 181.893 139.961 182.629 139.246ZM170.258 68.5817C172.486 68.6215 174.713 68.4933 176.922 68.1983C180.135 67.9067 183.358 67.8041 186.582 67.5935C188.613 67.4855 190.638 67.3181 192.668 67.1777C193.748 67.2533 194.612 66.6377 195.595 66.3461C195.87 65.8547 195.714 65.1851 195.762 64.6289C195.844 61.745 195.627 58.8604 195.114 56.0213C195.017 54.4013 195.055 52.7813 192.954 52.6463C187.236 52.7381 181.663 53.6399 176.009 54.3419C172.888 54.6551 169.745 54.7469 166.624 55.0385C166.246 58.1813 166.689 61.3511 166.424 64.3913C166.338 65.4227 166.008 66.9941 166.257 67.9499C167.488 68.4791 168.935 68.4359 170.258 68.5817ZM169.329 70.2017C166.996 70.0289 165.123 69.8075 164.599 67.1561C164.334 64.0241 164.761 60.8273 165.042 57.6953C165.101 56.6855 165.225 55.6757 165.247 54.6767C165.244 54.5252 165.271 54.3746 165.326 54.2336C165.382 54.0927 165.465 53.9643 165.571 53.8559C166.041 53.4077 166.683 53.6453 167.25 53.5805C171.397 52.6733 175.636 52.7543 179.827 52.1441C183.067 51.6635 193.937 49.7357 196.027 52.0469C196.417 52.4907 196.668 53.0388 196.75 53.6237C196.976 54.4512 197.094 55.3041 197.101 56.1617C197.28 58.7483 197.744 61.2917 197.485 63.8945C197.312 65.2283 197.825 67.0049 196.594 67.9337C195.529 68.4772 194.39 68.8594 193.213 69.0677C192.182 69.1649 191.053 69.0299 190.092 69.0677C185.772 69.4187 181.717 69.6833 177.472 69.8075C174.767 70.0814 172.049 70.2129 169.329 70.2017Z" fill="white"/>
<path d="M169.203 69.0558C167.821 68.9586 165.482 68.883 165.023 67.2954C165.023 66.8472 165.445 66.4962 165.833 66.345C165.931 66.3245 166.032 66.3234 166.13 66.342C166.227 66.3605 166.321 66.3982 166.404 66.4529C166.487 66.5076 166.559 66.5782 166.615 66.6607C166.671 66.7432 166.71 66.836 166.73 66.9336C166.746 67.0174 166.746 67.1036 166.73 67.1874C168.35 67.5708 170.035 67.2414 171.66 67.0848H170.315C170.126 67.0713 169.945 66.9988 169.799 66.8776C169.652 66.7564 169.547 66.5924 169.498 66.4086C169.45 66.2248 169.459 66.0304 169.526 65.8524C169.594 65.6745 169.715 65.522 169.873 65.4162C169.736 65.2325 169.668 65.0074 169.678 64.779C169.693 64.581 169.768 64.3924 169.894 64.239C169.748 64.0976 169.644 63.9176 169.595 63.7199C169.546 63.5221 169.555 63.3145 169.619 63.1212C169.677 62.9522 169.771 62.7976 169.894 62.6676C169.789 62.6072 169.696 62.5265 169.622 62.43C169.548 62.3336 169.494 62.2234 169.463 62.1058C169.431 61.9883 169.424 61.8657 169.441 61.7452C169.457 61.6247 169.498 61.5087 169.559 61.404C169.626 61.2856 169.718 61.184 169.829 61.107C169.667 61.0154 169.538 60.8759 169.458 60.7076C169.378 60.5393 169.353 60.3505 169.385 60.1671C169.417 59.9837 169.505 59.8147 169.636 59.6833C169.768 59.5518 169.938 59.4644 170.121 59.433C169.955 59.343 169.831 59.1919 169.775 59.0118C169.736 58.9014 169.727 58.7823 169.75 58.6672C169.773 58.5521 169.826 58.4454 169.905 58.3584C169.715 58.3564 169.529 58.3043 169.365 58.2072C169.266 58.1452 169.185 58.0593 169.128 57.9573C169.071 57.8553 169.041 57.7407 169.041 57.624C168.837 57.6966 168.613 57.6903 168.413 57.6064C168.213 57.5225 168.052 57.367 167.961 57.1704C167.385 57.4188 166.739 57.4514 166.141 57.2622C165.961 57.1678 165.825 57.0059 165.763 56.8117C165.701 56.6174 165.719 56.4067 165.812 56.2254C165.884 56.0832 165.999 55.9678 166.141 55.896C165.666 55.356 166.141 54.7566 166.714 54.5892C167.864 54.2436 169.079 54.5892 170.261 54.3462C171.19 54.0816 172.189 54.0762 173.14 53.8548C173.786 53.741 174.439 53.6653 175.094 53.628C175.25 53.5981 175.412 53.6109 175.561 53.6651C175.71 53.7192 175.842 53.8128 175.942 53.9358C177.973 53.8332 179.998 53.5902 182.028 53.3958C182.611 53.3526 183.648 53.0664 183.648 53.9628C184.334 54.0816 186.154 53.8872 185.732 55.0428C186.596 55.2264 189.026 54.8214 188.767 56.2308C188.925 56.239 189.081 56.2552 189.237 56.2794C189.514 56.3125 189.78 56.4026 190.02 56.544C190.108 56.6076 190.182 56.6879 190.238 56.7803C190.294 56.8726 190.332 56.9752 190.348 57.0821C190.365 57.1889 190.36 57.2981 190.334 57.4031C190.309 57.5082 190.262 57.6071 190.198 57.6942C190.069 57.8708 189.875 57.9892 189.658 58.0236C190.792 57.9318 191.618 59.19 190.355 59.7192C190.378 59.8712 190.349 60.0267 190.271 60.1595C190.193 60.2922 190.072 60.3942 189.928 60.4482C189.772 60.4915 189.613 60.5239 189.453 60.5454C190.02 60.5758 190.58 60.6942 191.111 60.8964C191.197 60.9528 191.27 61.026 191.327 61.1114C191.383 61.1969 191.422 61.293 191.441 61.3938C191.459 61.4947 191.458 61.5983 191.435 61.6984C191.413 61.7985 191.37 61.8931 191.311 61.9764C191.239 62.0746 191.147 62.1557 191.041 62.214C190.258 62.5164 189.377 62.3544 188.551 62.376C189.388 62.5272 190.252 62.592 191.073 62.808C191.196 62.8419 191.306 62.9135 191.387 63.0127C191.468 63.1119 191.516 63.2339 191.524 63.3616C191.532 63.4893 191.501 63.6165 191.433 63.7253C191.366 63.8342 191.267 63.9194 191.149 63.969C192.013 64.212 192.92 64.1526 193.568 64.3578C193.807 64.4454 194.001 64.6242 194.109 64.8551C194.216 65.0859 194.227 65.3498 194.14 65.589C194.066 65.8201 193.906 66.0136 193.692 66.129C189.916 66.9795 186.088 67.5838 182.233 67.938C177.914 68.5523 173.564 68.9255 169.203 69.0558Z" fill="white"/>
<path d="M167.967 68.6074C167.811 68.575 167.654 68.5318 167.498 68.4886C167.353 68.4465 167.225 68.3623 167.129 68.2469C167.033 68.1315 166.973 67.9901 166.958 67.8406C166.582 67.8676 166.205 67.8676 165.829 67.8406C165.635 67.8002 165.465 67.6854 165.355 67.5208C165.245 67.3562 165.204 67.155 165.24 66.9604C165.265 66.8536 165.312 66.7531 165.378 66.6656C165.444 66.5781 165.528 66.5056 165.624 66.4528C165.624 66.3075 165.655 66.1639 165.716 66.0316C165.541 65.9113 165.421 65.727 165.382 65.5187C165.342 65.3104 165.386 65.095 165.505 64.9192C165.516 64.9 165.528 64.8819 165.543 64.8652C165.458 64.7649 165.396 64.6469 165.363 64.5199C165.329 64.3929 165.324 64.26 165.348 64.1308C165.245 64.0135 165.18 63.8679 165.16 63.7128C165.141 63.5577 165.169 63.4004 165.24 63.2614C165.295 63.1618 165.366 63.0723 165.451 62.9968C165.357 62.9417 165.275 62.8685 165.21 62.7815C165.145 62.6944 165.097 62.5953 165.071 62.4897C165.044 62.3842 165.039 62.2744 165.055 62.1668C165.071 62.0592 165.108 61.9558 165.165 61.8628C165.21 61.7879 165.266 61.7205 165.332 61.663C165.21 61.5102 165.147 61.3186 165.154 61.123C165.159 61.024 165.183 60.9268 165.224 60.8368C165.118 60.6587 165.085 60.4458 165.133 60.2439C165.182 60.0421 165.308 59.8672 165.483 59.7568C165.529 59.7271 165.578 59.7034 165.629 59.6866C165.576 59.6057 165.542 59.5131 165.532 59.4166C165.527 59.3736 165.527 59.3301 165.532 59.287C165.344 59.249 165.177 59.1408 165.066 58.9843C164.954 58.8278 164.907 58.6349 164.933 58.4446C165.062 57.802 165.845 57.8668 166.331 57.6562C166.283 56.911 169.031 56.776 169.631 56.6734C169.773 56.6614 169.914 56.7065 170.024 56.7986C170.133 56.8907 170.201 57.0224 170.214 57.1648C170.252 57.775 169.555 57.7588 169.134 57.883C169.254 57.8892 169.372 57.9205 169.479 57.9748C169.529 57.9999 169.574 58.0349 169.61 58.0775C169.646 58.1202 169.673 58.1698 169.69 58.2232C170.171 58.1423 170.662 58.1423 171.143 58.2232C171.21 58.2599 171.27 58.3096 171.318 58.3695C171.366 58.4293 171.402 58.4981 171.424 58.5718C171.445 58.6456 171.452 58.7229 171.444 58.7993C171.435 58.8757 171.412 58.9497 171.375 59.017C171.336 59.0946 171.279 59.1616 171.208 59.2124C171.138 59.2632 171.056 59.2962 170.97 59.3086C171.026 59.388 171.066 59.4777 171.087 59.5725C171.109 59.6674 171.111 59.7655 171.094 59.8612C171.078 59.957 171.043 60.0486 170.991 60.1308C170.939 60.2129 170.871 60.284 170.792 60.34C170.742 60.3778 170.688 60.4087 170.63 60.4318H170.581C170.883 61.042 170.198 61.4254 169.695 61.5496H170.144C170.921 61.6036 170.732 62.4298 170.144 62.6296C170.5 62.6296 170.894 62.5756 171.116 62.9104C171.169 62.9866 171.204 63.0745 171.216 63.1668C171.228 63.2591 171.218 63.353 171.186 63.4405C171.154 63.528 171.102 63.6065 171.033 63.6693C170.964 63.7322 170.882 63.7775 170.792 63.8014C170.816 63.9321 170.801 64.0673 170.747 64.1889C170.693 64.3105 170.603 64.4127 170.489 64.4818C170.647 64.5106 170.79 64.5961 170.889 64.7225C170.989 64.8488 171.038 65.0071 171.029 65.1676C171.024 65.2573 171.002 65.3451 170.964 65.4268C171.059 65.4729 171.142 65.5402 171.207 65.6236C171.272 65.7069 171.316 65.8041 171.337 65.9074C171.358 66.0058 171.359 66.1076 171.338 66.2063C171.318 66.3049 171.277 66.3981 171.218 66.4798C171.478 66.8737 171.823 67.2041 172.228 67.4464C172.293 68.3266 171.256 68.386 170.608 68.494C169.733 68.6153 168.849 68.6533 167.967 68.6074ZM188.379 67.8082C187.515 67.765 186.657 67.6624 185.798 67.603C185.583 67.6202 185.371 67.5513 185.206 67.4116C185.042 67.2718 184.941 67.0726 184.923 66.8578C184.906 66.643 184.975 66.4301 185.115 66.2661C185.255 66.102 185.454 66.0002 185.669 65.983C186.268 65.8696 186.905 66.0262 187.505 65.9452C187.999 65.8019 188.486 65.6325 188.963 65.4376L188.871 65.4808L189.125 65.3674C189.373 65.254 189.621 65.1406 189.875 65.038C189.762 64.9263 189.681 64.786 189.641 64.632C189.601 64.4779 189.604 64.3159 189.648 64.1632C188.99 64.1632 188.12 63.904 188.174 63.0832C188.056 63.073 187.941 63.0396 187.836 62.985C187.731 62.9303 187.637 62.8555 187.561 62.7647C187.485 62.6739 187.427 62.569 187.392 62.4559C187.356 62.3429 187.343 62.2239 187.353 62.1058C187.366 61.9626 187.412 61.8245 187.489 61.7032C187.566 61.5819 187.672 61.481 187.796 61.4092C187.731 61.3189 187.685 61.2159 187.661 61.1068C187.624 60.9378 187.64 60.7615 187.705 60.6015C187.771 60.4414 187.884 60.305 188.028 60.2104C187.892 60.0855 187.81 59.9115 187.8 59.7263C187.791 59.5412 187.856 59.36 187.98 59.2222C188.023 59.1752 188.072 59.1335 188.126 59.098C187.321 59.2222 186.322 58.6444 186.84 57.748C186.014 57.9478 184.524 57.883 184.767 56.668C184.13 56.668 183.406 56.9542 182.812 56.668C182.732 56.6143 182.663 56.5451 182.609 56.4645C182.556 56.3838 182.519 56.2934 182.501 56.1984C182.483 56.1034 182.484 56.0058 182.504 55.9112C182.524 55.8166 182.563 55.727 182.618 55.6474C182.642 55.6051 182.673 55.5668 182.709 55.534C182.602 55.5207 182.498 55.4849 182.405 55.4291C182.312 55.3733 182.232 55.2987 182.169 55.21C182.11 55.1264 182.069 55.0319 182.047 54.9319C182.025 54.8319 182.023 54.7285 182.042 54.6279C182.06 54.5272 182.099 54.4313 182.155 54.3458C182.211 54.2603 182.284 54.1869 182.369 54.13L180.593 54.238C180.483 54.2456 180.376 54.2104 180.292 54.1398C180.208 54.0693 180.155 53.9689 180.144 53.86C180.14 53.8061 180.146 53.7518 180.163 53.7003C180.18 53.6488 180.206 53.6011 180.241 53.56C180.276 53.5188 180.319 53.485 180.368 53.4605C180.416 53.436 180.468 53.4213 180.522 53.4172C181.948 53.32 183.368 53.1742 184.788 52.9582C185.782 52.7692 197.127 50.8252 194.827 53.5468C195.14 53.6546 195.436 53.8054 195.707 53.995C195.766 54.0602 195.81 54.1362 195.839 54.2188C195.868 54.3013 195.88 54.3887 195.875 54.476C195.87 54.5633 195.848 54.6488 195.81 54.7275C195.772 54.8062 195.719 54.8766 195.653 54.9346L195.605 54.9778C195.713 56.209 195.275 57.4348 195.459 58.6606C195.803 59.9708 195.984 61.3183 195.999 62.6728C195.956 63.5206 195.502 64.2442 195.27 65.038C195.369 65.0964 195.455 65.1744 195.523 65.2672C195.591 65.3601 195.639 65.4659 195.664 65.578C196.555 65.875 196.717 67.198 195.664 67.4194C193.248 67.7215 190.814 67.8514 188.379 67.8082Z" fill="white"/>
<path d="M195.378 67.359C194.487 67.251 194.995 65.55 194.876 64.8966C194.935 62.2884 194.735 59.583 194.843 56.991C194.784 55.911 195.086 54.642 194.449 53.7132C194.222 53.5396 193.963 53.4113 193.688 53.3352C191.377 52.7952 188.984 53.1948 186.668 53.5188C183.374 53.9616 180.188 54.2586 176.948 54.6528H176.991C173.665 55.0362 170.327 55.2792 166.99 55.5708C166.872 55.5648 166.761 55.5151 166.677 55.4314C166.594 55.3476 166.545 55.2359 166.54 55.1179C166.534 54.9999 166.573 54.8841 166.648 54.7932C166.724 54.7022 166.83 54.6425 166.947 54.6258C175.123 54.0858 183.574 52.4658 191.517 51.9258C196.21 51.9744 196.102 53.8158 195.95 57.8334C195.95 60.4308 196.058 63.0228 196.031 65.6202C196.021 66.2304 196.253 67.359 195.378 67.359Z" fill="black"/>
<path d="M166.596 68.0395C166.231 67.5137 166.042 66.8862 166.056 66.2467C165.948 64.3513 166.056 62.4667 166.023 60.5551C165.974 58.7749 166.03 56.9934 166.191 55.2199C166.188 55.1752 166.195 55.1305 166.21 55.0884C166.225 55.0463 166.249 55.0076 166.279 54.9745C166.309 54.9413 166.345 54.9145 166.386 54.8955C166.426 54.8764 166.47 54.8655 166.515 54.8635C166.605 54.8605 166.694 54.8934 166.76 54.9551C166.827 55.0167 166.867 55.1021 166.871 55.1929C166.876 55.2233 166.876 55.2543 166.871 55.2847C166.818 56.8185 166.843 58.3541 166.947 59.8855C167.006 61.6351 166.947 63.3793 167.022 65.1289C167.076 66.1117 166.801 67.7371 168.172 67.8289C170.138 67.9693 171.985 67.4563 173.913 67.4239C180.182 67.2943 186.451 66.5977 192.71 67.2889C193.267 67.2817 193.823 67.2203 194.368 67.1053C194.494 67.0931 194.621 67.1259 194.726 67.198C194.831 67.2701 194.907 67.3769 194.94 67.4995C195.086 68.4067 193.731 68.3527 193.126 68.4607C186.975 67.9207 180.803 68.3851 174.647 68.5525C172.422 68.2285 168.162 69.7513 166.596 68.0395Z" fill="black"/>
<path d="M168.928 68.634C168.852 68.568 168.793 68.4841 168.758 68.3899C168.722 68.2956 168.71 68.194 168.723 68.094C168.4 65.6116 168.22 63.1127 168.183 60.6096C168.07 58.8438 168.124 57.0996 168.08 55.377C168.075 55.3414 168.077 55.3051 168.086 55.2703C168.096 55.2355 168.112 55.203 168.134 55.1747C168.156 55.1463 168.184 55.1229 168.216 55.1057C168.247 55.0885 168.282 55.0779 168.318 55.0746C168.39 55.0654 168.463 55.0853 168.521 55.1298C168.579 55.1744 168.616 55.24 168.626 55.3122C169.123 58.7304 169.096 62.1918 169.371 65.6316C169.322 66.2904 170.267 69.147 168.928 68.634ZM171.364 68.3478C171.276 68.313 171.199 68.2558 171.14 68.1819C171.081 68.108 171.043 68.02 171.029 67.9266C170.635 66.096 170.694 64.2006 170.548 62.3376C170.473 59.9832 170.381 57.6342 170.3 55.2798C170.3 55.1178 170.3 54.8694 170.543 54.9126C171.418 58.536 171.477 62.5752 171.774 66.3768C171.752 66.96 172.422 68.5098 171.364 68.3478ZM173.146 67.4568C172.741 63.3312 173.081 59.103 172.714 54.9558C172.729 54.8965 172.767 54.8457 172.819 54.8143C172.872 54.783 172.935 54.7737 172.994 54.7884C173.048 54.8033 173.094 54.8362 173.125 54.8816C173.157 54.9269 173.172 54.9818 173.167 55.0368C173.934 59.0868 173.869 63.2016 174.031 67.3002C174.023 67.4029 173.981 67.5 173.912 67.5763C173.843 67.6525 173.75 67.7036 173.649 67.7216C173.548 67.7395 173.443 67.7232 173.352 67.6753C173.261 67.6274 173.188 67.5505 173.146 67.4568ZM175.754 67.7106C175.538 67.5756 175.5 67.2678 175.473 67.0464C175.03 64.1682 175.387 61.2306 175.343 58.3524C175.306 57.1968 175.295 56.0142 175.16 54.8802C175.172 54.8293 175.197 54.7826 175.233 54.7446C175.269 54.7067 175.315 54.679 175.365 54.6642C176.002 54.4752 175.905 56.5272 176.051 56.943C176.402 59.697 176.132 62.4456 176.299 65.205C176.213 65.8152 176.958 68.256 175.754 67.7106ZM178.621 67.5C178.522 67.4037 178.444 67.2875 178.393 67.1591C178.342 67.0307 178.318 66.8929 178.324 66.7548C178.076 64.0548 178.357 61.3548 178.189 58.6548C178.119 57.483 178.022 56.268 177.908 55.1232C177.899 55.0881 177.898 55.0516 177.903 55.0158C177.908 54.9799 177.92 54.9455 177.939 54.9144C177.957 54.8833 177.982 54.8562 178.011 54.8345C178.04 54.8129 178.073 54.7973 178.108 54.7884H178.157C178.195 54.7877 178.233 54.7946 178.269 54.8086C178.304 54.8225 178.337 54.8434 178.365 54.87C178.392 54.8966 178.414 54.9283 178.429 54.9634C178.445 54.9986 178.453 55.0363 178.454 55.0746C178.621 56.349 178.853 57.618 178.994 58.8924C179.215 61.0038 179.156 63.1314 179.253 65.2482C179.161 65.8314 179.777 67.905 178.621 67.5ZM181.348 66.5712C181.057 63.4824 180.581 60.3936 180.392 57.2832C180.328 56.3145 180.311 55.343 180.344 54.3726C180.344 54.3096 180.369 54.2492 180.413 54.2046C180.458 54.1601 180.518 54.135 180.581 54.135C180.644 54.135 180.705 54.1601 180.749 54.2046C180.794 54.2492 180.819 54.3096 180.819 54.3726C181.078 56.7702 181.31 59.1948 181.694 61.5816C181.764 62.1702 182.963 68.1156 181.348 66.5712ZM183.94 66.771C183.886 63.2718 183.627 59.7942 183.454 56.3058C183.408 55.4893 183.408 54.6708 183.454 53.8542C183.463 53.794 183.493 53.7389 183.539 53.6991C183.585 53.6593 183.644 53.6374 183.705 53.6374C183.766 53.6374 183.825 53.6593 183.871 53.6991C183.917 53.7389 183.947 53.794 183.956 53.8542C184.01 55.7544 184.162 57.6504 184.41 59.535V59.4864C184.74 61.871 184.884 64.2777 184.842 66.6846C184.838 66.7433 184.822 66.8006 184.796 66.8532C184.769 66.9057 184.733 66.9525 184.688 66.9907C184.643 67.0289 184.591 67.0578 184.535 67.0757C184.479 67.0936 184.42 67.1002 184.361 67.095C184.266 67.093 184.173 67.0605 184.098 67.0022C184.022 66.9439 183.967 66.8629 183.94 66.771ZM187.272 67.068C186.867 65.88 187.169 64.4868 187.078 63.234C187.04 60.9714 186.953 58.7142 186.889 56.457C186.932 55.9656 186.548 52.6176 187.472 53.217C187.526 53.2685 187.56 53.3384 187.566 53.4133C187.572 53.4881 187.55 53.5626 187.504 53.622C187.504 57.591 188.125 61.5492 188.044 65.502C187.963 66.042 188.347 66.8898 187.742 67.1652C187.662 67.1946 187.576 67.201 187.493 67.1838C187.41 67.1666 187.333 67.1265 187.272 67.068ZM189.783 67.3488C189.324 63.7902 189.529 60.183 189.394 56.6136C189.346 55.323 189.281 54.0324 189.227 52.7472C189.219 52.6484 189.251 52.5505 189.315 52.4751C189.379 52.3996 189.471 52.3528 189.57 52.3449C189.668 52.3371 189.766 52.3688 189.842 52.4331C189.917 52.4974 189.964 52.589 189.972 52.6878C190.069 55.3878 190.35 58.0284 190.366 60.7014C190.393 62.8614 190.674 65.0592 190.55 67.2408C190.541 67.3309 190.502 67.4154 190.439 67.48C190.375 67.5445 190.291 67.5853 190.201 67.5954C190.111 67.6056 190.021 67.5844 189.945 67.5356C189.868 67.4868 189.811 67.4132 189.783 67.3272V67.3488ZM192.413 66.6144C192.24 64.4544 192.019 62.1702 192.067 60.0264C192.168 57.8378 192.139 55.6452 191.981 53.46C191.971 53.4137 191.97 53.3659 191.979 53.3193C191.988 53.2728 192.006 53.2286 192.033 53.1893C192.059 53.15 192.093 53.1165 192.133 53.0908C192.173 53.0651 192.218 53.0477 192.264 53.0397C192.311 53.0316 192.359 53.0331 192.405 53.0441C192.451 53.0551 192.494 53.0752 192.533 53.1034C192.571 53.1316 192.603 53.1672 192.627 53.2081C192.651 53.2489 192.666 53.2942 192.672 53.3412C192.675 53.3537 192.675 53.3666 192.672 53.379C193.012 56.4516 192.812 59.5458 193.061 62.6184C192.996 63.4662 193.828 66.8088 192.839 66.9384C192.742 66.9413 192.646 66.9107 192.569 66.8517C192.491 66.7928 192.436 66.709 192.413 66.6144ZM95.9741 83.3004C97.0217 82.269 97.9343 81.0162 99.2141 80.2656C100.647 79.6933 102.134 79.2663 103.653 78.9912C105.187 78.732 106.72 78.4512 108.259 78.2568C108.331 78.2551 108.401 78.2754 108.461 78.315C108.521 78.3545 108.567 78.4115 108.594 78.4782L108.869 78.354L108.918 78.3216L108.864 78.3594C110.3 77.1174 107.212 76.9446 106.445 77.1012C102.33 77.382 97.8803 79.488 95.9741 83.3004ZM94.8941 85.3848C94.4567 85.1742 94.6187 84.645 94.6673 84.2616C95.2073 80.6652 99.0521 77.841 102.346 76.8474C104.506 76.1724 107.017 75.5676 109.237 76.356C110.781 76.896 110.587 78.7158 109.237 79.38C107.617 80.2602 105.748 79.92 103.982 80.028C102.889 80.2781 101.821 80.6269 100.791 81.0702C99.1979 81.6102 98.0909 82.9764 96.9623 84.0834C96.4277 84.6396 95.8499 85.86 94.9157 85.3848H94.8941Z" fill="black"/>
<path d="M94.8614 83.9049C94.8938 83.4243 95.3636 83.0517 95.612 82.7115C96.1696 82.0059 96.8326 81.3903 97.5776 80.8863C97.5788 80.7788 97.6066 80.6733 97.6584 80.5791C97.7102 80.4849 97.7844 80.405 97.8746 80.3463C98.5979 79.7636 99.3818 79.2603 100.213 78.8451C101.93 77.9703 103.782 77.0145 105.753 77.0577C106.617 76.8633 107.465 76.4313 108.361 76.4691C109.317 76.4043 110.521 78.2727 109.171 78.4995C106.628 78.7425 103.96 78.9531 101.52 79.8549C99.41 80.7184 97.5112 82.0261 95.9522 83.6889C95.7416 83.8779 95.7524 84.2289 95.4446 84.3207C95.3871 84.3389 95.3266 84.3453 95.2667 84.3395C95.2068 84.3338 95.1486 84.316 95.0957 84.2873C95.0428 84.2585 94.9962 84.2194 94.9587 84.1723C94.9212 84.1252 94.8936 84.071 94.8776 84.0129C94.8664 83.978 94.8609 83.9416 94.8614 83.9049ZM98.8466 96.6273C98.7959 96.6072 98.7497 96.5771 98.7108 96.5389C98.6719 96.5007 98.641 96.4552 98.6199 96.4049C98.5987 96.3546 98.5879 96.3007 98.5878 96.2461C98.5878 96.1916 98.5987 96.1376 98.6198 96.0873C98.855 95.3403 99.1308 94.6066 99.446 93.8895C100.099 92.5017 100.629 90.9033 101.8 89.8665C103.28 88.2465 105.537 87.9657 107.611 87.8631C108.852 87.8669 110.064 88.2347 111.098 88.921C112.132 89.6074 112.941 90.582 113.427 91.7241C113.481 92.0265 113.778 92.5017 113.427 92.7069C113.357 92.7365 113.279 92.7402 113.207 92.7174C113.134 92.6947 113.073 92.6469 113.032 92.5827C112.773 92.2209 112.536 91.7727 112.276 91.4271C111.307 90.0817 109.846 89.1735 108.21 88.8999C106.05 88.8999 103.777 89.1591 102.243 90.7899C100.791 92.3343 100.126 94.4511 99.3812 96.3735C99.3643 96.4264 99.3368 96.4752 99.3003 96.517C99.2638 96.5588 99.2191 96.5927 99.169 96.6165C99.1188 96.6403 99.0643 96.6535 99.0089 96.6554C98.9534 96.6573 98.8982 96.6477 98.8466 96.6273Z" fill="black"/>
<path d="M105.866 94.7163C105.942 93.628 106.088 92.5458 106.303 91.4763C105.863 92.4957 105.712 93.6166 105.866 94.7163ZM108.885 97.7943C108.878 98.0454 108.858 98.296 108.825 98.5449L108.906 98.5179L109.041 98.4585C108.858 98.0535 109.041 97.5297 108.998 97.0977C109.03 96.1635 109.041 95.2401 109.025 94.3059C108.976 95.4939 108.949 96.6603 108.885 97.7943ZM107.524 98.6421C107.512 98.616 107.503 98.5889 107.497 98.5611C107.497 98.4963 107.497 98.4261 107.459 98.3613C107.452 98.4181 107.439 98.4742 107.421 98.5287C107.413 98.5584 107.402 98.5873 107.389 98.6151H107.524V98.6421ZM108.064 98.6421V98.6691C108.154 98.6746 108.244 98.6746 108.334 98.6691C108.313 98.6383 108.301 98.6032 108.296 98.5665C108.269 98.3883 108.253 98.2101 108.242 98.0265C108.226 98.2433 108.171 98.4555 108.08 98.6529L108.064 98.6421ZM107.281 99.5223C102.453 98.6421 103.501 88.5063 108.361 88.4037C108.631 88.4037 109.16 88.3443 109.149 88.7277C113.086 90.7689 112.816 100.349 107.286 99.5277L107.281 99.5223Z" fill="black"/>
<path d="M105.97 96.5101C105.43 95.8783 105.862 94.8901 105.792 94.1179C104.474 94.3015 106.499 89.4739 107.304 89.4847C107.339 89.4801 107.375 89.4825 107.41 89.4918C107.444 89.5011 107.477 89.5171 107.505 89.539C107.533 89.5608 107.557 89.5879 107.575 89.6189C107.593 89.6499 107.604 89.6841 107.609 89.7196C107.613 89.7551 107.611 89.7911 107.602 89.8256C107.592 89.8601 107.576 89.8925 107.555 89.9208C107.533 89.9491 107.506 89.9729 107.475 89.9907C107.444 90.0085 107.409 90.0201 107.374 90.0247H107.325C106.936 90.4852 106.644 91.0197 106.467 91.5961C106.623 91.7149 106.559 91.9417 106.542 92.1361C106.418 93.1783 106.494 94.2421 106.424 95.2897C106.401 95.6315 106.425 95.9748 106.494 96.3103C106.477 96.3995 106.425 96.4784 106.35 96.5299C106.276 96.5815 106.184 96.6015 106.094 96.5857C106.048 96.5702 106.005 96.5444 105.97 96.5101ZM107.363 99.0859C107.057 99.0802 106.757 98.9946 106.494 98.8375C106.447 98.7913 106.41 98.7362 106.384 98.6755C106.359 98.6148 106.346 98.5496 106.346 98.4838C106.346 98.418 106.359 98.3528 106.384 98.2921C106.41 98.2314 106.447 98.1763 106.494 98.1301C106.534 98.0878 106.582 98.0531 106.634 98.0275C106.931 97.8979 107.212 98.1085 107.514 98.0869C107.687 98.1134 107.864 98.0922 108.026 98.0256C108.188 97.959 108.328 97.8495 108.432 97.7089C108.497 97.4173 108.497 97.1149 108.432 96.8233C108.065 96.7639 108.141 96.3211 108.114 96.0457C108.033 95.6461 108.341 95.1331 108.783 95.3923C108.855 94.9576 108.825 94.5123 108.697 94.0909C108.673 94.005 108.682 93.913 108.723 93.8338C108.764 93.7545 108.834 93.6939 108.918 93.6643C109.523 93.5671 109.399 94.4257 109.502 94.8037C109.545 95.2444 109.534 95.6887 109.469 96.1267C109.468 96.8974 109.422 97.6674 109.329 98.4325C109.048 99.1453 108 99.0481 107.363 99.0859ZM154.98 75.6013L154.835 75.8119C156.231 74.6084 157.925 73.8033 159.74 73.4811C161.555 73.159 163.423 73.3318 165.149 73.9813C165.226 74.0092 165.292 74.0632 165.334 74.1341C165.377 74.205 165.393 74.2884 165.381 74.3701C165.857 74.6588 166.369 74.8839 166.904 75.0397C165.667 73.9219 164.252 72.7879 162.557 72.5773C160.228 72.3521 157.899 72.9964 156.017 74.3863C155.58 74.7028 155.224 75.1194 154.98 75.6013ZM153.9 77.9341C152.653 77.6263 153.36 76.2007 153.825 75.4987C154.206 74.7367 154.761 74.0746 155.445 73.5655C158.399 71.4055 162.875 70.5901 165.926 72.9823C166.669 73.5451 167.372 74.1605 168.027 74.8237C168.128 74.915 168.209 75.0267 168.263 75.1514C168.318 75.2761 168.346 75.411 168.345 75.5473C167.719 77.0755 165.176 75.4771 164.225 74.9749C161.768 73.6195 159.068 75.0991 156.951 76.4329C155.996 77.0377 155.067 77.9395 153.895 77.9341H153.9Z" fill="black"/>
<path d="M154.564 76.01C154.397 75.6482 154.824 75.3728 155.034 75.1352C155.494 74.6145 156.042 74.1793 156.654 73.85C156.741 73.364 157.383 73.2236 157.734 72.9482C158.772 72.4286 159.915 72.1532 161.075 72.1429C162.236 72.1326 163.383 72.3877 164.43 72.8888C165.17 73.2506 167.298 74.2226 167.001 75.2108C166.758 75.5996 166.32 75.3782 166.088 75.1136C164.527 74.0876 162.556 74.282 160.78 74.309C158.766 74.228 156.6 74.4062 155.11 75.902C155.094 75.9811 155.048 76.0509 154.981 76.0964C154.915 76.1418 154.833 76.1593 154.753 76.145C154.714 76.1366 154.677 76.1204 154.645 76.0971C154.612 76.0739 154.585 76.0442 154.564 76.01ZM167.573 88.9646C166.655 84.6446 161.374 82.1282 157.561 84.4556C156.087 85.1954 155.299 86.729 154.564 88.1222C154.338 88.4948 154.251 89.2832 153.657 89.0888C153.285 88.943 153.333 88.5164 153.517 88.2302C154.921 84.6554 157.545 82.22 161.584 82.6088C164.382 82.8248 167.416 85.001 168.145 87.7712C168.21 88.1114 168.237 88.4624 168.275 88.8026C168.287 88.8919 168.265 88.9825 168.214 89.0566C168.163 89.1307 168.086 89.183 167.998 89.2033C167.91 89.2235 167.818 89.2103 167.739 89.1662C167.661 89.122 167.601 89.0501 167.573 88.9646Z" fill="black"/>
<path d="M159.678 93.2144C161.892 92.2424 161.913 89.2778 161.638 87.2096C161.309 85.8488 160.148 84.137 158.576 84.5474C157.866 84.814 157.23 85.2452 156.719 85.8056C156.497 86.3456 156.33 86.9504 156.179 87.5228C155.52 89.888 157.043 93.1064 159.678 93.2144ZM159.219 94.343C156.816 93.6518 154.299 91.643 154.629 88.8998C154.698 87.5037 155.2 86.1639 156.065 85.0658C156.449 84.5906 156.983 84.3152 157.323 83.8076C157.317 83.7274 157.343 83.6479 157.395 83.5866C157.447 83.5254 157.521 83.4873 157.602 83.4809C157.682 83.4744 157.761 83.5001 157.822 83.5523C157.884 83.6044 157.922 83.6788 157.928 83.759C159.753 82.7816 161.778 84.542 162.399 86.2214C163.452 88.8296 162.761 94.2836 159.219 94.343Z" fill="black"/>
<path d="M156.804 87.4361C156.998 86.5883 157.268 85.7621 157.522 84.9251C157.497 84.9444 157.467 84.9573 157.436 84.9629C157.073 85.7407 156.859 86.5795 156.804 87.4361ZM157.641 92.4797C157.565 92.2002 157.545 91.9084 157.582 91.6211C157.555 91.6537 157.523 91.6809 157.486 91.701C157.449 91.7211 157.409 91.7338 157.368 91.7383C157.326 91.7428 157.284 91.739 157.244 91.7273C157.203 91.7155 157.166 91.6959 157.133 91.6697C157.059 91.5871 157.02 91.4784 157.025 91.3673C157.01 91.4111 156.981 91.449 156.942 91.4758C156.904 91.5026 156.859 91.517 156.812 91.517C156.765 91.517 156.72 91.5026 156.682 91.4758C156.644 91.449 156.615 91.4111 156.599 91.3673C155.443 92.5607 155.999 87.6791 156.107 87.2255C156.107 86.7989 157.187 83.3645 157.668 84.6929C157.712 84.6445 157.765 84.6059 157.825 84.5795C157.874 84.5567 157.927 84.545 157.981 84.545C158.035 84.545 158.089 84.5567 158.138 84.5795C158.246 84.1745 158.489 83.4023 158.98 83.9423C158.997 83.8278 159.06 83.7248 159.153 83.656C159.246 83.5871 159.362 83.558 159.477 83.5751C159.544 83.5863 159.607 83.6126 159.662 83.6519C159.717 83.6912 159.763 83.7424 159.796 83.8019C159.904 84.0773 159.725 84.3419 159.688 84.6281H159.742C159.786 84.5545 159.85 84.4947 159.926 84.4556C160.002 84.4165 160.088 84.3995 160.174 84.4067C160.687 84.1151 160.978 84.7361 160.94 85.1681C161.025 85.1772 161.105 85.2099 161.172 85.2624C161.239 85.3149 161.29 85.3851 161.318 85.4651C162.145 85.6541 161.977 86.8529 162.015 87.5171C162.555 87.6953 162.312 88.4567 162.35 88.9049C162.327 89.536 162.244 90.1634 162.101 90.7787C161.983 91.1297 161.902 91.6103 161.529 91.7669C161.475 91.8852 161.383 91.9817 161.267 92.0406C161.151 92.0994 161.019 92.1172 160.892 92.0909C160.792 92.1926 160.656 92.2508 160.514 92.2529C160.486 92.371 160.415 92.4747 160.315 92.5443C160.216 92.614 160.094 92.6448 159.974 92.6309C159.905 92.625 159.838 92.6028 159.779 92.5661C159.701 92.5849 159.62 92.5849 159.542 92.5661C159.451 92.5408 159.368 92.4921 159.302 92.4248C159.235 92.3576 159.188 92.2741 159.164 92.1827C159.117 92.2792 159.034 92.3536 158.933 92.39C158.832 92.4263 158.721 92.4217 158.624 92.3771H158.597C158.566 92.5069 158.485 92.6194 158.372 92.6902C158.259 92.7609 158.122 92.7842 157.992 92.7551C157.916 92.7405 157.844 92.7079 157.783 92.66C157.722 92.6121 157.673 92.5503 157.641 92.4797Z" fill="black"/>
<path d="M156.599 88.6189C155.951 88.2517 156.47 87.3067 156.475 86.7559C156.588 86.0431 156.718 85.3303 156.88 84.6283C156.907 84.5119 156.979 84.4109 157.08 84.3472C157.181 84.2835 157.303 84.2622 157.42 84.2881C157.498 84.3064 157.571 84.3449 157.629 84.3999C157.688 84.4549 157.731 84.5243 157.755 84.6013C158.09 84.6013 158.392 85.0549 158.068 85.2925C157.882 86.4033 157.628 87.5016 157.307 88.5811C157.288 88.6287 157.259 88.6721 157.224 88.7088C157.188 88.7454 157.145 88.7746 157.098 88.7947C157.051 88.8148 157 88.8253 156.949 88.8257C156.897 88.8261 156.847 88.8164 156.799 88.7971C156.713 88.7641 156.642 88.7007 156.599 88.6189ZM159.251 93.7003C159.23 93.6574 159.216 93.612 159.207 93.5653C158.95 93.6738 158.66 93.6782 158.399 93.5775C158.138 93.4768 157.927 93.2788 157.809 93.0253C157.791 92.9869 157.777 92.9472 157.766 92.9065C157.226 92.5285 156.113 91.5295 156.869 90.8923C156.916 90.8682 156.968 90.8555 157.02 90.8555C157.073 90.8555 157.125 90.8682 157.172 90.8923C157.19 90.7795 157.247 90.6766 157.333 90.6009C157.418 90.5251 157.527 90.4812 157.641 90.4765C158.106 90.4765 158.252 90.9085 158.511 91.1947C159.018 90.9895 159.418 91.4593 159.591 91.8913C159.631 91.8458 159.681 91.8089 159.735 91.7826C159.79 91.7564 159.85 91.7413 159.911 91.7383C159.972 91.7353 160.032 91.7444 160.09 91.7651C160.147 91.7858 160.199 91.8177 160.244 91.8589C160.304 91.9089 160.349 91.9743 160.374 92.0479C160.512 91.8125 160.671 91.5902 160.849 91.3837L160.887 91.3513C160.918 91.3264 160.952 91.3063 160.989 91.2919C161.119 90.9517 161.254 90.3847 161.735 90.5575C161.836 90.5997 161.919 90.6787 161.965 90.7788C162.011 90.8789 162.017 90.9927 161.983 91.0975C161.756 91.6861 161.621 92.4583 161.081 92.8255C160.757 93.4195 159.839 94.6291 159.251 93.7003ZM153.678 99.3217C154.369 99.1435 156.68 99.9157 156.124 100.872C156.037 100.981 155.91 101.053 155.771 101.071C155.632 101.089 155.491 101.052 155.379 100.969L155.341 100.936C155.304 100.886 155.26 100.841 155.211 100.801C155.076 101.141 154.882 101.465 154.774 101.816C154.272 103.119 153.674 104.382 152.987 105.596C150.999 108.836 149.126 112.217 146.274 114.776C142.673 117.849 138.034 120.301 133.196 120.177C127.072 120.582 122.396 115.732 119.323 110.997C118.243 109.069 117.309 107.049 115.829 105.402C115.829 105.461 115.791 105.515 115.775 105.575C115.733 105.677 115.654 105.759 115.554 105.806C115.455 105.853 115.341 105.861 115.235 105.829C114.695 105.586 115.084 104.921 115.289 104.565C115.624 104.279 116.051 104.074 116.418 103.82C116.458 103.747 116.519 103.687 116.592 103.646C116.665 103.605 116.747 103.586 116.831 103.59C116.914 103.594 116.995 103.621 117.064 103.668C117.132 103.716 117.187 103.781 117.22 103.858C117.254 103.934 117.265 104.019 117.253 104.101C117.241 104.184 117.207 104.262 117.153 104.326C117.099 104.39 117.029 104.437 116.95 104.463C116.87 104.49 116.785 104.493 116.704 104.473C129.183 105.472 141.674 103.501 153.662 100.153C153.786 100.147 153.909 100.127 154.029 100.094L153.721 100.007C153.633 99.9664 153.565 99.8923 153.532 99.8012C153.498 99.7102 153.502 99.6096 153.543 99.5215C153.566 99.4424 153.613 99.3726 153.678 99.3217ZM147.673 103.48C147.824 103.323 148.078 102.891 148.332 102.621C145.778 103.253 143.191 103.733 140.615 104.241C134.972 105.257 129.248 105.763 123.513 105.753C123.501 105.807 123.475 105.858 123.438 105.899C124.043 106.894 124.805 107.784 125.695 108.534C127.056 109.215 128.513 109.687 130.015 109.933C133.183 110.383 136.413 110.011 139.395 108.853C142.505 107.794 145.659 106.153 147.673 103.48ZM149.239 109.641C147.414 108.993 145.535 108.512 143.623 108.205C140.178 110.1 135.798 111.207 132.71 111.126C131.36 111.093 130.016 110.943 128.692 110.678C128.676 110.734 128.645 110.784 128.604 110.825C128.562 110.866 128.511 110.895 128.454 110.91C126.644 111.314 124.969 112.181 123.594 113.426C123.368 113.632 123.119 113.805 122.887 114.01C123.783 114.965 124.761 115.851 125.711 116.758C130.371 120.371 136.668 119.577 141.566 116.872C144.806 115.192 147.203 112.552 149.223 109.646L149.239 109.641ZM188.999 134.087C188.459 133.914 188.637 133.309 188.805 132.91C189.091 131.943 189.452 131.001 189.885 130.091C190.565 128.547 191.71 126.878 191.44 125.145C190.139 124.178 188.27 124.248 186.704 124.14C181.531 123.957 176.396 123.352 171.212 123.362C169.721 123.398 168.235 123.533 166.762 123.767C166.716 123.775 166.668 123.774 166.622 123.763C166.576 123.752 166.533 123.731 166.496 123.703C166.458 123.675 166.427 123.639 166.403 123.598C166.38 123.557 166.365 123.512 166.36 123.465C166.355 123.418 166.359 123.37 166.373 123.325C166.387 123.28 166.41 123.239 166.441 123.203C166.471 123.167 166.509 123.138 166.551 123.117C166.593 123.096 166.639 123.084 166.686 123.082C169.877 122.528 173.117 122.312 176.352 122.439C179.171 122.504 182.006 122.817 184.82 122.979C186.888 123.201 192.882 122.601 192.471 125.836C192.385 127.904 191.138 129.67 190.403 131.538C190.117 132.137 189.901 134.292 188.999 134.087Z" fill="black"/>
<path d="M182.228 138.484C178.985 138.564 175.741 138.468 172.508 138.198C171.531 138.154 170.58 137.938 169.614 137.825C169.26 137.826 168.915 137.716 168.626 137.512C167.416 136.669 167.573 135.082 167.189 133.813C166.995 132.819 166.563 131.777 166.358 130.816C166.291 129.903 166.137 128.999 165.899 128.116C165.595 126.982 165.542 125.795 165.742 124.638C165.794 124.224 165.952 123.829 166.201 123.493C166.208 123.471 166.219 123.451 166.234 123.433C166.249 123.415 166.267 123.4 166.288 123.39C166.308 123.379 166.331 123.373 166.354 123.371C166.377 123.369 166.4 123.373 166.422 123.38H166.476C166.495 123.395 166.511 123.413 166.522 123.434C166.534 123.455 166.541 123.478 166.543 123.501C166.546 123.525 166.544 123.549 166.537 123.572C166.53 123.594 166.519 123.616 166.503 123.634L166.471 123.666C166.447 124.064 166.447 124.462 166.471 124.86C166.525 125.653 166.514 126.339 166.628 127.084C166.843 127.717 167.023 128.36 167.168 129.012C167.195 130.935 168.091 132.765 168.383 134.623C168.528 135.39 168.518 136.459 169.387 136.783C172.876 137.22 176.391 137.415 179.906 137.366C182.417 137.22 184.977 137.712 187.374 136.826H187.342L187.515 136.74C187.558 136.119 188.184 133.662 188.935 133.845C189.291 133.942 189.275 134.347 189.221 134.639C189.086 135.179 188.768 135.643 188.681 136.183C188.562 136.578 188.638 136.864 188.498 137.22C187.688 138.549 183.697 138.549 182.228 138.441V138.484ZM189.745 137.879C189.804 136.567 190.625 135.379 191.127 134.185C191.943 131.631 193.547 129.471 194.292 126.901C195.296 123.726 196.819 120.739 198.072 117.661C198.477 116.662 198.849 115.653 199.233 114.648C199.249 114.609 199.273 114.573 199.304 114.543C199.334 114.513 199.37 114.489 199.41 114.473C199.45 114.457 199.492 114.449 199.535 114.449C199.578 114.45 199.62 114.459 199.659 114.475C199.7 114.492 199.736 114.516 199.767 114.547C199.797 114.578 199.822 114.614 199.838 114.654C199.855 114.695 199.863 114.738 199.863 114.781C199.863 114.824 199.854 114.867 199.838 114.907C198.887 117.505 197.84 120.156 196.905 122.737C196.155 124.719 195.447 126.696 194.789 128.677C193.649 131.005 192.591 133.37 191.522 135.697C191.217 136.359 190.959 137.041 190.749 137.739C190.738 137.858 190.686 137.969 190.601 138.054C190.516 138.139 190.405 138.191 190.285 138.202C190.166 138.213 190.047 138.181 189.948 138.114C189.849 138.046 189.778 137.946 189.745 137.83V137.879Z" fill="black"/>
<path d="M190.399 138.05C190.354 137.933 190.357 137.805 190.407 137.69C190.456 137.576 190.548 137.486 190.663 137.439C190.702 137.424 190.741 137.413 190.782 137.407C191.706 135.512 192.526 133.569 193.239 131.586C194.276 129.35 195.399 127.158 196.29 124.874C197.046 122.978 198.067 121.337 198.726 119.474C199.228 118.059 200.313 116.828 200.481 115.343C200.216 115.155 199.914 115.028 199.595 114.97C199.476 114.97 199.347 115.008 199.244 114.889C199.189 114.833 199.159 114.757 199.159 114.678C199.159 114.6 199.189 114.524 199.244 114.468C199.303 114.415 199.381 114.386 199.46 114.387C201.798 114.387 201.296 116.082 200.502 117.573C199.8 118.939 199.33 120.392 198.736 121.79C197.656 123.95 196.852 126.278 195.875 128.508C195.194 129.771 194.605 131.024 194.033 132.288C193.356 134.161 192.577 135.996 191.7 137.785C191.5 138.368 190.734 138.714 190.399 138.05ZM173.405 143.763C172.433 143.639 170.981 143.055 171.018 141.905C171.267 140.566 172.962 139.113 174.328 139.794C174.832 140.091 175.268 140.49 175.608 140.966C175.706 141.219 175.752 141.489 175.746 141.761C175.739 142.032 175.678 142.3 175.568 142.548C175.458 142.796 175.299 143.02 175.103 143.207C174.906 143.395 174.674 143.541 174.42 143.639C174.097 143.762 173.749 143.805 173.405 143.763ZM184.313 143.412C182.266 142.802 183.103 139.572 185.134 139.821C188.46 140.183 187.181 144.049 184.313 143.412Z" fill="black"/>
<path d="M190.545 137.749C190.183 137.533 190.286 137.107 190.496 136.826C190.88 135.843 191.387 134.806 191.744 133.834C193.024 130.065 194.67 126.43 196.658 122.98C196.575 122.912 196.516 122.819 196.49 122.715C196.464 122.611 196.471 122.502 196.512 122.402C197.138 120.826 198.056 119.378 198.58 117.758C198.823 117.262 199.611 113.881 200.384 115.118C202.22 114.988 199.563 118.941 199.304 119.702C199.319 119.664 199.337 119.626 199.358 119.589C198.372 121.889 197.258 124.132 196.02 126.307C195.259 128.283 194.26 130.162 193.499 132.139C192.935 133.823 192.28 135.476 191.538 137.09C191.355 137.468 191.031 138.025 190.545 137.749ZM178.373 137.971C177.93 137.776 178.001 137.22 177.968 136.826C177.925 133.499 178.076 130.168 178.114 126.836C178.114 125.702 178.038 124.573 178.044 123.445C178.042 123.394 178.05 123.343 178.068 123.296C178.086 123.248 178.114 123.205 178.149 123.169C178.184 123.132 178.227 123.104 178.274 123.084C178.321 123.065 178.371 123.055 178.422 123.056C178.472 123.054 178.522 123.063 178.569 123.081C178.615 123.099 178.658 123.126 178.694 123.161C178.73 123.195 178.759 123.237 178.779 123.283C178.799 123.329 178.81 123.378 178.811 123.428C178.811 124.12 178.811 124.805 178.854 125.491C178.962 129.034 179.016 132.576 178.978 136.118C178.843 136.712 179.437 138.192 178.373 137.971ZM182.213 137.566C181.457 136.064 181.851 134.234 181.797 132.598C181.797 129.628 181.905 126.609 182.121 123.661C182.061 122.959 183.201 123.207 182.807 123.823C182.985 128.078 182.682 132.333 182.85 136.583C182.893 136.939 182.736 138.095 182.213 137.566ZM185.679 138.03C185.431 137.857 185.453 137.49 185.431 137.236C185.349 136.301 185.319 135.362 185.339 134.423C185.357 130.852 185.624 127.286 186.138 123.752C186.193 123.688 186.271 123.648 186.355 123.641C186.439 123.634 186.522 123.66 186.587 123.715C186.647 123.763 186.687 123.831 186.699 123.907C186.711 123.983 186.694 124.061 186.651 124.125C186.705 127.905 186.295 131.685 186.381 135.465C186.268 136.118 187.035 138.624 185.679 138.03ZM189.179 131.383C188.703 131.318 188.72 130.789 188.768 130.421C188.865 129.46 188.914 128.542 188.957 127.603C189.038 126.409 189.098 125.21 189.195 124.017C189.211 123.925 189.262 123.844 189.338 123.79C189.414 123.737 189.508 123.715 189.6 123.731C189.686 123.747 189.763 123.793 189.816 123.862C189.87 123.93 189.897 124.016 189.891 124.103C189.589 125.237 190.545 131.501 189.179 131.383ZM174.334 137.161C174.01 135.622 174.296 133.964 174.226 132.382C174.051 129.358 174.067 126.326 174.275 123.304C174.226 123.251 174.194 123.184 174.182 123.113C174.17 123.042 174.179 122.968 174.207 122.902C174.236 122.835 174.282 122.778 174.342 122.738C174.402 122.697 174.472 122.674 174.545 122.672C174.643 122.672 174.738 122.711 174.808 122.779C174.879 122.848 174.92 122.941 174.923 123.04C174.926 123.058 174.926 123.076 174.923 123.094C175.122 125.016 175.004 126.982 175.101 128.92C175.257 131.196 175.275 133.479 175.155 135.757C175.079 136.259 175.355 137.015 174.852 137.333C174.76 137.372 174.656 137.376 174.561 137.344C174.466 137.312 174.385 137.247 174.334 137.161ZM170.64 136.75C170.408 132.301 170.489 127.743 170.694 123.283C170.688 123.252 170.688 123.22 170.694 123.189C170.7 123.158 170.713 123.129 170.73 123.103C170.748 123.077 170.77 123.054 170.797 123.037C170.823 123.02 170.853 123.008 170.883 123.002C170.946 122.989 171.012 123.002 171.066 123.037C171.119 123.073 171.157 123.128 171.17 123.191C171.178 123.23 171.178 123.271 171.17 123.31C171.461 126.01 171.278 128.71 171.391 131.41C171.483 133.03 171.558 134.687 171.515 136.329C171.618 136.82 170.991 137.252 170.64 136.75ZM168.237 135.584C167.276 131.804 168.07 127.721 167.946 123.839C167.778 123.418 168.486 123.299 168.486 123.758C168.696 126.458 168.637 129.158 168.75 131.896C168.75 132.684 168.804 133.462 168.869 134.228C168.896 134.693 169.085 136.178 168.237 135.584ZM133.677 199.093C133.229 195.697 133.677 192.235 133.607 188.833V185.496C133.626 185.374 133.686 185.263 133.777 185.18C133.868 185.097 133.985 185.048 134.108 185.04C134.231 185.032 134.352 185.067 134.453 185.138C134.553 185.209 134.627 185.313 134.66 185.431C134.736 189.211 134.66 193.04 134.617 196.804C134.617 197.522 134.617 198.251 134.714 198.964C134.718 199.087 134.679 199.208 134.604 199.306C134.53 199.404 134.424 199.474 134.304 199.504C134.167 199.53 134.025 199.501 133.908 199.425C133.791 199.348 133.709 199.229 133.677 199.093ZM142.933 217.356C141.367 212.102 141.583 206.524 141.14 201.102C140.805 195.562 139.866 190.075 139.666 184.524C139.662 184.463 139.67 184.401 139.689 184.343C139.709 184.284 139.74 184.23 139.781 184.184C139.821 184.138 139.871 184.1 139.926 184.073C139.982 184.046 140.042 184.031 140.103 184.027C140.227 184.02 140.349 184.062 140.442 184.144C140.535 184.226 140.592 184.341 140.6 184.465C140.789 189.325 141.68 194.141 142.085 198.996C142.517 203.64 142.593 208.311 143.165 212.939C143.36 214.332 143.608 215.714 143.867 217.097C143.891 217.218 143.868 217.344 143.802 217.45C143.737 217.555 143.634 217.631 143.515 217.664C143.395 217.697 143.268 217.683 143.158 217.626C143.048 217.569 142.964 217.473 142.922 217.356H142.933ZM206.448 237.115C205.686 237.012 204.93 236.882 204.169 236.769C204.057 236.746 203.958 236.682 203.889 236.591C203.82 236.5 203.788 236.386 203.796 236.272C203.937 235.451 205.233 236.018 205.811 235.964C209.175 236.564 212.523 235.23 213.273 231.677C213.56 228.977 213.338 226.919 210.228 226.552C209.175 226.363 208.09 226.472 207.096 226.865C206.666 227.297 206.141 227.62 205.562 227.81C205.465 227.835 205.363 227.832 205.268 227.802C205.173 227.772 205.087 227.716 205.022 227.641C204.956 227.565 204.913 227.473 204.897 227.374C204.881 227.275 204.892 227.174 204.93 227.081C205.163 226.358 206.124 226.288 206.55 225.764C207.744 224.225 206.88 222.049 205.892 220.645C204.444 218.798 202.112 217.82 200.038 216.865C198.796 216.577 197.501 216.602 196.271 216.939C195.041 217.275 193.914 217.912 192.991 218.792C192.759 219.138 192.197 219.332 191.911 218.922C191.83 218.775 191.809 218.602 191.851 218.44C191.893 218.277 191.996 218.137 192.138 218.047C192.452 217.661 192.684 217.215 192.818 216.735C193.137 215.401 192.532 214.111 192.078 212.885C191.625 211.659 191.339 210.282 190.361 209.364C189.398 208.424 188.371 207.551 187.289 206.75C185.026 205.73 182.466 205.557 180.026 205.244C177.477 204.974 174.982 205.584 172.574 206.372C170.218 207.043 168.052 208.256 166.25 209.915C164.511 211.211 164.09 213.333 163.205 215.169C162.395 216.762 160.197 216.46 159.381 215.034C157.761 212.042 156.784 208.743 155.726 205.525C154.189 201.18 152.927 196.743 151.946 192.241C151.838 191.485 150.914 189.028 151.946 188.968C152.062 188.978 152.17 189.033 152.246 189.122C152.322 189.211 152.36 189.327 152.351 189.443C152.351 189.443 152.351 189.481 152.351 189.497C152.059 190.577 152.572 191.706 152.772 192.781C153.171 194.563 153.684 196.334 154.154 198.083C155.391 201.896 156.919 205.611 158.199 209.423C158.928 211.162 159.462 213.031 160.488 214.629C160.834 215.061 161.655 215.407 162.065 214.888C162.692 214.143 162.886 213.085 163.264 212.231C163.622 211.303 164.174 210.461 164.884 209.764C169.026 205.552 175.959 203.429 181.77 204.326C186.565 204.995 187.969 205.282 191.414 208.856C192.343 209.861 192.694 211.216 193.121 212.485C193.661 213.862 194.26 215.326 193.909 216.805C196.037 215.677 198.521 215.147 200.81 216.006C202.619 216.875 204.536 217.723 206.016 219.1C207.587 220.72 208.716 223.188 207.987 225.451C211.2 224.954 214.721 226.412 214.38 230.159C214.812 234.609 210.708 237.854 206.448 237.115ZM209.164 211.681C208.376 211.567 208.727 210.601 208.678 210.061C208.77 209.065 208.716 208.06 208.516 207.08C207.117 202.42 201.042 200.551 197.3 203.694C197.296 203.769 197.267 203.84 197.219 203.897C197.17 203.955 197.104 203.994 197.031 204.011C196.958 204.027 196.881 204.02 196.813 203.989C196.745 203.958 196.688 203.906 196.652 203.84C196.442 202.873 198.812 201.874 199.584 201.545C204.833 199.536 210.887 204.612 209.817 210.142C209.736 210.66 209.974 211.681 209.164 211.681ZM222.275 220.58C222.202 220.577 222.13 220.558 222.064 220.526C221.998 220.494 221.939 220.449 221.891 220.393C221.843 220.338 221.807 220.273 221.785 220.203C221.762 220.133 221.755 220.059 221.762 219.986C221.881 218.512 222.162 217.032 221.984 215.552C221.859 213.932 220.785 212.399 219.095 212.264C218.096 212.199 216.8 212.264 216.119 213.079C216.126 213.147 216.119 213.216 216.098 213.28C216.077 213.345 216.043 213.405 215.997 213.456C215.952 213.506 215.896 213.547 215.834 213.574C215.771 213.602 215.704 213.616 215.636 213.616C215.568 213.616 215.5 213.602 215.438 213.574C215.376 213.547 215.32 213.506 215.275 213.456C215.229 213.405 215.195 213.345 215.174 213.28C215.153 213.216 215.145 213.147 215.153 213.079C215.147 213.042 215.147 213.004 215.153 212.966C216.13 210.552 220.828 210.703 222.173 212.809C223.458 214.537 223.323 216.843 223.037 218.863C222.869 219.419 223.123 220.558 222.275 220.58ZM128.186 244.124C123.218 244.124 121.506 238.384 121.058 234.301C121.02 233.961 120.971 233.378 121.425 233.324C121.474 233.321 121.523 233.328 121.569 233.344C121.616 233.36 121.658 233.385 121.695 233.418C121.731 233.45 121.761 233.49 121.783 233.534C121.804 233.578 121.816 233.626 121.819 233.675C121.826 233.74 121.812 233.806 121.781 233.864C122.051 237.104 123.174 240.965 126.155 242.666C130.475 244.286 134.919 241.116 137.193 237.655C138.041 236.315 138.273 234.749 138.699 233.254C138.768 233.138 138.878 233.052 139.007 233.013C139.136 232.974 139.275 232.985 139.396 233.043C139.487 233.093 139.562 233.168 139.612 233.259C139.708 233.515 139.769 233.781 139.796 234.053C140.287 237.044 141.34 240.214 144.013 241.91C145.318 242.603 146.806 242.871 148.271 242.678C149.736 242.484 151.103 241.838 152.183 240.83C153.643 239.274 154.845 237.495 155.742 235.559L156.746 233.399C156.806 233.282 156.909 233.193 157.033 233.149C157.158 233.105 157.294 233.111 157.414 233.165C157.534 233.22 157.629 233.318 157.678 233.44C157.728 233.562 157.729 233.698 157.68 233.821C156.309 237.309 154.511 241.202 151.044 243.001C145.212 245.83 140.06 241.672 139.094 235.775C137.7 240.344 133.035 244.178 128.186 244.124ZM87.8909 234.134C90.3641 234.107 92.3783 231.434 92.0543 229.047C91.8437 228.453 91.1255 228.383 90.5855 228.453C88.1285 228.95 86.7299 231.531 86.4491 233.853C86.9112 234.024 87.3982 234.119 87.8909 234.134ZM99.4145 244.394C96.4464 244.145 93.5464 243.369 90.8501 242.104C87.6803 240.992 85.0397 238.043 85.1909 234.544C76.2755 229.522 77.3069 219.424 85.8821 214.678C90.1373 212.14 95.3105 212.782 99.8897 213.986C102.731 214.797 105.412 216.088 107.817 217.804C108.951 218.555 110.079 219.311 111.192 220.088C112.612 221.028 114.864 223.188 116.376 221.363C119.076 217.248 119.616 212.183 120.696 207.485C121.846 202.393 122.683 197.235 123.201 192.041C123.412 189.519 123.617 186.997 123.866 184.481C124.017 183.547 123.903 182.504 124.314 181.64C124.665 181.246 125.318 181.802 124.935 182.213C124.325 186.581 124.395 191.02 123.855 195.405C123.423 199.46 122.764 203.488 121.878 207.469C120.707 212.523 120.215 218.107 117.056 222.394C114.119 225.094 110.679 220.823 108.114 219.44C105.533 217.669 102.849 216.017 99.8141 215.191C95.8991 214.186 91.6223 213.392 87.8153 215.034C79.4561 218.625 76.8695 228.053 85.3367 233.286C85.4794 232.192 85.8586 231.143 86.448 230.21C87.0373 229.277 87.8227 228.484 88.7495 227.886C90.0401 227.06 92.2487 226.806 93.0695 228.426C94.2143 232.076 90.0995 236.413 86.3681 235.041C86.6273 239.771 91.6709 241.337 95.4887 242.515C99.7655 243.848 104.193 242.963 108.395 241.894C112.337 240.662 115.83 238.335 119.34 236.218C119.46 236.151 119.601 236.132 119.735 236.165C119.868 236.198 119.984 236.281 120.059 236.396C120.122 236.509 120.143 236.641 120.117 236.768C120.091 236.895 120.021 237.008 119.918 237.088C117.241 239.015 114.384 240.679 111.386 242.056C109.78 242.795 108.082 243.315 106.337 243.6C104.076 244.164 101.75 244.429 99.4199 244.388L99.4145 244.394ZM73.7429 232.163C69.6119 232.098 68.2673 228.178 67.7651 224.7C67.0253 219.597 70.7297 214.516 75.5141 212.971C76.6917 212.706 77.8834 212.508 79.0835 212.377C79.2066 212.357 79.333 212.386 79.4348 212.458C79.5366 212.53 79.6054 212.64 79.6262 212.763C79.6469 212.887 79.6179 213.013 79.5455 213.115C79.4731 213.216 79.3632 213.285 79.2401 213.306H79.2131C77.6957 213.522 76.0703 213.652 74.7203 214.413C71.7017 216.001 69.2069 219.084 68.8829 222.513C68.7911 225.726 69.6389 230.257 73.1489 231.261C73.4459 231.472 74.1317 231.488 74.0723 231.952C74.0512 232.021 74.0065 232.079 73.9462 232.118C73.8859 232.157 73.8138 232.172 73.7429 232.163ZM69.0233 240.387C66.9983 240.387 64.5791 240.387 63.2939 238.535C61.1933 235.689 62.3759 231.067 65.6375 229.657C66.1775 229.452 68.4725 228.577 68.5859 229.42C68.6399 229.922 68.0459 229.9 67.7219 229.96C64.8005 230.251 62.8619 233.291 63.4397 236.072C63.5383 236.732 63.8081 237.355 64.2221 237.878C64.6362 238.4 65.18 238.806 65.7995 239.053C66.8795 239.404 67.9973 239.501 69.0665 239.761C69.1084 239.767 69.1486 239.781 69.1848 239.803C69.2211 239.825 69.2525 239.853 69.2772 239.888C69.3019 239.922 69.3194 239.961 69.3287 240.002C69.338 240.044 69.3388 240.086 69.3311 240.128C69.3174 240.2 69.2793 240.265 69.2233 240.312C69.1672 240.359 69.0966 240.386 69.0233 240.387ZM40.3169 225.818C34.9547 225.046 34.7171 218.258 36.5369 214.278C37.1741 212.599 38.7779 211.475 40.2737 210.584C41.1647 210.196 46.4081 207.015 46.7537 208.214C46.7803 208.328 46.762 208.447 46.7027 208.548C46.6433 208.648 46.5475 208.722 46.4351 208.754C44.8742 209.229 43.3793 209.898 41.9855 210.746C38.6213 212.366 37.0337 214.467 36.7421 218.188V218.161C36.2021 222.481 38.5079 225.575 43.0655 224.759C43.4705 224.819 44.3615 224.457 44.5019 224.954C44.5098 225.025 44.4925 225.096 44.453 225.155C44.4134 225.215 44.3543 225.258 44.2859 225.278C42.9737 225.532 41.6615 225.958 40.3169 225.818Z" fill="black"/>
<path d="M115.56 196.862C114.744 196.679 115.506 194.961 115.56 194.411C116.057 191.484 116.343 188.519 116.575 185.565C116.575 185.301 116.575 184.982 116.807 184.809C117.228 184.399 117.855 185.096 117.417 185.479C117.18 186.937 116.813 197.003 115.56 196.862ZM113.713 209.784C113.254 209.714 113.238 209.244 113.351 208.899C113.724 207.063 114.183 205.194 114.512 203.38C114.647 202.656 114.782 201.933 114.896 201.22C114.907 201.145 114.942 201.077 114.996 201.023C115.049 200.97 115.118 200.935 115.193 200.923C115.7 200.891 115.614 201.522 115.592 201.863C115.397 203.984 115.058 206.089 114.577 208.164C114.345 208.683 114.48 209.801 113.713 209.784ZM132.964 219.839C132.176 215.703 133.013 211.496 132.608 207.338C132.635 206.901 132.219 206.215 132.791 206.004C132.847 205.987 132.905 205.982 132.963 205.988C133.021 205.995 133.077 206.013 133.128 206.042C133.178 206.07 133.222 206.109 133.257 206.156C133.292 206.202 133.317 206.256 133.331 206.312C133.333 206.327 133.333 206.341 133.331 206.355C133.914 209.709 133.779 213.095 133.796 216.486C133.839 217.598 133.941 218.673 133.974 219.764C133.978 219.83 133.97 219.896 133.949 219.959C133.928 220.021 133.895 220.079 133.851 220.129C133.808 220.179 133.755 220.22 133.696 220.249C133.637 220.279 133.573 220.296 133.507 220.301C133.441 220.306 133.374 220.297 133.312 220.276C133.249 220.255 133.191 220.222 133.141 220.179C133.091 220.135 133.05 220.083 133.021 220.023C132.991 219.964 132.974 219.9 132.969 219.834L132.964 219.839ZM249.901 37.195C250.7 38.5126 248.821 39.3928 247.741 39.6142C245.662 40.0732 243.669 40.5214 241.617 41.0074C240.186 41.3476 238.512 41.4232 237.395 42.4708C237.176 42.6922 236.937 42.8928 236.682 43.0702C236.606 43.243 236.504 43.405 236.433 43.5454C235.051 46.3534 234.565 49.4855 233.085 52.2719C230.693 56.7647 228.636 61.4519 225.914 65.7719C223.959 68.974 221.837 72.3005 218.619 74.3633C216.974 75.9968 215.026 77.2936 212.884 78.181C211.451 78.4938 209.976 78.5595 208.521 78.3755C208.564 82.1554 208.47 85.9354 208.24 89.7154C207.873 98.1124 208.877 106.499 209.055 114.885C209.19 120.825 209.487 126.722 209.682 132.645V137.009C209.682 138.629 209.952 140.303 209.385 141.869C209.039 142.614 208.845 143.591 207.932 143.84C207.828 143.875 207.715 143.875 207.611 143.839C207.508 143.802 207.419 143.732 207.36 143.64C207.128 143.224 207.533 142.976 207.819 142.76C208.117 142.271 208.344 141.741 208.494 141.188C208.677 139.891 208.704 138.577 208.575 137.273C208.575 134.406 208.575 131.544 208.407 128.687C208.11 118.227 207.619 107.773 207.074 97.3295C206.841 90.2447 207.565 83.1761 207.371 76.0913C207.371 72.4516 206.879 68.8552 206.674 65.2264C206.366 63.7408 206.177 62.2331 206.107 60.7174C205.788 59.5024 205.886 58.1687 205.778 56.8943C205.778 56.8078 205.778 56.7268 205.751 56.6404C205.724 56.554 205.751 56.4677 205.724 56.3759C205.685 56.088 205.627 55.803 205.551 55.5226C204.865 52.9464 203.706 50.5202 202.133 48.3676C201.679 47.8023 201.167 47.2864 200.604 46.8286C199.809 46.3526 198.932 46.0303 198.018 45.8782C195.377 44.9818 192.618 45.6406 189.918 45.592C185.393 45.8188 180.959 46.1752 176.477 46.7044C168.48 47.0014 160.466 47.104 152.469 47.3956C147.069 47.4496 141.701 47.5037 136.312 47.6224C132.532 47.7413 128.779 47.8276 125.015 47.9032C123.422 48.0688 121.82 48.1157 120.22 48.0436C117.902 47.8976 115.576 47.9845 113.276 48.3028C111.461 48.427 109.636 48.3514 107.816 48.4C103.404 48.4 99.0033 48.4 94.5915 48.5998C91.3029 48.886 88.0089 49.1398 84.7095 49.1398C81.1509 49.3181 77.6409 50.1496 74.0931 50.2738L73.8717 50.3225C71.1069 50.9489 67.9317 51.1433 65.7069 53.0981C65.2857 53.6381 64.8429 54.2104 64.4325 54.7828C63.7385 56.1941 63.2823 57.7103 63.0825 59.2703C62.9259 59.9939 63.1149 60.7337 62.9637 61.4302C62.8827 61.6462 62.9637 62.089 62.7153 62.1592C62.2887 71.782 64.0059 81.3508 63.8979 90.979C64.0815 101.385 64.5729 111.774 64.8969 122.169C64.9671 125.998 65.0427 129.827 65.1561 133.655C66.5115 133.477 67.8561 133.288 69.2061 133.218C70.8261 133.148 72.3759 132.797 73.9797 132.915C74.4562 132.921 74.9306 132.979 75.3945 133.088C82.0221 132.415 88.6587 131.913 95.3043 131.582C96.7799 131.637 98.2575 131.591 99.7269 131.447C101.675 131.497 103.625 131.429 105.564 131.241C109.447 131.279 113.33 131.025 117.196 130.766C123.449 130.469 129.616 130.523 135.88 130.226C139.023 130.016 142.171 130.226 145.319 130.059C147.544 130.237 149.758 129.789 151.956 130.151C153.257 130.265 154.491 130.776 155.493 131.614C155.907 132.057 156.155 132.629 156.195 133.234C156.415 134.187 156.552 135.157 156.605 136.134C156.989 139.287 157.334 142.436 157.518 145.611C157.528 146.028 157.508 146.444 157.458 146.858C162.858 146.858 168.258 146.291 173.658 146C181.375 145.584 189.092 145.179 196.781 144.38L203.456 143.769C204.396 143.651 205.33 143.482 206.253 143.262C206.319 143.235 206.39 143.221 206.462 143.222C206.533 143.222 206.604 143.237 206.67 143.265C206.736 143.292 206.796 143.333 206.846 143.384C206.896 143.435 206.936 143.495 206.963 143.562C206.99 143.628 207.003 143.699 207.003 143.77C207.002 143.842 206.988 143.913 206.96 143.979C206.932 144.045 206.892 144.104 206.841 144.155C206.79 144.205 206.729 144.245 206.663 144.272C203.834 145.206 200.761 145.071 197.818 145.465C194.346 145.719 190.901 146.172 187.428 146.41C179.69 146.977 171.936 147.128 164.208 147.89C158.182 148.057 152.145 148.224 146.108 148.3C146.102 148.324 146.091 148.346 146.075 148.365C147.35 157.21 147.663 166.217 150.325 174.825C150.695 176.314 151.267 177.746 152.026 179.08C152.532 179.38 153.077 179.609 153.646 179.76C155.018 179.771 156.367 179.415 157.556 178.729C160.925 176.504 164.543 174.647 168.102 172.789C169.976 171.785 171.633 170.44 173.502 169.425C175.154 168.372 176.828 167.362 178.491 166.325C180.84 164.754 184.091 162.254 187.045 162.966C187.368 163.02 187.688 163.096 188.001 163.193C188.297 163.359 188.555 163.585 188.759 163.857C188.962 164.128 189.107 164.439 189.183 164.77L189.259 165.008C189.799 166.088 190.199 167.492 190.501 168.161C191.273 171.115 192.791 175.008 190.55 177.644C189.61 178.383 188.805 177.93 188.336 176.958C187.736 175.802 187.256 174.588 186.905 173.334C186.365 171.515 186.149 169.468 184.966 167.934C184.831 167.81 184.668 167.719 184.491 167.67C183.119 168.005 182.077 169.16 180.873 169.862C177.746 172.146 174.198 173.82 171.201 176.277C168.818 178.082 166.29 179.686 163.641 181.073C160.806 182.822 157.615 184.426 154.213 184.394L152.831 184.35C147.279 184.826 145.384 179.323 144.563 174.814C143.602 170.251 142.565 165.634 142.506 160.952C142.241 158.058 141.534 155.255 141.35 152.355C141.264 151.038 141.377 149.704 141.35 148.381C135.95 148.413 130.55 148.381 125.15 148.16H124.74C124.707 148.447 124.659 148.731 124.594 149.013C123.811 152.204 122.585 155.293 121.592 158.42C120.193 162.102 118.476 165.699 116.958 169.328C114.258 174.96 113.616 180.311 105.969 177.179C103.745 176.601 101.806 175.311 99.6621 174.522C97.5183 173.734 95.1261 173.604 93.2577 172.238C92.9553 175.273 91.0005 177.779 89.2995 180.187C88.1655 181.472 87.3663 183.783 85.3953 183.816C82.5981 183.632 84.3153 178.416 84.8553 176.796C86.2647 173.556 87.5175 170.035 90.0717 167.486C90.7305 166.784 91.6917 166.946 92.5611 167.124C98.1123 168.545 102.157 173.972 108.124 174.085C108.448 174.053 108.875 174.134 109.118 173.885C109.709 173.381 110.24 172.81 110.7 172.184C112.139 169.679 113.402 167.078 114.48 164.397C115.56 161.827 116.845 159.381 117.871 156.805C118.697 154.865 119.418 152.882 120.031 150.865C120.279 149.95 120.577 149.048 120.922 148.165C113.519 148.095 106.115 147.587 98.7171 147.792C92.8581 148.154 86.9721 148.489 81.1455 149.191C77.86 149.722 74.5377 149.993 71.2095 150.001C69.9098 149.9 68.6276 149.638 67.3917 149.223C67.2879 149.24 67.1823 149.24 67.0785 149.223C66.2739 148.943 65.3397 148.365 65.2695 147.431C65.1739 147.137 65.1052 146.835 65.0643 146.529C64.2219 144.687 64.3083 142.598 64.1949 140.589C63.8655 134.309 63.7899 128.018 63.6549 121.727C63.3039 111.288 62.8719 100.856 62.6829 90.4066V88.8839C60.7663 88.4456 58.948 87.6545 57.3207 86.551C55.034 85.1958 52.8774 83.6322 50.8785 81.8801C45.0141 76.8203 40.3539 70.4266 36.5631 63.7198C35.0511 61.1062 33.2367 58.6438 32.2431 55.771C32.0517 55.3606 31.9155 54.9267 31.8381 54.4804C30.3091 52.8621 28.3337 51.7344 26.1627 51.2404C24.5427 50.9272 22.7013 51.019 21.2595 50.1172C20.7789 49.6852 19.4343 48.7888 20.0769 48.0922C21.2163 47.5522 22.6203 48.2218 23.8083 48.292C25.9683 48.7186 28.1013 49.1992 30.2127 49.7878C27.9177 46.9096 26.6757 43.3078 25.5471 39.868C25.0071 38.1022 25.6767 37.4596 26.9835 38.9878C28.7169 41.2882 29.9589 43.9396 31.3197 46.4398C30.8823 43.2916 30.2397 39.6628 31.8921 36.7738C32.0811 36.4444 32.4915 36.0232 32.7615 36.5254C33.5931 38.032 33.1935 39.895 33.3717 41.5528C33.4851 43.6696 33.6741 45.7594 33.8523 47.8654C35.0835 45.457 36.3093 43.0054 38.2317 41.0776C39.0039 40.4458 39.9111 39.328 40.9695 39.3604C41.9307 39.7114 41.3583 40.9804 41.0019 41.623C39.9921 43.4644 38.7123 45.1384 37.6809 46.9582C36.5631 48.7726 35.1321 50.3818 34.1439 52.2772C34.1439 52.3474 34.0845 52.423 34.0521 52.4932C34.1061 52.5305 34.1475 52.5832 34.1709 52.6444C36.3309 58.6924 40.0245 63.925 43.6641 69.1414C46.7097 73.3858 50.4843 77.0254 54.4263 80.422C56.9191 82.2489 59.6639 83.7041 62.5749 84.742C62.2725 78.4294 61.5705 72.133 61.4949 65.8097C61.5424 63.1859 61.7498 60.5674 62.1159 57.9688C62.0454 57.8361 62.0298 57.6809 62.0727 57.5369C62.1213 57.0827 62.1213 56.6248 62.0727 56.1706C62.0727 51.7588 64.7187 49.6474 68.9307 49.3559C73.2021 48.8159 77.5113 48.5566 81.7989 48.3082H82.0743C84.7041 47.9194 87.3555 48.049 90.0015 47.8708C93.4953 47.4065 97.0215 47.4064 100.526 47.2444C106.288 47.2444 112.05 47.3255 117.806 46.7747C120.13 46.9529 122.464 46.9529 124.788 46.7747C127.213 46.6181 129.648 46.7746 132.068 46.6072C138.548 46.3372 145.071 46.3751 151.572 46.2347C160.18 45.9701 168.815 45.8944 177.411 45.4571C181.634 44.917 185.911 44.6632 190.139 44.431C191.948 44.431 193.746 44.2204 195.539 44.2204C196.267 44.3005 196.989 44.4304 197.699 44.6092C199.616 44.7496 201.609 45.0737 203.169 46.0997C204.87 47.5075 206.026 49.4653 206.436 51.6347L206.615 52.1422C207.032 53.1094 207.233 54.1563 207.203 55.2094V55.4093C207.387 57.7528 207.236 60.199 207.592 62.4292C208.024 66.3604 208.316 70.2989 208.467 74.2444C209.341 74.3957 210.226 74.4823 211.113 74.5037C211.916 74.2764 212.701 73.9894 213.462 73.6451C216.27 72.7973 218.322 70.6264 220.363 68.6662C223.139 65.5073 225.131 61.8136 227.129 58.1416C229.289 53.8756 231.39 49.5448 233.134 45.0844C233.361 44.6632 233.706 43.4644 234.128 42.6814C234.121 42.6349 234.124 42.5875 234.136 42.5421C234.148 42.4967 234.169 42.4542 234.198 42.4168C234.328 41.9293 234.386 41.4254 234.371 40.921C234.22 39.1946 233.775 37.5069 233.053 35.9314C232.513 34.2304 231.401 32.578 231.509 30.742C231.444 29.716 232.103 28.9708 233.129 29.4568C235.218 30.8338 235.872 33.7768 236.525 36.0664C237.001 33.2173 237.912 30.4581 239.225 27.8854C241.25 23.7058 241.823 25.9306 241.25 29.1328C240.834 31.8328 239.781 34.3276 238.998 36.9142C240.162 35.3025 241.473 33.8021 242.913 32.4322C244.533 30.8122 248.6 28.0474 246.035 32.6752C244.577 34.7218 242.741 36.493 241.175 38.4424C243.34 38.005 248.081 35.8882 249.901 37.195Z" fill="black"/>
</svg>
