<svg width="20" height="20" viewBox="0 0 20 20" fill="none" xmlns="http://www.w3.org/2000/svg">
<path fill-rule="evenodd" clip-rule="evenodd" d="M4.74573 2.0744C3.33735 2.28869 2.22145 3.32069 1.97963 4.7246C1.81109 5.70306 1.66675 6.946 1.66675 8.33329C1.66675 9.72058 1.81109 10.9635 1.97963 11.942C2.18721 13.1471 3.03888 14.0782 4.16675 14.4533V17.2896C4.16675 17.9348 4.86851 18.3353 5.42402 18.007L10.5201 14.9957C12.3654 14.9655 14.0199 14.78 15.2544 14.5922C16.6628 14.3779 17.7787 13.3459 18.0205 11.942C18.1891 10.9635 18.3334 9.72058 18.3334 8.33329C18.3334 6.946 18.1891 5.70306 18.0205 4.7246C17.7787 3.32069 16.6628 2.28869 15.2544 2.0744C13.905 1.86907 12.0538 1.66663 10.0001 1.66663C7.9464 1.66663 6.09517 1.86907 4.74573 2.0744ZM5.00008 6.66663C5.00008 6.20639 5.37318 5.83329 5.83341 5.83329H14.1667C14.627 5.83329 15.0001 6.20639 15.0001 6.66663C15.0001 7.12686 14.627 7.49996 14.1667 7.49996H5.83341C5.37318 7.49996 5.00008 7.12686 5.00008 6.66663ZM5.00008 9.99996C5.00008 9.53972 5.37318 9.16663 5.83341 9.16663H9.16675C9.62699 9.16663 10.0001 9.53972 10.0001 9.99996C10.0001 10.4602 9.62699 10.8333 9.16675 10.8333H5.83342C5.37318 10.8333 5.00008 10.4602 5.00008 9.99996Z" fill="#FF8B6A"/>
</svg>
