<svg width="88" height="28" viewBox="0 0 88 28" fill="none" xmlns="http://www.w3.org/2000/svg">
<path d="M18.7102 5.6178C17.838 5.61875 17.0017 5.95128 16.3851 6.54246C15.7683 7.13363 15.4214 7.93516 15.4205 8.77115V16.6255C15.4298 17.1876 15.3223 17.7457 15.1043 18.2675C14.8863 18.7893 14.5622 19.2643 14.1508 19.6649C13.7394 20.0655 13.2489 20.3837 12.708 20.6008C12.1671 20.818 11.5864 20.9298 11 20.9298C10.4135 20.9298 9.83294 20.818 9.29201 20.6008C8.75108 20.3837 8.26063 20.0655 7.84923 19.6649C7.43782 19.2643 7.11369 18.7893 6.89569 18.2675C6.67769 17.7457 6.5702 17.1876 6.57945 16.6255V8.77115C6.57945 7.93492 6.23286 7.13293 5.61591 6.54163C4.99897 5.95032 4.16221 5.61813 3.28973 5.61813C2.41724 5.61813 1.58048 5.95032 0.963535 6.54163C0.346592 7.13293 0 7.93492 0 8.77115V17.4571C-4.30506e-08 18.8416 0.284522 20.2126 0.837323 21.4917C1.39013 22.7709 2.20039 23.933 3.22183 24.9121C4.24326 25.8911 5.4559 26.6677 6.79048 27.1975C8.12506 27.7273 9.55546 28 11 28C12.4445 28 13.875 27.7273 15.2095 27.1975C16.5441 26.6677 17.7567 25.8911 18.7781 24.9121C19.7996 23.933 20.6099 22.7709 21.1626 21.4917C21.7155 20.2126 22 18.8416 22 17.4571V8.77115C21.999 7.93514 21.6522 7.13362 21.0355 6.54246C20.4187 5.95128 19.5824 5.61875 18.7102 5.6178ZM20.5607 17.4565C20.5607 19.8868 19.5534 22.2175 17.7604 23.9359C15.9675 25.6544 13.5357 26.6199 11 26.6199C8.46433 26.6199 6.03253 25.6544 4.23955 23.9359C2.44656 22.2175 1.43927 19.8868 1.43927 17.4565V8.77115C1.44348 8.30343 1.64028 7.85623 1.98686 7.5269C2.33343 7.19759 2.8017 7.01282 3.28973 7.01282C3.77775 7.01282 4.24602 7.19759 4.59259 7.5269C4.93915 7.85623 5.13597 8.30343 5.14018 8.77115V16.6255C5.14018 18.115 5.75755 19.5436 6.85648 20.5969C7.9554 21.6501 9.44588 22.2418 11 22.2418C12.5541 22.2418 14.0446 21.6501 15.1436 20.5969C16.2424 19.5436 16.8598 18.115 16.8598 16.6255V8.77115C16.8598 8.30077 17.0547 7.84966 17.4018 7.51705C17.7489 7.18444 18.2195 6.99759 18.7102 6.99759C19.2011 6.99759 19.6717 7.18444 20.0188 7.51705C20.3657 7.84966 20.5607 8.30077 20.5607 8.77115V17.4565Z" fill="#FF8B6A"/>
<path d="M10.2803 7.22536V16.3184C10.2803 16.5014 10.3561 16.6768 10.4911 16.8062C10.6261 16.9356 10.8091 17.0082 11 17.0082C11.1908 17.0082 11.3738 16.9356 11.5088 16.8062C11.6438 16.6768 11.7196 16.5014 11.7196 16.3184V7.22536C12.6487 7.05378 13.4778 6.55643 14.0449 5.83045C14.6119 5.10446 14.8763 4.20197 14.7864 3.29917C14.6965 2.39637 14.2588 1.55812 13.5586 0.94807C12.8584 0.338026 11.9462 0 11 0C10.0537 0 9.14148 0.338026 8.44134 0.94807C7.74119 1.55812 7.30342 2.39637 7.21351 3.29917C7.12359 4.20197 7.38799 5.10446 7.95507 5.83045C8.52214 6.55643 9.35119 7.05378 10.2803 7.22536ZM11 1.38094C11.4676 1.38094 11.9248 1.51386 12.3136 1.76289C12.7025 2.01191 13.0056 2.36586 13.1845 2.77998C13.3635 3.19409 13.4103 3.64977 13.3191 4.08939C13.2278 4.52901 13.0026 4.93282 12.6719 5.24976C12.3412 5.56669 11.9198 5.78252 11.4612 5.86995C11.0025 5.95739 10.5271 5.91248 10.095 5.74094C9.66294 5.56939 9.29366 5.27889 9.03385 4.90619C8.77405 4.53348 8.6354 4.09532 8.63543 3.64708C8.63616 3.04626 8.88551 2.47024 9.3288 2.0454C9.77208 1.62057 10.3731 1.3816 11 1.38094Z" fill="#FF8B6A"/>
<path d="M42.996 4.86364H46.156V16.5358C46.156 17.8153 45.8607 18.9406 45.2702 19.9118C44.6853 20.8831 43.8619 21.642 42.8001 22.1887C41.7383 22.7296 40.4976 23 39.078 23C37.6527 23 36.4092 22.7296 35.3474 22.1887C34.2855 21.642 33.4622 20.8831 32.8773 19.9118C32.2924 18.9406 32 17.8153 32 16.5358V4.86364H35.16V16.2654C35.16 17.0098 35.319 17.6728 35.6369 18.2544C35.9606 18.8359 36.4149 19.2925 36.9997 19.624C37.5846 19.9496 38.2773 20.1125 39.078 20.1125C39.8786 20.1125 40.5714 19.9496 41.1562 19.624C41.7468 19.2925 42.201 18.8359 42.519 18.2544C42.837 17.6728 42.996 17.0098 42.996 16.2654V4.86364Z" fill="#2D2D2D"/>
<path d="M55.9872 9.33012V11.7727H48.4663V9.33012H55.9872ZM50.3231 6.11983H53.4064V18.6993C53.4064 19.1238 53.4689 19.4495 53.5938 19.6763C53.7244 19.8973 53.8948 20.0485 54.1049 20.1299C54.315 20.2114 54.5478 20.2521 54.8033 20.2521C54.9964 20.2521 55.1724 20.2375 55.3314 20.2084C55.4961 20.1794 55.621 20.1532 55.7061 20.1299L56.2257 22.5987C56.061 22.6569 55.8254 22.7208 55.5188 22.7906C55.2178 22.8604 54.8487 22.9011 54.4115 22.9128C53.6393 22.936 52.9437 22.8168 52.3247 22.5551C51.7058 22.2876 51.2146 21.8747 50.8512 21.3163C50.4935 20.758 50.3175 20.0601 50.3231 19.2227V6.11983Z" fill="#2D2D2D"/>
<path d="M58.5659 22.7296V9.33012H61.6492V22.7296H58.5659ZM60.116 7.42838C59.6277 7.42838 59.2075 7.26263 58.8555 6.93113C58.5034 6.59382 58.3274 6.18962 58.3274 5.71855C58.3274 5.24166 58.5034 4.83747 58.8555 4.50597C59.2075 4.16866 59.6277 4 60.116 4C60.6101 4 61.0303 4.16866 61.3766 4.50597C61.7287 4.83747 61.9047 5.24166 61.9047 5.71855C61.9047 6.18962 61.7287 6.59382 61.3766 6.93113C61.0303 7.26263 60.6101 7.42838 60.116 7.42838Z" fill="#2D2D2D"/>
<path d="M67.9031 4.86364V22.7296H64.8198V4.86364H67.9031Z" fill="#2D2D2D"/>
<path d="M74.157 4.86364V22.7296H71.0737V4.86364H74.157Z" fill="#2D2D2D"/>
<path d="M81.0924 23C80.2633 23 79.5166 22.8488 78.8523 22.5464C78.1936 22.2381 77.6712 21.7845 77.2851 21.1855C76.9046 20.5865 76.7144 19.8479 76.7144 18.9697C76.7144 18.2137 76.8507 17.5885 77.1232 17.0941C77.3958 16.5998 77.7677 16.2043 78.239 15.9077C78.7103 15.6111 79.2412 15.3872 79.8318 15.236C80.428 15.079 81.0441 14.9656 81.6801 14.8958C82.4466 14.8144 83.0684 14.7417 83.5454 14.6777C84.0224 14.6079 84.3687 14.5032 84.5845 14.3636C84.806 14.2182 84.9167 13.9943 84.9167 13.6919V13.6396C84.9167 12.9824 84.7265 12.4735 84.346 12.1129C83.9656 11.7524 83.4176 11.5721 82.7022 11.5721C81.9469 11.5721 81.3479 11.7407 80.905 12.0781C80.4678 12.4154 80.1725 12.8137 80.0192 13.2732L77.1403 12.8545C77.3674 12.0403 77.7422 11.3598 78.2646 10.8131C78.787 10.2606 79.4258 9.84772 80.181 9.57438C80.9362 9.29523 81.7709 9.15565 82.6851 9.15565C83.3154 9.15565 83.9429 9.23125 84.5675 9.38246C85.1921 9.53367 85.7628 9.78375 86.2795 10.1327C86.7962 10.4758 87.2107 10.944 87.523 11.5372C87.841 12.1304 88 12.8719 88 13.7617V22.7296H85.0359V20.8889H84.9337C84.7463 21.2611 84.4823 21.61 84.1416 21.9357C83.8066 22.2556 83.3836 22.5144 82.8725 22.7121C82.3671 22.904 81.7738 23 81.0924 23ZM81.893 20.6795C82.5119 20.6795 83.0485 20.5545 83.5028 20.3044C83.9571 20.0485 84.3063 19.7112 84.5504 19.2925C84.8003 18.8737 84.9252 18.4172 84.9252 17.9229V16.3439C84.8287 16.4253 84.664 16.5009 84.4312 16.5707C84.2041 16.6405 83.9485 16.7016 83.6646 16.7539C83.3807 16.8062 83.0996 16.8528 82.8214 16.8935C82.5432 16.9342 82.3018 16.9691 82.0974 16.9982C81.6375 17.0621 81.2258 17.1668 80.8624 17.3122C80.499 17.4576 80.2122 17.6612 80.0021 17.9229C79.792 18.1788 79.687 18.5103 79.687 18.9174C79.687 19.4989 79.8942 19.938 80.3088 20.2346C80.7233 20.5312 81.2514 20.6795 81.893 20.6795Z" fill="#2D2D2D"/>
</svg>
