<svg width="147" height="195" viewBox="0 0 147 195" fill="none" xmlns="http://www.w3.org/2000/svg">
<path d="M28.8476 42.8338L0.84577 98.8375C-0.119064 100.767 -0.264812 103.004 0.441508 105.043L29.7423 189.609C31.1887 193.784 35.7418 195.999 39.9193 194.561L124.924 165.302C129.136 163.852 131.356 159.245 129.866 155.047L99.8432 70.4902C99.1319 68.4868 97.6533 66.8482 95.7332 65.9355L39.4524 39.1813C35.5126 37.3084 30.7985 38.9321 28.8476 42.8338Z" fill="#FF8B6A"/>
<path d="M42.5801 27.6301L14.5783 83.6337C13.6134 85.5634 13.4677 87.8007 14.174 89.8392L43.4748 174.405C44.9212 178.58 49.4743 180.795 53.6518 179.358L138.656 150.098C142.868 148.648 145.089 144.041 143.598 139.843L113.576 55.2864C112.864 53.283 111.386 51.6444 109.466 50.7317L53.1849 23.9775C49.2451 22.1046 44.531 23.7283 42.5801 27.6301Z" stroke="#2D2D2D" stroke-width="1.5"/>
<path d="M65.2855 51.9939C65.2855 56.7255 61.4498 60.5612 56.7183 60.5612C51.9867 60.5612 48.151 56.7255 48.151 51.9939C48.151 47.2624 51.9867 43.4267 56.7183 43.4267C61.4498 43.4267 65.2855 47.2624 65.2855 51.9939Z" fill="white" stroke="#2D2D2D" stroke-width="1.5"/>
<path d="M57.8626 51.8308C52.4678 32.5948 37.918 -3.12689 20.9163 2.62364C9.79982 6.38363 17.3743 36.7361 25.9842 49.5419" stroke="#2D2D2D" stroke-width="4"/>
<path d="M145.722 94.5008C145.722 106.276 136.176 115.822 124.401 115.822C112.626 115.822 103.08 106.276 103.08 94.5008C103.08 82.7257 112.626 73.18 124.401 73.18C136.176 73.18 145.722 82.7257 145.722 94.5008Z" fill="white" stroke="#2D2D2D" stroke-width="1.5"/>
<ellipse cx="124.401" cy="94.5003" rx="16.5539" ry="16.5539" fill="#5564D7"/>
<path d="M123.416 97.6508C123.416 95.519 123.416 95.5289 121.205 95.519C120.652 95.519 120.1 95.519 119.547 95.5091C118.984 95.4991 118.677 95.2314 118.677 94.6761C118.677 94.101 118.974 93.754 119.567 93.7441C120.591 93.7143 121.615 93.7044 122.628 93.7441C123.242 93.7639 123.457 93.5557 123.426 92.9607C123.385 92.0584 123.416 91.1561 123.416 90.2438C123.416 89.6092 123.641 89.1035 124.399 89.1035C125.146 89.1035 125.381 89.5795 125.381 90.2339C125.381 91.1363 125.412 92.0485 125.371 92.9508C125.351 93.5259 125.535 93.7738 126.159 93.7441C127.121 93.7044 128.083 93.7441 129.046 93.7342C129.701 93.7342 130.131 93.9721 130.12 94.6662C130.12 95.3306 129.68 95.5289 129.076 95.5289C128.145 95.5289 127.213 95.5487 126.272 95.5289C125.617 95.5091 125.31 95.6975 125.361 96.4015C125.422 97.2741 125.371 98.1565 125.371 99.0291C125.371 99.6637 125.156 100.199 124.429 100.219C123.631 100.249 123.426 99.6736 123.406 99.0192C123.416 98.5631 123.416 98.107 123.416 97.6508Z" fill="white"/>
</svg>
