<svg width="318" height="280" viewBox="0 0 318 280" fill="none" xmlns="http://www.w3.org/2000/svg">
<path d="M123.776 43H62.1323V104.644H123.776V43ZM114.97 95.8373H70.9385V51.8062H114.97V95.8373Z" fill="#36414F"/>
<path d="M189.822 219.124H181.016V236.736H255.868V227.93H189.822V219.124Z" fill="#36414F"/>
<path d="M106.162 60.6123H79.7437V87.031H106.162V60.6123Z" fill="#36414F"/>
<path d="M62.131 236.737H123.774V175.093H62.131V236.737ZM70.9372 183.899H114.968V227.931H70.9372V183.899Z" fill="#36414F"/>
<path d="M106.162 192.706H79.7437V219.125H106.162V192.706Z" fill="#36414F"/>
<path d="M194.225 43V104.644H255.868V43H194.225ZM247.062 95.8373H203.031V51.8062H247.062V95.8373Z" fill="#36414F"/>
<path d="M238.257 60.6123H211.838V87.031H238.257V60.6123Z" fill="#36414F"/>
<path d="M255.869 113.45H238.257V131.062H255.869V113.45Z" fill="#36414F"/>
<path d="M79.7434 148.675H62.131V166.287H79.7434V148.675Z" fill="#36414F"/>
<path d="M154.596 113.45H119.371V122.256H163.402V104.644V95.8373H172.208V78.2249H163.402H154.596H145.79V60.6124H154.596V69.4187H185.418V43H176.611V60.6124H163.402V43H158.999H141.387H136.984V87.0311H154.596V95.8373H136.984V104.644H154.596V113.45Z" fill="#36414F"/>
<path d="M75.3403 139.868H92.9527H101.759H106.162V148.675H88.5496V157.481H106.162V166.287H141.387V157.481H114.968V148.675V131.062H101.759V117.853H92.9527V131.062H84.1465V113.45H62.131V122.256H75.3403V139.868Z" fill="#36414F"/>
<path d="M159.001 219.124V197.109H141.388V179.496H132.582V205.915H150.194V219.124H132.582V227.93H150.194V236.737H172.21V227.93H159.001V219.124Z" fill="#36414F"/>
<path d="M203.03 131.062H185.418V109.047H176.611V139.869H220.642V131.062H211.836V122.256H225.046V113.45H211.836H203.03H194.224V122.256H203.03V131.062Z" fill="#36414F"/>
<path d="M194.224 210.318H207.434V219.124H225.046V210.318V201.512V188.302H207.434V201.512H194.224V188.302H185.418V201.512H176.612V166.287H167.806V157.481H158.999V131.062H128.178V148.674H136.984V139.868H150.193V157.481V175.093H167.806V201.512V210.318H176.612H185.418H194.224Z" fill="#36414F"/>
<path d="M247.061 153.077H233.852H225.046H203.03V170.69H194.224V153.077H185.418V179.496H211.837V161.884H225.046V175.093H233.852V161.884H247.061V188.302H233.852V214.721H255.868V205.915H242.658V197.109H255.868V161.884V153.077V139.868H247.061V153.077Z" fill="#36414F"/>
<rect x="0.825583" y="0.825583" width="316.349" height="278.086" stroke="#E2E8ED" stroke-width="1.65117"/>
</svg>
