<svg width="20" height="20" viewBox="0 0 20 20" fill="none" xmlns="http://www.w3.org/2000/svg">
<path fill-rule="evenodd" clip-rule="evenodd" d="M1.66675 2.49996C1.66675 2.03972 2.03984 1.66663 2.50008 1.66663H8.33342C8.79365 1.66663 9.16675 2.03972 9.16675 2.49996V8.33329C9.16675 8.79353 8.79365 9.16663 8.33342 9.16663H2.50008C2.03984 9.16663 1.66675 8.79353 1.66675 8.33329V2.49996ZM3.33341 3.33329V7.49996H7.50008V3.33329H3.33341Z" fill="#FF8B6A"/>
<path d="M3.33341 7.49996V3.33329H7.50008V7.49996H3.33341Z" fill="#FF8B6A"/>
<path fill-rule="evenodd" clip-rule="evenodd" d="M10.8333 2.49996C10.8333 2.03972 11.2063 1.66663 11.6666 1.66663H17.4999C17.9602 1.66663 18.3333 2.03972 18.3333 2.49996V8.33329C18.3333 8.79353 17.9602 9.16663 17.4999 9.16663H11.6666C11.2063 9.16663 10.8333 8.79353 10.8333 8.33329V2.49996ZM12.4999 3.33329V7.49996H16.6666V3.33329H12.4999Z" fill="#FF8B6A"/>
<path d="M12.4999 7.49996V3.33329H16.6666V7.49996H12.4999Z" fill="#FF8B6A"/>
<path fill-rule="evenodd" clip-rule="evenodd" d="M10.8333 11.6667C10.8333 11.2065 11.2063 10.8334 11.6666 10.8334H17.4999C17.9602 10.8334 18.3333 11.2065 18.3333 11.6667V17.5C18.3333 17.9603 17.9602 18.3334 17.4999 18.3334H11.6666C11.2063 18.3334 10.8333 17.9603 10.8333 17.5V11.6667ZM12.4999 12.5V16.6667H16.6666V12.5H12.4999Z" fill="#FF8B6A"/>
<path d="M12.4999 16.6667V12.5H16.6666V16.6667H12.4999Z" fill="#FF8B6A"/>
<path fill-rule="evenodd" clip-rule="evenodd" d="M1.66675 11.6667C1.66675 11.2065 2.03984 10.8334 2.50008 10.8334H8.33342C8.79365 10.8334 9.16675 11.2065 9.16675 11.6667V17.5C9.16675 17.9603 8.79365 18.3334 8.33342 18.3334H2.50008C2.03984 18.3334 1.66675 17.9603 1.66675 17.5V11.6667ZM3.33341 12.5V16.6667H7.50008V12.5H3.33341Z" fill="#FF8B6A"/>
<path d="M3.33341 16.6667V12.5H7.50008V16.6667H3.33341Z" fill="#FF8B6A"/>
</svg>
