<svg width="494" height="598" viewBox="0 0 494 598" fill="none" xmlns="http://www.w3.org/2000/svg">
<path d="M249.953 302.654C249.953 303.423 248.67 304.117 246.076 304.436H239.491C236.902 304.117 235.622 303.423 235.622 302.636C235.622 301.848 236.902 301.17 239.491 300.832H246.076C248.67 301.17 249.95 301.845 249.95 302.654H249.953ZM278.615 302.654C278.615 303.423 277.332 304.117 274.738 304.436H268.153C265.564 304.117 264.284 303.423 264.284 302.636C264.284 301.848 265.564 301.17 268.153 300.832H274.738C277.332 301.17 278.612 301.845 278.612 302.654H278.615ZM307.277 302.654C307.277 303.423 305.994 304.117 303.4 304.436H296.815C294.226 304.117 292.946 303.423 292.946 302.636C292.946 301.848 294.226 301.17 296.815 300.832H303.4C305.994 301.17 307.274 301.845 307.274 302.654H307.277ZM326.578 317.215C325.893 317.215 325.274 315.776 324.99 312.866C325.078 310.599 324.541 308.758 323.361 307.177C322.2 305.2 321.216 304.209 321.514 303.431C321.706 302.775 323.485 302.459 325.814 304.849C327.533 307.011 328.341 310.219 328.202 312.866C327.901 315.776 327.299 317.215 326.578 317.215ZM326.578 349.369C325.893 349.369 325.274 347.93 324.99 345.023V337.635C325.276 334.731 325.893 333.292 326.597 333.292C327.302 333.292 327.901 334.731 328.202 337.633V345.023C327.901 347.93 327.299 349.369 326.578 349.369ZM326.578 381.523C325.893 381.523 325.274 380.084 324.99 377.177V369.789C325.276 366.885 325.893 365.446 326.597 365.446C327.302 365.446 327.901 366.885 328.202 369.787V377.177C327.901 380.084 327.299 381.523 326.578 381.523ZM333.531 409.867C333.471 410.236 333.089 410.547 332.318 410.617C331.556 410.684 330.381 410.472 329.055 409.561C326.932 407.788 325.516 405.149 325.114 402.214C325.049 400.392 325.389 399.427 325.635 398.682C325.914 397.959 326.244 397.6 326.597 397.6C326.948 397.6 327.273 397.959 327.55 398.682C327.844 399.384 327.999 400.603 328.291 401.667C328.539 403.65 329.547 405.475 330.975 406.673C332.492 408.334 333.674 409.004 333.531 409.867ZM362.188 410.025C362.188 410.794 360.908 411.49 358.316 411.809H351.729C349.14 411.488 347.86 410.794 347.86 410.006C347.86 409.218 349.14 408.543 351.729 408.205H358.316C360.908 408.543 362.191 409.218 362.191 410.027L362.188 410.025ZM390.85 410.025C390.85 410.794 389.57 411.49 386.978 411.809H380.391C377.802 411.488 376.522 410.794 376.522 410.006C376.522 409.218 377.802 408.543 380.391 408.205H386.978C389.57 408.543 390.853 409.218 390.853 410.027L390.85 410.025ZM419.512 410.025C419.512 410.794 418.232 411.49 415.64 411.809H409.053C406.464 411.488 405.183 410.794 405.183 410.006C405.183 409.218 406.464 408.543 409.053 408.205H415.64C418.232 408.543 419.514 409.218 419.514 410.027L419.512 410.025ZM448.174 410.025C448.174 410.794 446.894 411.49 444.302 411.809H437.715C435.126 411.488 433.845 410.794 433.845 410.006C433.845 409.218 435.126 408.543 437.715 408.205H444.302C446.894 408.543 448.176 409.218 448.176 410.027L448.174 410.025ZM465.061 392.669C465.749 392.669 466.367 394.108 466.651 397.018L466.644 400.759C466.617 402.23 466.331 403.68 465.804 405.027C464.189 408.082 462.388 408.328 462.037 407.76C461.552 407.117 462.268 405.855 462.861 403.58C463.219 402.667 463.417 401.678 463.434 400.673L463.439 397.018C463.74 394.108 464.342 392.669 465.063 392.669H465.061ZM465.061 360.515C465.749 360.515 466.367 361.952 466.651 364.862V372.249C466.365 375.154 465.749 376.59 465.044 376.59C464.339 376.59 463.74 375.154 463.439 372.249V364.862C463.74 361.952 464.342 360.515 465.063 360.515H465.061ZM465.061 328.362C465.749 328.362 466.367 329.798 466.651 332.708V340.095C466.365 343 465.749 344.436 465.044 344.436C464.339 344.436 463.74 343 463.439 340.095V332.708C463.74 329.798 464.342 328.362 465.063 328.362H465.061ZM465.061 296.208C465.749 296.208 466.367 297.644 466.651 300.554V307.941C466.365 310.846 465.749 312.282 465.044 312.282C464.339 312.282 463.74 310.846 463.439 307.941V300.554C463.74 297.644 464.342 296.208 465.063 296.208H465.061ZM465.061 264.054C465.749 264.054 466.367 265.49 466.651 268.4V275.787C466.365 278.692 465.749 280.128 465.044 280.128C464.339 280.128 463.74 278.692 463.439 275.787V268.4C463.74 265.49 464.342 264.054 465.063 264.054H465.061ZM465.061 231.9C465.749 231.9 466.367 233.336 466.651 236.246V243.633C466.365 246.538 465.749 247.974 465.044 247.974C464.339 247.974 463.74 246.538 463.439 243.633V236.246C463.74 233.336 464.342 231.9 465.063 231.9H465.061ZM465.061 199.746C465.749 199.746 466.367 201.182 466.651 204.092V211.479C466.365 214.384 465.749 215.82 465.044 215.82C464.339 215.82 463.74 214.384 463.439 211.479V204.092C463.74 201.182 464.342 199.746 465.063 199.746H465.061ZM465.061 167.592C465.749 167.592 466.367 169.028 466.651 171.938V179.325C466.365 182.23 465.749 183.666 465.044 183.666C464.339 183.666 463.74 182.23 463.439 179.325V171.938C463.74 169.028 464.342 167.592 465.063 167.592H465.061ZM454.124 143.567C454.124 143.181 454.444 142.817 455.089 142.506C455.729 142.23 456.641 141.844 458.265 141.949C460.872 142.454 463.198 144.084 464.745 146.491C465.534 147.991 465.706 149.312 465.629 150.167C465.553 151.03 465.266 151.456 464.927 151.517C464.175 151.659 463.589 150.328 462.14 148.599C461.085 146.959 459.5 145.847 457.723 145.502C456.777 145.156 455.734 144.985 455.089 144.652C454.444 144.342 454.124 143.969 454.124 143.567ZM425.462 143.567C425.462 142.798 426.744 142.102 429.336 141.783H435.923C438.51 142.104 439.793 142.798 439.793 143.586C439.793 144.374 438.51 145.049 435.923 145.387H429.336C426.744 145.049 425.462 144.374 425.462 143.565V143.567ZM411.749 122.726C412.437 122.726 413.056 124.165 413.34 127.075L413.347 134.395C413.185 136.753 413.419 138.216 412.767 138.621C412.249 139.015 410.672 138.039 410.14 134.543L410.128 127.075C410.429 124.165 411.031 122.726 411.752 122.726H411.749ZM411.749 90.5721C412.437 90.5721 413.056 92.011 413.34 94.9183V102.306C413.056 105.21 412.437 106.649 411.735 106.649C411.03 106.649 410.429 105.21 410.128 102.308V94.9183C410.429 92.011 411.031 90.5721 411.752 90.5721H411.749ZM411.749 58.4182C412.437 58.4182 413.056 59.857 413.34 62.7643V70.1517C413.056 73.0563 412.437 74.4951 411.735 74.4951C411.03 74.4951 410.429 73.0563 410.128 70.1544V62.7643C410.429 59.857 411.031 58.4182 411.752 58.4182H411.749ZM405.477 29.4689C405.561 29.1071 405.969 28.8258 406.743 28.8338C407.507 28.8365 408.654 29.1607 409.915 30.1843C411.903 32.1449 413.123 34.9045 413.312 37.8664C413.085 41.0282 412.423 42.2849 411.735 42.3412C411.021 42.3974 410.45 40.7737 410.106 38.121C409.978 36.1026 409.145 34.2224 407.789 32.8879C406.397 31.098 405.274 30.3102 405.477 29.4689ZM376.834 29.1366C376.834 28.3676 378.117 27.6736 380.709 27.3547H387.294C389.883 27.6736 391.165 28.3676 391.165 29.1553C391.165 29.9431 389.883 30.621 387.296 30.9587H380.709C378.117 30.621 376.834 29.9458 376.834 29.1366ZM348.172 29.1366C348.172 28.3676 349.455 27.6736 352.047 27.3547H358.632C361.221 27.6736 362.503 28.3676 362.503 29.1553C362.503 29.9431 361.221 30.621 358.634 30.9587H352.047C349.455 30.621 348.172 29.9458 348.172 29.1366ZM319.51 29.1366C319.51 28.3676 320.793 27.6736 323.385 27.3547H329.97C332.559 27.6736 333.841 28.3676 333.841 29.1553C333.841 29.9431 332.559 30.621 329.972 30.9587H323.385C320.793 30.621 319.51 29.9458 319.51 29.1366ZM290.849 29.1366C290.849 28.3676 292.131 27.6736 294.723 27.3547H301.308C303.897 27.6736 305.18 28.3676 305.18 29.1553C305.18 29.9431 303.897 30.621 301.31 30.9587H294.723C292.131 30.621 290.849 29.9458 290.849 29.1366ZM262.187 29.1366C262.187 28.3676 263.469 27.6736 266.061 27.3547H272.646C275.235 27.6736 276.518 28.3676 276.518 29.1553C276.518 29.9431 275.235 30.621 272.648 30.9587H266.061C263.469 30.621 262.187 29.9458 262.187 29.1366ZM233.525 29.1366C233.525 28.3676 234.807 27.6736 237.399 27.3547H243.984C246.573 27.6736 247.856 28.3676 247.856 29.1553C247.856 29.9431 246.573 30.621 243.986 30.9587H237.399C234.807 30.621 233.525 29.9458 233.525 29.1366ZM204.863 29.1366C204.863 28.3676 206.145 27.6736 208.737 27.3547H215.322C217.911 27.6736 219.194 28.3676 219.194 29.1553C219.194 29.9431 217.911 30.621 215.324 30.9587H208.737C206.145 30.621 204.863 29.9458 204.863 29.1366ZM176.201 29.1366C176.201 28.3676 177.483 27.6736 180.075 27.3547H186.66C189.249 27.6736 190.532 28.3676 190.532 29.1553C190.532 29.9431 189.249 30.621 186.662 30.9587H180.075C177.483 30.621 176.201 29.9458 176.201 29.1366ZM147.539 29.1366C147.539 28.3676 148.821 27.6736 151.413 27.3547H157.998C160.587 27.6736 161.87 28.3676 161.87 29.1553C161.87 29.9431 160.587 30.621 158 30.9587H151.413C148.821 30.621 147.539 29.9458 147.539 29.1366ZM133.74 49.9617C133.055 49.9617 132.436 48.5228 132.152 45.6128L132.164 38.1317C132.384 36.4061 132.986 35.2566 133.509 34.6376C134.044 34.0106 134.512 33.8847 134.813 34.0749C135.465 34.4768 135.205 35.9398 135.374 38.3032L135.365 45.6128C135.064 48.5228 134.459 49.9617 133.74 49.9617ZM129.135 80.1382C128.801 79.4013 129.733 78.3429 130.786 76.2877C131.316 75.4839 131.717 74.5729 131.932 73.6082C132.174 72.6275 132.157 71.7111 132.152 70.3821C132.436 67.4775 133.055 66.0386 133.757 66.0386C134.459 66.0386 135.064 67.4775 135.365 70.3821C135.372 71.5129 135.4 73.0938 135.042 74.5032C134.717 75.9272 134.146 77.2656 133.361 78.442C131.163 80.9929 129.372 80.7946 129.133 80.1382H129.135ZM100.619 81.1805C100.619 80.4115 101.902 79.7175 104.493 79.3959H111.081C113.67 79.7175 114.95 80.4115 114.95 81.1993C114.95 81.987 113.67 82.6623 111.081 83.0025H104.493C101.902 82.6623 100.619 81.987 100.619 81.1805ZM71.9572 81.1805C71.9572 80.4115 73.2398 79.7175 75.8313 79.3959H82.4188C85.0079 79.7175 86.2882 80.4115 86.2882 81.1993C86.2882 81.987 85.0079 82.6623 82.4188 83.0025H75.8313C73.2398 82.6623 71.9572 81.987 71.9572 81.1805ZM51.4925 94.511C50.8142 94.4654 50.1621 93.1739 49.9233 90.0604C50.0736 87.0966 51.2597 84.3188 53.2242 82.33C54.471 81.2904 55.6127 80.9474 56.377 80.934C57.1485 80.9179 57.5617 81.1966 57.6549 81.5637C57.8627 82.3836 56.752 83.1955 55.381 85.0015C54.041 86.3547 53.2323 88.2473 53.131 90.2667C52.7943 92.9676 52.2186 94.5565 51.4901 94.511H51.4925ZM51.4925 126.665C50.8046 126.665 50.186 125.226 49.9018 122.319V114.931C50.186 112.027 50.8046 110.588 51.5069 110.588C52.2091 110.588 52.8134 112.027 53.1143 114.929V122.319C52.8134 125.226 52.2091 126.665 51.4901 126.665H51.4925ZM51.4925 158.819C50.8046 158.819 50.186 157.38 49.9018 154.473V147.085C50.186 144.181 50.8046 142.742 51.5069 142.742C52.2091 142.742 52.8134 144.181 53.1143 147.083V154.473C52.8134 157.38 52.2091 158.819 51.4901 158.819H51.4925ZM51.4925 190.973C50.8046 190.973 50.186 189.534 49.9018 186.627V179.239C50.186 176.335 50.8046 174.896 51.5069 174.896C52.2091 174.896 52.8134 176.335 53.1143 179.237V186.627C52.8134 189.534 52.2091 190.973 51.4901 190.973H51.4925ZM51.4925 223.127C50.8046 223.127 50.186 221.688 49.9018 218.781V211.393C50.186 208.489 50.8046 207.05 51.5069 207.05C52.2091 207.05 52.8134 208.489 53.1143 211.391V218.781C52.8134 221.688 52.2091 223.127 51.4901 223.127H51.4925ZM51.4925 255.281C50.8046 255.281 50.186 253.842 49.9018 250.935V243.547C50.186 240.643 50.8046 239.204 51.5069 239.204C52.2091 239.204 52.8134 240.643 53.1143 243.545V250.935C52.8134 253.842 52.2091 255.281 51.4901 255.281H51.4925ZM51.4925 287.435C50.8046 287.435 50.186 285.996 49.9018 283.089V275.701C50.186 272.797 50.8046 271.358 51.5069 271.358C52.2091 271.358 52.8134 272.797 53.1143 275.699V283.089C52.8134 285.996 52.2091 287.435 51.4901 287.435H51.4925ZM51.4925 319.589C50.8046 319.589 50.186 318.15 49.9018 315.243V307.855C50.186 304.951 50.8046 303.512 51.5069 303.512C52.2091 303.512 52.8134 304.951 53.1143 307.853V315.243C52.8134 318.15 52.2091 319.589 51.4901 319.589H51.4925ZM74.3218 330.275C74.3218 331.044 73.0415 331.738 70.45 332.059H63.8626C61.2734 331.738 59.9932 331.044 59.9932 330.256C59.9932 329.468 61.2734 328.793 63.8626 328.453H70.45C73.0415 328.793 74.3218 329.468 74.3218 330.275ZM102.984 330.275C102.984 331.044 101.703 331.738 99.112 332.059H92.5245C89.9354 331.738 88.6551 331.044 88.6551 330.256C88.6551 329.468 89.9354 328.793 92.5245 328.453H99.112C101.703 328.793 102.984 329.468 102.984 330.275ZM131.646 330.275C131.646 331.044 130.365 331.738 127.774 332.059H121.186C118.597 331.738 117.317 331.044 117.317 330.256C117.317 329.468 118.597 328.793 121.186 328.453H127.774C130.365 328.793 131.646 329.468 131.646 330.275ZM160.308 330.275C160.308 331.044 159.027 331.738 156.436 332.059H149.848C147.259 331.738 145.979 331.044 145.979 330.256C145.979 329.468 147.259 328.793 149.848 328.453H156.436C159.027 328.793 160.308 329.468 160.308 330.275ZM183.261 330.275C183.261 331.044 182.49 331.738 180.93 332.059H176.967C175.41 331.738 174.639 331.044 174.639 330.256C174.639 329.468 175.41 328.793 176.967 328.453H180.932C182.49 328.793 183.261 329.468 183.261 330.275Z" fill="#BBCAEA"/>
<path d="M365.198 120.558V150.287C365.198 152.391 363.707 154.087 361.859 154.087H326.356L321.035 162.876L315.713 154.087H310.707C310.265 154.084 309.828 153.984 309.421 153.791C309.014 153.598 308.645 153.317 308.335 152.964C308.025 152.611 307.78 152.193 307.615 151.734C307.449 151.274 307.366 150.783 307.37 150.287V120.558C307.37 118.455 308.86 116.762 310.707 116.762H361.859C363.707 116.762 365.195 118.455 365.195 120.558H365.198Z" fill="#64D3FF"/>
<path d="M332.239 131.387H332.241C333.28 131.387 334.236 130.685 334.936 129.414C335.437 128.498 336.065 128.005 336.71 128.005C337.355 128.005 337.981 128.498 338.473 129.393C339.182 130.679 340.14 131.381 341.177 131.381C342.218 131.381 343.173 130.679 343.873 129.409C344.365 128.517 344.991 128.024 345.634 128.021H345.636C346.281 128.021 346.904 128.514 347.396 129.404C348.103 130.69 349.061 131.387 350.095 131.387H350.1C351.137 131.387 352.095 130.685 352.792 129.414C353.286 128.517 353.915 128.021 354.559 128.021C355.202 128.021 355.825 128.514 356.317 129.404C357.027 130.69 357.982 131.387 359.019 131.387H359.021C360.06 131.387 361.016 130.685 361.715 129.414C361.776 129.277 361.788 129.119 361.75 128.972C361.712 128.824 361.627 128.698 361.51 128.618C361.394 128.537 361.255 128.509 361.121 128.537C360.986 128.565 360.866 128.649 360.784 128.771C360.292 129.664 359.666 130.157 359.021 130.157C358.376 130.157 357.75 129.666 357.258 128.777C356.551 127.491 355.596 126.794 354.559 126.794H354.557C353.518 126.794 352.563 127.493 351.863 128.763C351.368 129.664 350.743 130.157 350.098 130.157C349.453 130.157 348.829 129.666 348.337 128.777C347.628 127.491 346.673 126.794 345.638 126.794H345.634C344.597 126.794 343.639 127.496 342.942 128.763C342.45 129.658 341.824 130.151 341.177 130.151C340.532 130.151 339.908 129.658 339.416 128.766C338.707 127.477 337.749 126.778 336.71 126.778C335.671 126.778 334.713 127.474 334.016 128.747C333.512 129.664 332.886 130.157 332.241 130.157C331.596 130.157 330.971 129.666 330.479 128.777C329.772 127.491 328.816 126.794 327.78 126.794H327.777C326.738 126.794 325.783 127.493 325.083 128.763C324.589 129.664 323.963 130.157 323.318 130.157C322.673 130.157 322.05 129.666 321.558 128.777C320.848 127.491 319.893 126.794 318.859 126.794H318.854C317.817 126.794 316.859 127.496 316.162 128.763C315.67 129.658 315.042 130.151 314.399 130.151C313.754 130.151 313.126 129.658 312.637 128.763C312.555 128.639 312.434 128.553 312.299 128.524C312.163 128.495 312.023 128.524 311.906 128.605C311.788 128.686 311.703 128.814 311.665 128.963C311.628 129.112 311.642 129.271 311.705 129.409C312.402 130.679 313.358 131.381 314.399 131.381C315.438 131.381 316.394 130.679 317.093 129.409C317.586 128.517 318.211 128.024 318.854 128.021H318.856C319.501 128.021 320.124 128.514 320.616 129.404C321.323 130.69 322.281 131.387 323.316 131.387H323.32C324.357 131.387 325.315 130.685 326.012 129.414C326.507 128.517 327.135 128.021 327.78 128.021C328.422 128.021 329.045 128.514 329.538 129.404C330.247 130.69 331.202 131.387 332.239 131.387ZM359.019 143.653C360.082 143.685 361.016 142.954 361.715 141.681C361.776 141.544 361.788 141.386 361.75 141.238C361.712 141.091 361.627 140.965 361.51 140.885C361.394 140.804 361.255 140.775 361.121 140.804C360.986 140.832 360.866 140.916 360.784 141.038C360.292 141.93 359.666 142.423 359.021 142.423C358.376 142.423 357.75 141.933 357.258 141.043C356.551 139.757 355.596 139.061 354.559 139.061H354.557C353.518 139.061 352.563 139.763 351.863 141.033C351.368 141.93 350.743 142.426 350.098 142.426C349.453 142.426 348.829 141.933 348.337 141.043C347.628 139.757 346.673 139.061 345.638 139.061H345.634C344.597 139.061 343.639 139.763 342.942 141.033C342.45 141.925 341.824 142.418 341.177 142.418C340.532 142.418 339.908 141.925 339.416 141.033C338.707 139.744 337.749 139.045 336.71 139.045C336.006 139.045 335.342 139.366 334.766 139.966C334.307 140.449 334.408 141.298 334.933 141.681L334.947 141.66C335.439 140.765 336.065 140.272 336.71 140.272C337.355 140.272 337.981 140.765 338.473 141.66C339.182 142.946 340.14 143.648 341.177 143.648C342.218 143.648 343.173 142.946 343.873 141.676C344.365 140.784 344.991 140.291 345.634 140.291H345.636C346.281 140.291 346.904 140.781 347.396 141.67C348.103 142.957 349.061 143.653 350.095 143.653H350.1C351.137 143.653 352.095 142.951 352.792 141.681C353.286 140.784 353.915 140.288 354.559 140.288C355.202 140.288 355.825 140.781 356.317 141.67C357.027 142.957 357.982 143.653 359.019 143.653Z" fill="white"/>
<path d="M311.252 57.2823C325.077 57.2823 336.284 44.7099 336.284 29.2011C336.284 13.6923 325.077 1.11998 311.252 1.11998C297.428 1.11998 286.221 13.6923 286.221 29.2011C286.221 44.7099 297.428 57.2823 311.252 57.2823Z" fill="white"/>
<path d="M311.255 58.3997C296.9 58.3997 285.225 45.3023 285.225 29.2012C285.225 13.1001 296.902 0 311.255 0C325.605 0 337.282 13.1001 337.282 29.2012C337.282 45.3023 325.034 58.3997 311.255 58.3997ZM311.255 2.23739C298.001 2.23739 287.221 14.3326 287.221 29.2012C287.221 44.0697 298.001 56.1623 311.255 56.1623C324.508 56.1623 335.285 44.067 335.285 29.2012C335.285 14.3353 324.506 2.24007 311.255 2.24007V2.23739Z" fill="#D1DCF8"/>
<path d="M311.038 53.4103C322.956 53.4103 332.618 42.5715 332.618 29.2011C332.618 15.8307 322.956 4.99179 311.038 4.99179C299.12 4.99179 289.458 15.8307 289.458 29.2011C289.458 42.5715 299.12 53.4103 311.038 53.4103Z" fill="#D1DCF8"/>
<path d="M311.213 30.2758C311.021 30.2756 310.833 30.213 310.671 30.0956C310.51 29.9782 310.382 29.811 310.303 29.614L303.119 11.6078C303.027 11.3402 303.03 11.0432 303.127 10.7782C303.225 10.5131 303.409 10.3 303.643 10.1829C303.876 10.0657 304.14 10.0535 304.382 10.1486C304.623 10.2437 304.822 10.4389 304.939 10.6941L311.717 27.6794L322.083 22.4865C322.323 22.3795 322.59 22.3806 322.829 22.4896C323.068 22.5986 323.26 22.807 323.365 23.0712C323.47 23.3354 323.479 23.6349 323.392 23.907C323.305 24.1791 323.127 24.4027 322.896 24.531L311.622 30.1794C311.494 30.2432 311.356 30.2761 311.216 30.2758H311.213Z" fill="white"/>
<path d="M89.7477 196.986H13.2681C9.74918 196.986 6.37439 195.418 3.88614 192.627C1.39788 189.835 0 186.049 0 182.101V132.188C0 128.24 1.39788 124.454 3.88614 121.663C6.37439 118.871 9.74918 117.303 13.2681 117.303H89.7477C93.2667 117.303 96.6415 118.871 99.1297 121.663C101.618 124.454 103.016 128.24 103.016 132.188V182.099C103.016 184.054 102.673 185.99 102.007 187.796C101.34 189.602 100.363 191.243 99.1305 192.626C97.8985 194.008 96.4357 195.105 94.8258 195.853C93.2159 196.601 91.4903 196.986 89.7477 196.986Z" fill="#F3F6FD"/>
<path d="M98.8646 117.303H4.15121C1.85826 117.303 0 119.388 0 121.96V130.62H103.016V121.96C103.016 119.388 101.158 117.303 98.8646 117.303Z" fill="#64D3FF"/>
<path opacity="0.55" d="M17.9608 156.778H13.265C12.5465 156.778 11.835 156.619 11.1711 156.311C10.5072 156.003 9.90398 155.551 9.39583 154.981C8.88767 154.411 8.48457 153.735 8.20954 152.99C7.93452 152.246 7.79296 151.447 7.79296 150.641V145.371C7.79296 143.744 8.36923 142.183 9.39499 141.032C10.4207 139.881 11.812 139.235 13.2626 139.235H17.9608C19.4114 139.235 20.8027 139.881 21.8284 141.032C22.8542 142.183 23.4304 143.744 23.4304 145.371V150.641C23.4304 152.269 22.8542 153.83 21.8284 154.98C20.8027 156.131 19.4114 156.778 17.9608 156.778ZM41.0265 156.778H36.3307C35.6122 156.778 34.9007 156.619 34.2368 156.311C33.573 156.003 32.9697 155.551 32.4615 154.981C31.9534 154.411 31.5503 153.735 31.2753 152.99C31.0002 152.246 30.8587 151.447 30.8587 150.641V145.371C30.8587 143.744 31.4349 142.183 32.4607 141.032C33.4865 139.881 34.8777 139.235 36.3283 139.235H41.0265C41.7448 139.235 42.456 139.394 43.1197 139.702C43.7833 140.01 44.3862 140.462 44.8941 141.032C45.402 141.602 45.8049 142.278 46.0798 143.023C46.3547 143.767 46.4962 144.565 46.4962 145.371V150.641C46.4962 152.269 45.9199 153.83 44.8941 154.98C43.8684 156.131 42.4771 156.778 41.0265 156.778ZM64.0922 156.778H59.3988C58.6803 156.778 57.9688 156.619 57.3049 156.311C56.6411 156.003 56.0378 155.551 55.5296 154.981C55.0215 154.411 54.6184 153.735 54.3434 152.99C54.0683 152.246 53.9268 151.447 53.9268 150.641V145.371C53.9268 144.565 54.0682 143.767 54.3431 143.023C54.618 142.278 55.0209 141.602 55.5288 141.032C56.0367 140.462 56.6397 140.01 57.3033 139.702C57.9669 139.394 58.6781 139.235 59.3964 139.235H64.0946C65.5452 139.235 66.9365 139.881 67.9622 141.032C68.988 142.183 69.5643 143.744 69.5643 145.371V150.641C69.5643 152.269 68.988 153.83 67.9622 154.98C66.9365 156.131 65.5452 156.778 64.0946 156.778H64.0922ZM87.1579 156.778H82.4621C81.7436 156.778 81.0321 156.619 80.3683 156.311C79.7044 156.003 79.1011 155.551 78.593 154.981C78.0848 154.411 77.6817 153.735 77.4067 152.99C77.1316 152.246 76.9901 151.447 76.9901 150.641V145.371C76.9901 143.744 77.5664 142.183 78.5921 141.032C79.6179 139.881 81.0091 139.235 82.4597 139.235H87.1579C88.6086 139.235 89.9998 139.881 91.0256 141.032C92.0513 142.183 92.6276 143.744 92.6276 145.371V150.641C92.6276 152.269 92.0513 153.83 91.0256 154.98C89.9998 156.131 88.6086 156.778 87.1579 156.778ZM17.9608 182.193H13.265C12.5463 182.193 11.8346 182.034 11.1706 181.726C10.5065 181.418 9.90318 180.965 9.39499 180.395C8.8868 179.825 8.48374 179.148 8.20886 178.403C7.93397 177.658 7.79264 176.86 7.79296 176.054V170.783C7.79296 169.156 8.36923 167.595 9.39499 166.444C10.4207 165.294 11.812 164.647 13.2626 164.647H17.9608C19.4114 164.647 20.8027 165.294 21.8284 166.444C22.8542 167.595 23.4304 169.156 23.4304 170.783V176.054C23.4304 177.681 22.8542 179.242 21.8284 180.393C20.8027 181.543 19.4114 182.19 17.9608 182.19V182.193ZM41.0265 182.193H36.3307C35.612 182.193 34.9003 182.034 34.2363 181.726C33.5722 181.418 32.9689 180.965 32.4607 180.395C31.9525 179.825 31.5494 179.148 31.2746 178.403C30.9997 177.658 30.8584 176.86 30.8587 176.054V170.783C30.8587 169.156 31.4349 167.595 32.4607 166.444C33.4865 165.294 34.8777 164.647 36.3283 164.647H41.0265C41.7448 164.647 42.456 164.806 43.1197 165.114C43.7833 165.423 44.3862 165.875 44.8941 166.444C45.402 167.014 45.8049 167.691 46.0798 168.435C46.3547 169.18 46.4962 169.977 46.4962 170.783V176.054C46.4962 177.681 45.9199 179.242 44.8941 180.393C43.8684 181.543 42.4771 182.19 41.0265 182.19V182.193ZM64.0922 182.193H59.3988C58.6801 182.193 57.9684 182.034 57.3044 181.726C56.6403 181.418 56.037 180.965 55.5288 180.395C55.0206 179.825 54.6175 179.148 54.3427 178.403C54.0678 177.658 53.9264 176.86 53.9268 176.054V170.783C53.9268 169.977 54.0682 169.18 54.3431 168.435C54.618 167.691 55.0209 167.014 55.5288 166.444C56.0367 165.875 56.6397 165.423 57.3033 165.114C57.9669 164.806 58.6781 164.647 59.3964 164.647H64.0946C65.5452 164.647 66.9365 165.294 67.9622 166.444C68.988 167.595 69.5643 169.156 69.5643 170.783V176.054C69.5643 177.681 68.988 179.242 67.9622 180.393C66.9365 181.543 65.5452 182.19 64.0946 182.19L64.0922 182.193ZM87.1579 182.193H82.4621C81.7434 182.193 81.0317 182.034 80.3677 181.726C79.7037 181.418 79.1003 180.965 78.5921 180.395C78.0839 179.825 77.6809 179.148 77.406 178.403C77.1311 177.658 76.9898 176.86 76.9901 176.054V170.783C76.9901 169.156 77.5664 167.595 78.5921 166.444C79.6179 165.294 81.0091 164.647 82.4597 164.647H87.1579C88.6086 164.647 89.9998 165.294 91.0256 166.444C92.0513 167.595 92.6276 169.156 92.6276 170.783V176.054C92.6276 177.681 92.0513 179.242 91.0256 180.393C89.9998 181.543 88.6086 182.19 87.1579 182.19V182.193Z" fill="#D1DCF8"/>
<path d="M9.57721 143.415C9.57721 143.415 13.0596 147.585 15.3144 152.132C18.4624 145.902 23.9655 138.796 23.9655 138.796C23.9655 138.796 18.4266 141.674 15.3144 148.013C12.8757 145.216 9.57721 143.415 9.57721 143.415Z" fill="#FE4C40"/>
<path d="M413.075 103.633C425.751 99.3271 432.915 84.3091 429.078 70.089C425.24 55.8688 411.853 47.8314 399.177 52.1369C386.501 56.4424 379.337 71.4605 383.174 85.6806C387.012 99.9007 400.399 107.938 413.075 103.633Z" fill="#FE4C40"/>
<path d="M413.185 95.6657C421.938 91.2924 425.874 79.7867 421.975 69.9669C418.077 60.1471 407.821 55.7318 399.067 60.1051C390.314 64.4784 386.378 75.9842 390.277 85.804C394.175 95.6238 404.431 100.039 413.185 95.6657Z" fill="#E4ECF9"/>
<path d="M406.126 64.5171C404.547 64.492 402.979 64.8193 401.514 65.4799C400.048 66.1405 398.714 67.1213 397.59 68.3652C396.465 69.6092 395.572 71.0915 394.962 72.726C394.353 74.3605 394.039 76.1146 394.039 77.8864C394.039 79.6582 394.353 81.4123 394.962 83.0469C395.572 84.6814 396.465 86.1637 397.59 87.4076C398.714 88.6516 400.048 89.6323 401.514 90.293C402.979 90.9536 404.547 91.2809 406.126 91.2558C409.258 91.206 412.246 89.7756 414.445 87.2738C416.643 84.7719 417.876 81.3998 417.876 77.8864C417.876 74.3731 416.643 71.0009 414.445 68.4991C412.246 65.9972 409.258 64.5668 406.126 64.5171Z" fill="#FE4C40"/>
<path d="M406.126 70.8833C405.296 70.8651 404.471 71.0328 403.7 71.3765C402.928 71.7203 402.225 72.2332 401.632 72.8853C401.04 73.5374 400.569 74.3155 400.247 75.1742C399.926 76.0329 399.76 76.9549 399.76 77.8862C399.76 78.8175 399.926 79.7395 400.247 80.5982C400.569 81.4569 401.04 82.235 401.632 82.8871C402.225 83.5392 402.928 84.0521 403.7 84.3959C404.471 84.7396 405.296 84.9073 406.126 84.8891C407.761 84.8532 409.317 84.0996 410.462 82.7902C411.606 81.4809 412.247 79.7201 412.247 77.8862C412.247 76.0523 411.606 74.2915 410.462 72.9821C409.317 71.6727 407.761 70.9192 406.126 70.8833Z" fill="#E4ECF9"/>
<path d="M405.161 76.8028V81.1998L409.082 76.8028H405.161Z" fill="#22252D"/>
<path d="M430.578 105.318V110.35H431.71V106.585H435.063V105.318H430.578Z" fill="#2E363A"/>
<path d="M432.633 107.62V112.652H433.762V108.89H437.118V107.62H432.633Z" fill="#2E363A"/>
<path d="M405.862 78.4854L406.661 77.5893L433.783 108.017L432.984 108.913L405.862 78.4854Z" fill="#2E363A"/>
<path d="M490.384 316.154L490.313 293.324L439.49 293.517L439.559 316.347C439.59 326.949 447.083 335.869 457.323 338.691C458.386 338.983 459.121 339.894 459.124 340.942C459.126 341.987 458.397 342.906 457.335 343.206C447.114 346.105 439.676 355.081 439.707 365.684L439.777 388.514L490.604 388.321L490.532 365.491C490.501 354.889 483.009 345.968 472.769 343.147C471.706 342.852 470.97 341.941 470.968 340.896C470.966 339.851 471.694 338.932 472.755 338.632C482.977 335.733 490.415 326.756 490.382 316.154H490.384Z" fill="#E4ECF9"/>
<path d="M490.33 298.027L490.315 293.324L439.488 293.517L439.502 298.027H490.33ZM439.768 385.263L439.777 388.514L490.604 388.321L490.592 385.263H439.768Z" fill="#D1DCF8"/>
<path d="M491.472 293.41L438.318 293.614C438.116 293.615 437.916 293.571 437.729 293.485C437.543 293.399 437.373 293.272 437.229 293.112C437.086 292.953 436.972 292.763 436.894 292.554C436.816 292.345 436.776 292.12 436.775 291.894C436.775 291.667 436.814 291.443 436.891 291.233C436.967 291.023 437.08 290.833 437.223 290.672C437.365 290.511 437.534 290.383 437.721 290.296C437.907 290.209 438.107 290.163 438.309 290.163L491.46 289.959C491.662 289.958 491.862 290.002 492.049 290.088C492.236 290.174 492.406 290.301 492.549 290.461C492.692 290.62 492.806 290.81 492.884 291.019C492.962 291.228 493.002 291.453 493.003 291.679C493.004 291.906 492.964 292.13 492.888 292.34C492.811 292.55 492.698 292.74 492.556 292.901C492.413 293.062 492.244 293.19 492.058 293.277C491.871 293.364 491.672 293.41 491.47 293.41H491.472ZM438.617 388.717L491.771 388.514C491.973 388.513 492.173 388.557 492.36 388.643C492.546 388.729 492.716 388.856 492.86 389.015C493.003 389.175 493.117 389.365 493.195 389.574C493.272 389.783 493.313 390.007 493.313 390.234C493.314 390.461 493.275 390.685 493.198 390.895C493.122 391.104 493.009 391.295 492.866 391.456C492.724 391.616 492.555 391.744 492.368 391.832C492.182 391.919 491.982 391.964 491.78 391.965L438.626 392.169C438.219 392.17 437.827 391.99 437.537 391.667C437.248 391.344 437.085 390.906 437.084 390.448C437.082 389.991 437.243 389.551 437.531 389.227C437.818 388.902 438.209 388.719 438.617 388.717Z" fill="#8D7EA3"/>
<path d="M485.9 316.819L485.876 308.946L444.02 309.107L444.044 316.98C444.068 325.412 450.364 332.531 458.962 334.828C461.731 335.567 463.596 338.014 463.606 340.733L463.668 361.017C463.675 363.402 462.189 365.572 459.882 366.537L447.12 371.896C445.353 372.635 444.218 374.294 444.223 376.119L444.247 384.487L486.105 384.326L486.081 375.961C486.074 374.133 484.928 372.485 483.155 371.754L470.363 366.499C468.048 365.548 466.551 363.391 466.541 361.006L466.481 340.723C466.474 338 468.325 335.543 471.091 334.782C479.675 332.419 485.924 325.251 485.9 316.819Z" fill="#FFCF3D"/>
<path d="M384.895 201.731C382.37 204.025 379.817 206.286 377.295 208.596C375.565 210.171 373.896 211.826 372.291 213.559C372.871 213.398 373.451 213.218 374.03 213.055C375.219 212.715 376.308 212.814 377.163 213.918C377.961 214.96 377.844 216.099 377.455 217.302C377.335 217.709 377.335 218.374 377.555 218.668C379.222 220.898 379.251 222.428 377.424 224.689C376.829 225.439 376.597 225.895 377.046 226.967C377.395 227.781 377.237 229.084 376.917 229.995C375.828 233.004 374.249 235.573 371.593 237.251C369.766 238.403 368.259 240.195 366.446 241.366C364.53 242.588 362.746 244.035 360.513 244.686C360.159 244.8 359.81 244.936 359.469 245.094C353.073 252.773 332.986 273.486 312.507 287.462C301.252 292.864 288.182 288.78 280.888 277.749C272.896 265.675 267.051 251.096 267.051 251.096L301.684 242.082C301.684 242.082 307.082 252.251 310.999 253.212C314.217 253.992 338.236 234.729 349.012 228.789C349.864 227.414 350.565 225.928 351.1 224.365C351.723 222.556 351.769 220.507 352.361 218.701C353.276 215.871 354.451 213.138 355.509 210.354C356.133 208.711 356.713 207.053 357.379 205.424C358.311 203.13 358.294 200.721 358.208 198.283C358.177 197.257 358.12 195.954 359.164 195.531C360.238 195.091 361.022 196.053 361.671 196.897C363.255 198.934 363.355 201.423 363.066 203.912C362.804 206.27 362.34 208.596 361.977 210.957C361.92 211.332 361.948 211.737 361.905 212.519C363.761 211.477 365.46 210.826 366.881 209.705C371.39 206.123 375.771 202.364 380.252 198.72C381.006 198.103 381.907 197.68 382.776 197.257C384.037 196.654 385.404 196.962 385.896 197.859C386.459 198.915 386.01 200.721 384.892 201.731H384.895ZM234.754 552.885H252.806V585.864H234.754V552.885Z" fill="#FEC9AC"/>
<path d="M234.754 552.885V564.549C240.787 564.951 246.864 564.479 252.809 563.134V552.885H234.754Z" fill="#FFAB90"/>
<path d="M227.818 598H285.142C286.51 598 287.757 597.357 288.665 596.287C289.572 595.224 290.136 593.758 290.136 592.15C290.136 589.707 288.842 587.523 286.895 586.652C280.864 583.999 270.314 581.046 268.085 578.426C265.1 574.937 259.883 569.088 256.153 569.385C252.424 569.68 250.196 576.682 244.473 580.768C240.42 583.667 236.034 576.507 233.851 572.108C233.108 570.623 231.25 570.607 230.553 572.108C225.917 581.939 227.818 598 227.818 598Z" fill="#2E363A"/>
<path d="M188.402 552.885H206.454V585.864H188.402V552.885Z" fill="#FEC9AC"/>
<path d="M188.402 552.885V564.549C194.433 564.951 200.512 564.479 206.454 563.134V552.885H188.402Z" fill="#FFAB90"/>
<path d="M181.466 598H238.79C240.156 598 241.405 597.357 242.311 596.288C243.218 595.224 243.782 593.758 243.782 592.15C243.782 589.707 242.49 587.523 240.543 586.652C234.51 583.999 223.962 581.047 221.731 578.426C218.746 574.937 213.529 569.088 209.801 569.385C206.072 569.68 203.842 576.682 198.121 580.768C194.065 583.667 189.683 576.508 187.497 572.108C186.757 570.623 184.898 570.607 184.201 572.108C179.565 581.939 181.466 598 181.466 598ZM272.403 322.807C272.403 322.821 272.389 322.837 272.403 322.85C271.809 327.041 273.772 556.398 264.751 559.444C257.554 561.851 239.523 559.458 232.243 558.341C231.811 558.284 231.417 558.212 231.058 558.153C231.02 558.153 230.996 558.153 230.958 558.14C229.8 557.965 229.119 557.834 229.119 557.834L228.923 550.176L227.896 510.064C227.896 510.064 225.95 518.853 223.468 528.802C222.407 533.065 221.247 537.561 220.086 541.65C217.876 549.538 215.705 555.977 214.396 556.674C210.83 558.558 179.691 554.077 178.557 551.77C177.408 549.445 182.515 326.96 182.579 323.793L272.403 322.807Z" fill="#3A4146"/>
<path d="M247.299 358.758C247.299 358.758 246.855 493.36 231.058 558.153C231.034 558.212 231.019 558.284 231.007 558.34L230.96 558.139L228.922 550.176L227.895 510.064C227.895 510.064 225.949 518.853 223.467 528.802L222.762 526.031C226.156 473.057 234.822 417.024 247.299 358.758Z" fill="#2E363A"/>
<path d="M214.17 557.397L212.149 555.963C219.857 542.314 225.467 455.413 246.006 354.315L248.335 354.913C227.608 456.948 222.348 542.906 214.17 557.397Z" fill="#2E363A"/>
<path d="M180.143 436.456C191.961 407.075 208.31 380.191 228.221 357.622C241.011 343.142 255.951 330.128 272.398 322.853C272.386 322.839 272.398 322.826 272.396 322.813L182.581 323.801C182.581 323.801 181.296 379.899 180.145 436.456H180.143Z" fill="#2E363A"/>
<path d="M270.724 253.073L270.898 253.904L273.16 264.611L273.206 264.772L274.584 271.249L280.369 329.662H176.61C176.624 329.418 176.624 329.139 176.639 328.863C176.77 324.536 177.03 319.49 177.365 314.153C178.392 297.835 180.09 279.043 180.83 271.2C181.062 268.824 181.179 267.457 181.179 267.457C173.522 270.011 166.719 270.68 160.918 270.289C145.368 269.311 136.842 260.804 136.842 260.804C136.942 260.413 137.045 260.005 137.145 259.63C138.915 252.765 141.511 246.176 145.18 240.335C148.677 234.818 150.807 228.146 151.765 221.364C156.277 216.627 157.363 210.494 157.249 203.09C157.218 200.845 157.684 198.83 158.45 196.941C159.191 195.459 159.945 194.028 160.715 192.627C162.773 189.342 165.298 186.233 166.965 182.702C172.896 174.535 179.701 168.482 187.65 165.376C191.084 163.471 196.248 161.633 202.442 160.039C215.406 156.687 232.826 154.377 248.055 154.505C262.472 154.605 274.901 156.898 279.702 162.544C287.637 171.917 294.191 197.769 298.036 217.589C299.023 222.867 298.968 222.559 299.398 225.057C300.676 232.393 301.473 238.234 301.676 240.951C302.443 251.219 270.724 253.073 270.724 253.073Z" fill="#FF8B6A"/>
<path d="M299.401 225.056C300.679 232.398 301.465 238.231 301.668 240.957C302.44 251.222 270.723 253.081 270.723 253.081L270.902 253.907L273.166 264.611L273.204 264.767L274.583 271.24L280.368 329.664C253.545 339.846 216.349 336.328 176.614 329.664C176.628 329.409 176.628 329.139 176.64 328.871L177.438 328.914C201.662 325.605 222.757 308.625 239.768 289.016C247.261 280.385 254.397 270.731 257.271 259.116C261.181 243.301 256.638 226.46 257.663 210.091C259.055 216.436 261.016 223.111 265.585 227.157C272.813 233.545 283.227 230.962 292.05 228.068C294.555 227.243 297.113 226.407 299.401 225.056Z" fill="#FF8B6A"/>
<path d="M251.11 94.3667C245.502 106.414 242.041 119.867 241.016 133.589C240.355 142.469 240.768 151.762 244.133 159.728C248.903 171.019 258.854 177.94 268.921 181.97C272.587 183.441 276.407 184.623 280.276 184.47C284.145 184.317 288.103 182.694 290.704 179.283C293.305 175.872 294.239 170.518 292.357 166.493C291.22 164.063 289.261 162.37 287.549 160.478C285.836 158.586 284.243 156.172 284.253 153.391C284.27 148.369 289.304 145.167 289.925 140.202C290.458 135.936 287.566 132.19 284.645 129.64C281.723 127.089 278.337 124.674 277.087 120.626C275.559 115.655 277.828 110.318 278.79 105.152C280.094 98.126 278.836 90.4814 275.396 84.5651C273.278 80.921 265.744 71.9714 261.383 74.2865C259.374 75.3583 257.965 80.72 256.905 82.8448C254.979 86.6899 252.932 90.4492 251.11 94.3667Z" fill="#2E363A"/>
<path d="M252.189 168.125V168.157C252.185 168.413 252.145 168.666 252.072 168.908C252.058 168.937 252.058 168.969 252.058 169.004C251.58 179.157 246.882 196.892 231.913 196.892C231.464 196.892 231.013 196.876 230.564 196.841C212.421 195.59 203.168 166.059 202.442 160.038C203.371 159.795 204.328 159.567 205.313 159.339C205.444 159.307 205.575 159.272 205.719 159.24H205.747L206.996 158.948C218.425 156.394 232.377 154.653 245.126 154.521C244.923 156.263 244.778 157.857 244.864 158.541C244.909 158.851 245.055 159.291 245.255 159.843C246.316 162.544 251.652 167.667 252.189 168.122V168.125Z" fill="#FF8B6A"/>
<path d="M263.283 130.312C260.02 146.207 249.026 148.045 246.532 148.241C246.212 148.292 246.024 148.292 246.024 148.292C246.024 148.292 245.486 151.609 245.125 154.521C244.922 156.263 244.777 157.857 244.863 158.541C244.908 158.851 245.054 159.291 245.254 159.843C246.315 162.544 251.651 167.667 252.188 168.122V168.16C252.174 168.24 252.131 168.5 252.071 168.91C252.057 168.94 252.057 168.972 252.057 169.007C251.245 173.578 246.647 194.698 230.737 193.605C213.724 192.436 204.994 161.764 205.312 159.342C205.312 159.227 205.355 159.178 205.414 159.194C205.513 159.229 205.615 159.245 205.718 159.243H205.746C206.066 159.243 206.487 159.146 206.996 158.951C209.011 158.219 212.274 156.201 214.985 154.655C218.671 152.619 217.19 125.663 217.19 125.663C206.183 122.876 208.894 112.432 209.171 109.112C209.432 105.744 212.042 103.418 218.033 94.9239C224.006 86.4299 255.408 82.901 260.223 89.2139C265.053 95.5429 266.997 112.319 263.283 130.315V130.312Z" fill="#FEC9AC"/>
<path d="M247.038 137.664C247.145 138.182 246.149 139.109 243.797 139.13C241.819 138.849 240.004 138.345 238.193 136.826C237.176 135.749 236.951 134.323 237.159 133.573C237.353 132.766 237.773 132.565 237.995 132.678C238.49 132.927 238.513 133.937 239.739 134.752C240.766 135.652 242.514 136.279 244.033 136.44C245.875 136.877 246.933 137.035 247.038 137.664ZM235.031 106.633C234.923 106.558 234.907 106.277 235.079 105.811C235.248 105.355 235.616 104.704 236.321 104.101C236.933 103.636 237.627 103.325 238.356 103.188C239.086 103.052 239.833 103.094 240.546 103.311C241.37 103.627 241.888 104.112 242.17 104.484C242.447 104.867 242.505 105.141 242.419 105.253C242.228 105.521 241.59 104.996 240.25 104.704C239.694 104.534 239.113 104.501 238.545 104.607C237.977 104.714 237.437 104.957 236.961 105.32C235.759 106.087 235.289 106.821 235.031 106.633ZM252.572 103.276C252.457 103.045 253.024 102.236 254.626 101.821C255.989 101.604 257.379 101.804 258.648 102.4C260.117 103.257 260.504 104.2 260.344 104.401C260.158 104.666 259.515 104.222 258.207 103.739C257.126 103.232 255.944 103.062 254.784 103.246C253.415 103.345 252.701 103.595 252.572 103.276ZM246.412 127.975C246.515 127.866 246.854 128.19 247.492 128.715C247.807 128.967 248.22 129.264 248.705 129.385C249.166 129.505 249.823 129.401 250.162 128.956C250.776 128.294 250.336 126.311 250.184 124.768C249.969 123.15 249.682 121.547 249.333 119.964C248.593 116.204 248.122 114.342 248.39 114.216C248.612 114.109 249.52 115.789 250.501 119.599C251.042 122.051 251.429 124.543 251.657 127.056C251.691 127.498 251.712 127.973 251.638 128.49C251.567 128.999 251.368 129.559 251.012 129.974C250.117 130.899 249.114 130.797 248.428 130.529C247.875 130.279 247.389 129.875 247.014 129.355C246.446 128.562 246.321 128.072 246.412 127.975Z" fill="#4F2D2A"/>
<path d="M256.306 116.207C257.069 116.207 257.689 114.883 257.689 113.249C257.689 111.615 257.069 110.291 256.306 110.291C255.542 110.291 254.923 111.615 254.923 113.249C254.923 114.883 255.542 116.207 256.306 116.207Z" fill="#4F2D2A"/>
<path d="M240.088 117.831C240.852 117.831 241.471 116.507 241.471 114.873C241.471 113.239 240.852 111.915 240.088 111.915C239.324 111.915 238.705 113.239 238.705 114.873C238.705 116.507 239.324 117.831 240.088 117.831Z" fill="#4F2D2A"/>
<path d="M256.723 66.5855C247.37 59.2088 235.633 55.913 224.512 57.5984L224.376 57.6199C216.804 58.7935 210.331 64.3133 206.901 71.9739C206.758 72.2955 206.615 72.617 206.464 72.9386C202.332 81.9256 194.376 87.9598 191.484 97.7829C188.448 108.104 189.389 118.337 183.513 127.632C178.452 135.636 169.13 140.248 167.62 150.735C166.168 160.818 171.318 170.456 167.883 180.502C165.124 188.572 157.104 194.084 157.249 203.09C157.369 210.493 156.27 216.632 151.758 221.377C151.372 224.179 150.775 226.939 149.974 229.628C154.304 230.555 158.821 229.829 162.38 226.857C169.987 220.482 170.372 207.599 173.078 197.01C176.317 184.282 184.017 173.264 193.934 167.155C200.02 163.404 209.063 161.464 214.201 156.062C221.994 147.841 221.206 132.188 214.924 122.306C212.923 119.144 210.19 116.341 209.524 112.467C208.893 108.841 210.472 104.838 213.205 103.088C215.947 101.331 219.62 101.974 221.818 104.594C223.346 106.408 223.752 117.006 225.799 117.828C226.072 117.796 226.363 117.563 226.671 117.207C228.804 108.418 232.673 100.034 238.814 94.4496C243.894 89.8248 250.394 87.3703 256.826 87.6222C257.296 87.6436 258.187 87.791 258.959 88.1286C263.7 81.2611 265.176 73.2521 256.723 66.5855Z" fill="#2E363A"/>
<path opacity="0.5" d="M211.816 109.586C212.241 107.483 213.737 105.741 215.514 105.283C216.271 105.087 217.167 105.162 217.668 105.867C218.256 106.69 218.015 107.997 217.451 108.841C216.887 109.685 216.075 110.24 215.397 110.958C214.718 111.676 214.14 112.71 214.308 113.771C214.42 114.484 214.888 115.583 213.992 115.856C213.326 116.06 213.185 115.334 212.898 114.795C212.031 113.163 211.413 111.574 211.816 109.586ZM224.702 139.176C227.399 146.451 232.131 152.597 237.978 156.442C240.282 157.935 242.731 159.087 245.262 159.845C245.094 159.429 244.962 158.994 244.871 158.549C244.644 156.71 246.024 148.286 246.024 148.286C246.024 148.286 246.208 148.286 246.538 148.238C238.759 147.576 231.144 144.417 224.702 139.176Z" fill="#FFAB90"/>
<path d="M289.109 137.694C289.851 139.216 289.507 141.129 288.846 142.7C288.179 144.267 287.222 145.679 286.701 147.314C285.356 151.534 287.217 156.25 289.823 159.647C292.426 163.045 295.772 165.676 298.242 169.197C300.71 172.721 302.198 177.705 300.366 181.686C299.284 184.036 297.203 185.703 296.324 188.155C295.288 191.048 296.159 194.35 297.38 197.152C298.598 199.955 300.184 202.643 300.64 205.719C301.094 208.795 299.976 212.484 297.337 213.465C296.484 213.781 295.507 213.773 294.722 213.283C294.036 212.854 293.556 212.117 293.095 211.407C288.504 204.355 282.602 197.265 274.866 196.306C271.658 195.909 268.345 196.619 265.219 195.724C261.445 194.642 258.318 191.089 257.401 186.844C256.957 184.789 256.995 182.621 256.42 180.609C255.13 176.118 250.998 173.093 250.085 168.49C249.144 163.747 251.999 159.031 255.419 156.049C258.839 153.067 262.935 151.108 266.136 147.834C269.505 144.362 271.662 139.658 272.22 134.565C273.662 134.283 275.14 134.342 276.561 134.738C277.981 135.133 279.313 135.858 280.469 136.864" fill="#2E363A"/>
<path d="M146.897 253.226C147.607 253.226 170.266 256.139 173.333 262.494C176.4 268.85 206.378 292.151 208.977 291.62C211.573 291.09 212.517 279.174 216.056 276.792C219.598 274.407 221.722 288.708 221.722 288.708C221.722 288.708 234.023 280.257 241.338 282.237C248.657 284.22 248.394 303.801 238.009 310.95C227.624 318.099 214.876 318.365 208.977 317.569C203.077 316.773 150.912 309.627 143.594 281.556C136.276 253.486 146.897 253.226 146.897 253.226Z" fill="#FEC9AC"/>
<path d="M265.853 264.448L255.879 320.929C255.37 323.815 252.862 326.168 250.288 326.168H216.182C213.607 326.168 211.933 323.815 212.444 320.929L222.428 264.445C222.939 261.546 225.438 259.207 228.01 259.207H262.115C264.688 259.207 266.365 261.546 265.853 264.448Z" fill="#2E363A"/>
<path d="M238.006 310.95C227.62 318.094 214.875 318.37 208.978 317.568C203.071 316.778 150.914 309.624 143.588 281.559C136.272 253.494 146.894 253.228 146.894 253.228C147.608 253.228 170.268 256.138 173.33 262.489C173.977 263.839 175.838 265.945 178.381 268.41C187.866 277.649 206.931 292.03 208.978 291.62C211.57 291.092 212.518 279.177 216.06 276.797C219.6 274.404 221.721 288.713 221.721 288.713C221.721 288.713 234.024 280.251 241.34 282.234C243.463 282.802 244.946 284.857 245.725 287.647C247.65 294.506 245.388 305.875 238.006 310.953V310.95Z" fill="#FEC9AC"/>
<path opacity="0.5" d="M238.006 310.95C227.62 318.094 214.875 318.37 208.978 317.568C203.071 316.778 150.914 309.624 143.588 281.559C136.272 253.494 146.894 253.228 146.894 253.228C147.608 253.228 170.268 256.138 173.33 262.489C173.977 263.839 175.838 265.945 178.381 268.41C176.533 275.133 178.241 283.032 182.11 288.764C186.806 295.731 194.083 299.953 201.466 302.756C208.094 305.275 215.129 306.821 222.089 306.012C229.056 305.189 235.949 301.797 240.408 295.749C242.317 293.169 243.736 290.165 245.725 287.649C247.65 294.509 245.388 305.875 238.006 310.953V310.95Z" fill="#FFAB90"/>
<path d="M187.191 220.726C180.831 228.309 174.119 236.155 165.525 239.383C159.494 241.65 152.293 240.798 147.22 236.728C146.737 237.711 146.217 238.665 145.663 239.592C142.051 245.603 139.094 252.076 137.293 259.04L136.84 260.811C136.84 260.811 152.931 276.843 181.192 267.451C181.192 267.451 181.053 268.823 180.833 271.197C186.16 255.249 188.433 237.832 187.191 220.726Z" fill="#FF8B6A"/>
<path d="M274.193 243.802C274.283 242.961 276.657 242.897 281.086 241.943C284.886 241.36 288.534 239.888 291.793 237.621C295.744 235.193 297.612 233.548 298.171 234.145C298.646 234.598 297.602 237.345 293.482 240.686C289.842 243.218 285.768 244.863 281.525 245.514C276.447 245.882 274.083 244.51 274.193 243.805V243.802ZM181.368 253.998C181.727 254.461 179.252 258.038 172.041 261.203C165.851 263.528 159.26 264.185 152.802 263.121C145.216 261.433 142.214 258.406 142.503 257.862C142.84 257.012 146.229 258.652 153.263 259.555C159.194 260.541 165.346 259.927 171.026 257.784C177.817 255.498 180.891 253.213 181.368 253.998Z" fill="white"/>
<path d="M172.206 151.003C174.834 160.901 173.334 172.075 168.227 180.665C164.991 186.113 160.488 190.427 156.282 194.966C152.079 199.505 148.018 204.524 146.064 210.692C144.111 216.86 144.705 224.446 148.897 229.003C152.131 232.519 156.817 233.666 161.26 234.496C163.808 234.979 166.414 235.405 168.965 234.952C171.519 234.499 174.05 233.033 175.333 230.517C177.163 226.927 176.064 222.238 177.554 218.454C179.386 213.792 184.385 212.026 188.845 211.051C193.302 210.073 198.284 209.036 200.94 204.901C204.229 199.778 202.371 192.273 205.079 186.737C207.537 181.713 213.088 179.599 216.148 175.009C219.21 170.414 219.267 164.211 219.195 158.474C219.121 152.332 218.933 145.784 215.813 140.741C213.8 137.485 210.754 135.208 208.564 132.099C205.43 127.646 204.272 121.762 204.375 116.089C204.477 110.417 205.736 104.862 206.985 99.364" fill="#2E363A"/>
<path d="M102.439 323.999C99.9885 324.267 97.8867 326.357 97.3684 329.061C97.1722 330.063 97.1902 331.103 97.4209 332.096C97.6515 333.089 98.0884 334.006 98.6957 334.774C99.3029 335.541 100.063 336.136 100.915 336.51C101.766 336.885 102.685 337.028 103.595 336.928C104.805 336.783 105.945 336.218 106.854 335.31C107.764 334.402 108.397 333.198 108.666 331.866C108.862 330.864 108.844 329.824 108.613 328.831C108.383 327.838 107.946 326.92 107.338 326.153C106.73 325.385 105.97 324.79 105.118 324.416C104.266 324.042 103.347 323.899 102.437 323.999H102.439ZM102.439 323.999C99.9885 324.267 97.8867 326.357 97.3684 329.061C97.1722 330.063 97.1902 331.103 97.4209 332.096C97.6515 333.089 98.0884 334.006 98.6957 334.774C99.3029 335.541 100.063 336.136 100.915 336.51C101.766 336.885 102.685 337.028 103.595 336.928C104.805 336.783 105.945 336.218 106.854 335.31C107.764 334.402 108.397 333.198 108.666 331.866C108.862 330.864 108.844 329.824 108.613 328.831C108.383 327.838 107.946 326.92 107.338 326.153C106.73 325.385 105.97 324.79 105.118 324.416C104.266 324.042 103.347 323.899 102.437 323.999H102.439ZM102.439 323.999C99.9885 324.267 97.8867 326.357 97.3684 329.061C97.1722 330.063 97.1902 331.103 97.4209 332.096C97.6515 333.089 98.0884 334.006 98.6957 334.774C99.3029 335.541 100.063 336.136 100.915 336.51C101.766 336.885 102.685 337.028 103.595 336.928C104.805 336.783 105.945 336.218 106.854 335.31C107.764 334.402 108.397 333.198 108.666 331.866C108.862 330.864 108.844 329.824 108.613 328.831C108.383 327.838 107.946 326.92 107.338 326.153C106.73 325.385 105.97 324.79 105.118 324.416C104.266 324.042 103.347 323.899 102.437 323.999H102.439Z" fill="#E4ECF9"/>
<path d="M118.027 335.666C118.327 335.733 118.638 335.666 118.893 335.479C119.149 335.291 119.33 334.999 119.396 334.664C119.817 332.626 119.926 330.522 119.718 328.442C119.687 328.101 119.538 327.787 119.303 327.568C119.068 327.348 118.766 327.241 118.462 327.269L116.986 327.413C116.723 327.442 116.459 327.367 116.24 327.202C116.021 327.037 115.86 326.792 115.784 326.508C115.631 325.894 115.443 325.291 115.22 324.704C115.121 324.428 115.111 324.122 115.192 323.838C115.272 323.554 115.439 323.311 115.662 323.15L116.904 322.239C117.155 322.06 117.335 321.779 117.404 321.454C117.474 321.13 117.428 320.788 117.277 320.5C116.273 318.683 114.998 317.073 113.508 315.742C113.272 315.542 112.976 315.452 112.682 315.49C112.388 315.529 112.119 315.694 111.931 315.951L110.971 317.231C110.803 317.461 110.569 317.618 110.308 317.675C110.048 317.732 109.778 317.685 109.545 317.542C109.053 317.228 108.542 316.95 108.017 316.712C107.772 316.594 107.572 316.385 107.451 316.12C107.33 315.855 107.295 315.55 107.353 315.259L107.656 313.625C107.72 313.298 107.668 312.955 107.511 312.67C107.354 312.386 107.105 312.18 106.815 312.097C104.981 311.629 103.09 311.502 101.219 311.722C100.913 311.756 100.631 311.923 100.435 312.188C100.238 312.452 100.142 312.794 100.168 313.137L100.299 314.793C100.326 315.09 100.26 315.388 100.112 315.635C99.9634 315.883 99.7426 316.065 99.4874 316.149C98.9381 316.318 98.4006 316.524 97.8823 316.77C97.6364 316.88 97.3642 316.89 97.1122 316.8C96.8603 316.709 96.6445 316.522 96.5018 316.272L95.6802 314.873C95.5195 314.594 95.2685 314.395 94.9799 314.318C94.6913 314.242 94.3876 314.294 94.1324 314.463C92.5188 315.595 91.0864 317.024 89.8952 318.689C89.7146 318.953 89.6324 319.286 89.6658 319.616C89.6992 319.947 89.8456 320.251 90.0744 320.463L91.2208 321.551C91.4253 321.74 91.5646 322.003 91.6148 322.295C91.6649 322.587 91.6227 322.89 91.4955 323.15C91.2184 323.7 90.97 324.268 90.7527 324.857C90.6475 325.129 90.4613 325.352 90.226 325.487C89.9907 325.621 89.721 325.66 89.4629 325.597L88.0059 325.262C87.7066 325.196 87.3962 325.263 87.1408 325.451C86.8855 325.638 86.7057 325.93 86.6397 326.264C86.2178 328.302 86.1087 330.406 86.3173 332.486C86.3889 333.196 86.9382 333.718 87.5712 333.657L89.0545 333.515C89.5966 333.461 90.1149 333.836 90.2583 334.426C90.4063 335.037 90.5927 335.631 90.8124 336.21C91.0274 336.773 90.8291 337.429 90.3729 337.767L89.1261 338.686C88.8762 338.866 88.6985 339.148 88.6303 339.473C88.5621 339.797 88.6089 340.139 88.7607 340.425C89.7675 342.236 91.0402 343.844 92.525 345.179C93.0027 345.61 93.712 345.5 94.1061 344.975L95.0615 343.697C95.2299 343.466 95.4649 343.309 95.7257 343.252C95.9865 343.195 96.2568 343.243 96.4898 343.386C96.9795 343.699 97.4882 343.975 98.0185 344.217C98.2623 344.334 98.4618 344.544 98.5826 344.809C98.7034 345.074 98.7379 345.378 98.6801 345.669L98.3791 347.29C98.3181 347.627 98.3775 347.977 98.5446 348.266C98.7117 348.554 98.9731 348.757 99.2724 348.831C101.091 349.297 102.966 349.423 104.821 349.203C105.126 349.169 105.406 349.003 105.603 348.739C105.799 348.476 105.896 348.136 105.872 347.794L105.743 346.127C105.717 345.832 105.783 345.536 105.93 345.289C106.078 345.043 106.297 344.862 106.55 344.777C107.097 344.605 107.63 344.396 108.146 344.152C108.392 344.041 108.665 344.029 108.918 344.12C109.171 344.21 109.388 344.397 109.531 344.648L110.353 346.055C110.514 346.335 110.765 346.533 111.054 346.609C111.344 346.685 111.648 346.633 111.903 346.462C113.519 345.33 114.952 343.898 116.142 342.228C116.323 341.963 116.405 341.63 116.371 341.298C116.336 340.967 116.189 340.663 115.958 340.452L114.817 339.375C114.611 339.186 114.471 338.922 114.421 338.63C114.37 338.337 114.412 338.034 114.54 337.772C114.818 337.222 115.065 336.653 115.28 336.068C115.385 335.796 115.572 335.574 115.807 335.439C116.042 335.304 116.312 335.265 116.57 335.329L118.027 335.666ZM110.783 333.062C110.362 334.688 109.54 336.147 108.412 337.272C107.284 338.397 105.896 339.142 104.408 339.42C103.049 339.682 101.653 339.55 100.351 339.039C99.0499 338.527 97.8862 337.652 96.9701 336.495C96.0539 335.339 95.4155 333.94 95.115 332.43C94.8145 330.921 94.8619 329.35 95.2526 327.866C95.6729 326.24 96.494 324.781 97.6214 323.655C98.7488 322.53 100.137 321.784 101.625 321.505C102.985 321.241 104.382 321.371 105.685 321.882C106.987 322.394 108.152 323.269 109.069 324.426C109.986 325.583 110.625 326.984 110.924 328.495C111.224 330.006 111.175 331.578 110.783 333.062Z" fill="#E4ECF9"/>
</svg>
