<svg width="40" height="40" viewBox="0 0 40 40" fill="none" xmlns="http://www.w3.org/2000/svg">
<path fill-rule="evenodd" clip-rule="evenodd" d="M19.9993 4.99984C11.7151 4.99984 4.99935 11.7156 4.99935 19.9998C4.99935 28.2841 11.7151 34.9998 19.9993 34.9998C28.2836 34.9998 34.9993 28.2841 34.9993 19.9998C34.9993 11.7156 28.2836 4.99984 19.9993 4.99984ZM1.66602 19.9998C1.66602 9.87462 9.87413 1.6665 19.9993 1.6665C30.1246 1.6665 38.3327 9.87462 38.3327 19.9998C38.3327 30.1251 30.1246 38.3332 19.9993 38.3332C9.87413 38.3332 1.66602 30.1251 1.66602 19.9998Z" fill="white"/>
<path fill-rule="evenodd" clip-rule="evenodd" d="M19.9993 4.99984C11.7151 4.99984 4.99935 11.7156 4.99935 19.9998C4.99935 28.2841 11.7151 34.9998 19.9993 34.9998C28.2836 34.9998 34.9993 28.2841 34.9993 19.9998C34.9993 11.7156 28.2836 4.99984 19.9993 4.99984ZM26.1779 13.8213C26.8287 14.4722 26.8287 15.5275 26.1779 16.1783L22.3564 19.9998L26.1779 23.8213C26.8287 24.4722 26.8287 25.5275 26.1779 26.1783C25.527 26.8292 24.4717 26.8292 23.8208 26.1783L19.9993 22.3569L16.1779 26.1783C15.527 26.8292 14.4717 26.8292 13.8208 26.1783C13.17 25.5275 13.17 24.4722 13.8208 23.8213L17.6423 19.9998L13.8208 16.1783C13.17 15.5275 13.17 14.4722 13.8208 13.8213C14.4717 13.1705 15.527 13.1705 16.1779 13.8213L19.9993 17.6428L23.8208 13.8213C24.4717 13.1705 25.527 13.1705 26.1779 13.8213Z" fill="white"/>
</svg>
