<svg width="24" height="24" viewBox="0 0 24 24" fill="none" xmlns="http://www.w3.org/2000/svg">
<g clip-path="url(#clip0_44483_17701)">
<path fill-rule="evenodd" clip-rule="evenodd" d="M22.9662 3C23.5177 3 23.9647 3.44772 23.9647 4V10C23.9647 10.5523 23.5177 11 22.9662 11H16.975C16.4235 11 15.9765 10.5523 15.9765 10C15.9765 9.44772 16.4235 9 16.975 9H21.9677V4C21.9677 3.44772 22.4147 3 22.9662 3Z" fill="#2D2D2D"/>
<path fill-rule="evenodd" clip-rule="evenodd" d="M3.01433e-06 14C3.01433e-06 13.4477 0.44706 13 0.998532 13H6.98971C7.54118 13 7.98824 13.4477 7.98824 14C7.98824 14.5523 7.54118 15 6.98971 15H1.99706V20C1.99706 20.5523 1.55 21 0.998532 21C0.44706 21 3.01433e-06 20.5523 3.01433e-06 20V14Z" fill="#2D2D2D"/>
<path fill-rule="evenodd" clip-rule="evenodd" d="M14.1964 4.31503C12.9002 3.93953 11.5301 3.89901 10.2139 4.19724C8.89781 4.49547 7.67857 5.12273 6.66998 6.02049C5.66139 6.91825 4.89632 8.05726 4.44617 9.33123C4.2622 9.85188 3.69162 10.1246 3.17174 9.94035C2.65185 9.75611 2.37954 9.18469 2.56351 8.66404C3.1262 7.07158 4.08253 5.64782 5.34327 4.52561C6.60401 3.40341 8.12806 2.61933 9.77321 2.24655C11.4184 1.87376 13.131 1.92442 14.7513 2.39379C16.3665 2.86166 17.8375 3.7304 19.0279 4.91932L23.65 9.26888C24.0518 9.64707 24.0715 10.2799 23.6939 10.6824C23.3162 11.0849 22.6843 11.1046 22.2824 10.7264L17.6492 6.36639C17.6416 6.35923 17.6341 6.35196 17.6268 6.34456C16.6728 5.38875 15.4927 4.69053 14.1964 4.31503ZM0.270851 13.3129C0.648487 12.9104 1.28041 12.8907 1.6823 13.2689L6.31548 17.6289C6.32308 17.636 6.33058 17.6433 6.33795 17.6507C7.29188 18.6065 8.47203 19.3047 9.76829 19.6802C11.0645 20.0557 12.4347 20.0963 13.7508 19.798C15.0669 19.4998 16.2861 18.8725 17.2947 17.9748C18.3033 17.077 19.0684 15.938 19.5185 14.664C19.7025 14.1434 20.2731 13.8707 20.793 14.0549C21.3129 14.2392 21.5852 14.8106 21.4012 15.3312C20.8385 16.9237 19.8822 18.3474 18.6214 19.4697C17.3607 20.5919 15.8367 21.3759 14.1915 21.7487C12.5463 22.1215 10.8337 22.0709 9.21338 21.6015C7.59821 21.1336 6.12725 20.2649 4.93684 19.0759L0.314763 14.7264C-0.0871245 14.3482 -0.106784 13.7153 0.270851 13.3129Z" fill="#2D2D2D"/>
</g>
<defs>
<clipPath id="clip0_44483_17701">
<rect width="23.9647" height="24" fill="white"/>
</clipPath>
</defs>
</svg>
