<svg width="186" height="152" viewBox="0 0 186 152" fill="none" xmlns="http://www.w3.org/2000/svg">
<path d="M158.108 55.4908C173.512 55.4908 186 43.0687 186 27.7454C186 12.422 173.512 0 158.108 0C142.703 0 130.216 12.422 130.216 27.7454C130.216 43.0687 142.703 55.4908 158.108 55.4908Z" fill="#F79A45"/>
<path d="M158.108 50.5774C170.784 50.5774 181.061 40.3552 181.061 27.7455C181.061 15.1358 170.784 4.91357 158.108 4.91357C145.431 4.91357 135.155 15.1358 135.155 27.7455C135.155 40.3552 145.431 50.5774 158.108 50.5774Z" fill="#F8AD43"/>
<path opacity="0.55" d="M165.833 6.24235L141.693 43.6975C142.657 44.6787 143.709 45.5717 144.833 46.366L169.578 7.97188C168.385 7.28397 167.131 6.7051 165.833 6.24235ZM172.089 9.64283L147.405 47.9427C150.527 49.5823 153.99 50.479 157.52 50.5624L178.712 17.681C177.152 14.5326 174.886 11.7825 172.089 9.64283ZM158.695 4.92773L137.503 37.8092C138.172 39.1604 138.974 40.4424 139.897 41.6365L163.197 5.48345C161.719 5.15099 160.211 4.96484 158.695 4.92773Z" fill="#F8D24A"/>
<path d="M156.911 47.5645V42.8449C153.937 42.7981 150.861 41.9569 149.066 40.7887L150.297 37.6579C152.534 38.9702 155.083 39.6639 157.68 39.6672C161.32 39.6672 163.781 37.7512 163.781 35.0879C163.781 32.5175 161.782 30.9289 157.988 29.5269C152.758 27.6579 149.527 25.5082 149.527 21.4428C149.527 17.5641 152.553 14.6202 157.27 13.9193V9.19971H160.449V13.7325C162.77 13.7439 165.054 14.3045 167.114 15.3679L165.833 18.4521C163.85 17.384 161.626 16.8371 159.372 16.8632C155.424 16.8632 153.937 19.013 153.937 20.8821C153.937 23.312 155.834 24.527 160.295 26.2091C165.576 28.1718 168.242 30.6019 168.242 34.7606C168.242 38.4524 165.422 41.9102 160.141 42.7046V47.5645H156.911Z" fill="#FFE900"/>
<path d="M43.9954 51.3843H137.588C139.405 51.3843 141.148 52.1023 142.433 53.3805C143.718 54.6586 144.44 56.3922 144.44 58.1998V129.914C144.44 131.722 143.718 133.456 142.433 134.734C141.148 136.012 139.405 136.73 137.588 136.73H43.9953C42.1782 136.73 40.4355 136.012 39.1505 134.734C37.8656 133.456 37.1438 131.722 37.1438 129.914V58.1998C37.1438 56.3922 37.8657 54.6586 39.1506 53.3805C40.4355 52.1023 42.1782 51.3843 43.9954 51.3843Z" fill="#FF8B6A"/>
<path d="M137.642 51.3843H43.9409C42.1382 51.3843 40.4093 52.0966 39.1346 53.3646C37.8599 54.6326 37.1438 56.3524 37.1438 58.1456C37.1438 59.9388 37.8599 61.6585 39.1346 62.9265C40.4093 64.1945 42.1382 64.9068 43.9409 64.9068H137.642C139.445 64.9068 141.174 64.1945 142.449 62.9265C143.723 61.6585 144.44 59.9388 144.44 58.1456C144.44 56.3524 143.723 54.6326 142.449 53.3646C141.174 52.0966 139.445 51.3843 137.642 51.3843ZM144.44 107.809H99.4278C97.1374 107.809 94.9407 106.904 93.3211 105.293C91.7015 103.682 90.7917 101.497 90.7916 99.2185C90.7916 96.9401 91.7015 94.755 93.3211 93.1439C94.9407 91.5328 97.1374 90.6278 99.4278 90.6278H144.44V107.809Z" fill="#5564D7"/>
<path d="M104.157 99.2182C104.157 100.018 103.919 100.8 103.472 101.465C103.025 102.131 102.39 102.649 101.647 102.955C100.904 103.261 100.087 103.342 99.2977 103.185C98.5089 103.029 97.7844 102.644 97.2157 102.078C96.647 101.513 96.2597 100.792 96.1028 100.007C95.9459 99.2227 96.0264 98.4094 96.3342 97.6703C96.642 96.9312 97.1632 96.2995 97.8319 95.855C98.5006 95.4105 99.2868 95.1733 100.091 95.1733C101.17 95.1734 102.204 95.5995 102.966 96.3581C103.729 97.1166 104.157 98.1455 104.157 99.2182Z" fill="#FF8B6A"/>
<path d="M104.942 59.8021L124.111 40.7339L90.9825 7.78027L41.2538 59.8021H104.942Z" fill="#FF8B6A"/>
<path d="M139.294 34.3139L109.669 4.8457L58.045 56.1982H117.294L139.294 34.3139Z" fill="#E6F1FF"/>
<path d="M109.669 9.23682L62.4597 56.198H66.8746L103.759 19.5081C105.454 20.9866 107.604 21.8483 109.856 21.9519C112.108 22.0555 114.328 21.3949 116.153 20.0783L123.98 27.8642C122.657 29.6796 121.993 31.8884 122.097 34.1286C122.201 36.3687 123.067 38.5072 124.554 40.1933L108.464 56.198H112.879L134.879 34.3137L109.669 9.23682ZM85.1423 42.8757C83.4181 44.5923 82.3012 46.8198 81.9599 49.2225C81.6186 51.6253 82.0713 54.0734 83.2499 56.198H102.955C104.265 53.8363 104.674 51.0833 104.107 48.4455C103.539 45.8076 102.033 43.4624 99.8653 41.8413C97.6977 40.2202 95.0146 39.4321 92.3095 39.6222C89.6044 39.8123 87.0592 40.9676 85.1423 42.8757Z" fill="#7EA8C4"/>
<path d="M132.028 59.8019L148.595 43.3223L118.97 13.8535L72.7782 59.8019H132.028Z" fill="#E6F1FF"/>
<path d="M118.97 18.2451L77.193 59.802H81.6078L113.059 28.5162C114.754 29.9948 116.904 30.8566 119.156 30.9602C121.408 31.0638 123.629 30.4032 125.454 29.0866L133.281 36.8724C131.957 38.6878 131.293 40.8967 131.397 43.1368C131.501 45.377 132.368 47.5154 133.854 49.2016L123.198 59.802H127.612L144.179 43.3221L118.97 18.2451ZM94.4428 51.8839C93.397 52.9228 92.5684 54.1573 92.0048 55.5163C91.4411 56.8753 91.1536 58.3319 91.1587 59.802H113.647C113.651 57.5872 112.993 55.4211 111.758 53.5784C110.523 51.7357 108.765 50.2992 106.708 49.4512C104.651 48.6031 102.388 48.3816 100.204 48.8147C98.0205 49.2478 96.0154 50.316 94.4428 51.8839Z" fill="#7EA8C4"/>
<path d="M135.169 39.2793H46.4147V59.8022H135.169V39.2793Z" fill="#E6F1FF"/>
<path d="M49.5363 42.3843V59.8017H52.6581V54.6111C54.8845 54.2584 56.9243 53.1636 58.4431 51.5062C59.9619 49.8489 60.8695 47.7274 61.017 45.4896H120.566C120.714 47.7274 121.621 49.8489 123.14 51.5062C124.659 53.1635 126.699 54.2583 128.925 54.6111V59.8017H132.047V42.3843H49.5363ZM90.7917 48.9186C87.8623 48.9197 85.0489 50.0574 82.9497 52.0897C80.8504 54.1221 79.631 56.8888 79.5505 59.8017H102.033C101.952 56.8888 100.733 54.1221 98.6336 52.0898C96.5344 50.0574 93.721 48.9197 90.7917 48.9186Z" fill="#8DBAD3"/>
<path d="M59.6653 142.776H7.56042V152H59.6653V142.776Z" fill="#F79A45"/>
<path d="M56.1083 142.776H25.6991V152H56.1083V142.776Z" fill="#F8AD43"/>
<path d="M50.7769 142.776H45.9055V152H50.7769V142.776Z" fill="#F8D24A"/>
<g style="mix-blend-mode:multiply" opacity="0.5">
<path d="M59.6653 150.625H7.56042V152H59.6653V150.625Z" fill="#F79A45"/>
</g>
<path d="M55.8852 133.551H3.78027V142.775H55.8852V133.551Z" fill="#F79A45"/>
<path d="M52.3286 133.551H21.9194V142.775H52.3286V133.551Z" fill="#F8AD43"/>
<path d="M46.9966 133.551H42.1252V142.775H46.9966V133.551Z" fill="#F8D24A"/>
<g style="mix-blend-mode:multiply" opacity="0.5">
<path d="M55.8852 141.401H3.78027V142.777H55.8852V141.401Z" fill="#F79A45"/>
</g>
<path d="M59.6653 124.328H7.56042V133.552H59.6653V124.328Z" fill="#F79A45"/>
<path d="M56.1083 124.328H25.6991V133.552H56.1083V124.328Z" fill="#F8AD43"/>
<path d="M50.7769 124.328H45.9055V133.552H50.7769V124.328Z" fill="#F8D24A"/>
<g style="mix-blend-mode:multiply" opacity="0.5">
<path d="M59.6653 132.176H7.56042V133.552H59.6653V132.176Z" fill="#F79A45"/>
</g>
<path d="M52.1049 115.104H0V124.328H52.1049V115.104Z" fill="#F79A45"/>
<path d="M48.5484 115.104H18.1393V124.328H48.5484V115.104Z" fill="#F8AD43"/>
<path d="M43.2169 115.104H38.3456V124.328H43.2169V115.104Z" fill="#F8D24A"/>
<g style="mix-blend-mode:multiply" opacity="0.5">
<path d="M52.1049 122.952H0V124.328H52.1049V122.952Z" fill="#F79A45"/>
</g>
<path d="M55.8852 105.879H3.78027V115.104H55.8852V105.879Z" fill="#F79A45"/>
<path d="M52.3286 105.879H21.9194V115.104H52.3286V105.879Z" fill="#F8AD43"/>
<path d="M46.9966 105.879H42.1252V115.104H46.9966V105.879Z" fill="#F8D24A"/>
<g style="mix-blend-mode:multiply" opacity="0.5">
<path d="M55.8852 113.729H3.78027V115.104H55.8852V113.729Z" fill="#F79A45"/>
</g>
<path d="M59.6653 96.6553H7.56042V105.879H59.6653V96.6553Z" fill="#F79A45"/>
<path d="M56.1083 96.6553H25.6991V105.879H56.1083V96.6553Z" fill="#F8AD43"/>
<path d="M50.7769 96.6553H45.9055V105.879H50.7769V96.6553Z" fill="#F8D24A"/>
<g style="mix-blend-mode:multiply" opacity="0.5">
<path d="M59.6653 104.504H7.56042V105.88H59.6653V104.504Z" fill="#F79A45"/>
</g>
</svg>
