<svg width="20" height="20" viewBox="0 0 20 20" fill="none" xmlns="http://www.w3.org/2000/svg">
<g clip-path="url(#clip0_44481_14260)">
<path fill-rule="evenodd" clip-rule="evenodd" d="M9.6273 0.921351C9.86191 0.804048 10.1381 0.804048 10.3727 0.921351L18.706 5.08802C18.9883 5.22918 19.1666 5.51773 19.1666 5.83337C19.1666 6.14902 18.9883 6.43757 18.706 6.57873L10.3727 10.7454C10.1381 10.8627 9.86191 10.8627 9.6273 10.7454L1.29397 6.57873C1.01165 6.43757 0.833312 6.14902 0.833312 5.83337C0.833312 5.51773 1.01165 5.22918 1.29397 5.08802L9.6273 0.921351ZM3.53004 5.83337L9.99998 9.06835L16.4699 5.83337L9.99998 2.5984L3.53004 5.83337Z" fill="#FF8B6A"/>
<path fill-rule="evenodd" clip-rule="evenodd" d="M0.92129 13.794C1.12711 13.3824 1.62767 13.2155 2.03932 13.4214L9.99998 17.4017L17.9606 13.4214C18.3723 13.2155 18.8728 13.3824 19.0787 13.794C19.2845 14.2057 19.1176 14.7062 18.706 14.9121L10.3727 19.0787C10.1381 19.196 9.86191 19.196 9.6273 19.0787L1.29397 14.9121C0.882319 14.7062 0.715465 14.2057 0.92129 13.794Z" fill="#FF8B6A"/>
<path fill-rule="evenodd" clip-rule="evenodd" d="M0.92129 9.62736C1.12711 9.21571 1.62767 9.04886 2.03932 9.25468L9.99998 13.235L17.9606 9.25468C18.3723 9.04886 18.8728 9.21571 19.0787 9.62736C19.2845 10.039 19.1176 10.5396 18.706 10.7454L10.3727 14.9121C10.1381 15.0294 9.86191 15.0294 9.6273 14.9121L1.29397 10.7454C0.882319 10.5396 0.715465 10.039 0.92129 9.62736Z" fill="#FF8B6A"/>
</g>
<defs>
<clipPath id="clip0_44481_14260">
<rect width="20" height="20" fill="white"/>
</clipPath>
</defs>
</svg>
