<svg width="20" height="20" viewBox="0 0 20 20" fill="none" xmlns="http://www.w3.org/2000/svg">
<path fill-rule="evenodd" clip-rule="evenodd" d="M15.8332 5.00004H4.1665C3.70627 5.00004 3.33317 5.37314 3.33317 5.83337V15.8334C3.33317 16.2936 3.70627 16.6667 4.1665 16.6667H15.8332C16.2934 16.6667 16.6665 16.2936 16.6665 15.8334V5.83337C16.6665 5.37314 16.2934 5.00004 15.8332 5.00004ZM4.1665 3.33337C2.78579 3.33337 1.6665 4.45266 1.6665 5.83337V15.8334C1.6665 17.2141 2.78579 18.3334 4.1665 18.3334H15.8332C17.2139 18.3334 18.3332 17.2141 18.3332 15.8334V5.83337C18.3332 4.45266 17.2139 3.33337 15.8332 3.33337H4.1665Z" fill="#828FA2"/>
<path fill-rule="evenodd" clip-rule="evenodd" d="M8.33333 10C7.8731 10 7.5 10.3731 7.5 10.8333C7.5 11.2936 7.8731 11.6667 8.33333 11.6667H14.1667C14.6269 11.6667 15 11.2936 15 10.8333C15 10.3731 14.6269 10 14.1667 10H8.33333ZM5.83333 13.3333C5.3731 13.3333 5 13.7064 5 14.1667C5 14.6269 5.3731 15 5.83333 15H10.8333C11.2936 15 11.6667 14.6269 11.6667 14.1667C11.6667 13.7064 11.2936 13.3333 10.8333 13.3333H5.83333Z" fill="#828FA2"/>
<path fill-rule="evenodd" clip-rule="evenodd" d="M5.83333 1.66663C5.3731 1.66663 5 2.03972 5 2.49996V5.83329C5 6.29353 5.3731 6.66663 5.83333 6.66663C6.29357 6.66663 6.66667 6.29353 6.66667 5.83329V2.49996C6.66667 2.03972 6.29357 1.66663 5.83333 1.66663ZM14.1667 1.66663C13.7064 1.66663 13.3333 2.03972 13.3333 2.49996V5.83329C13.3333 6.29353 13.7064 6.66663 14.1667 6.66663C14.6269 6.66663 15 6.29353 15 5.83329V2.49996C15 2.03972 14.6269 1.66663 14.1667 1.66663Z" fill="#828FA2"/>
</svg>
