<svg width="20" height="20" viewBox="0 0 20 20" fill="none" xmlns="http://www.w3.org/2000/svg">
<path fill-rule="evenodd" clip-rule="evenodd" d="M2.49984 11.6665C2.96007 11.6665 3.33317 12.0396 3.33317 12.4998V15.8332C3.33317 16.0542 3.42097 16.2661 3.57725 16.4224C3.73353 16.5787 3.94549 16.6665 4.1665 16.6665H15.8332C16.0542 16.6665 16.2661 16.5787 16.4224 16.4224C16.5787 16.2661 16.6665 16.0542 16.6665 15.8332V12.4998C16.6665 12.0396 17.0396 11.6665 17.4998 11.6665C17.9601 11.6665 18.3332 12.0396 18.3332 12.4998V15.8332C18.3332 16.4962 18.0698 17.1321 17.6009 17.6009C17.1321 18.0698 16.4962 18.3332 15.8332 18.3332H4.1665C3.50346 18.3332 2.86758 18.0698 2.39874 17.6009C1.9299 17.1321 1.6665 16.4962 1.6665 15.8332V12.4998C1.6665 12.0396 2.0396 11.6665 2.49984 11.6665Z" fill="#2D2D2D"/>
<path fill-rule="evenodd" clip-rule="evenodd" d="M5.24408 7.74408C5.56951 7.41864 6.09715 7.41864 6.42259 7.74408L10 11.3215L13.5774 7.74408C13.9028 7.41864 14.4305 7.41864 14.7559 7.74408C15.0814 8.06951 15.0814 8.59715 14.7559 8.92259L10.5893 13.0893C10.2638 13.4147 9.73618 13.4147 9.41074 13.0893L5.24408 8.92259C4.91864 8.59715 4.91864 8.06951 5.24408 7.74408Z" fill="#2D2D2D"/>
<path fill-rule="evenodd" clip-rule="evenodd" d="M9.99984 1.6665C10.4601 1.6665 10.8332 2.0396 10.8332 2.49984V12.4998C10.8332 12.9601 10.4601 13.3332 9.99984 13.3332C9.5396 13.3332 9.1665 12.9601 9.1665 12.4998V2.49984C9.1665 2.0396 9.5396 1.6665 9.99984 1.6665Z" fill="#2D2D2D"/>
</svg>
