<svg width="20" height="20" viewBox="0 0 20 20" fill="none" xmlns="http://www.w3.org/2000/svg">
<g clip-path="url(#clip0_44435_16076)">
<path fill-rule="evenodd" clip-rule="evenodd" d="M2.5 5.83317C2.96024 5.83317 3.33333 6.20627 3.33333 6.6665V16.6665H16.6667V6.6665C16.6667 6.20627 17.0398 5.83317 17.5 5.83317C17.9602 5.83317 18.3333 6.20627 18.3333 6.6665V17.4998C18.3333 17.9601 17.9602 18.3332 17.5 18.3332H2.5C2.03976 18.3332 1.66667 17.9601 1.66667 17.4998V6.6665C1.66667 6.20627 2.03976 5.83317 2.5 5.83317Z" fill="#FFC95F"/>
<path fill-rule="evenodd" clip-rule="evenodd" d="M0 2.49984C0 2.0396 0.373096 1.6665 0.833333 1.6665H19.1667C19.6269 1.6665 20 2.0396 20 2.49984V6.6665C20 7.12674 19.6269 7.49984 19.1667 7.49984H0.833333C0.373096 7.49984 0 7.12674 0 6.6665V2.49984ZM1.66667 3.33317V5.83317H18.3333V3.33317H1.66667Z" fill="#FFC95F"/>
<path fill-rule="evenodd" clip-rule="evenodd" d="M7.5 9.99984C7.5 9.5396 7.8731 9.1665 8.33333 9.1665H11.6667C12.1269 9.1665 12.5 9.5396 12.5 9.99984C12.5 10.4601 12.1269 10.8332 11.6667 10.8332H8.33333C7.8731 10.8332 7.5 10.4601 7.5 9.99984Z" fill="#FFC95F"/>
</g>
<defs>
<clipPath id="clip0_44435_16076">
<rect width="20" height="20" fill="white"/>
</clipPath>
</defs>
</svg>
