<svg width="20" height="20" viewBox="0 0 20 20" fill="none" xmlns="http://www.w3.org/2000/svg">
<path fill-rule="evenodd" clip-rule="evenodd" d="M5.83317 13.2511V15.8292L10.0517 13.3365L10.4926 13.3292C12.2459 13.3005 13.8237 13.124 15.0035 12.9445C15.7481 12.8312 16.2654 12.3116 16.3778 11.6591C16.5337 10.754 16.6665 9.60739 16.6665 8.33329C16.6665 7.05919 16.5337 5.91256 16.3778 5.00751C16.2654 4.35503 15.7481 3.83539 15.0035 3.7221C13.7131 3.52576 11.9484 3.33329 9.99984 3.33329C8.05123 3.33329 6.28657 3.52576 4.99619 3.7221C4.25162 3.83539 3.73425 4.35503 3.62186 5.00752C3.46597 5.91256 3.33317 7.05919 3.33317 8.33329C3.33317 9.60739 3.46597 10.754 3.62186 11.6591C3.71946 12.2257 4.11529 12.6798 4.6924 12.8717L5.83317 13.2511ZM1.97939 4.7246C2.22121 3.32069 3.33711 2.28869 4.74548 2.0744C6.09493 1.86907 7.94616 1.66663 9.99984 1.66663C12.0535 1.66663 13.9047 1.86907 15.2542 2.0744C16.6626 2.28869 17.7785 3.32069 18.0203 4.7246C18.1888 5.70306 18.3332 6.946 18.3332 8.33329C18.3332 9.72058 18.1888 10.9635 18.0203 11.942C17.7785 13.3459 16.6626 14.3779 15.2542 14.5922C14.0197 14.78 12.3652 14.9655 10.5199 14.9957L5.42378 18.007C4.86826 18.3353 4.1665 17.9348 4.1665 17.2896V14.4533C3.03864 14.0782 2.18697 13.1471 1.97939 11.942C1.81085 10.9635 1.6665 9.72058 1.6665 8.33329C1.6665 6.946 1.81085 5.70306 1.97939 4.7246Z" fill="#828FA2"/>
<path fill-rule="evenodd" clip-rule="evenodd" d="M5.83333 5.83337C5.3731 5.83337 5 6.20647 5 6.66671C5 7.12694 5.3731 7.50004 5.83333 7.50004H14.1667C14.6269 7.50004 15 7.12694 15 6.66671C15 6.20647 14.6269 5.83337 14.1667 5.83337H5.83333ZM5.83333 9.16671C5.3731 9.16671 5 9.5398 5 10C5 10.4603 5.3731 10.8334 5.83333 10.8334H9.16667C9.6269 10.8334 10 10.4603 10 10C10 9.5398 9.6269 9.16671 9.16667 9.16671H5.83333Z" fill="#828FA2"/>
</svg>
