<svg width="20" height="20" viewBox="0 0 20 20" fill="none" xmlns="http://www.w3.org/2000/svg">
<path fill-rule="evenodd" clip-rule="evenodd" d="M1.66675 5.83325C1.66675 4.45254 2.78604 3.33325 4.16675 3.33325H15.8334C17.2141 3.33325 18.3334 4.45254 18.3334 5.83325V15.8333C18.3334 17.214 17.2141 18.3333 15.8334 18.3333H4.16675C2.78604 18.3333 1.66675 17.214 1.66675 15.8333V5.83325ZM7.50008 10.8333C7.50008 10.373 7.87318 9.99992 8.33341 9.99992H14.1667C14.627 9.99992 15.0001 10.373 15.0001 10.8333C15.0001 11.2935 14.627 11.6666 14.1667 11.6666H8.33341C7.87318 11.6666 7.50008 11.2935 7.50008 10.8333ZM5.00008 14.1666C5.00008 13.7063 5.37318 13.3333 5.83341 13.3333H10.8334C11.2937 13.3333 11.6667 13.7063 11.6667 14.1666C11.6667 14.6268 11.2937 14.9999 10.8334 14.9999H5.83341C5.37318 14.9999 5.00008 14.6268 5.00008 14.1666Z" fill="#FF8B6A"/>
<path fill-rule="evenodd" clip-rule="evenodd" d="M5.83333 1.66675C5.3731 1.66675 5 2.03984 5 2.50008V5.83341C5 6.29365 5.3731 6.66675 5.83333 6.66675C6.29357 6.66675 6.66667 6.29365 6.66667 5.83341V2.50008C6.66667 2.03984 6.29357 1.66675 5.83333 1.66675ZM14.1667 1.66675C13.7064 1.66675 13.3333 2.03984 13.3333 2.50008V5.83341C13.3333 6.29365 13.7064 6.66675 14.1667 6.66675C14.6269 6.66675 15 6.29365 15 5.83341V2.50008C15 2.03984 14.6269 1.66675 14.1667 1.66675Z" fill="#FF8B6A"/>
</svg>
