<svg width="20" height="20" viewBox="0 0 20 20" fill="none" xmlns="http://www.w3.org/2000/svg">
<path fill-rule="evenodd" clip-rule="evenodd" d="M10 0C10.4602 0 10.8333 0.373096 10.8333 0.833333V19.1667C10.8333 19.6269 10.4602 20 10 20C9.53976 20 9.16667 19.6269 9.16667 19.1667V0.833333C9.16667 0.373096 9.53976 0 10 0Z" fill="#2D2D2D"/>
<path fill-rule="evenodd" clip-rule="evenodd" d="M5.26502 4.43168C5.96828 3.72842 6.92211 3.33333 7.91667 3.33333H14.1667C14.6269 3.33333 15 3.70643 15 4.16667C15 4.6269 14.6269 5 14.1667 5H7.91667C7.36413 5 6.83423 5.21949 6.44353 5.61019C6.05283 6.0009 5.83333 6.5308 5.83333 7.08333C5.83333 7.63587 6.05283 8.16577 6.44353 8.55647C6.83423 8.94717 7.36413 9.16667 7.91667 9.16667H12.0833C13.0779 9.16667 14.0317 9.56175 14.735 10.265C15.4382 10.9683 15.8333 11.9221 15.8333 12.9167C15.8333 13.9112 15.4382 14.8651 14.735 15.5683C14.0317 16.2716 13.0779 16.6667 12.0833 16.6667H5C4.53976 16.6667 4.16667 16.2936 4.16667 15.8333C4.16667 15.3731 4.53976 15 5 15H12.0833C12.6359 15 13.1658 14.7805 13.5565 14.3898C13.9472 13.9991 14.1667 13.4692 14.1667 12.9167C14.1667 12.3641 13.9472 11.8342 13.5565 11.4435C13.1658 11.0528 12.6359 10.8333 12.0833 10.8333H7.91667C6.92211 10.8333 5.96828 10.4382 5.26502 9.73498C4.56176 9.03172 4.16667 8.0779 4.16667 7.08333C4.16667 6.08877 4.56176 5.13494 5.26502 4.43168Z" fill="#2D2D2D"/>
</svg>
