<svg width="168" height="182" viewBox="0 0 168 182" fill="none" xmlns="http://www.w3.org/2000/svg">
<circle cx="41.5" cy="41.5" r="41.5" fill="#F8F8F8"/>
<path d="M109.323 57.6216V43.5C109.323 28.3122 97.0111 16 81.8232 16C66.6354 16 54.3232 28.3122 54.3232 43.5V57.6216H109.323Z" fill="#E04343"/>
<path d="M83 33H81C69.402 33 60 42.402 60 54V69H104V54C104 42.402 94.598 33 83 33Z" fill="white"/>
<path d="M97 34.6919C103.298 32.0963 117.428 31.1408 125.264 42.0053C128.595 46.623 129 52.5967 129 58.2901V69" stroke="#36414F" stroke-width="1.5"/>
<path d="M121 80H41C37.6863 80 35 82.6863 35 86V99.2174V114.739V142C35 145.314 37.6863 148 41 148H52.0645H98.0645H121C124.314 148 127 145.314 127 142V86C127 82.6863 124.314 80 121 80Z" fill="#5AC49A"/>
<path d="M35 98.9459V85.6216C35 82.3079 37.6863 79.6216 41 79.6216H121.162C124.476 79.6216 127.162 82.3079 127.162 85.6216V142C127.162 145.314 124.476 148 121.162 148H98.1756M35 114.554V142C35 145.314 37.6863 148 41 148H52.0946" stroke="#2D2D2D" stroke-width="1.5"/>
<circle cx="82.6892" cy="113.689" r="5.93919" fill="white" stroke="#2D2D2D" stroke-width="1.5"/>
<path d="M82.6885 119.422V128.978" stroke="#2D2D2D" stroke-width="1.5"/>
<path d="M109.323 57.6216V43.5C109.323 28.3122 97.0111 16 81.8232 16V16C66.6354 16 54.3232 28.3122 54.3232 43.5V57.6216" stroke="#36414F" stroke-width="1.5"/>
<path d="M59.7832 68.6214V56.7295" stroke="#36414F" stroke-width="1.5"/>
<circle cx="154" cy="168" r="13.25" fill="white" stroke="#2D2D2D" stroke-width="1.5"/>
<path d="M148 167.5L153.217 171L160 165" stroke="#2D2D2D" stroke-width="1.5"/>
</svg>
