<svg width="20" height="20" viewBox="0 0 20 20" fill="none" xmlns="http://www.w3.org/2000/svg">
<g clip-path="url(#clip0_44513_12442)">
<path fill-rule="evenodd" clip-rule="evenodd" d="M12.4278 2.07907C13.0851 1.80669 13.7897 1.6665 14.5012 1.6665C15.2128 1.6665 15.9173 1.80669 16.5747 2.07907C17.2319 2.35139 17.8291 2.75051 18.332 3.25363C18.8351 3.75659 19.2345 4.35401 19.5069 5.01124C19.7792 5.66858 19.9194 6.37315 19.9194 7.08469C19.9194 7.79623 19.7792 8.5008 19.5069 9.15815C19.2345 9.81543 18.8354 10.4126 18.3322 10.9156C18.3321 10.9157 18.3322 10.9156 18.3322 10.9156L10.9655 18.2823C10.6401 18.6077 10.1124 18.6077 9.78698 18.2823L2.42032 10.9156C1.40429 9.89959 0.833496 8.52157 0.833496 7.08469C0.833496 5.64782 1.40429 4.26979 2.42032 3.25377C3.43634 2.23775 4.81436 1.66695 6.25124 1.66695C7.68811 1.66695 9.06614 2.23775 10.0822 3.25377L10.3762 3.54785L10.6702 3.25391C10.6701 3.25395 10.6702 3.25386 10.6702 3.25391C11.1732 2.75072 11.7705 2.35141 12.4278 2.07907ZM14.5012 3.33317C14.0086 3.33317 13.5209 3.43023 13.0658 3.61879C12.6107 3.80736 12.1972 4.08374 11.849 4.43214L10.9655 5.31561C10.6401 5.64105 10.1124 5.64105 9.78698 5.31561L8.90365 4.43228C8.20019 3.72882 7.24609 3.33362 6.25124 3.33362C5.25639 3.33362 4.30229 3.72882 3.59883 4.43228C2.89536 5.13574 2.50016 6.08984 2.50016 7.08469C2.50016 8.07954 2.89536 9.03364 3.59883 9.7371L10.3762 16.5145L17.1536 9.7371C17.5021 9.38886 17.7786 8.97525 17.9671 8.52016C18.1557 8.06507 18.2528 7.5773 18.2528 7.08469C18.2528 6.59209 18.1557 6.10431 17.9671 5.64922C17.7786 5.19414 17.5022 4.78066 17.1538 4.43242C16.8055 4.08401 16.3918 3.80736 15.9367 3.61879C15.4816 3.43023 14.9938 3.33317 14.5012 3.33317Z" fill="#C0C7D0"/>
</g>
<defs>
<clipPath id="clip0_44513_12442">
<rect width="20" height="20" fill="white"/>
</clipPath>
</defs>
</svg>
