<svg width="20" height="20" viewBox="0 0 20 20" fill="none" xmlns="http://www.w3.org/2000/svg">
<path fill-rule="evenodd" clip-rule="evenodd" d="M4.33341 1.16634C4.49079 0.956503 4.73778 0.833008 5.00008 0.833008H15.0001C15.2624 0.833008 15.5094 0.956503 15.6667 1.16634L18.1667 4.49967C18.2749 4.64392 18.3334 4.81937 18.3334 4.99967V16.6663C18.3334 17.3294 18.07 17.9653 17.6012 18.4341C17.1323 18.9029 16.4965 19.1663 15.8334 19.1663H4.16675C3.50371 19.1663 2.86782 18.9029 2.39898 18.4341C1.93014 17.9653 1.66675 17.3294 1.66675 16.6663V4.99967C1.66675 4.81937 1.72523 4.64392 1.83341 4.49967L4.33341 1.16634ZM5.41675 2.49967L3.33341 5.27745V5.83301V16.6663C3.33341 16.8874 3.42121 17.0993 3.57749 17.2556C3.73377 17.4119 3.94573 17.4997 4.16675 17.4997H15.8334C16.0544 17.4997 16.2664 17.4119 16.4227 17.2556C16.579 17.0993 16.6667 16.8874 16.6667 16.6663V5.83301V5.27745L14.5834 2.49967H5.41675Z" fill="#FF8B6A"/>
<path fill-rule="evenodd" clip-rule="evenodd" d="M1.66675 4.99967C1.66675 4.53944 2.03984 4.16634 2.50008 4.16634H17.5001C17.9603 4.16634 18.3334 4.53944 18.3334 4.99967C18.3334 5.45991 17.9603 5.83301 17.5001 5.83301H16.6667H3.33341H2.50008C2.03984 5.83301 1.66675 5.45991 1.66675 4.99967Z" fill="#FF8B6A"/>
<path fill-rule="evenodd" clip-rule="evenodd" d="M3.33341 5.83301V16.6663C3.33341 16.8874 3.42121 17.0993 3.57749 17.2556C3.73377 17.4119 3.94573 17.4997 4.16675 17.4997H15.8334C16.0544 17.4997 16.2664 17.4119 16.4227 17.2556C16.579 17.0993 16.6667 16.8874 16.6667 16.6663V5.83301H3.33341ZM6.66675 7.49967C7.12699 7.49967 7.50008 7.87277 7.50008 8.33301C7.50008 8.99605 7.76347 9.63193 8.23231 10.1008C8.70116 10.5696 9.33704 10.833 10.0001 10.833C10.6631 10.833 11.299 10.5696 11.7678 10.1008C12.2367 9.63193 12.5001 8.99605 12.5001 8.33301C12.5001 7.87277 12.8732 7.49967 13.3334 7.49967C13.7937 7.49967 14.1667 7.87277 14.1667 8.33301C14.1667 9.43808 13.7278 10.4979 12.9464 11.2793C12.165 12.0607 11.1052 12.4997 10.0001 12.4997C8.89501 12.4997 7.83521 12.0607 7.0538 11.2793C6.2724 10.4979 5.83342 9.43808 5.83342 8.33301C5.83342 7.87277 6.20651 7.49967 6.66675 7.49967Z" fill="#FF8B6A"/>
</svg>
