<svg width="312" height="176" viewBox="0 0 312 176" fill="none" xmlns="http://www.w3.org/2000/svg">
<path d="M0 6.92857C0 3.10203 3.10203 0 6.92857 0C10.7551 0 13.8571 3.10203 13.8571 6.92857V176H0V6.92857Z" fill="#F8F8F8"/>
<path d="M0 105.929C0 102.102 3.10203 99 6.92857 99C10.7551 99 13.8571 102.102 13.8571 105.929V176H0V105.929Z" fill="#5564D7"/>
<path d="M49.6904 6.92857C49.6904 3.10203 52.7925 0 56.619 0C60.4455 0 63.5476 3.10203 63.5476 6.92857V176H49.6904V6.92857Z" fill="#F8F8F8"/>
<path d="M49.6904 84.9286C49.6904 81.102 52.7925 78 56.619 78C60.4455 78 63.5476 81.102 63.5476 84.9286V176H49.6904V84.9286Z" fill="#5564D7"/>
<path d="M49.6904 127H63.5476V176H49.6904V127Z" fill="#FFC95F"/>
<path d="M99.3809 6.92857C99.3809 3.10203 102.483 0 106.309 0C110.136 0 113.238 3.10203 113.238 6.92857V176H99.3809V6.92857Z" fill="#F8F8F8"/>
<path d="M99.3809 147.929C99.3809 144.102 102.483 141 106.309 141C110.136 141 113.238 144.102 113.238 147.929V176H99.3809V147.929Z" fill="#5564D7"/>
<path d="M99.3809 164H113.238V176H99.3809V164Z" fill="#FFC95F"/>
<path d="M149.071 6.92857C149.071 3.10203 152.173 0 156 0C159.826 0 162.928 3.10203 162.928 6.92857V176H149.071V6.92857Z" fill="#F8F8F8"/>
<path d="M149.071 105.929C149.071 102.102 152.173 99 156 99C159.826 99 162.928 102.102 162.928 105.929V176H149.071V105.929Z" fill="#5564D7"/>
<path d="M149.071 164H162.928V176H149.071V164Z" fill="#FFC95F"/>
<path d="M198.762 6.92857C198.762 3.10203 201.864 0 205.69 0C209.517 0 212.619 3.10203 212.619 6.92857V176H198.762V6.92857Z" fill="#F8F8F8"/>
<path d="M198.762 158.929C198.762 155.102 201.864 152 205.69 152C209.517 152 212.619 155.102 212.619 158.929V176H198.762V158.929Z" fill="#FFC95F"/>
<path d="M248.452 6.92857C248.452 3.10203 251.554 0 255.381 0C259.207 0 262.309 3.10203 262.309 6.92857V176H248.452V6.92857Z" fill="#F8F8F8"/>
<path d="M248.452 128.929C248.452 125.102 251.554 122 255.381 122C259.207 122 262.309 125.102 262.309 128.929V176H248.452V128.929Z" fill="#5564D7"/>
<path d="M248.452 133H262.309V176H248.452V133Z" fill="#FFC95F"/>
<path d="M298.143 6.92857C298.143 3.10203 301.245 0 305.071 0C308.898 0 312 3.10203 312 6.92857V176H298.143V6.92857Z" fill="#F8F8F8"/>
<path d="M298.143 50.9286C298.143 47.102 301.245 44 305.071 44C308.898 44 312 47.102 312 50.9286V176H298.143V50.9286Z" fill="#5564D7"/>
<path d="M298.143 164H312V176H298.143V164Z" fill="#FFC95F"/>
</svg>
