<svg width="20" height="20" viewBox="0 0 20 20" fill="none" xmlns="http://www.w3.org/2000/svg">
<path fill-rule="evenodd" clip-rule="evenodd" d="M1.6665 2.49996C1.6665 2.03972 2.0396 1.66663 2.49984 1.66663H8.33317C8.79341 1.66663 9.1665 2.03972 9.1665 2.49996V8.33329C9.1665 8.79353 8.79341 9.16663 8.33317 9.16663H2.49984C2.0396 9.16663 1.6665 8.79353 1.6665 8.33329V2.49996ZM3.33317 3.33329V7.49996H7.49984V3.33329H3.33317Z" fill="#828FA2"/>
<path fill-rule="evenodd" clip-rule="evenodd" d="M10.8335 2.49996C10.8335 2.03972 11.2066 1.66663 11.6668 1.66663H17.5002C17.9604 1.66663 18.3335 2.03972 18.3335 2.49996V8.33329C18.3335 8.79353 17.9604 9.16663 17.5002 9.16663H11.6668C11.2066 9.16663 10.8335 8.79353 10.8335 8.33329V2.49996ZM12.5002 3.33329V7.49996H16.6668V3.33329H12.5002Z" fill="#828FA2"/>
<path fill-rule="evenodd" clip-rule="evenodd" d="M10.8335 11.6667C10.8335 11.2065 11.2066 10.8334 11.6668 10.8334H17.5002C17.9604 10.8334 18.3335 11.2065 18.3335 11.6667V17.5C18.3335 17.9603 17.9604 18.3334 17.5002 18.3334H11.6668C11.2066 18.3334 10.8335 17.9603 10.8335 17.5V11.6667ZM12.5002 12.5V16.6667H16.6668V12.5H12.5002Z" fill="#828FA2"/>
<path fill-rule="evenodd" clip-rule="evenodd" d="M1.6665 11.6667C1.6665 11.2065 2.0396 10.8334 2.49984 10.8334H8.33317C8.79341 10.8334 9.1665 11.2065 9.1665 11.6667V17.5C9.1665 17.9603 8.79341 18.3334 8.33317 18.3334H2.49984C2.0396 18.3334 1.6665 17.9603 1.6665 17.5V11.6667ZM3.33317 12.5V16.6667H7.49984V12.5H3.33317Z" fill="#828FA2"/>
</svg>
