<svg width="28" height="28" viewBox="0 0 28 28" fill="none" xmlns="http://www.w3.org/2000/svg">
<rect x="1.16699" y="4.66602" width="25.6667" height="18.6667" rx="2" stroke="#36414F" stroke-width="1.5"/>
<path d="M11.667 8.16602L23.3337 8.16602" stroke="#36414F" stroke-width="1.8" stroke-linecap="round"/>
<path d="M12.834 11.082H22.1673" stroke="#36414F" stroke-width="1.8" stroke-linecap="round"/>
<path fill-rule="evenodd" clip-rule="evenodd" d="M5.28956 14.1938C5.28956 13.2488 6.05565 12.4827 7.00067 12.4827C7.94569 12.4827 8.71178 13.2488 8.71178 14.1938C8.71178 15.1388 7.94569 15.9049 7.00067 15.9049C6.05565 15.9049 5.28956 15.1388 5.28956 14.1938ZM3.58341 18.4669C4.09203 17.2226 5.45032 16.3716 7.00067 16.3716C8.55101 16.3716 9.90929 17.2226 10.4179 18.4668C10.5322 18.7463 10.4142 19.0318 10.1987 19.1863C9.32749 19.8111 8.21154 20.1827 7.00064 20.1827C5.78977 20.1827 4.67384 19.8111 3.80262 19.1863C3.58715 19.0318 3.46916 18.7464 3.58341 18.4669Z" fill="#36414F"/>
</svg>
