<svg width="248" height="208" viewBox="0 0 248 208" fill="none" xmlns="http://www.w3.org/2000/svg">
<path d="M189.407 47.0289C202.393 47.0289 212.921 36.5011 212.921 23.5145C212.921 10.5278 202.393 0 189.407 0C176.42 0 165.892 10.5278 165.892 23.5145C165.892 36.5011 176.42 47.0289 189.407 47.0289Z" fill="#ECEEF9"/>
<path d="M218.912 42.2313C227.189 42.2313 233.899 35.5215 233.899 27.2445C233.899 18.9676 227.189 12.2578 218.912 12.2578C210.635 12.2578 203.925 18.9676 203.925 27.2445C203.925 35.5215 210.635 42.2313 218.912 42.2313Z" fill="#ECEEF9"/>
<path d="M233.9 35.3478C238.375 35.3478 242.004 31.7197 242.004 27.2442C242.004 22.7687 238.375 19.1406 233.9 19.1406C229.424 19.1406 225.796 22.7687 225.796 27.2442C225.796 31.7197 229.424 35.3478 233.9 35.3478Z" fill="#ECEEF9"/>
<path d="M178.448 64.2952C180.659 64.2952 182.451 62.5029 182.451 60.292C182.451 58.0812 180.659 56.2889 178.448 56.2889C176.237 56.2889 174.445 58.0812 174.445 60.292C174.445 62.5029 176.237 64.2952 178.448 64.2952Z" fill="#ECEEF9"/>
<path d="M137.107 25.187C142.037 25.187 146.034 21.1901 146.034 16.2595C146.034 11.329 142.037 7.33201 137.107 7.33201C132.176 7.33201 128.179 11.329 128.179 16.2595C128.179 21.1901 132.176 25.187 137.107 25.187Z" fill="#ECEEF9"/>
<path d="M19.8339 97.724C19.8339 59.5343 101.458 -22.6611 124.461 28.5754C161.109 110.206 229.087 59.5343 229.087 97.724C229.087 135.914 182.245 166.873 124.461 166.873C66.6769 166.873 19.8339 135.914 19.8339 97.724Z" fill="#ECEEF9"/>
<path d="M60.5005 126.294C60.8652 126.114 61.2389 125.95 61.6164 125.795C61.5935 125.781 61.5672 125.772 61.5474 125.753C60.2505 124.619 58.9725 123.466 57.6917 122.315C56.1688 120.993 54.9772 119.945 53.3004 119.116C52.1593 118.653 50.6008 118.297 49.2692 118.371C45.683 118.346 42.5299 120.751 39.8404 122.854C36.7666 125.311 33.7067 127.815 31.094 130.732C30.0581 131.856 29.4199 132.685 28.457 134.039C27.809 135.029 27.3845 135.641 27.3671 136.552C27.7306 139.296 29.0302 142.609 30.7266 145.318C30.7959 145.441 30.7868 145.57 30.7374 145.686C30.7519 145.699 30.7694 145.711 30.7826 145.725C31.1801 145.18 31.5753 144.67 31.9896 144.202C31.9508 144.171 31.914 144.136 31.8908 144.092C31.4373 143.481 31.0625 142.821 30.7327 142.142C30.1045 140.703 29.6208 139.178 29.5272 137.614C29.4344 133.15 35.3704 128.616 38.7214 125.998C40.7123 124.474 42.9704 123.336 45.3173 122.404C48.2993 121.154 50.3298 120.075 53.5561 121.53C56.0656 122.682 58.1391 124.527 60.387 126.069C60.4587 126.138 60.4878 126.216 60.5005 126.294ZM105.083 181.721C105.083 181.72 105.082 181.718 105.082 181.717C105.081 181.72 105.078 181.726 105.076 181.731C105.078 181.728 105.082 181.724 105.083 181.721Z" fill="black"/>
<path d="M105.083 181.719C105.108 181.67 105.097 181.659 105.079 181.703C105.08 181.707 105.081 181.711 105.082 181.716C105.092 181.686 105.089 181.69 105.083 181.719ZM27.9875 158.079C28.8467 159.755 29.8966 160.82 30.8989 162.205C32.2642 160.378 33.635 158.554 34.9734 156.708C37.2377 153.536 39.532 150.016 40.9135 146.812C41.4569 145.657 42.3122 143.465 42.1091 143.267C41.9406 142.948 39.5249 142.482 38.5322 142.508C34.2987 142.406 32.94 144.386 30.6084 147.655C28.0322 151.109 26.2845 154.507 27.9875 158.079ZM63.9528 124.997C64.8726 124.747 65.8352 124.54 66.8103 124.407C66.7984 124.337 66.7843 124.268 66.7601 124.206C66.7462 124.138 66.6683 123.905 66.6328 123.799C66.1618 122.383 64.9549 121.404 64.4193 121.537C63.0137 121.928 62.1772 123.603 62.6727 125.392C63.0951 125.247 63.5209 125.112 63.9528 124.997ZM69.0679 166.562C68.982 166.525 68.8059 166.442 68.7211 166.399C68.5566 166.339 68.3669 166.333 68.204 166.276C67.8036 166.513 67.8022 166.486 67.5144 166.734C66.3378 167.823 66.3936 169.001 68.0375 169.381C69.3614 169.56 70.2204 168.509 69.6337 167.279C69.3973 166.845 69.4277 166.855 69.0679 166.562ZM54.867 135.462C54.8903 135.594 54.9317 135.632 54.9742 135.728C60.3386 134.69 65.7967 134.166 71.238 133.651C73.2308 133.376 77.4125 133.078 77.6199 132.945C77.9351 131.17 76.2543 128.109 74.1072 126.669C71.1403 124.619 67.5431 124.985 64.1872 125.864C61.5358 126.587 59.4721 127.617 57.6228 129.3C56.1758 130.62 55.4115 131.55 54.9601 133.34C54.753 134.217 54.6356 134.607 54.867 135.462ZM51.4531 176.319C50.9601 176.012 50.9575 175.995 50.7626 176.016C50.6694 176.029 48.9103 176.839 48.1414 177.303C48.0595 177.346 47.9832 177.365 47.9112 177.37C48.1357 177.683 48.3153 178.035 48.5512 178.339C48.5922 178.41 48.6025 178.485 48.5965 178.559C49.0567 178.536 49.5169 178.511 49.9771 178.489C50.952 178.447 51.9274 178.416 52.9026 178.381C52.7784 178.145 52.7442 177.82 52.6479 177.722C52.3787 177.106 51.7607 176.511 51.4531 176.319ZM55.866 151.741C56.2702 152.182 57.8931 151.256 58.2749 150.721C58.5068 150.259 58.6808 149.792 58.4135 149.064C58.4289 149.09 58.2497 148.702 58.0774 148.453C58.0504 148.406 58.0374 148.357 58.0316 148.308C57.2735 148.677 56.5248 149.106 55.7788 149.607C55.4341 149.844 55.0868 150.095 54.7398 150.354C55.1975 150.925 55.7111 151.647 55.866 151.741ZM66.054 169.24C65.3423 169.747 64.6206 170.246 63.8882 170.733C64.6913 170.462 65.4665 170.175 65.6977 170.052C65.9684 169.939 66.2346 169.818 66.501 169.697C66.3771 169.602 66.2584 169.5 66.1523 169.382C66.1143 169.336 66.0863 169.287 66.054 169.24ZM48.1724 139.381C48.0802 139.474 47.9772 139.588 47.9299 139.64C47.8858 139.694 47.8449 139.751 47.8073 139.81C48.5042 141.195 49.9836 143.225 51.0832 144.557C51.1163 144.589 51.1312 144.625 51.1508 144.661C51.3151 144.55 51.4789 144.439 51.645 144.33C51.2538 143.836 50.9871 143.233 50.6232 142.712C49.7663 141.418 49.1527 140.316 48.1724 139.381ZM48.0964 138.114C48.5677 137.869 49.074 137.685 49.536 137.425C48.6539 136.395 47.2489 135.048 46.8228 135.115C46.5243 135.035 45.9871 135.494 45.3067 135.988C44.3217 136.638 42.9457 137.974 43.4591 138.665C43.9619 139.713 44.7386 140.885 45.1527 140.956C45.1538 140.956 45.1539 140.956 45.155 140.956C45.589 140.762 46.1811 140.301 46.8189 139.682C46.8394 139.662 46.8614 139.655 46.8825 139.64C47.0707 139.191 47.4424 138.806 47.84 138.516C47.8543 138.354 47.9485 138.196 48.0964 138.114ZM84.4891 158.271C84.4816 158.282 84.4739 158.293 84.4654 158.306C84.4574 158.328 84.4499 158.351 84.4429 158.373C84.3457 158.511 84.5468 159.117 84.7743 159.359C85.1345 159.706 86.0355 159.455 87.0907 158.849C87.3823 158.739 87.7423 158.374 88.0766 158.188C87.7338 157.471 87.3591 156.773 86.9443 156.101C86.9428 156.102 86.9417 156.104 86.9403 156.106C86.1678 156.87 85.293 157.539 84.4891 158.271ZM105.076 181.73C105.074 181.733 105.07 181.738 105.068 181.741C105.065 181.752 105.062 181.755 105.06 181.769C105.068 181.75 105.071 181.741 105.076 181.73ZM29.7762 147.271C29.9386 147.045 30.0971 146.823 30.2541 146.605C30.1873 146.586 30.1244 146.557 30.0747 146.51C29.7065 146.23 29.7642 146.259 29.2942 145.994C28.5984 145.657 28.0553 145.495 27.4824 145.501C27.335 145.516 27.3862 145.514 27.4966 145.493C27.4131 145.494 27.1456 145.576 27.0711 145.596C27.0164 145.626 26.9543 145.666 26.9204 145.689C26.896 145.711 26.874 145.732 26.8582 145.748C26.8558 145.752 26.8538 145.755 26.8516 145.758C26.6368 146.32 27.8188 147.457 28.9325 148.454C29.2061 148.052 29.4891 147.658 29.7762 147.271ZM155.906 101.109C153.89 104.896 152.894 109.321 152.53 113.832C153.612 114.336 154.693 114.84 155.771 115.349C157.008 115.897 158.252 116.432 159.499 116.959C159.513 116.934 159.527 116.909 159.54 116.885C160.451 115.113 161.408 113.362 162.416 111.637C164.044 108.947 165.786 105.672 166.928 103.212C167.163 102.477 167.216 102.802 166.878 102.162C164.594 100.427 161.717 98.8315 158.683 97.2263C157.675 98.4689 156.691 99.7254 155.906 101.109Z" fill="black"/>
<path d="M151.573 116.789C151.52 117.691 151.488 118.596 151.479 119.498C151.547 123.485 151.894 127.515 150.923 131.435C150.486 133.376 149.883 135.36 148.546 136.911C147.142 138.51 145.391 139.829 143.435 140.72C147.457 142.233 151.411 143.732 155.128 145.129C155.761 145.333 155.926 145.295 156.062 145.204C156.54 144.922 157.352 143.23 157.91 142.098C159.557 138.608 161.254 135.221 162.697 131.971C163.674 129.768 164.598 127.544 165.533 125.325C166.081 124.335 165.21 123.142 164.404 122.614C161.536 121.033 158.36 120.015 155.399 118.6C154.124 117.997 152.848 117.393 151.573 116.789ZM156.982 139.482C157.183 139.742 157.162 140.085 156.999 140.358C156.732 140.901 156.388 141.406 156.035 141.9C155.626 142.514 154.85 143.097 154.079 142.724C152.991 142.19 151.857 141.735 150.784 141.175C150.354 140.93 150.398 140.379 150.6 140C150.976 139.175 151.361 138.354 151.764 137.542C151.907 137.277 152.311 137.225 152.507 137.421C152.582 137.29 152.715 137.188 152.87 137.17C153.665 137.263 154.401 137.755 155.121 138.09C155.789 138.479 156.508 138.868 156.982 139.482Z" fill="#FFC95F"/>
<path d="M113.868 129.527C113.681 129.066 113.518 128.596 113.486 128.1C113.383 126.821 113.677 125.519 114.26 124.366C114.704 123.572 115.35 122.904 115.961 122.226C117.361 120.742 118.326 119.536 119.416 117.735C121.437 114.658 122.302 111.269 123.888 107.79C124.11 107.315 124.354 106.849 124.607 106.388C122.811 106.258 120.758 106.239 118.811 106.349C118.735 106.404 118.647 106.444 118.551 106.449C118.216 106.465 117.883 106.503 117.55 106.54C117.045 107.52 116.471 108.483 115.985 109.476C113.77 113.792 111.153 117.907 108.929 122.219C108.223 123.564 107.51 124.907 106.855 126.277C106.786 126.465 106.567 126.848 106.558 127.123C106.625 127.113 106.693 127.114 106.762 127.141C107.06 127.383 107.349 127.641 107.638 127.901C109.018 128.471 111.256 128.962 112.93 129.317C113.242 129.388 113.555 129.457 113.868 129.527Z" fill="black"/>
<path d="M131.133 96.7585C132.815 95.1036 135.4 93.6745 136.934 92.4895C138.372 91.3625 139.524 89.9483 141.05 88.9146C141.056 88.9105 141.062 88.9067 141.068 88.9026C139.339 88.6424 137.483 88.4356 135.882 88.1377C134 87.8528 131.922 87.1828 130.622 87.5997C130.019 87.7564 129.219 90.0823 128.58 91.6736C127.108 95.2739 125.557 98.8822 123.375 102.17C124.477 102.175 125.581 102.225 126.677 102.326C127.914 100.315 129.433 98.4477 131.133 96.7585ZM63.3475 60.7052C69.3962 58.0538 75.3705 55.3045 81.2135 52.389C86.0363 50.0305 91.0069 47.8428 96.1245 45.8874C95.8578 45.8032 95.6966 45.7503 95.2957 45.654C93.8506 45.2644 91.6145 45.0107 90.5328 44.9683C88.2751 44.7798 86.52 45.2843 84.2255 45.7127C80.5437 46.4695 76.8728 47.2577 73.2134 48.0771C63.1672 50.3238 52.925 52.0369 42.9363 54.4337C42.5911 54.5359 42.5762 54.5251 42.3651 54.6129C42.7657 54.9616 44.2014 55.4723 45.23 55.8022C47.4192 56.5016 49.5586 57.2887 51.6964 58.0762C54.0432 58.9063 56.2517 59.9418 58.5096 60.9034C59.2896 61.2427 60.0621 61.5925 60.8208 61.9597C61.6258 61.4994 62.4825 61.0955 63.3475 60.7052Z" fill="#FFC95F"/>
<path d="M69.1631 165.585C69.6971 164.866 70.236 164.149 70.7812 163.437C71.7744 162.179 72.6198 160.832 73.3939 159.451C73.8078 158.651 74.2042 157.96 74.5568 157.277C72.7553 159.839 70.8461 162.936 68.9627 165.522C69.0306 165.543 69.0974 165.565 69.1631 165.585Z" fill="black"/>
<path d="M62.1482 74.6911C61.9014 74.7185 61.6355 74.7461 61.3592 74.7709C60.7612 76.5396 59.8288 78.284 59.0648 80.0305C58.1038 82.0574 57.2608 84.1128 56.1121 86.0966C55.5908 87.003 55.0537 87.9052 54.4994 88.8023C54.2691 89.2215 54.1945 89.264 54.1993 89.5088C54.2141 89.5129 54.233 89.5184 54.2548 89.5246C54.3244 89.5322 54.4317 89.5412 54.4858 89.532C57.0411 89.2275 60.3246 88.1822 63.3104 87.3167C67.5501 86.0002 71.6312 84.3962 75.7575 82.8796C81.2625 80.8505 86.0206 78.6396 91.0682 76.2233C93.2893 75.1754 95.5064 74.1188 97.6318 72.9606C98.9321 72.2392 99.8466 71.7659 100.693 70.878C101.392 70.1712 102.056 69.1798 102.562 68.1285C102.565 68.1063 102.586 68.0434 102.626 67.9949C102.719 67.7885 102.808 67.5809 102.892 67.3725C102.898 67.3581 102.903 67.3427 102.909 67.328C92.8026 69.5854 82.5452 71.2952 72.3207 73.1106C68.9434 73.6991 65.5666 74.3267 62.1482 74.6911Z" fill="#FFC95F"/>
<path d="M153.658 25.9691C153.639 25.9605 153.626 25.9479 153.61 25.9374C151.905 26.4606 150.211 27.0152 148.527 27.5931C151.534 29.5164 153.575 33.0125 154.055 36.1878C154.852 40.9041 152.698 45.4725 151.62 50.011C151.051 52.2349 150.535 54.7112 150.56 57.0318C153.244 56.3873 155.919 55.7099 158.6 55.0577C160.766 54.5547 162.922 54.0218 165.07 53.4602C165.084 53.4266 165.099 53.3932 165.116 53.3614C165.242 53.0753 165.34 52.7794 165.423 52.4804C165.733 51.3512 165.864 49.7954 165.905 48.3202C165.954 44.4682 164.406 40.4637 162.637 36.8588C160.616 32.5072 157.563 28.4409 153.658 25.9691Z" fill="black"/>
<path d="M211.884 21.2989C210.086 20.1742 207.95 19.9287 205.668 19.4369C201.037 18.5984 196.656 18.6142 191.815 18.8666C183.612 19.1313 176.189 20.5682 168.27 22.2954C164.043 23.2521 159.811 24.2054 155.631 25.3255C155.346 25.4081 155.063 25.4992 154.778 25.5837C155.61 26.1587 156.409 26.7744 157.15 27.4465C160.404 30.394 162.55 34.1635 164.265 38.0119C166.227 42.1757 167.411 46.7525 166.626 51.291C166.574 51.5615 166.444 52.4541 166.2 53.1571C171.876 51.641 177.48 49.9121 182.981 47.9112C189.125 45.6747 194.886 43.1714 200.65 39.8138C205.093 37.3132 209.113 33.714 211.94 29.8314C213.099 28.1663 214.184 26.323 214.001 24.9544C213.83 23.614 212.645 21.8795 211.884 21.2989ZM195.917 34.912C192.874 39.0059 184.454 39.7365 180.569 36.3356C178.152 34.3512 177.876 30.743 179.711 28.3435C180.756 27.1043 182.24 26.2745 183.789 25.6358C183.851 25.5624 183.933 25.5021 184.032 25.4721C185.442 24.902 186.943 24.439 188.492 24.3678C190.67 24.3203 192.908 24.9197 194.619 26.1759C195.903 27.1772 196.719 28.5997 197.182 30.0693C197.56 31.7475 196.958 33.5243 195.917 34.912ZM139.755 44.0529C137.905 40.1492 135.261 36.2955 131.871 34.065C131.768 34.0142 131.707 33.9377 131.676 33.8521C122.939 36.8838 114.104 39.6788 105.409 42.8137C94.7892 46.66 84.6487 52.35 74.759 58.1527C71.9324 59.7485 69.0533 61.2646 66.177 62.783C64.3484 63.7557 62.077 64.8734 60.7865 65.8625C60.5656 66.0947 60.1554 66.0232 60.0245 65.7787C59.1636 66.5746 58.5026 67.4219 58.4896 68.2748C58.3919 68.8874 59.6485 69.391 61.2661 69.488C65.0052 69.7353 69.9313 69.2633 74.1061 68.9316C85.3819 67.9995 96.6814 67.2163 107.868 65.5656C118.653 64.1155 128.974 61.9329 139.819 59.8741C140.785 59.6986 141.745 59.5059 142.704 59.3067C143.282 57.2142 143.414 55.2473 143.005 53.1162C142.365 49.7686 141.185 47.0991 139.755 44.0529Z" fill="#FF8B6A"/>
<path d="M150.86 37.7723C150.344 34.5309 148.928 31.8318 146.145 29.7437C145.788 29.4675 145.421 29.2321 145.051 29.0234C143.72 29.49 142.393 29.9661 141.073 30.4574C138.304 31.5089 135.514 32.5119 132.715 33.4906C132.749 33.5154 132.784 33.5392 132.818 33.5603C133.423 33.9812 133.985 34.4504 134.526 34.9376C137.835 37.9035 139.872 41.8076 141.596 45.6917C143.132 49.31 144.578 53.1529 144.126 57.0921C144.045 57.7673 143.905 58.4362 143.721 59.0941C144.913 58.8371 146.101 58.5638 147.286 58.2836C147.22 55.6828 147.88 53.048 148.483 50.5295C149.576 46.1783 151.453 41.8422 150.86 37.7723Z" fill="black"/>
<path d="M137.515 93.09C136.074 94.2222 134.393 95.125 133.235 96.0695C130.963 97.8801 129.097 100.087 127.633 102.437C128.431 102.534 129.227 102.649 130.011 102.806C131.72 103.187 133.196 104.125 134.753 104.844C135.714 105.33 136.68 105.806 137.648 106.278C138.254 105.165 138.859 104.051 139.438 102.925C140.723 100.451 141.781 98.1176 143.011 95.4168C143.909 93.4935 145.131 90.1808 144.601 89.6448C143.922 89.4268 143.131 89.2527 142.285 89.1014C141.843 89.367 141.435 89.6427 141.077 89.9185C139.812 90.8996 138.781 92.1101 137.515 93.09Z" fill="#FFC95F"/>
<path d="M118.875 130.711C119.389 130.899 119.899 131.099 120.409 131.297C120.469 131.172 120.542 131.048 120.581 130.924C124.143 122.985 127.135 114.832 130.328 106.755C130.348 106.673 130.397 106.609 130.456 106.556C129.241 106.042 128.048 105.754 126.501 105.585C126.429 105.577 126.351 105.571 126.278 105.564C125.755 106.497 125.29 107.447 124.89 108.402C124.075 110.306 123.452 112.281 122.586 114.165C121.658 116.196 120.504 118.136 119.167 119.948C117.946 121.645 116.258 123.015 115.356 124.532C114.643 125.924 114.335 128.004 115.148 129.455C115.201 129.551 115.206 129.658 115.178 129.758C116.421 130.039 117.66 130.335 118.875 130.711ZM155.162 100.625C155.938 99.2674 156.908 98.0344 157.899 96.8149C154.015 94.7727 149.936 92.6939 146.542 90.2693C146.542 90.5779 146.494 90.902 146.424 91.214C146.007 93.1733 145.15 95.0176 144.354 96.8605C143.128 99.5548 141.918 102.257 140.542 104.887C140.09 105.768 139.621 106.64 139.155 107.514C143.28 109.545 147.461 111.472 151.633 113.413C152.091 109.01 152.972 104.562 155.162 100.625Z" fill="black"/>
<path d="M142.235 140.269C145.02 139.253 147.542 137.323 148.926 134.737C149.941 132.507 150.537 129.363 150.659 126.511C150.765 123.27 150.393 120.026 150.624 116.787C150.636 116.644 150.65 116.501 150.663 116.358C144.701 113.53 138.755 110.669 132.923 107.596C132.633 107.431 132.354 107.285 132.078 107.146C131.553 108.86 130.79 110.533 130.17 112.225C127.505 119.032 125.049 125.944 121.98 132.586C124.046 133.421 126.093 134.301 128.186 135.072C132.757 136.723 137.53 138.501 142.235 140.269Z" fill="#FFC95F"/>
<path d="M192.321 23.3911C190.61 22.0222 188.372 21.369 186.195 21.4208C184.646 21.4984 183.144 22.0029 181.734 22.6241C181.636 22.6569 181.554 22.7226 181.491 22.8025C179.943 23.4987 178.459 24.4027 177.413 25.7533C175.579 28.368 175.855 32.3001 178.271 34.4626C182.156 38.1687 190.577 37.3725 193.62 32.9113C194.66 31.3989 195.263 29.4627 194.884 27.6338C194.421 26.0325 193.606 24.4822 192.321 23.3911ZM193.852 30.2682C193.186 32.5799 191.48 34.4237 189.133 35.1021C185.574 36.3744 181.381 36.1223 178.772 33.5373C176.882 31.6728 176.701 28.4927 178.113 26.3486C178.665 25.589 179.61 24.7986 180.782 24.1857C181.537 23.792 181.754 23.6669 182.414 23.4044C182.585 23.3364 182.776 23.2831 182.899 23.1434C183.285 23.0114 183.732 22.8651 183.914 22.8029C185.094 22.412 186.313 22.3019 187.302 22.4311C189.288 22.7011 190.885 23.3218 192.183 24.6649C193.065 25.6363 193.798 27.0576 194.02 28.39C194.083 28.6332 193.949 29.9939 193.852 30.2682ZM105.082 181.717C105.081 181.713 105.08 181.708 105.08 181.704C105.076 181.713 105.072 181.728 105.068 181.742C105.07 181.739 105.074 181.734 105.076 181.731C105.078 181.727 105.08 181.72 105.082 181.717Z" fill="black"/>
<path d="M97.1414 42.9131C95.2087 42.0969 93.1433 41.6119 91.0511 41.4647C89.6667 41.3149 88.2728 41.3545 86.9237 41.721C81.8285 42.9336 76.8035 44.4225 71.7646 45.8463C65.336 47.6178 58.8791 49.2853 52.4234 50.9548C49.7411 51.6862 47.0448 52.3696 44.386 53.1838C43.3046 53.5949 40.1461 54.0413 41.7431 55.6767C42.719 56.4977 43.9529 56.919 45.1031 57.4337C46.6095 58.0544 48.0844 58.747 49.559 59.4392C52.7804 60.8834 55.8415 62.6383 58.9053 64.3851C59.0895 64.4768 59.2672 64.5887 59.4439 64.703C58.8545 65.2546 58.3832 65.9517 57.9759 66.6347C56.4695 69.5224 58.9175 70.2772 61.2653 70.465C59.0721 75.7814 56.9246 80.9493 54.3705 85.8349C53.0637 88.5375 49.7837 92.0158 55.4866 90.973C59.9086 90.2338 64.2592 89.1082 68.5141 87.7006C72.6569 86.2841 76.8273 84.9364 80.9099 83.3517C85.1932 81.6826 89.3456 79.7062 93.4962 77.736C95.8531 76.6287 98.2002 75.4944 100.466 74.2093C102.22 73.2905 103.785 72.0274 104.847 70.3378C105.604 69.2088 106.189 67.9736 106.685 66.7106C106.741 66.5958 106.795 66.4584 106.823 66.3238C107.051 66.2882 107.28 66.2577 107.508 66.2214C118.55 64.6141 129.422 62.1181 140.341 59.8603C141.235 59.6808 142.126 59.4853 143.015 59.2833C143.019 59.2832 143.024 59.2855 143.028 59.2852C143.099 59.2802 143.159 59.2622 143.213 59.2376C144.592 58.9223 145.964 58.58 147.333 58.2286C147.396 58.9611 147.513 59.6899 147.7 60.4121C148.123 62.1595 148.921 63.9059 150.366 65.0368C153.251 67.2946 156.811 68.4511 159.758 70.6174C159.967 70.7466 160.168 70.8855 160.362 71.0318C160.398 71.4319 160.418 71.8328 160.407 72.235C160.113 75.1197 158.952 77.9048 156.668 79.9073C155.316 81.1153 153.33 82.382 151.584 83.0069C149.975 83.5513 148.259 83.6746 146.641 84.1921C145.382 84.5665 144.185 85.1291 143.07 85.8237C140.796 85.4154 138.499 85.1258 136.229 84.6882C134.36 84.4282 131.583 83.2529 130.02 84.7238C129.345 85.4977 129.058 86.5185 128.677 87.4535C127.953 89.4373 127.223 91.4197 126.419 93.3728C125.459 95.6362 124.711 97.4329 123.461 99.68C123.091 100.344 122.691 100.991 122.291 101.637C121.337 101.659 120.386 101.712 119.445 101.796C119.394 101.815 119.353 101.843 119.314 101.875C118.875 101.924 118.422 101.937 117.999 102.047C117.732 102.139 117.642 102.435 117.71 102.667C116.504 104.858 115.481 107.144 114.291 109.344C112.613 112.483 110.847 115.576 109.23 118.748C108.377 120.421 107.533 122.1 106.714 123.792C106.335 124.851 105.18 126.198 105.769 127.315C106.087 127.801 106.596 128.075 107.124 128.298C109.488 130.504 112.27 132.235 115.048 133.87C119.99 136.854 125.331 139.034 130.784 140.881C130.8 141.263 131.256 141.342 131.583 141.363C131.942 141.418 132.302 141.462 132.663 141.506C133.28 141.707 133.898 141.907 134.517 142.101C138.405 143.411 142.291 144.744 146.286 145.699C148.104 146.168 149.93 146.618 151.815 146.686C153.331 146.805 154.856 146.761 156.366 146.585C156.718 146.547 157.198 146.543 157.356 146.212C158.447 145.988 159.045 144.625 159.532 143.673C160.328 142.074 161.065 140.446 161.803 138.819C164.155 133.705 166.629 128.586 168.443 123.262C168.634 120.373 165.392 119.338 163.239 118.382C162.442 118.04 161.65 117.687 160.858 117.336C160.878 117.29 160.897 117.244 160.915 117.2C161.137 116.744 161.36 116.29 161.587 115.837C162.37 114.274 163.187 112.729 164.035 111.201C165.44 108.746 166.7 106.216 167.898 103.654C168.269 102.707 169.116 101.644 168.567 100.617C168.15 99.7718 167.263 99.3388 166.52 98.8247C164.315 97.3946 162.069 96.0274 159.781 94.7328C160.848 93.3442 161.904 91.9478 162.75 90.4106C163.995 88.1349 164.991 85.6642 165.297 83.0739C165.494 79.9786 165.248 76.7538 163.933 73.9067C163.314 72.5464 162.385 71.4507 161.292 70.5156C161.135 69.2417 160.769 67.9918 160.231 66.8292C159.178 64.4134 157.185 62.6261 155.338 60.8167C154.003 59.579 152.942 58.2129 152.042 56.9833C153.587 56.5659 155.131 56.1469 156.677 55.738C165.327 53.5529 173.832 50.8499 182.108 47.5107C188.026 45.084 193.818 42.293 199.189 38.8067C203.612 36.0085 207.427 32.2629 210.37 27.9397C211.604 25.9213 213.208 23.5488 212.502 21.0934C212.07 19.7487 211.439 18.3798 210.374 17.4217C208.298 15.854 205.559 15.5453 203.083 14.9915C197.16 13.9096 191.11 14.3063 185.143 14.7466C178.69 15.2803 172.356 16.7107 166.061 18.1727C160.566 19.5496 155.02 20.803 149.672 22.694C148.189 23.2207 146.715 23.771 145.243 24.3293C144.265 23.8078 143.204 23.4654 142.075 23.3626C140.486 23.3002 138.864 24.0344 137.969 25.3688C137.536 25.9994 137.14 26.7616 137.039 27.5377C132.273 29.4335 127.507 31.3296 122.654 32.9944C115.522 35.6207 108.316 38.082 101.349 41.1296C99.9796 41.7377 98.6234 42.3745 97.2742 43.0263C97.2402 42.9833 97.1986 42.9432 97.1414 42.9131ZM128.831 89.7437C129.5 87.942 130.339 85.3084 130.971 85.1311C132.333 84.6592 134.512 85.4177 136.485 85.7401C138.163 86.0775 140.109 86.3114 141.922 86.6062C141.916 86.6107 141.909 86.6151 141.903 86.6197C140.303 87.7899 139.095 89.3912 137.588 90.6673C135.979 92.0089 133.27 93.627 131.506 95.5008C129.725 97.4134 128.132 99.5277 126.835 101.804C125.686 101.69 124.529 101.633 123.374 101.628C125.662 97.9054 127.288 93.8202 128.831 89.7437ZM151.837 125.106C151.71 128.171 151.09 131.551 150.033 133.948C148.592 136.728 145.966 138.802 143.067 139.895C138.168 137.994 133.199 136.083 128.439 134.308C126.26 133.48 124.129 132.534 121.979 131.636C125.174 124.496 127.73 117.066 130.505 109.749C131.151 107.929 131.945 106.13 132.492 104.288C132.78 104.437 133.07 104.594 133.372 104.772C139.443 108.075 145.634 111.151 151.841 114.191C151.828 114.344 151.814 114.498 151.801 114.652C151.56 118.133 151.947 121.622 151.837 125.106ZM115.605 129.259C114.749 127.654 115.072 125.352 115.824 123.813C116.774 122.134 118.552 120.619 119.839 118.741C121.247 116.736 122.462 114.59 123.44 112.342C124.352 110.258 125.008 108.073 125.867 105.966C126.289 104.91 126.778 103.858 127.329 102.826C127.407 102.834 127.488 102.84 127.564 102.849C129.194 103.036 130.451 103.354 131.73 103.923C131.669 103.982 131.617 104.052 131.596 104.144C128.232 113.08 125.08 122.101 121.328 130.885C121.287 131.021 121.21 131.159 121.147 131.298C120.61 131.078 120.073 130.857 119.531 130.648C118.251 130.233 116.946 129.905 115.636 129.594C115.666 129.484 115.661 129.365 115.605 129.259ZM139.153 106.706C139.631 105.757 140.112 104.81 140.574 103.854C141.985 100.999 143.224 98.0658 144.481 95.1411C145.296 93.1405 146.175 91.1385 146.602 89.0115C146.674 88.673 146.723 88.3211 146.723 87.9861C150.201 90.6181 154.382 92.8749 158.362 95.0917C157.346 96.4156 156.352 97.7541 155.557 99.2278C153.313 103.501 152.41 108.33 151.94 113.11C147.664 111.002 143.38 108.911 139.153 106.706ZM143.957 93.9821C142.668 97.0401 141.559 99.6823 140.211 102.483C139.605 103.758 138.971 105.019 138.335 106.279C137.32 105.745 136.308 105.206 135.301 104.655C133.669 103.841 132.121 102.779 130.329 102.348C129.507 102.17 128.674 102.04 127.836 101.93C129.371 99.2696 131.328 96.7711 133.709 94.7211C134.923 93.6516 136.685 92.6297 138.196 91.3478C139.523 90.2382 140.604 88.8677 141.93 87.757C142.306 87.4447 142.733 87.1324 143.196 86.8318C144.083 87.0032 144.912 87.2004 145.624 87.4472C146.18 88.054 144.898 91.8045 143.957 93.9821ZM106.781 126.597C106.706 126.566 106.631 126.566 106.558 126.577C106.568 126.261 106.808 125.82 106.883 125.604C107.6 124.03 108.381 122.485 109.155 120.938C111.592 115.981 114.459 111.25 116.885 106.287C117.418 105.145 118.047 104.038 118.599 102.912C118.964 102.869 119.329 102.825 119.696 102.806C119.802 102.801 119.897 102.754 119.981 102.691C122.113 102.565 124.363 102.586 126.33 102.736C126.053 103.266 125.786 103.802 125.542 104.348C123.805 108.349 122.858 112.245 120.644 115.783C119.449 117.854 118.392 119.24 116.859 120.947C116.19 121.727 115.482 122.495 114.995 123.407C114.356 124.733 114.034 126.229 114.147 127.701C114.183 128.27 114.361 128.811 114.566 129.341C114.223 129.261 113.881 129.181 113.538 129.1C111.705 128.691 109.253 128.127 107.74 127.472C107.424 127.173 107.108 126.876 106.781 126.597ZM109.714 129.185C110.265 129.34 110.819 129.483 111.375 129.616C114.336 130.345 117.744 130.952 120.216 131.979C126.018 134.541 131.973 136.715 137.91 138.937C139.132 139.407 140.351 139.885 141.571 140.364C140.99 140.511 140.405 140.622 139.821 140.688C137.37 140.849 135.239 140.834 133.005 140.568C127.903 138.892 123.053 137.173 118.185 134.471C115.322 132.945 111.97 130.88 109.714 129.185ZM154.905 145.75C153.992 145.849 152.035 145.743 151.579 145.7C149.774 145.608 148.037 145.108 146.291 144.68C143.01 143.884 139.802 142.836 136.605 141.758C137.689 141.768 138.774 141.734 139.853 141.644C140.933 141.532 141.985 141.283 142.996 140.923C147.103 142.542 151.205 144.177 155.341 145.716C155.196 145.727 155.051 145.741 154.905 145.75ZM166.147 120.917C166.987 121.484 167.893 122.766 167.323 123.831C166.349 126.216 165.387 128.607 164.371 130.975C162.868 134.469 161.102 138.109 159.387 141.861C158.805 143.079 157.961 144.897 157.463 145.2C157.321 145.299 157.149 145.339 156.491 145.119C152.62 143.618 148.503 142.007 144.316 140.38C146.352 139.423 148.175 138.004 149.637 136.285C151.029 134.618 151.657 132.485 152.112 130.399C153.123 126.185 152.762 121.852 152.691 117.566C152.7 116.597 152.734 115.625 152.789 114.654C154.116 115.304 155.444 115.953 156.772 116.601C159.855 118.123 163.161 119.217 166.147 120.917ZM167.564 100.898C167.91 101.593 167.856 101.24 167.615 102.039C166.444 104.709 164.659 108.263 162.991 111.184C161.958 113.056 160.978 114.957 160.044 116.881C160.031 116.907 160.016 116.934 160.002 116.961C158.724 116.389 157.449 115.808 156.181 115.213C155.076 114.66 153.968 114.113 152.86 113.566C153.233 108.669 154.254 103.866 156.32 99.7549C157.124 98.253 158.133 96.8891 159.165 95.5404C162.274 97.283 165.223 99.0146 167.564 100.898ZM161.378 71.9435C163.447 74.1407 164.327 77.4391 164.371 80.5617C164.622 84.7572 163.162 88.1369 160.891 91.678C160.293 92.5717 159.64 93.4287 158.983 94.2824C158.925 94.2499 158.867 94.216 158.809 94.1837C155.84 92.5321 152.843 90.9164 149.995 89.061C148.537 88.1034 147.618 87.3313 146.296 86.4044C146.159 86.3479 146.021 86.3752 145.903 86.443C145.752 86.3732 145.579 86.32 145.374 86.2906C145.07 86.2206 144.766 86.1568 144.461 86.0938C145.476 85.5637 146.59 85.123 147.709 84.8734C149.772 84.3958 151.935 84.1564 153.776 83.0244C156.143 81.7186 158.349 79.9919 159.712 77.6171C160.637 75.9059 161.229 73.9916 161.379 72.0501C161.38 72.0145 161.378 71.9789 161.378 71.9435ZM58.5088 62.9953C56.2509 61.7521 54.0424 60.4133 51.6956 59.3403C49.5576 58.3221 47.4182 57.3047 45.2292 56.4003C44.2006 55.9737 42.7648 55.3135 42.3643 54.8627C42.5754 54.7492 42.5903 54.7631 42.9355 54.6311C52.9242 51.5325 63.1664 49.3179 73.2126 46.4132C76.872 45.3541 80.5429 44.335 84.2247 43.3566C86.5192 42.8029 88.2742 42.1506 90.532 42.3941C91.6135 42.4492 93.8498 42.777 95.2949 43.2808C95.696 43.4052 95.8571 43.4735 96.1237 43.5824C91.0063 46.1105 86.0355 48.9388 81.2127 51.9878C75.3698 55.757 69.3954 59.3112 63.3467 62.7391C62.4817 63.2436 61.625 63.7658 60.82 64.3609C60.0613 63.886 59.2888 63.4338 58.5088 62.9953ZM105.754 66.5409C105.643 66.8203 105.529 67.098 105.409 67.3736C105.364 67.4355 105.335 67.5205 105.329 67.5514C104.69 68.9493 103.895 70.2384 103.097 71.1229C102.126 72.2387 101.132 72.7619 99.714 73.5739C97.3979 74.8718 94.9989 76.0129 92.5971 77.1413C87.1344 79.7544 81.9927 82.1236 76.1039 84.1223C71.6901 85.6143 67.3131 87.236 62.8056 88.4299C59.638 89.1841 56.1443 90.1447 53.4826 90.1775C53.4259 90.182 53.3168 90.1529 53.2461 90.1316C53.2244 90.1192 53.2056 90.1087 53.1909 90.1007C53.2136 89.7562 53.2951 89.7081 53.5792 89.1551C54.2504 87.9811 54.9049 86.7976 55.5433 85.6054C56.9484 82.9975 58.0477 80.242 59.2647 77.5448C60.2477 75.2108 61.4034 72.9057 62.2183 70.5149C62.505 70.5227 62.7816 70.525 63.0384 70.5246C66.5939 70.5409 70.1365 70.1811 73.6751 69.8763C84.3919 68.9061 95.1306 68.0895 105.776 66.4807C105.768 66.5008 105.761 66.5216 105.754 66.5409ZM155.13 62.0361C156.499 63.4053 157.854 64.6405 158.689 66.073C159.384 67.2347 159.865 68.4235 160.14 69.6268C158.399 68.4037 156.4 67.458 154.574 66.4893C152.033 65.0715 149.941 64.0417 149.006 61.3206C148.598 60.2904 148.382 59.1588 148.301 57.9771C149.275 57.7228 150.249 57.4669 151.222 57.2051C151.208 57.2474 151.199 57.2918 151.197 57.3374C152.07 59.1433 153.726 60.6033 155.13 62.0361ZM153.333 22.4656C157.512 21.245 161.744 20.2061 165.971 19.1636C173.89 17.2815 181.313 15.7155 189.516 15.427C194.357 15.1519 198.738 15.1346 203.369 16.0484C205.651 16.5843 207.787 16.8519 209.585 18.0775C210.346 18.7102 211.531 20.6004 211.702 22.0612C211.886 23.5527 210.801 25.5615 209.641 27.376C206.815 31.6069 202.794 35.5292 198.351 38.2541C192.588 41.9131 186.826 44.6409 180.683 47.0782C175.181 49.2586 169.577 51.1427 163.902 52.795C164.146 52.0289 164.276 51.056 164.328 50.7614C165.113 45.8156 163.928 40.8281 161.967 36.2905C160.251 32.0969 158.106 27.9891 154.851 24.7771C154.111 24.0446 153.312 23.3737 152.48 22.7472C152.765 22.6548 153.047 22.5556 153.333 22.4656ZM151.311 23.1322C151.327 23.1437 151.34 23.1573 151.359 23.1667C155.264 25.8602 158.317 30.2915 160.338 35.0337C162.107 38.9622 163.655 43.3259 163.607 47.5236C163.565 49.1312 163.435 50.8265 163.124 52.0571C163.041 52.3829 162.943 52.7055 162.817 53.0171C162.8 53.0519 162.785 53.0883 162.771 53.1249C160.624 53.737 158.467 54.3175 156.301 54.8658C153.62 55.5766 150.945 56.3147 148.261 57.0171C148.237 54.4883 148.752 51.7897 149.321 49.3663C150.399 44.4205 152.553 39.4421 151.756 34.3026C151.277 30.8424 149.236 27.0326 146.228 24.9367C147.912 24.3067 149.606 23.7025 151.311 23.1322ZM143.952 24.8232C142.005 25.5723 140.064 26.3365 138.125 27.1073C138.947 24.4654 141.417 23.7727 143.952 24.8232ZM141.071 26.9491C142.392 26.4138 143.719 25.8948 145.05 25.3865C145.419 25.614 145.786 25.8705 146.144 26.1714C148.927 28.447 150.342 31.3882 150.858 34.9205C151.451 39.3556 149.574 44.081 148.482 48.8226C147.879 51.5672 147.219 54.4383 147.285 57.2725C146.099 57.5778 144.912 57.8757 143.72 58.1557C143.904 57.4387 144.044 56.7098 144.125 55.974C144.577 51.6815 143.131 47.4937 141.594 43.5506C139.871 39.3179 137.834 35.0636 134.525 31.8315C133.983 31.3006 133.422 30.7891 132.817 30.3305C132.782 30.3075 132.748 30.2815 132.713 30.2545C135.513 29.1882 138.302 28.095 141.071 26.9491ZM105.408 40.4148C114.103 36.9986 122.938 33.9528 131.675 30.6491C131.706 30.7424 131.767 30.8258 131.87 30.8812C135.26 33.3117 137.904 37.5114 139.753 41.7654C141.184 45.0849 142.364 47.994 143.004 51.642C143.413 53.9641 143.28 56.1076 142.703 58.3879C141.744 58.6051 140.783 58.8152 139.818 59.0063C128.973 61.2498 118.651 63.6282 107.867 65.2085C96.68 67.0072 85.3804 67.8607 74.1047 68.8764C69.9299 69.238 65.0038 69.7522 61.2647 69.4829C59.6471 69.3772 58.3904 68.8283 58.4881 68.1608C58.5011 67.2314 59.1621 66.3081 60.0231 65.4409C60.154 65.7073 60.5643 65.785 60.7851 65.5321C62.0756 64.4544 64.347 63.2363 66.1756 62.1762C69.052 60.5215 71.9311 58.8694 74.7575 57.1305C84.6474 50.8069 94.788 44.6064 105.408 40.4148Z" fill="black"/>
<path d="M178.271 34.4645C182.157 38.1707 190.577 37.3745 193.62 32.9132C194.66 31.4009 195.263 29.4647 194.884 27.6357C194.422 26.0343 193.606 24.4842 192.322 23.3931C190.611 22.0241 188.373 21.3711 186.195 21.4227C184.646 21.5003 183.144 22.0049 181.734 22.6261C181.636 22.6588 181.554 22.7245 181.491 22.8045C179.943 23.5006 178.459 24.4047 177.414 25.7552C175.579 28.37 175.855 32.3019 178.271 34.4645ZM178.113 26.3504C178.665 25.5908 179.611 24.8004 180.783 24.1875C181.537 23.7938 181.754 23.6687 182.414 23.4062C182.585 23.3382 182.777 23.2849 182.9 23.1452C183.285 23.0132 183.732 22.8669 183.914 22.8046C185.095 22.4138 186.313 22.3037 187.302 22.4329C189.288 22.7029 190.885 23.3236 192.184 24.6667C193.066 25.6383 193.798 27.0594 194.021 28.3918C194.083 28.6348 193.949 29.9956 193.852 30.2698C193.187 32.5815 191.48 34.4253 189.133 35.1037C185.575 36.3761 181.381 36.1239 178.772 33.539C176.883 31.6746 176.701 28.4945 178.113 26.3504ZM18.0906 85.6423C20.0529 85.1224 32.25 83.9171 31.6346 80.6632C31.2638 79.6071 30.2189 78.9906 29.3978 78.3037C27.8586 77.1051 26.248 75.9889 24.8411 74.6308C23.4209 73.4246 22.2563 71.4129 22.5628 70.8187C23.2848 68.8712 32.463 72.6339 35.399 73.5361C36.7437 73.8854 38.2142 74.3842 39.5878 73.9318C40.431 73.6451 41.1772 72.742 40.873 71.8235C40.4954 70.7428 39.441 70.0968 38.6046 69.3872C37.2832 68.3445 35.6672 67.1645 34.6229 66.3891C32.3525 64.7843 30.9541 63.0558 32.349 62.5097C33.4299 62.1306 34.8371 62.4667 36.4255 62.7555C38.9044 63.317 41.3477 64.025 43.7425 64.8764C47.1973 66.0482 50.5838 67.4342 54.1081 68.3925C54.6598 68.536 55.0343 67.5932 54.4024 67.445C47.7814 65.6177 41.5213 62.4269 34.6717 61.4659C32.8696 61.1517 30.3453 61.5826 30.9282 63.9783C31.4673 65.3322 32.7575 66.2066 33.8647 67.0785C35.7291 68.5165 37.7473 69.7944 39.6166 71.628C40.1502 72.2161 39.9718 72.6344 39.7012 72.8373C38.084 73.8119 34.6722 72.1664 32.3353 71.4148C29.9416 70.6148 27.5231 69.8146 25.0352 69.3688C22.2734 68.887 20.5937 70.3825 22.1823 73.0323C23.5388 75.2337 25.7329 76.7515 27.7467 78.3078C29.1535 79.3729 31.1984 80.8901 30.5877 81.2477C30.2362 81.8258 28.622 82.3837 27.1586 82.8266C22.9154 84.0688 19.0666 84.3131 14.7439 85.4095C10.4247 86.4589 6.33162 88.3592 2.71232 90.936C1.94297 91.4965 1.19258 92.0888 0.521523 92.7657C0.208574 93.0525 -0.294245 93.5688 0.222999 93.907C0.728484 94.1352 0.999256 93.5134 1.33243 93.2502C2.26548 92.3722 2.72894 92.0382 3.757 91.3225C8.17137 88.3044 12.7519 86.6133 18.0906 85.6423ZM52.8383 73.7754C48.7058 75.4517 45.0067 78.0311 41.1594 80.2575C37.5245 82.4233 33.9464 84.6819 30.4604 87.0807C29.4102 87.7963 28.3593 88.5114 27.3318 89.2594C27.1713 89.3772 26.9827 89.4815 26.9267 89.6864C26.827 89.9702 27.0529 90.2938 27.3621 90.2673C27.6325 90.2474 27.8172 90.0098 28.0382 89.8764C34.8699 85.0193 42.0588 80.6896 49.3176 76.5065C50.7756 75.6847 51.8347 75.1702 53.2061 74.602C53.6271 74.3304 53.3555 73.594 52.8383 73.7754ZM42.4761 88.6475C42.2479 88.815 41.9264 88.9133 41.8368 89.2077C41.6944 89.6056 42.1679 89.9512 42.5141 89.7132C45.8209 87.6177 49.0725 85.3507 51.7477 82.4685C54.1689 79.8275 56.4994 77.0725 58.2978 73.961C58.6325 73.3796 57.8165 72.9729 57.4827 73.5281C55.3967 77.0598 53.0435 79.8152 50.1041 82.8432C47.7057 85.1657 45.3813 86.7767 42.4761 88.6475ZM154.14 136.565C153.979 136.584 153.841 136.693 153.763 136.835C153.558 136.624 153.138 136.679 152.989 136.964C152.569 137.838 152.169 138.721 151.777 139.607C151.567 140.014 151.521 140.607 151.969 140.871C153.085 141.471 154.266 141.961 155.4 142.535C156.202 142.936 157.01 142.309 157.436 141.649C157.803 141.118 158.161 140.575 158.44 139.992C158.609 139.699 158.631 139.33 158.422 139.05C157.929 138.391 157.179 137.972 156.484 137.554C155.735 137.194 154.968 136.665 154.14 136.565ZM157.593 139.629C157.593 139.63 157.593 139.63 157.593 139.63C157.593 139.63 157.593 139.63 157.593 139.629C157.593 139.629 157.593 139.629 157.593 139.629C157.52 139.77 157.307 140.172 157.237 140.272C156.657 141.257 156.221 141.748 156.023 141.697C155.721 141.585 153.649 140.59 152.596 140.07C152.599 140.06 152.602 140.051 152.605 140.041C153.025 139.017 153.29 138.497 153.804 137.397C153.81 137.388 153.811 137.377 153.816 137.368C154.095 137.632 154.283 137.547 154.77 137.816C155.723 138.25 156.701 138.812 157.243 139.273C157.478 139.48 157.559 139.571 157.593 139.629ZM105.082 181.719C105.082 181.714 105.081 181.71 105.08 181.706C105.076 181.715 105.072 181.729 105.068 181.744C105.071 181.74 105.074 181.736 105.076 181.733C105.078 181.729 105.081 181.722 105.082 181.719Z" fill="black"/>
<path d="M13.4569 168.177C14.182 167.276 14.9063 166.233 15.5866 165.786C17.2775 164.724 19.3719 164.888 21.6734 165.655C22.54 165.899 24.5022 167.062 25.8179 167.407C28.522 168.124 31.4159 166.564 33.335 164.734C34.6385 163.506 35.4488 161.963 36.7758 161.798C37.6929 161.706 40.1222 162.259 41.4626 163.236C42.1371 163.691 42.3095 163.821 42.9649 164.36C43.0533 164.448 43.1755 164.491 43.299 164.484C43.6932 164.476 43.9837 163.941 43.6839 163.641C42.1846 162.35 40.4325 161.312 38.4585 160.981C38.4395 160.977 38.4198 160.974 38.4006 160.97C38.4218 160.934 38.4411 160.897 38.4527 160.855C40.2758 156.208 43.1612 151.861 47.0848 148.357C50.3249 145.31 54.3687 142.426 58.4109 140.831C63.3116 139.048 68.2382 139.306 73.3134 139.947C79.2585 140.667 84.8546 142.658 89.136 146.448C91.8751 148.753 93.7406 151.143 95.062 154.494C96.1625 157.178 97.0452 159.54 97.6153 162.532C98.1642 165.784 98.1956 168.862 97.9021 172.336C97.7098 174.389 97.3503 176.616 97.0331 178.282C96.985 178.47 96.9588 178.696 97.0968 178.842C95.4367 178.708 93.7754 178.592 92.1128 178.495C92.1161 178.482 92.1222 178.47 92.125 178.457C92.2585 178.058 92.3714 177.653 92.464 177.243C92.8392 175.574 92.9982 173.856 92.8869 172.148C92.1359 162.305 89.4658 150.558 79.3465 146.445C75.3877 144.819 71.1504 143.855 66.8557 143.999C63.9778 144.083 61.065 144.591 58.4306 145.782C54.844 147.46 51.7066 150.135 49.4076 153.353C47.212 156.91 46.0347 161.052 45.4291 165.165C45.0583 167.871 45.283 170.623 45.7023 173.311C45.9368 174.73 46.2463 176.146 46.783 177.484C46.9011 177.762 47.0094 178.202 47.3288 178.251C47.4036 178.374 47.4809 178.496 47.5575 178.618C47.0695 178.645 46.5812 178.67 46.093 178.698C45.9607 178.705 45.8373 178.764 45.744 178.857C45.4506 179.128 45.5977 179.698 46.0422 179.663C61.3861 178.869 76.7959 178.642 92.1423 179.472C94.6887 179.642 97.0843 179.798 99.3472 179.988C101.374 180.118 103.763 180.656 104.914 181.515C105.043 181.612 105.073 181.662 105.081 181.704C105.099 181.66 105.11 181.671 105.085 181.72C105.091 181.691 105.094 181.687 105.083 181.716C105.084 181.718 105.084 181.72 105.084 181.721C105.083 181.724 105.079 181.728 105.078 181.731C105.073 181.742 105.07 181.751 105.062 181.77C105.064 181.756 105.067 181.753 105.07 181.742C105.059 181.759 105.051 181.774 105.033 181.796C104.802 182.138 103.822 182.633 103.012 182.948C98.9837 184.578 95.2642 185.02 90.9668 185.499C85.7561 186.056 80.5318 186.481 75.3065 186.872C74.7855 186.852 74.0007 187.154 74.2503 187.801C74.4845 188.126 74.9487 188.173 75.3058 188.297C76.5223 188.652 77.8891 189.009 78.7513 189.337C80.7317 190.019 80.9807 191.393 80.0694 192.346C78.6817 193.684 75.7051 194.399 73.6208 194.766C70.0201 195.202 66.3887 194.994 62.7814 194.759C58.5823 194.528 54.944 194.346 50.8862 193.862C46.7805 193.432 42.685 192.805 38.5868 192.372C38.347 192.401 38.155 192.631 38.1401 192.869C38.1239 193.075 38.2719 193.279 38.4759 193.318C39.2456 193.412 40.0149 193.509 40.7841 193.606C43.8669 193.998 46.9484 194.4 50.0368 194.746C54.1955 195.257 58.3786 195.495 62.5608 195.715C66.525 195.955 70.5425 196.246 74.4814 195.585C76.6338 195.051 78.9906 194.57 80.6762 193.034C81.5991 192.15 81.8899 190.601 81.0006 189.593C80.275 188.779 79.2082 188.419 78.1968 188.099C77.7785 187.963 77.3172 187.836 76.8656 187.713C81.6105 187.357 86.3527 186.953 91.0841 186.447C95.1542 186.001 99.2677 185.468 103.088 183.919C108.797 181.785 105.132 179.78 101.224 179.221C100.051 179.098 98.876 178.992 97.7007 178.893C97.8687 178.774 97.9877 178.563 97.9798 178.346C98.1075 177.675 98.2243 177.002 98.3345 176.328C98.7036 174.079 98.9739 171.811 99.0383 169.531C99.0781 166.943 98.9715 164.339 98.482 161.794C97.9185 159.075 96.9566 156.458 95.8967 153.898C93.9504 148.861 89.7574 145.014 85.1081 142.442C80.9299 140.193 76.2089 139.191 71.5156 138.768C67.0204 138.263 62.3908 138.361 58.1069 139.949C56.1636 140.749 54.3099 141.744 52.5456 142.884C52.4479 142.442 52.047 142.052 51.8697 141.639C51.2403 140.586 50.6027 139.534 49.8788 138.541C49.6347 138.259 49.3586 137.804 49.0303 137.498C49.1394 137.437 49.2451 137.38 49.3407 137.347C49.7534 137.152 50.188 136.976 50.5146 136.646C50.7693 136.392 50.8211 135.974 50.5647 135.702C49.9752 134.933 49.2806 134.247 48.5927 133.566C47.9875 132.972 47.0557 132.506 46.2332 132.938C45.2198 133.572 44.2451 134.331 43.4033 135.182C42.8481 135.838 42.2771 136.722 42.5276 137.614C42.7965 138.347 43.1893 139.034 43.6356 139.673C43.9143 140.048 44.1775 140.471 44.6051 140.691C45.0867 140.962 45.6593 140.789 46.0594 140.45C46.4483 140.154 46.8421 139.862 47.201 139.532C47.3009 139.703 47.4089 139.87 47.4909 140.035C48.3808 141.533 49.3755 142.966 50.4556 144.333C47.7506 146.34 45.2821 148.681 43.0726 151.192C41.3729 153.215 39.9762 155.479 38.778 157.83C38.3334 158.705 37.9533 159.61 37.5886 160.521C37.5371 160.62 37.5073 160.732 37.5132 160.842C36.8467 160.792 36.1777 160.868 35.5963 161.233C34.7251 161.742 34.1115 162.561 33.4436 163.296C32.5275 164.289 31.9016 164.867 30.9283 165.459C29.2285 166.402 27.5224 167.061 25.5208 166.272C24.5666 165.883 22.4446 164.738 20.9793 164.395C18.9435 163.932 16.5676 163.829 14.8489 165.2C14.0599 165.798 13.3304 166.907 12.9701 167.333C12.1625 168.323 11.1421 169.302 10.4094 169.823C8.85141 170.841 7.62783 171.28 5.81474 171.396C5.40066 171.419 4.98501 171.419 4.57109 171.391C4.56216 171.39 4.53911 171.388 4.47953 171.383C4.12283 171.315 3.66156 171.291 3.5377 171.722C3.38264 172.325 4.08019 172.342 4.50367 172.356C5.19495 172.403 5.89125 172.376 6.57782 172.284C8.1225 172.099 9.60399 171.48 10.8851 170.608C11.8426 169.913 12.6864 169.072 13.4569 168.177ZM87.4893 155.099C87.9098 155.834 88.29 156.598 88.6373 157.383C88.2983 157.587 87.9333 157.986 87.6378 158.106C86.568 158.769 85.6544 159.044 85.2892 158.665C85.0586 158.399 84.8546 157.736 84.9531 157.585C84.9603 157.561 84.9678 157.536 84.976 157.512C84.9844 157.498 84.9923 157.485 85 157.473C85.8148 156.673 86.7021 155.941 87.4852 155.104C87.4868 155.103 87.4879 155.101 87.4893 155.099ZM55.5034 148.549C56.2598 148.001 57.0189 147.532 57.7875 147.128C57.7933 147.182 57.8065 147.235 57.8339 147.287C58.0086 147.56 58.1903 147.984 58.1748 147.956C58.4457 148.752 58.2693 149.263 58.0341 149.768C57.647 150.354 56.0017 151.368 55.5917 150.885C55.4346 150.781 54.9137 149.992 54.4499 149.367C54.8016 149.084 55.1538 148.809 55.5034 148.549ZM50.0078 178.484C49.5412 178.508 49.0746 178.535 48.6082 178.56C48.6141 178.48 48.6036 178.397 48.5622 178.319C48.3231 177.986 48.1411 177.602 47.9134 177.259C47.9865 177.253 48.0638 177.233 48.1468 177.186C48.9263 176.678 50.7101 175.792 50.8045 175.778C51.002 175.755 51.0047 175.774 51.5045 176.109C51.8164 176.32 52.4431 176.97 52.7159 177.644C52.8134 177.751 52.848 178.107 52.9739 178.365C51.9852 178.404 50.9964 178.437 50.0078 178.484ZM91.1415 178.439C84.4164 178.074 77.6748 177.992 70.9408 178.021C65.2439 178.028 59.547 178.121 53.8538 178.33C53.9918 177.999 53.7388 177.55 53.6241 177.22C53.2294 176.293 52.5296 175.512 51.6626 175.003C51.1881 174.682 50.6025 174.804 50.1293 175.061C49.3092 175.469 48.4925 175.888 47.714 176.371C47.6331 176.419 47.5782 176.48 47.5357 176.544C46.5188 173.653 46.1728 170.153 46.2205 167.089C46.4661 162.821 47.7112 158.514 49.5782 154.869C50.5731 153.018 52.0831 151.39 53.6826 150.007C54.3369 150.962 55.0042 152.303 56.3418 151.926C56.906 151.795 57.3904 151.444 57.8769 151.145C58.538 150.746 59.02 150.105 59.1795 149.346C59.3679 148.651 59.2699 147.904 58.9634 147.257C58.8635 147.085 58.7859 146.858 58.6478 146.705C60.867 145.689 63.1865 145.194 65.7751 145.008C70.2525 144.676 74.8511 145.673 78.8029 147.301C82.4671 148.768 85.1122 151.275 87.0299 154.332C86.957 154.358 86.89 154.4 86.8383 154.457C86.1103 155.202 85.3538 155.919 84.5674 156.601C84.2536 156.869 84.0252 157.233 83.9743 157.647C83.8999 158.18 84.1505 158.729 84.409 159.183C84.7121 159.654 85.2899 159.834 85.8275 159.799C86.8422 159.697 87.7591 159.142 88.5846 158.575C88.6995 158.472 88.8609 158.372 89.0094 158.261C90.7505 162.581 91.5208 167.463 91.9035 171.926C92.0479 174.337 91.8582 176.302 91.1415 178.439ZM46.9763 138.483C46.9552 138.5 46.9331 138.507 46.9124 138.527C46.2717 139.177 45.677 139.661 45.2412 139.864C45.2401 139.864 45.2399 139.864 45.2388 139.864C44.8228 139.789 44.043 138.56 43.5378 137.461C43.0223 136.736 44.4044 135.335 45.3936 134.652C46.0772 134.135 46.6165 133.653 46.9164 133.738C47.3445 133.667 48.7556 135.08 49.6414 136.161C49.1772 136.433 48.6689 136.626 48.1954 136.883C48.0469 136.969 47.9522 137.134 47.9378 137.304C47.5386 137.609 47.1653 138.012 46.9763 138.483ZM47.9051 138.662C47.9429 138.6 47.984 138.541 48.0282 138.483C48.0759 138.429 48.1792 138.31 48.2719 138.212C49.2565 139.193 49.8727 140.349 50.7333 141.706C51.0988 142.252 51.3667 142.885 51.7595 143.404C51.5928 143.517 51.4282 143.634 51.2632 143.75C51.2436 143.713 51.2287 143.675 51.1955 143.641C50.0911 142.244 48.6052 140.114 47.9051 138.662ZM166.804 176.166C159.897 175.542 152.984 174.893 146.049 174.677C142.047 174.621 137.988 174.374 134.02 174.958C133.558 175.119 133.604 175.912 134.151 175.875C137.878 175.412 141.645 175.557 145.391 175.626C152.618 175.826 159.256 176.46 166.51 177.113C167.066 177.253 167.433 176.318 166.804 176.166ZM158.556 180.607C158.86 180.339 158.695 179.764 158.258 179.801C154.955 179.688 151.602 179.4 148.317 179.763C147.851 179.924 147.904 180.717 148.448 180.68C150.907 180.481 153.375 180.579 155.836 180.66C156.627 180.689 157.417 180.723 158.207 180.767C158.338 180.759 158.464 180.7 158.556 180.607Z" fill="black"/>
<path d="M76.0917 152.219C75.3805 152.738 74.9633 153.557 74.4743 154.271C73.4903 155.823 72.5334 157.392 71.5505 158.945C70.479 160.708 69.3241 162.447 68.2597 164.201C68.2123 164.213 68.1653 164.231 68.1208 164.262C67.02 164.837 65.9105 166.185 66.0085 167.465C64.7989 168.336 63.63 169.262 62.3892 170.089C62.0338 170.37 61.573 170.539 61.2857 170.893C60.6553 172.556 64.4869 170.831 65.0926 170.622C65.8989 170.288 66.6988 169.937 67.4776 169.542C67.5557 169.498 67.6173 169.431 67.6629 169.355C68.7771 169.712 70.0836 169.365 70.749 168.284C71.355 167.223 71.1085 165.704 70.2314 164.855C70.6974 164.177 71.1678 163.501 71.6421 162.829C73.7269 159.949 75.4004 156.755 76.6809 153.442C76.764 153.135 76.8835 152.817 76.8404 152.495C76.7728 152.166 76.365 152.043 76.0917 152.219ZM65.946 169.251C65.7114 169.385 64.9256 169.7 64.1112 169.996C64.8538 169.464 65.5855 168.917 66.307 168.362C66.3398 168.414 66.3682 168.467 66.4068 168.519C66.5145 168.647 66.6347 168.759 66.7603 168.863C66.4903 168.995 66.2203 169.128 65.946 169.251ZM68.3183 168.517C66.6515 168.101 66.5949 166.812 67.7879 165.62C68.0797 165.35 68.0811 165.378 68.487 165.119C68.6521 165.182 68.8445 165.188 69.0113 165.254C69.0972 165.301 69.2758 165.392 69.3628 165.433C69.7277 165.754 69.697 165.742 69.9365 166.217C70.5317 167.562 69.6606 168.713 68.3183 168.517ZM73.7488 157.649C72.9639 159.16 72.1068 160.635 71.0997 162.01C70.5469 162.79 70.0005 163.574 69.4591 164.361C69.3926 164.339 69.3247 164.315 69.2561 164.292C71.1656 161.463 73.1015 158.074 74.928 155.27C74.5702 156.018 74.1684 156.774 73.7488 157.649ZM54.3038 131.161C53.9561 132.419 53.5784 133.981 54.3904 135.123C54.4559 135.174 54.529 135.197 54.6028 135.205C54.6945 135.332 54.8522 135.408 55.0799 135.343C61.8997 133.942 69.7623 133.381 77.0815 132.542C77.6301 132.457 78.3317 132.484 78.6406 131.936C79.1088 130.748 78.6823 129.356 78.2352 128.216C77.4404 126.459 76.1814 124.893 74.5685 123.826C72.6074 122.514 70.2829 122.199 67.9756 122.391C67.9423 122.208 67.8835 122.025 67.8462 121.848C67.3818 119.996 65.4505 117.424 63.4253 119.041C62.3016 119.835 61.7338 121.198 61.7276 122.556C60.9781 121.864 60.2299 121.169 59.4871 120.47C57.4573 118.636 55.457 116.467 52.7646 115.664C50.3507 114.889 47.68 115.132 45.3526 116.089C43.0434 117.11 41.0975 118.77 39.1341 120.325C34.5665 124.173 29.8822 128.19 26.9065 133.45C26.1812 134.708 26.4001 136.163 26.7905 137.492C27.4258 139.682 28.1617 141.898 29.2759 143.895C28.1669 143.415 26.8698 143.281 26.0779 144.274C25.354 145.502 26.6117 146.691 27.3932 147.535C27.7105 147.86 28.0319 148.18 28.3665 148.487C28.374 148.495 28.385 148.497 28.3932 148.504C26.7165 151.345 25.6398 154.486 26.8899 157.79C27.5617 159.529 28.781 160.987 29.8698 162.479C30.0399 162.663 30.1435 162.949 30.3845 163.043C30.461 163.074 30.539 163.076 30.6144 163.064C30.7746 163.328 31.2172 163.404 31.4435 163.024C35.8172 156.764 40.5673 150.521 42.9193 143.161C43.3054 141.952 43.1427 141.278 41.8487 140.872C40.6016 140.469 39.268 140.341 37.9615 140.354C35.5562 140.433 33.9966 141.254 32.7097 142.519C31.6448 140.938 31.1707 139.641 30.736 137.839C30.4287 136.257 30.337 135.451 30.9582 133.988C31.8887 131.836 34.0229 129.471 36.1604 127.569C38.0497 125.881 39.4535 124.679 41.556 123.349C43.6331 122.076 45.3169 121.458 47.5459 120.492C48.8368 119.928 50.0531 119.569 50.9779 119.736C54.4686 120.25 56.8303 122.886 59.8046 124.955C58.827 125.536 57.9109 126.218 57.0879 127.016C55.8552 128.153 54.7676 129.526 54.3038 131.161ZM64.5883 119.493C65.1263 119.354 66.3384 120.381 66.8116 121.867C66.8472 121.977 66.9254 122.222 66.9394 122.294C66.9637 122.359 66.9778 122.431 66.9897 122.504C66.0102 122.644 65.0435 122.861 64.1197 123.123C63.6858 123.244 63.2581 123.386 62.834 123.537C62.3364 121.661 63.1766 119.903 64.5883 119.493ZM26.8524 144.766C26.8546 144.763 26.8565 144.759 26.859 144.756C26.875 144.739 26.8968 144.716 26.9212 144.693C26.9551 144.669 27.0172 144.626 27.0719 144.595C27.1462 144.574 27.4137 144.486 27.4974 144.485C27.387 144.507 27.3359 144.51 27.4832 144.493C28.0561 144.487 28.5992 144.659 29.295 145.016C29.7651 145.297 29.7074 145.266 30.0755 145.563C30.125 145.613 30.1881 145.644 30.2549 145.664C30.0979 145.896 29.9396 146.13 29.777 146.37C29.4899 146.78 29.2069 147.199 28.9334 147.624C27.8198 146.567 26.6376 145.362 26.8524 144.766ZM38.5331 141.319C39.5259 141.293 41.9414 141.786 42.1101 142.124C42.3131 142.335 41.4577 144.659 40.9144 145.883C39.533 149.281 37.2387 153.013 34.9743 156.377C33.636 158.334 32.2652 160.268 30.8999 162.206C29.8975 160.737 28.8477 159.608 27.9885 157.83C26.2854 154.043 28.0332 150.439 30.6095 146.778C32.941 143.311 34.2998 141.212 38.5331 141.319ZM53.6771 119.485C50.4368 117.959 48.3974 119.091 45.4025 120.402C43.0452 121.38 40.7774 122.574 38.7777 124.172C35.4122 126.918 29.4502 131.675 29.5435 136.357C29.6374 137.997 30.1233 139.597 30.7542 141.106C31.0855 141.818 31.462 142.511 31.9173 143.152C31.9406 143.199 31.9776 143.235 32.0165 143.268C31.6004 143.758 31.2034 144.293 30.8042 144.865C30.7911 144.85 30.7735 144.838 30.7589 144.824C30.8085 144.702 30.8177 144.567 30.7481 144.438C29.0443 141.596 27.739 138.121 27.3739 135.242C27.3913 134.287 27.8177 133.645 28.4684 132.607C29.4356 131.187 30.0764 130.317 31.1169 129.138C33.741 126.078 36.8142 123.452 39.9016 120.874C42.6029 118.668 45.7695 116.145 49.3714 116.171C50.7088 116.095 52.274 116.468 53.4201 116.953C55.1044 117.823 56.3011 118.922 57.8306 120.309C59.117 121.516 60.4005 122.726 61.7033 123.915C61.7232 123.935 61.7497 123.944 61.7726 123.959C61.3935 124.122 61.0181 124.294 60.6518 124.483C60.639 124.401 60.6097 124.319 60.5375 124.247C58.2801 122.629 56.1975 120.693 53.6771 119.485ZM57.7624 127.637C59.6197 125.871 61.6924 124.791 64.3555 124.033C67.726 123.111 71.3388 122.727 74.3188 124.877C76.4752 126.388 78.1634 129.598 77.8468 131.46C77.6384 131.599 73.4385 131.913 71.437 132.201C65.972 132.741 60.49 133.291 55.1023 134.379C55.0595 134.279 55.0181 134.239 54.9946 134.1C54.7621 133.204 54.88 132.794 55.0882 131.874C55.5413 129.997 56.309 129.022 57.7624 127.637ZM25.8359 172.013C30.3091 174.356 34.8839 175.776 39.7964 173.818C40.1082 173.613 40.0726 173.056 39.6734 172.978C38.7929 173.084 37.9372 173.471 37.0512 173.615C36.067 173.795 34.4615 173.847 33.2942 173.654C30.8848 173.301 29.2006 172.508 27.022 171.475C25.8267 170.897 24.6458 170.246 23.349 169.924C21.8976 169.569 20.3542 169.572 18.9242 170.023C17.0274 170.641 15.093 172.297 13.6129 172.802C12.2973 173.27 11.1363 173.374 9.54785 173.346C8.80781 173.323 8.63518 173.307 7.9947 173.238C7.86943 173.213 7.73976 173.239 7.63111 173.304C7.28085 173.49 7.26579 174.099 7.70041 174.186C10.0038 174.43 12.4628 174.43 14.5837 173.386C15.9047 172.772 17.6329 171.514 18.5734 171.145C21.1401 170.126 23.3223 170.704 25.8359 172.013ZM41.796 176.248C41.953 176.075 41.9542 175.787 41.7899 175.618C41.6408 175.467 41.3893 175.461 41.214 175.57C40.6907 175.863 40.1617 176.146 39.617 176.397C35.9789 178.224 33.1989 178.321 28.8869 177.12C27.5409 176.785 26.1269 176.313 24.7334 176.603C24.0569 176.733 23.3131 176.925 22.7757 177.362C22.428 177.759 22.9035 178.331 23.3577 178.04C23.9515 177.739 24.592 177.526 25.4056 177.467C26.1774 177.44 27.8155 177.843 28.9438 178.161C31.1642 178.719 33.4842 179.143 35.766 178.722C36.8569 178.553 37.8923 178.152 38.9047 177.725C39.8771 177.27 40.9378 176.89 41.796 176.248Z" fill="black"/>
<path d="M247.292 179.312C246.637 178.039 245.669 176.944 244.854 175.771C242.375 172.249 239.066 169.45 235.857 166.621C232.591 163.902 229.087 161.468 225.45 159.272C225.378 159.234 225.306 159.221 225.236 159.222C225.583 158.982 225.93 158.742 226.269 158.49C228.461 157 230.529 154.867 232.352 153.585C234.653 152.123 237.241 151.426 239.972 150.277C240.314 150.125 240.706 149.95 240.827 149.566C240.952 149.143 240.508 148.851 240.121 148.886C237.812 149 235.509 149.302 233.192 149.271C228.471 149.315 224.319 148.747 219.597 147.953C213.175 146.906 208.009 146.732 202.436 149.423C202.388 149.307 202.295 149.212 202.144 149.182C200.451 148.858 198.737 148.758 197.023 148.791C197.328 148.52 198.222 147.786 198.031 147.95C199.783 146.534 201.784 145.486 203.775 144.451C210.293 141.248 217.052 137.717 221.397 131.692C223.329 129.028 225.138 126.249 226.562 123.277C227.877 120.468 228.768 117.487 229.644 114.519C230.344 112.111 230.991 109.679 231.327 107.19C231.483 105.883 231.649 104.544 231.375 103.242C231.047 101.54 230.222 100.228 228.27 100.731C227.041 100.969 226.201 101.99 225.361 102.835C221.406 107 219.171 112.384 215.766 116.956C212.323 121.703 209.539 126.165 205.122 129.96C200.594 134.035 195.777 137.777 191.254 141.858C189.817 143.157 188.346 144.434 187.081 145.906C185.736 147.472 184.63 149.22 183.466 150.921C183.161 151.442 182.948 151.417 182.804 151.941C182.8 152.009 182.816 152.069 182.838 152.124C180.581 153.523 178.677 155.454 177.319 158.015C177.196 158.263 177.032 158.501 176.928 158.758C174.814 160.056 172.816 161.53 170.981 163.152C171.039 162.779 171.095 162.406 171.159 162.035C171.34 160.725 171.917 158.582 172.53 156.887C172.54 156.882 172.55 156.88 172.559 156.873C172.711 156.713 172.989 156.568 173.229 156.404C173.297 156.442 173.374 156.463 173.459 156.455C174.269 156.175 174.941 155.518 175.56 154.937C176.498 153.93 177.146 152.696 178.024 151.639C180.5 148.433 185.642 145.69 188.135 141.796C188.851 140.688 189.377 139.474 189.807 138.228C189.946 138.229 190.088 138.179 190.185 138.076C194.202 135.311 197.959 130.338 200.889 125.906C203.66 121.86 206.324 117.725 208.306 113.225C211.013 107.382 212.822 101.132 213.782 94.7682C214.435 90.761 214.583 86.6897 214.001 82.6646C213.655 80.4857 213.414 78.1935 212.332 76.2337C212.054 75.8011 211.811 75.2321 211.265 75.1065C208.756 74.8243 207.997 83.0701 207.288 84.9958C206.304 88.8703 204.98 92.6497 203.407 96.3234C203.052 97.1348 202.449 98.4385 201.891 99.6228C201.728 99.4571 201.489 99.3911 201.257 99.5595C200.815 99.961 200.816 100.366 200.654 100.601C200.157 101.605 199.574 102.565 198.951 103.496C197.305 105.891 195.501 108.056 193.132 110.156C191.322 111.767 189.502 113.31 187.819 114.522C184.81 116.588 181.799 118.796 179.781 121.899C177.984 124.428 176.903 127.36 176.022 130.313C175.148 133.106 174.582 135.98 173.894 138.822C173.278 137.715 172.521 136.816 171.891 135.869C171.504 135.218 171.419 135.058 171.342 134.282C171.331 134.16 171.365 133.202 171.141 132.712C170.936 132.261 170.399 132.152 169.956 132.285C165.777 134.263 162.367 142.392 160.777 146.624C159.553 149.885 158.478 153.248 158.19 156.736C158.029 159.123 158.319 161.515 158.697 163.869C159.15 166.242 159.626 168.647 160.41 170.93C155.501 170.523 150.588 170.181 145.665 169.978C135.364 169.473 125.045 169.255 114.732 169.447C111.11 169.523 107.49 169.684 103.875 169.938C103.324 169.976 103.112 170.881 103.825 170.904C114.256 170.169 124.726 170.278 135.174 170.528C149.503 170.909 163.169 171.999 177.407 173.498C183.721 174.141 190.06 174.571 196.364 175.308C197.158 175.481 197.955 175.522 198.543 175.787C194.093 177.333 189.312 177.239 184.493 178.271C183.749 178.449 181.326 179.076 182.557 180.137C185.111 181.244 188.098 181.301 190.83 181.767C196.962 182.64 203.133 183.19 209.274 183.984C215.831 184.864 222.352 186.041 228.778 187.622C231.264 188.238 233.724 188.953 236.174 189.695C238.376 190.353 241.512 191.371 240.964 192.878C240.305 194.265 236.738 195.755 234.674 196.673C230.022 198.644 225.151 200.026 220.234 201.158C200.601 205.958 179.595 204.677 159.565 202.359C153.007 201.59 146.456 200.767 139.917 199.856C138.593 199.667 137.273 199.447 135.944 199.291C135.388 199.244 134.273 199.004 134.34 199.882C134.42 200.327 134.912 200.531 135.212 200.822C135.69 201.202 135.999 201.495 136.16 201.801C136.632 202.776 136.659 203.651 135.963 204.16C135.222 204.634 132.585 205.54 130.871 205.824C125.786 206.828 119.427 206.945 113.816 207.024C107.148 207.045 100.478 207.04 93.8132 206.819C79.2271 206.383 64.9578 204.864 50.3605 202.575C42.5711 201.302 34.7982 199.798 27.2559 197.44C25.2259 196.847 22.5803 195.943 21.0369 195.419C19.3512 194.826 17.4933 193.859 17.1979 192.965C16.218 189.405 24.1323 187.798 28.0235 187.511C29.1544 187.434 30.2866 187.379 31.4191 187.333C32.24 187.32 33.7591 187.136 33.4296 185.972C33.2711 185.552 32.8217 185.327 32.476 185.074C31.6553 184.554 30.7819 184.123 29.9467 183.628C29.7991 183.542 29.6546 183.452 29.5083 183.364C29.1594 183.115 29.2124 183.196 28.9271 182.909C28.8727 182.828 28.7842 182.705 28.7686 182.705C28.7225 182.588 28.6947 182.466 28.6841 182.34C28.6867 182.319 28.6892 182.298 28.6919 182.276C29.0782 181.768 30.7253 181.25 31.8112 181.154C32.6383 181.059 33.4722 181.037 34.304 181.061C34.8265 181.189 35.2765 180.653 34.9305 180.227C34.8392 180.146 34.7207 180.092 34.5964 180.104C33.9139 180.076 33.2298 180.079 32.5481 180.125C30.5166 180.244 26.4514 181.133 28.113 183.507C29.2483 184.717 31.3777 185.369 32.3824 186.255C31.5329 186.443 30.1808 186.38 29.0768 186.483C26.5071 186.585 23.9533 187.023 21.5021 187.804C19.2752 188.484 16.6567 189.57 16.1653 192.108C15.4634 195.66 23.3086 197.028 25.7727 198.017C35.2107 201.055 45.0008 202.788 54.7891 204.251C66.5794 205.917 78.4334 207.199 90.3366 207.658C98.6475 208.007 106.969 208.036 115.286 207.975C119.96 207.829 134.384 207.811 137.178 204.129C137.862 202.779 137.256 201.3 136.224 200.326C141.221 201.003 147.326 201.879 152.624 202.506C176.226 205.479 200.62 207.609 223.859 201.238C228.354 200.102 232.769 198.612 236.976 196.66C239.018 195.597 243.429 193.897 241.496 191.106C239.979 189.611 237.727 189.197 235.767 188.534C232.863 187.661 229.939 186.85 226.982 186.174C214.148 183.052 200.939 182.258 187.903 180.374C186.67 180.188 184.452 179.814 183.602 179.516C184.899 179.002 187.198 178.774 189.003 178.526C191.339 178.207 193.682 177.923 195.997 177.468C196.962 177.248 197.956 177.077 198.862 176.667C199.313 176.475 199.828 176.118 199.697 175.56C199.317 174.22 194.423 174.205 193.11 173.971C189.809 173.664 186.507 173.367 183.205 173.064C186.218 171.08 189.259 169.089 192.202 166.968C192.491 167.154 192.927 166.898 193.255 166.863C193.385 166.824 194.06 166.698 194.234 166.665C196.331 166.4 198.456 166.314 200.568 166.315C204.605 166.52 208.665 166.074 212.574 165.045C212.64 165.377 213.127 165.57 213.401 165.773C214.722 166.601 216.103 167.331 217.508 168.006C219.983 169.194 222.508 170.276 225.063 171.277C227.293 172.144 229.569 172.926 231.667 174.092C234.183 175.472 236.509 177.18 239.065 178.494C241.002 179.437 243.051 180.232 245.171 180.64C246.158 180.838 247.83 180.759 247.292 179.312ZM207.605 148.598C213.32 147.421 219.829 149.175 226.067 149.89C229.369 150.285 233.651 150.278 237.046 150.08C234.032 151.219 231.338 151.825 228.207 152.051C224.097 152.068 219.97 152.472 216.112 153.983C212.375 155.316 208.633 156.634 204.871 157.894C203.747 158.257 202.637 158.659 201.54 159.094C202.121 158.459 202.674 157.799 203.195 157.114C203.788 156.292 204.744 155.158 204.069 154.136C203.889 153.933 203.609 153.873 203.355 153.809C202.235 153.586 201.104 153.422 199.976 153.25C199.334 153.149 198.69 153.058 198.044 152.984C201.241 151.047 203.967 149.426 207.605 148.598ZM229.762 101.922C230.163 102.322 230.377 103.088 230.535 104.215C230.66 107.704 229.476 111.767 228.352 115.58C227.507 118.374 226.607 121.156 225.446 123.465C223.607 127.005 221.371 130.474 218.994 133.201C214.452 138.363 207.874 141.287 201.607 144.555C199.9 145.451 198.288 146.516 196.817 147.763C196.541 148.06 195.902 148.446 195.719 148.841C194.053 148.938 192.389 149.141 190.745 149.395C190.594 149.416 190.445 149.442 190.295 149.467C191.565 147.822 193.477 146.697 195.447 145.285C198.988 142.643 202.497 139.938 205.759 136.954C211.092 132.304 215.649 126.863 219.75 121.113C223.096 116.485 225.646 111.359 227.938 106.145C228.561 104.744 229.181 103.341 229.762 101.922ZM188.205 146.014C193.783 140.36 200.237 135.663 206.092 130.311C210.226 126.733 213.171 122.091 216.356 117.704C219.017 114.187 220.953 110.204 223.467 106.591C224.636 105.047 226.681 102.378 228.046 101.765C228.366 101.657 228.643 101.601 228.884 101.595C228.751 101.87 228.683 102.215 228.541 102.452C227.696 104.44 226.985 106.037 226.19 107.776C223.543 113.796 220.134 119.45 216.018 124.58C212.791 128.935 208.123 133.767 203.65 137.623C199.731 140.987 196.071 143.763 191.753 146.772C190.729 147.593 189.702 148.544 189.057 149.695C187.375 150.056 185.772 150.594 184.288 151.325C185.644 149.432 186.704 147.607 188.205 146.014ZM178.613 157.637C182.331 151.347 189.551 150.046 196.887 149.751C198.573 149.734 199.713 149.764 201.255 150.033C200.87 150.245 200.482 150.47 200.091 150.711C199.204 151.219 198.319 151.732 197.448 152.268C197.33 152.337 197.245 152.449 197.203 152.577C197.163 152.696 197.179 152.806 197.224 152.9C195.626 152.758 194.021 152.748 192.425 153.008C187.592 153.733 182.832 155.422 178.496 157.842C178.537 157.775 178.572 157.704 178.613 157.637ZM183.924 156.325C188.646 154.431 193.492 153.24 198.235 154C199.487 154.192 201.171 154.378 202.411 154.631C196.52 156.473 190.886 159.09 185.659 162.371C181.669 164.809 177.75 167.396 174.171 170.414C173.598 170.938 172.941 171.408 172.473 172.031C169.904 171.781 167.334 171.538 164.764 171.306C169.369 164.813 176.433 159.137 183.924 156.325ZM190.178 132.887C189.696 135.716 188.825 139.211 187.089 141.702C185.383 144.146 182.235 146.455 179.644 148.628C177.739 150.167 176.206 152.705 174.972 154.228C174.361 154.843 174.197 154.971 173.534 155.406C173.508 155.423 173.48 155.438 173.452 155.454C173.337 155.386 173.217 155.381 173.097 155.417C173.718 153.88 174.41 152.361 174.921 150.789C175.054 150.785 175.187 150.733 175.28 150.635C177.196 148.723 178.624 146.394 179.832 143.987C181.796 140.091 183.741 136.186 185.559 132.219C186.967 129.197 187.929 126.699 189.499 123.768C189.711 123.349 189.929 122.949 190.152 122.561C190.379 125.776 190.581 129.481 190.178 132.887ZM210.998 76.0668C211.018 76.0784 211.039 76.091 211.056 76.1048C212.188 77.4058 212.902 81.2053 213.165 83.9218C213.764 88.2273 213.16 93.4012 212.349 97.5601C210.918 104.895 208.434 111.583 204.909 117.912C203.219 120.896 201.254 123.716 199.331 126.553C197.466 129.215 196.015 131.382 193.817 133.653C192.577 134.986 191.491 135.925 190.23 136.901C190.263 136.787 190.298 136.673 190.33 136.559C190.642 135.494 190.883 134.412 191.057 133.319C191.085 133.289 191.111 133.256 191.131 133.22C191.54 132.663 191.94 132.099 192.338 131.534C193.422 129.993 194.545 128.479 195.598 126.916C198.778 121.999 201.761 116.921 204.152 111.57C207.377 104.04 209.668 96.0986 211.028 88.0224C211.496 85.2969 211.596 82.5267 211.427 79.7689C211.357 78.6052 211.232 77.4453 211.075 76.2901C211.059 76.2114 211.015 76.1462 210.961 76.0899C210.974 76.0833 210.985 76.0723 210.998 76.0668ZM190.981 121.221C192.01 119.65 193.137 118.259 194.348 116.77C193.443 119.15 192.509 121.031 191.347 123.417C191.305 123.502 191.261 123.585 191.218 123.669C191.168 122.846 191.096 122.028 190.981 121.221ZM201.423 105.285C201.847 103.891 202.225 102.416 202.172 100.949C202.256 100.903 202.33 100.839 202.375 100.757C202.694 100.088 203.006 99.4167 203.318 98.7451C204.189 96.9135 204.965 95.0404 205.688 93.1462C207.042 89.6395 208.076 86.013 208.885 82.3435C209.248 80.7979 209.469 79.2048 210.053 77.7214C210.115 77.5737 210.172 77.4359 210.228 77.303C211.165 84.0773 209.798 90.8446 207.967 97.6142C206.638 102.608 204.783 108.018 202.801 112.32C200.817 116.628 198.38 120.71 195.91 124.753C194.484 127.039 192.863 129.193 191.315 131.396C191.305 131.412 191.293 131.426 191.283 131.442C191.353 130.595 191.382 129.744 191.361 128.89C191.337 127.732 191.328 126.559 191.294 125.388C191.337 125.351 191.375 125.309 191.402 125.257C192.638 123.07 193.656 120.763 194.668 118.465C195.008 117.657 195.369 116.853 195.6 116.005C195.656 115.833 195.61 115.61 195.449 115.511C195.428 115.497 195.409 115.494 195.389 115.484C195.417 115.449 195.445 115.415 195.473 115.38C197.924 112.317 200.312 109.101 201.423 105.285ZM174.672 139.609C176.431 132.247 177.766 124.43 183.056 119.375C184.994 117.517 186.96 116.303 189.251 114.598C193.059 111.628 196.719 108.394 199.456 104.38C200.054 103.551 200.704 102.474 201.201 101.544C201.046 104.064 200.065 106.628 198.999 108.749C197.544 111.368 195.761 113.544 194.098 115.64C191.949 118.219 189.862 120.863 188.385 123.898C184.963 131.051 181.986 138.088 178.121 145.242C177.216 146.82 176.421 148.02 175.36 149.211C175.435 148.87 175.5 148.527 175.548 148.178C175.828 145.405 175.475 142.513 174.422 139.925C174.532 139.865 174.625 139.762 174.672 139.609ZM170.373 134.164C170.379 134.433 170.39 134.726 170.468 135.101C170.969 136.88 172.178 137.687 172.939 139.178C173.776 140.684 174.132 141.865 174.428 143.644C174.698 145.357 174.812 146.865 174.495 148.768C173.842 152.013 171.447 156.19 170.629 159.889C170.37 160.993 170.186 162.114 170.003 163.233C169.973 163.484 169.873 163.85 169.929 164.112C168.039 165.937 166.121 167.826 164.601 169.974C164.589 166.398 165.546 163.279 166.55 159.723C167.397 156.729 168.106 153.692 168.638 150.625C169.353 146.673 169.094 142.651 169.265 138.663C169.313 137.113 169.823 135.717 170.373 134.164ZM161.357 170.701C159.716 165.176 158.44 159.124 159.537 153.955C160.226 150.614 161.432 147.407 162.705 144.251C163.914 141.342 165.749 137.624 167.755 135.294C168.294 134.688 169.251 133.762 169.677 133.425C169.392 134.107 169.129 134.8 168.91 135.506C168.156 137.745 168.219 140.131 168.236 142.463C168.235 145.093 168.129 147.731 167.728 150.334C167.112 154.475 165.617 159.369 164.467 163.817C163.921 166.223 163.445 168.715 163.689 171.185C163.693 171.196 163.702 171.2 163.706 171.21C162.911 171.139 162.115 171.073 161.319 171.006C161.364 170.914 161.383 170.81 161.357 170.701ZM187.784 168.907C186.114 170.022 184.429 171.117 182.791 172.28C182.516 172.518 182.131 172.675 181.883 172.942C181.449 172.902 181.016 172.863 180.583 172.823C178.273 172.599 175.963 172.372 173.653 172.146C176.68 169.245 180.098 167.032 183.792 164.615C189.983 160.613 196.016 157.533 203.02 155.424C203.088 155.411 203.161 155.396 203.233 155.379C203.195 155.455 203.144 155.55 203.076 155.678C201.745 157.759 199.945 159.508 197.889 161.327C194.696 164.172 191.49 166.428 187.784 168.907ZM206.062 165.265C203.223 165.549 200.368 165.215 197.526 165.429C196.287 165.492 195.045 165.568 193.825 165.785C196.065 164.105 198.229 162.328 200.257 160.397C200.36 160.47 200.493 160.499 200.638 160.447C204.328 158.937 208.165 157.828 211.909 156.464C215.136 155.372 218.296 154.001 221.677 153.448C223.366 153.098 226.509 153.118 228.694 152.971C229.985 152.866 231.264 152.673 232.527 152.404C232.189 152.597 231.858 152.803 231.54 153.031C229.433 154.663 227.698 156.418 225.74 157.743C219.878 162.104 213.043 164.535 206.062 165.265ZM239.309 177.485C236.768 176.144 234.446 174.43 231.912 173.079C229.887 171.981 227.699 171.239 225.56 170.402C222.653 169.259 219.78 168.022 216.985 166.627C215.93 166.087 214.888 165.517 213.886 164.885C213.816 164.84 213.743 164.788 213.668 164.736C215.824 164.103 217.924 163.286 219.945 162.307C219.915 162.484 219.971 162.667 220.154 162.765C229.191 167.356 236.994 173.11 244.606 179.501C242.672 179.022 241.17 178.42 239.309 177.485ZM246.281 179.741C246.272 179.651 246.234 179.563 246.161 179.489C241.185 175.223 235.955 171.257 230.52 167.594C227.465 165.555 224.236 163.794 220.998 162.065C220.908 162.023 220.817 161.969 220.724 161.925C222.118 161.212 223.47 160.419 224.77 159.546C224.669 159.749 224.682 159.997 224.929 160.138C229.999 163.195 234.28 166.356 238.576 170.416C241.166 172.66 243.427 175.373 245.169 177.908C245.577 178.511 246.062 179.077 246.376 179.736C246.351 179.738 246.313 179.739 246.281 179.741Z" fill="black"/>
<path d="M185.987 195.407C183.742 195.964 181.042 196.064 178.408 196.22C175.45 196.381 172.496 196.612 169.541 196.816C168.781 196.9 167.99 196.859 167.245 197.006C166.942 197.116 166.801 197.562 167.042 197.799C167.135 197.88 167.251 197.934 167.376 197.923C168.34 197.862 169.303 197.796 170.267 197.727C173.453 197.5 176.638 197.266 179.828 197.107C181.537 197.001 183.249 196.873 184.939 196.597C185.93 196.379 187.142 196.266 187.792 195.393C188.394 194.525 187.695 193.596 187.227 192.848C186.48 191.73 185.738 190.515 184.496 189.892C183.108 189.144 181.622 189.896 180.277 190.364C179.862 190.514 179.448 190.669 179.034 190.822C179.034 190.279 178.922 189.74 178.638 189.247C178.395 188.758 177.918 188.475 177.426 188.281C176.107 187.709 174.753 187.225 173.376 186.812C171.25 186.247 168.814 185.653 166.716 186.587C165.809 187.062 165.447 188.062 165.184 188.989C164.459 191.2 163.194 193.213 161.19 193.29C159.479 193.428 157.733 193.385 156.035 193.521C155.574 193.68 155.619 194.477 156.167 194.439C158.143 194.35 160.328 194.489 162.243 194.036C163.382 193.744 164.187 192.794 164.86 191.887C165.411 190.997 165.831 190.028 166.156 189.034C166.456 188.147 166.413 188.027 166.932 187.542C168.225 186.565 172.018 187.287 174.623 188.255C175.354 188.543 177.112 189.088 177.663 189.596C177.925 189.933 178.123 190.622 178.068 191.277C178.055 191.293 178.037 191.306 178.026 191.324C177.937 191.454 177.931 191.604 177.979 191.732C177.956 191.809 177.933 191.886 177.9 191.958C177.595 192.753 177.35 193.21 176.895 194.138C176.654 194.48 177.001 194.962 177.4 194.815C177.946 194.537 178.13 193.55 178.452 193.027C178.642 192.665 178.791 192.273 178.895 191.871C180.235 191.386 181.898 190.685 182.846 190.543C183.401 190.417 184.33 190.907 184.571 191.134C185.577 191.982 186.604 193.637 187.054 194.628C187.074 194.934 187.058 195.078 185.987 195.407ZM137.867 159.131C138.412 158.65 138.821 158.045 139.292 157.497C140.541 156.195 141.623 155.291 142.926 155.182C145.664 154.871 146.587 157.107 147.614 159.975C148.065 161.293 148.869 162.696 150.36 162.954C151.016 163.024 151.652 162.747 152.295 162.649C153.223 162.47 153.845 162.346 154.974 162.251C155.227 162.219 155.519 162.267 155.71 162.063C155.928 161.858 155.929 161.456 155.647 161.307C155.34 161.189 154.987 161.313 154.666 161.318C153.43 161.418 151.55 161.858 150.768 162.002C150.34 162 149.866 161.787 149.311 161.167C148.403 159.921 147.887 157.029 146.543 155.511C145.306 154.158 143.245 153.85 141.59 154.556C139.942 155.318 138.73 156.722 137.606 158.102C136.85 158.866 136.661 158.911 136.081 158.386C134.997 157.141 133.52 153.976 130.979 154.715C129.715 155.22 128.853 156.416 128.31 157.621C127.952 158.372 127.738 159.178 127.566 159.988C127.527 160.106 127.537 160.237 127.594 160.347C127.801 160.731 128.384 160.568 128.488 160.184C128.877 158.062 129.924 156.136 131.198 155.63C132.28 155.214 133.719 156.676 134.595 158.102C135.396 159.402 136.474 160.344 137.867 159.131ZM115.602 153.212C116.06 154.66 117.53 152.766 118.006 152.214C119.353 150.447 121.459 148.57 122.038 149.271C122.22 149.375 122.201 150.058 122.225 150.978C122.169 151.763 122.52 152.456 123.409 152.174C125.119 151.495 126.236 150.276 127.645 150.273C128.698 150.17 130.315 150.95 130.727 151.717C131.054 152.213 131.28 152.702 131.357 152.991C131.422 153.188 131.43 153.437 131.641 153.538C131.875 153.664 132.18 153.543 132.309 153.322C132.477 153.046 132.308 152.734 132.224 152.457C132.017 151.846 131.69 151.279 131.281 150.781C130.742 150.112 129.926 149.736 129.12 149.49C127.151 148.815 125.363 150.016 123.76 151.014C123.468 151.157 123.339 151.222 123.201 151.251C123.198 151.044 123.194 149.583 123.063 149.049C122.844 148.298 121.981 148.046 121.283 148.227C119.479 148.719 117.658 151.279 116.636 152.374C117.038 150.528 117.823 148.515 117.084 146.678C115.797 143.827 112.116 145.742 110.519 147.314C110.031 147.797 109.65 148.374 109.293 148.957C109.183 149.149 109.019 149.343 109.074 149.578C109.163 150.01 109.765 150.002 109.955 149.648C110.865 147.954 112.103 146.985 113.702 146.361C116.335 145.537 116.725 147.687 116.225 150.047C116.069 151.108 115.565 152.132 115.602 153.212ZM134.852 163.395C135.316 163.234 135.265 162.441 134.72 162.478C130.535 162.477 126.348 162.495 122.168 162.733C120.998 162.792 119.827 162.85 118.657 162.903C118.525 162.91 118.4 162.969 118.308 163.062C118.005 163.33 118.168 163.905 118.606 163.868C122.237 163.7 125.866 163.482 129.502 163.463C131.279 163.417 133.091 163.525 134.852 163.395ZM123.112 164.965C122.848 164.977 122.616 165.208 122.604 165.473C122.586 165.727 122.805 165.952 123.061 165.931C123.901 165.944 124.74 165.961 125.579 165.979C126.172 165.964 126.295 165.002 125.629 165.013C124.79 164.995 123.951 164.978 123.112 164.965ZM7.07463 46.6606C7.76105 46.5271 8.44763 46.3942 9.13421 46.2614C12.2885 45.6533 15.4423 45.0361 18.5707 44.3047C20.1465 43.9354 21.7194 43.5511 23.2784 43.1157C24.6289 42.6833 26.3701 42.2385 26.9577 40.7931C27.3307 39.5656 26.3892 38.7931 26.3423 37.8425C25.1685 30.5918 31.3641 24.4076 38.0829 21.2955C44.6009 18.4762 53.4985 21.934 58.4099 27.6362C59.2536 28.549 60.0184 29.53 60.8356 30.4659C61.4466 31.297 62.9392 32.218 63.6425 31.0156C63.9716 30.3696 63.8094 29.6316 63.863 28.9378C63.9894 27.6839 64.0568 27.0048 64.5292 25.7949C65.2576 23.9666 66.9633 22.0373 69.0141 20.8891C70.9774 19.7869 74.3452 20.4895 76.1956 22.1709C77.2306 22.9877 77.8044 23.664 78.4205 24.6119C79.1864 25.7671 80.7488 28.8632 81.973 26.3695C83.3538 23.4924 86.6211 21.7326 89.5866 22.3419C91.3409 22.8637 92.9989 24.1867 94.3959 25.8918C95.1634 26.8813 95.9193 28.5746 96.2871 29.8342C96.4299 30.346 96.5571 30.8618 96.6772 31.3792C96.7029 31.5004 96.7802 31.6067 96.8903 31.6647C97.246 31.8575 97.7175 31.4772 97.6246 31.0849C96.9984 28.0979 95.6811 25.1312 93.1984 23.2413C91.7556 22.0555 90.043 21.0864 88.1144 21.2784C85.1261 21.3716 82.3557 23.4203 81.088 26.0807C81.0289 26.2085 80.9918 26.2718 80.9642 26.3096C80.9187 26.2877 80.8394 26.2494 80.7879 26.2169C80.737 26.1748 80.6611 26.1094 80.6327 26.071C80.5059 25.9383 80.4045 25.7845 80.2933 25.6392C79.8809 25.156 78.9661 23.4158 78.1928 22.627C76.4741 20.7742 74.0986 19.3634 71.5122 19.3807C69.8324 19.3601 68.2794 20.0588 67.0221 21.1422C65.7548 22.158 64.6577 23.4095 63.936 24.8714C63.3229 26.0363 63.0656 27.3358 62.9248 28.6341C62.868 29.0546 62.8973 30.4609 62.8711 30.3946C62.8655 30.4444 62.8288 30.5498 62.8047 30.6172C62.7982 30.6189 62.7904 30.6202 62.7835 30.6219C62.7667 30.6238 62.7496 30.6257 62.7228 30.6269C62.7024 30.6269 62.6926 30.6274 62.6788 30.6277C62.6717 30.6247 62.654 30.6206 62.6211 30.6148C62.5235 30.5724 62.35 30.4943 62.3077 30.454C61.3972 29.7898 60.1556 27.9615 59.0728 26.8559C53.8513 21.0152 44.6999 17.1231 37.193 20.6925C31.0519 23.7162 24.8851 29.4796 25.2469 36.8453C25.2817 37.9527 25.5578 39.0165 26.0419 40.0105C26.1888 40.3679 26.0081 40.9693 25.2273 41.3704C24.1807 41.9817 22.2243 42.4268 20.6688 42.8286C17.7348 43.5676 14.774 44.1936 11.8065 44.7811C10.1649 45.1062 8.52069 45.418 6.87818 45.7386C6.68909 45.7988 6.52964 45.9641 6.50424 46.1632C6.42302 46.481 6.76717 46.7781 7.07463 46.6606Z" fill="black"/>
<path d="M29.82 43.3409C29.9645 42.9409 29.4873 42.599 29.1426 42.8354C26.6646 44.6173 24.1483 46.3451 21.651 48.0997C20.9613 48.5826 20.2719 49.0663 19.5833 49.5509C19.4676 49.6207 19.3794 49.732 19.3388 49.8606C19.1949 50.2601 19.6709 50.603 20.0162 50.3661C22.7164 48.463 25.4332 46.5836 28.1332 44.68C28.6155 44.339 29.0964 43.9961 29.5754 43.6505C29.6911 43.5808 29.7795 43.4695 29.82 43.3409ZM30.0423 48.7937C30.5885 48.0025 31.1301 47.2082 31.679 46.4191C32.0003 45.9569 32.3286 45.4995 32.6643 45.0475C32.7301 44.9398 32.7558 44.8079 32.7304 44.6839C32.6447 44.2526 32.0359 44.2601 31.8491 44.6146C30.9399 45.8384 30.0956 47.1083 29.2272 48.3608C29.1325 48.5163 29.114 48.7436 29.2386 48.8873C29.4307 49.1742 29.8897 49.072 30.0423 48.7937Z" fill="black"/>
<path d="M141.196 55.6505C140.86 54.1789 140.209 52.7481 139.506 51.4243C139.303 51.2733 139.023 51.538 139.135 51.7528C139.769 53.0836 140.339 54.2793 140.692 55.5965C140.793 56.0711 140.658 56.1512 140.082 56.5212C138.692 57.168 136.481 57.498 134.952 57.7854C131.734 58.3192 128.492 58.6946 125.268 59.194C120.058 60.1099 114.811 60.7562 109.551 61.2901C109.177 61.3837 108.75 61.4146 108.445 61.6709C108.136 62.0254 107.813 62.4246 107.563 62.5762C106.026 63.5922 104.168 63.6762 102.25 63.9211C95.3015 64.5298 88.3221 64.7256 81.3508 64.8642C78.3598 64.9103 75.3684 64.9384 72.3771 64.9566C71.8673 64.963 71.3567 64.9498 70.8477 64.9838C70.6309 64.9852 70.3405 65.0748 70.3841 65.3429C70.4661 65.5842 70.7879 65.6008 70.9882 65.7055C71.3628 65.8143 71.741 66.076 72.1276 66.0895C72.5682 65.828 72.2151 65.6248 71.7579 65.4533C74.5114 65.3802 77.685 65.4316 80.5219 65.3593C87.1062 65.2532 93.6929 65.0476 100.262 64.5712C101.937 64.4421 103.62 64.3057 105.268 63.9631C106.424 63.703 107.651 63.3245 108.437 62.3833C108.794 61.9083 108.8 61.9447 109.407 61.802C114.232 61.2553 119.736 60.6726 124.749 59.752C128.18 59.2104 131.633 58.8192 135.059 58.2452C136.492 57.8856 141.366 57.5116 141.196 55.6505ZM70.0696 66.9081C69.4004 66.5284 68.6852 66.394 67.9522 66.0862C67.7137 66.052 67.5496 66.4183 67.7786 66.5418C68.4392 66.8038 69.1105 67.0367 69.7795 67.2753C69.976 67.3201 70.1659 67.0897 70.0696 66.9081ZM69.495 68.3639C68.4832 67.893 67.4887 67.3788 66.4282 67.0226C65.8918 66.8747 65.5663 66.6309 65.0325 66.5663C64.8409 66.6165 64.7589 66.9109 64.9511 67.0131C66.5422 67.5522 67.965 68.1693 69.5607 68.9454C69.7146 69.052 69.9381 68.9998 69.9948 68.811C70.0757 68.5133 69.6816 68.4785 69.495 68.3639ZM162.6 43.6083C162.203 42.2158 161.801 40.7757 161.158 39.4849C160.964 39.3325 160.669 39.5997 160.787 39.8134C161.838 42.2819 162.678 45.3002 162.74 47.9646C162.728 48.2914 163.221 48.236 163.223 47.9392C163.175 46.48 162.956 45.0235 162.6 43.6083ZM160.236 46.8985C160.201 46.3543 160.144 45.8113 160.051 45.274C159.956 44.9673 160 44.4358 159.779 44.2193C159.598 44.1229 159.368 44.3132 159.412 44.5092C159.598 45.4454 159.741 46.4132 159.769 47.2033C159.773 47.3312 159.762 47.506 159.915 47.5487C160.313 47.6449 160.267 47.1539 160.236 46.8985ZM157.81 47.1504C157.763 46.7647 157.672 46.3866 157.578 46.0101C157.566 45.9498 157.526 45.8961 157.471 45.8673C157.29 45.7707 157.06 45.9612 157.104 46.1572C157.185 46.4819 157.265 46.8074 157.314 47.1387C157.35 47.2803 157.305 47.4784 157.456 47.5592C157.713 47.6758 157.891 47.3776 157.81 47.1504ZM208.67 23.6717C207.761 25.8105 206.609 27.5729 205.146 29.2139C205.021 29.4512 205.355 29.6493 205.525 29.4542C206.321 28.5267 207.116 27.5864 207.74 26.5308C208.24 25.6444 208.712 24.7327 209.11 23.7981C209.169 23.532 208.784 23.448 208.67 23.6717ZM205.579 25.0231C205.19 25.5395 204.99 25.8186 204.515 26.3122C204.449 26.3782 204.412 26.4872 204.451 26.5759C204.693 26.985 205.044 26.3895 205.231 26.2067C205.452 25.8743 205.98 25.4332 206.02 25.0577C205.977 24.8422 205.673 24.8458 205.579 25.0231ZM122.133 122.967C120.871 125.049 120.402 127.309 119.092 129.239C118.739 129.793 118.077 129.815 117.223 129.264C116.836 129.143 116.691 129.645 117.104 129.781C117.649 130.119 118.379 130.299 118.972 129.981C119.899 129.256 120.263 128.04 120.764 127.016C121.329 125.755 121.712 124.686 122.313 123.547C122.389 123.362 122.598 123.213 122.574 123.002C122.53 122.788 122.227 122.789 122.133 122.967ZM117.965 127.229C117.734 127.107 117.781 127.127 117.594 126.96C117.341 126.761 117.284 126.462 117.044 126.346C116.849 126.302 116.658 126.532 116.754 126.714C116.997 127.079 117.279 127.442 117.676 127.647C117.861 127.761 118.127 127.814 118.213 127.556C118.276 127.376 118.114 127.275 117.965 127.229ZM118.867 125.706C118.775 125.561 118.761 125.359 118.638 125.24C118.443 125.087 118.149 125.356 118.267 125.569C118.366 125.801 118.443 126.072 118.609 126.263C118.741 126.371 118.951 126.267 118.995 126.114C119.041 125.964 118.917 125.839 118.867 125.706ZM161.768 107.99C161.615 108.101 161.587 108.317 161.491 108.473C160.36 110.672 158.517 114.452 156.504 113.782C156.077 113.617 155.688 113.367 155.295 113.135C155.24 113.106 155.175 113.102 155.116 113.121C154.925 113.17 154.842 113.466 155.035 113.567C155.674 113.938 156.34 114.415 157.113 114.364C158.053 114.219 158.822 113.53 159.412 112.823C160.136 111.926 160.724 110.926 161.274 109.916C161.549 109.325 161.964 108.748 162.113 108.12C162.084 107.967 161.894 107.909 161.768 107.99ZM156.228 111.819C155.958 111.446 155.683 111.077 155.407 110.709C155.193 110.499 154.838 110.854 155.047 111.068C155.387 111.505 155.513 111.723 155.856 112.148C155.928 112.21 156.042 112.201 156.119 112.154C156.229 112.086 156.29 111.938 156.228 111.819ZM156.841 110.056C156.692 109.846 156.348 110.052 156.406 110.285C156.55 110.653 156.564 111.129 156.816 111.431C156.997 111.528 157.227 111.337 157.183 111.141C157.05 110.787 156.983 110.403 156.841 110.056ZM40.1342 145.601C39.9876 145.573 39.8658 145.677 39.789 145.791C39.2192 146.62 38.6772 147.468 38.1025 148.294C36.3609 150.88 34.4431 153.353 32.8578 156.042C32.0264 157.36 30.6353 160.192 30.136 159.125C29.7509 158.398 29.3063 157.522 29.1078 156.916C29.0358 156.603 28.5632 156.781 28.6341 157.063C28.9494 157.941 29.3536 158.802 29.8426 159.595C30.7703 160.539 31.7241 158.719 32.1835 158.063C34.1938 154.434 37.457 150.181 39.5243 146.994C39.4182 147.289 39.3133 147.59 39.2532 147.84C39.2512 147.959 39.3675 148.044 39.4798 148.038C39.8647 147.934 39.8267 147.365 40.0019 147.061C40.1212 146.678 40.3042 146.301 40.3372 145.898C40.3418 145.768 40.2775 145.619 40.1342 145.601ZM37.2738 146.097C36.9578 146.737 36.6057 147.368 36.3089 148.014C36.2849 148.104 36.3327 148.206 36.4146 148.249C36.5333 148.309 36.683 148.253 36.7487 148.14C37.0649 147.534 37.3683 146.921 37.6814 146.313C37.8534 146.023 37.4323 145.821 37.2738 146.097ZM34.9415 147.006C34.8553 146.755 34.4727 146.881 34.4734 147.121C34.4853 147.956 34.4513 148.791 34.3766 149.623C34.3771 149.762 34.325 149.908 34.3635 150.042C34.4118 150.208 34.646 150.22 34.7518 150.102C35.006 149.137 34.9492 148.013 34.9415 147.006ZM73.4638 131.36C73.3015 131.274 73.1152 131.416 73.1027 131.585C72.5288 131.557 71.7869 131.515 71.1491 131.517C68.3431 131.518 65.5348 131.787 62.7923 132.388C61.275 132.725 59.7719 133.121 58.2729 133.529C57.7754 133.641 57.4453 133.785 57.1189 133.72C57.1216 133.711 57.1233 133.704 57.1275 133.695C57.1774 133.497 57.3111 133.346 57.4684 133.057C57.6065 132.739 57.9646 132.436 57.9917 132.099C57.9518 131.883 57.6424 131.887 57.551 132.064C55.1755 135.369 58.0272 134.006 60.0455 133.54C62.6974 132.839 65.0762 132.34 67.8046 132.127C69.206 132.026 70.6137 131.973 72.0183 132.019C72.6306 132.012 73.036 132.119 73.552 132.063C73.939 131.912 73.7607 131.509 73.4638 131.36ZM74.0798 130.657C73.703 130.205 73.3024 129.773 72.9161 129.329C72.7024 129.12 72.3477 129.475 72.5566 129.689C72.979 130.134 73.3532 130.653 73.798 131.063C73.8543 131.089 73.9247 131.083 73.9786 131.054C74.1295 130.997 74.2008 130.776 74.0798 130.657ZM74.8034 130.192C74.6234 129.915 74.4736 129.605 74.2648 129.353C74.0697 129.199 73.7762 129.468 73.8934 129.681C74.082 129.953 74.2262 130.266 74.4319 130.52C74.4774 130.561 74.5469 130.573 74.6052 130.558C74.7664 130.538 74.8821 130.339 74.8034 130.192Z" fill="white"/>
<path d="M128.56 28.8914C127.178 28.7108 125.749 28.7666 124.351 28.7345C123.591 28.7335 122.831 28.7411 122.072 28.7541C122.007 28.7578 121.943 28.7872 121.897 28.8337C121.785 28.935 121.79 29.138 121.929 29.2119C123.704 29.2591 125.506 29.1725 127.288 29.2807C127.325 29.2828 127.365 29.2843 127.405 29.2859C119.071 32.0482 108.926 35.5816 100.038 38.5399C97.5532 39.3153 95.4578 39.9516 93.0111 38.9372C91.315 38.445 89.6124 37.8374 87.8263 37.8315C84.1011 37.961 80.4486 38.911 76.8567 39.8465C74.3872 40.566 71.9395 41.3645 69.5233 42.2465C69.1617 42.42 68.7033 42.4602 68.4055 42.7252C68.3008 42.8939 68.4479 43.1388 68.6583 43.0638C73.5319 41.2332 78.9011 39.577 83.8184 38.742C85.2353 38.513 87.1497 38.2267 88.3592 38.3363C90.2278 38.5035 92.0007 39.1821 93.7938 39.6929C95.9684 40.4183 98.2486 39.538 100.349 38.9335C107.159 36.6421 113.955 34.3105 120.766 32.0248C122.99 31.2663 125.214 30.5084 127.435 29.7423C127.824 29.5636 128.323 29.5399 128.63 29.2371C128.705 29.1288 128.679 28.9551 128.56 28.8914ZM131.038 26.0315C129.637 25.618 128.552 25.2248 127.226 24.6293C126.822 24.5021 126.295 24.0776 125.918 24.0696C125.727 24.1197 125.645 24.4142 125.837 24.5164C127.227 25.2314 128.683 25.8156 130.173 26.2856C130.508 26.3698 130.841 26.5355 131.182 26.563C131.247 26.5557 131.31 26.5159 131.347 26.462C131.533 26.2218 131.259 26.0587 131.038 26.0315ZM131.293 22.1315C131.036 21.9918 130.763 22.4117 131.033 22.5642C131.922 23.1353 132.801 23.7232 133.677 24.3157C133.858 24.4128 134.088 24.222 134.044 24.0258C133.248 23.291 132.192 22.7696 131.293 22.1315ZM217.49 27.6373C211.158 38.2879 203.159 43.772 192.087 48.5992C191.198 48.9968 189.91 49.5917 189.178 49.7054C188.871 49.8231 188.312 49.6599 188.236 50.0627C188.248 50.409 188.659 50.2568 188.881 50.2339C189.969 50.0978 190.953 49.5981 191.947 49.1659C200.419 45.5041 208.702 40.6874 214.262 33.1316C215.59 31.4221 216.875 29.6512 217.93 27.7635C217.982 27.5037 217.609 27.4091 217.49 27.6373ZM210.889 39.6545C208.735 41.9353 206.53 43.8877 204.041 45.5908C203.865 45.7819 204.111 46.0795 204.332 45.9296C206.166 44.7212 207.836 43.2921 209.42 41.775C210.013 41.1458 210.861 40.529 211.293 39.8037C211.31 39.5874 211.025 39.5008 210.889 39.6545ZM211.889 44.5114C211.196 45.1417 210.714 45.5118 210.009 46.0353C209.847 46.1853 209.595 46.2687 209.5 46.4747C209.458 46.5928 209.53 46.7374 209.657 46.7606C209.95 46.759 210.156 46.4486 210.402 46.3114C211.027 45.847 211.638 45.3616 212.213 44.8349C212.448 44.605 212.121 44.2761 211.889 44.5114ZM107.444 69.1112C105.913 71.8415 104.351 74.2509 102.074 76.3115C96.7481 80.9694 89.9374 84.184 83.4599 87.3975C83.0986 87.6301 82.2173 87.8221 81.7774 88.1423C81.4792 88.9695 83.177 87.9781 83.4592 87.9073C88.4797 85.4444 93.5417 82.9887 98.1965 79.8722C100.028 78.5776 101.869 77.2603 103.423 75.6323C104.985 74.0052 106.244 72.1192 107.369 70.1712C107.524 69.8287 107.84 69.5177 107.884 69.1458C107.838 68.9337 107.54 68.9313 107.444 69.1112ZM86.23 88.2599C84.4457 89.531 82.6449 90.7784 80.8757 92.0705C80.744 92.1451 80.6922 92.3403 80.8042 92.454C80.8788 92.5297 81.0046 92.5325 81.0922 92.4779C82.2084 91.6727 83.3235 90.8659 84.4511 90.0766C85.1392 89.5835 85.8579 89.1205 86.5213 88.5985C86.6979 88.4068 86.4503 88.1106 86.23 88.2599ZM86.7717 90.3276C86.3085 90.8177 85.815 91.2937 85.3891 91.8127C85.3082 91.9552 85.428 92.1492 85.5936 92.1329C86 91.9392 86.7598 90.9593 87.1507 90.5681C87.2766 90.3293 86.941 90.1335 86.7717 90.3276ZM169.158 117.659C167.97 116.561 165.971 116.099 164.837 115.361C164.369 114.976 164.456 114.84 164.574 114.304C164.944 113.217 165.519 112.251 166.048 111.092C167.004 109.085 167.954 107.073 168.796 105.015C169.359 103.564 169.951 102.053 169.974 100.479C169.958 99.7024 169.662 98.9053 168.985 98.4723C168.024 97.8178 167.058 97.1251 166.051 96.5606C165.813 96.5322 165.648 96.8884 165.877 97.0162C167.008 97.8272 168.576 98.5692 169.202 99.4171C169.983 100.973 168.987 103.128 168.295 105.016C167.189 107.69 165.941 110.261 164.622 112.978C163.702 114.844 163.644 115.622 165.766 116.393C168.365 117.301 171.126 119.296 170.324 121.89C169.514 124.227 168.262 126.399 167.085 128.725C166.885 129.119 166.651 129.494 166.453 129.888C166.374 130.015 166.379 130.208 166.522 130.287C166.927 130.397 167.2 129.893 167.489 129.682C168.33 128.886 169.167 128.085 170.02 127.302C170.067 127.257 170.096 127.193 170.1 127.128C169.957 126.503 169.368 127.331 169.132 127.501C168.666 127.952 167.936 128.63 167.376 129.155C168.395 127.226 169.404 125.289 170.287 123.293C171.389 121.145 171.08 119.18 169.158 117.659Z" fill="black"/>
<path d="M171.223 117.179C170.774 116.474 170.288 115.787 169.691 115.198C169.529 115.075 169.415 114.828 169.198 114.815C168.999 114.82 168.856 115.086 169.005 115.237C170.532 116.671 171.647 118.652 172.242 120.566C172.266 120.942 172.793 120.855 172.74 120.501C172.39 119.332 171.887 118.205 171.223 117.179ZM173.28 116.464C173.137 116.047 172.985 115.634 172.812 115.229C172.718 115.071 172.702 114.81 172.504 114.752C172.308 114.708 172.118 114.938 172.214 115.119C172.476 115.684 172.655 116.168 172.814 116.631C172.873 116.809 172.922 117.106 173.178 117.024C173.443 116.938 173.366 116.659 173.28 116.464ZM116.224 137.455C116.213 137.147 116.18 136.839 116.123 136.536C116.118 136.369 115.997 136.206 115.815 136.267C115.586 136.332 115.614 136.58 115.663 136.76C115.705 137.051 115.736 137.236 115.738 137.406C115.747 137.627 115.742 137.849 115.726 138.069C114.99 137.464 113.097 135.123 111.812 134.046C110.062 132.502 108.057 131.271 105.953 130.27C104.829 129.638 103.184 129.27 102.702 128.38C102.586 128.257 102.791 127.691 103.026 127.184C103.605 125.839 104.386 124.236 105.137 122.757C105.904 121.236 106.705 119.731 107.571 118.265C107.69 118.003 107.972 117.781 107.977 117.488C107.935 117.277 107.629 117.273 107.536 117.454C105.792 120.281 104.321 123.272 102.921 126.282C102.236 127.839 101.521 128.758 103.489 129.67C106.685 131.118 109.738 132.634 112.157 135.07C113 135.906 113.811 136.773 114.602 137.658C115.343 138.622 116.313 139.286 116.224 137.455ZM110.082 136.136C109.372 135.413 108.613 134.718 107.743 134.192C107.409 134.037 106.886 133.644 106.542 133.651C106.35 133.701 106.268 133.995 106.46 134.098C107.667 134.634 108.468 135.26 109.405 136.175C109.567 136.295 109.673 136.548 109.89 136.558C110.088 136.553 110.232 136.286 110.082 136.136ZM107.469 137.124C107.152 136.759 106.817 136.408 106.483 136.058C106.269 135.848 105.915 136.203 106.124 136.417C106.457 136.768 106.792 137.118 107.11 137.483C107.202 137.578 107.364 137.557 107.451 137.465C107.541 137.376 107.565 137.218 107.469 137.124ZM131.125 82.8354C130.69 82.791 130.238 83.0059 129.809 83.0922C129.054 83.2838 128.3 83.7214 128.036 84.4946C127.801 85.0926 127.606 85.706 127.431 86.3239C127.404 86.4272 127.349 86.5381 127.406 86.6406C127.508 86.832 127.802 86.7516 127.852 86.5592C128.303 85.116 128.451 83.9263 129.639 83.6353C130.099 83.489 130.569 83.3735 131.043 83.2821C131.236 83.2325 131.317 82.9377 131.125 82.8354ZM128.728 81.3314C128.539 81.1627 128.318 81.3943 128.138 81.4727C127.77 81.687 127.384 81.9282 127.168 82.3065C126.953 82.7642 126.837 83.2628 126.702 83.748C126.67 83.9674 126.541 84.2058 126.607 84.423C126.709 84.6146 127.003 84.534 127.054 84.3416C127.304 83.3053 127.432 82.3752 128.065 82.0538C128.282 81.8528 128.997 81.7287 128.728 81.3314ZM104.002 161.292C103.118 162.024 102.368 162.927 101.543 163.734C101.543 163.722 101.542 163.713 101.541 163.701C101.42 162.059 101.185 160.425 100.925 158.799C100.299 155.479 99.3029 152.199 97.8015 149.168C96.6554 147.08 95.0685 145.237 93.2181 143.741C90.2242 141.36 86.8047 139.435 83.1337 138.33C81.0918 137.678 78.9567 137.505 76.8411 137.25C76.6034 137.242 76.3479 137.111 76.1226 137.204C75.9501 137.3 75.9379 137.599 76.1572 137.644C78.6795 137.981 81.2351 138.157 83.6556 139.007C87.826 140.472 92.0642 142.915 95.1563 146.285C98.0503 149.517 99.3172 153.83 100.299 158.137C100.647 159.929 100.92 162.062 101.055 163.666C101.014 164.707 101.394 164.595 102.009 163.923C102.729 163.163 103.462 162.415 104.213 161.684C104.386 161.52 104.244 161.216 104.002 161.292ZM105.125 162.607C103.759 163.418 102.652 164.591 101.581 165.748C101.354 166.051 100.987 166.294 100.854 166.646C100.837 166.863 101.123 166.949 101.258 166.795C102.553 165.321 103.887 163.899 105.416 162.946C105.593 162.754 105.345 162.458 105.125 162.607ZM106.368 165.47C106.239 165.254 105.967 165.421 105.78 165.452C105.075 165.647 104.404 165.94 103.729 166.217C103.389 166.268 103.347 166.786 103.746 166.711C104.435 166.43 105.118 166.128 105.836 165.925C106.068 165.863 106.506 165.814 106.368 165.47ZM55.0292 113.197C54.7755 112.606 54.4218 112.065 54.084 111.52C53.4809 110.679 52.9634 109.698 52.2542 108.967C52.0568 108.924 51.869 109.152 51.9642 109.334C52.2785 109.771 52.589 110.211 52.8944 110.654C53.4378 111.446 54.1448 112.478 54.5038 113.267C52.9432 112.738 51.3635 112.253 49.7204 112.063C47.9793 111.886 46.1215 111.401 44.4191 112C43.2606 112.513 42.2341 113.262 41.2085 113.995C39.0564 115.508 37.0055 117.158 35.0323 118.896C32.6714 120.983 30.2765 123.031 27.9442 125.15C26.4383 126.536 24.8505 127.887 23.6968 129.595C23.2354 130.256 23.2288 131.101 23.4071 131.861C23.6645 133.167 23.9338 134.471 24.2268 135.769C24.5727 137.249 24.9623 138.718 25.3209 140.194C25.4036 140.494 25.8575 140.339 25.7945 140.047C25.1575 137.506 24.509 134.967 24.0154 132.392C23.7613 131.149 23.5553 130.436 24.3097 129.513C25.329 128.099 27.0311 126.6 28.4822 125.279C30.9224 123.077 33.4146 120.933 35.8824 118.761C38.6002 116.484 41.5832 113.958 44.6248 112.416C46.2482 111.923 48.0774 112.379 49.9416 112.591C51.2398 112.765 52.5029 113.121 53.7422 113.537C54.136 113.609 54.6399 114.013 55.0054 113.771C55.1787 113.626 55.1018 113.377 55.0292 113.197ZM56.6601 113.093C55.7981 110.997 54.8033 108.949 53.6407 107.004C53.4791 106.585 52.996 106.732 53.1122 107.119C54.0134 108.559 54.763 110.094 55.4869 111.629C55.7414 112.201 55.9892 112.775 56.2274 113.353C56.2563 113.408 56.3099 113.447 56.3702 113.46C56.5659 113.504 56.7567 113.274 56.6601 113.093ZM58.649 112.753C58.5109 111.884 58.5004 110.975 58.3321 110.121C58.1835 109.912 57.839 110.117 57.8972 110.35C58.0211 111.709 58.197 113.063 58.3622 114.417C58.3668 114.51 58.3895 114.609 58.4798 114.653C59.2007 114.894 58.6086 113.141 58.649 112.753ZM22.4662 127.756C21.2321 128.693 20.3947 130.115 20.0214 131.608C19.7869 132.668 19.8049 133.768 19.8999 134.844C19.9429 135.059 20.2467 135.057 20.3405 134.879C20.3971 134.841 20.3671 134.576 20.3576 134.513C20.1832 132.451 20.4786 130.769 21.6849 129.176C21.8692 128.84 22.4469 128.4 22.8453 127.996C22.9703 127.759 22.6362 127.561 22.4662 127.756ZM25.3499 159.797C24.5424 157.848 23.9555 155.098 24.4464 153.107C24.6018 152.292 24.8709 151.296 25.15 150.737C25.2174 150.552 25.3887 150.386 25.3712 150.183C25.3282 149.969 25.0239 149.97 24.9305 150.148C24.158 151.654 23.7853 153.387 23.787 155.076C23.8295 156.909 24.343 158.718 25.0675 160.392C25.1691 160.583 25.4638 160.504 25.5143 160.311C25.5595 160.126 25.3938 159.97 25.3499 159.797ZM22.8572 156.009C22.7731 155.398 22.7379 155.077 22.7324 154.508C22.7014 154.219 22.8579 153.871 22.7116 153.614C22.5617 153.465 22.295 153.608 22.2903 153.806C22.2157 154.557 22.2629 155.311 22.369 156.057C22.4002 156.212 22.4005 156.389 22.4814 156.526C22.5766 156.671 22.8071 156.618 22.8833 156.479C22.9715 156.331 22.867 156.166 22.8572 156.009ZM20.9093 154.215C20.7596 154.065 20.4927 154.209 20.488 154.407C20.4788 154.589 20.412 154.782 20.451 154.96C20.4993 155.126 20.7336 155.137 20.8394 155.02C20.9587 154.893 20.9181 154.702 20.951 154.544C20.9629 154.433 21.0024 154.302 20.9093 154.215ZM79.4104 126.436C79.0092 125.376 78.5203 124.257 77.6933 123.468C77.4694 123.375 77.2342 123.697 77.4115 123.874C78.0678 124.6 78.5981 125.628 78.9778 126.697C79.1293 126.966 79.5498 126.694 79.4104 126.436ZM79.7248 124.274C79.576 124.064 79.2318 124.27 79.2898 124.502C79.4139 124.714 79.372 125.155 79.6569 125.203C80.1649 125.172 79.8278 124.545 79.7248 124.274Z" fill="black"/>
</svg>
