<svg width="108" height="20" viewBox="0 0 108 20" fill="none" xmlns="http://www.w3.org/2000/svg">
<path fill-rule="evenodd" clip-rule="evenodd" d="M2.6492 11.6665C1.2711 11.6704 0.381504 13.2403 1.2305 14.4298C2.44635 16.133 4.65114 17.5 8.33199 17.5C14.0362 17.5 18.6151 12.8514 17.9741 7.35925L18.9132 5.48108C19.5644 4.17857 18.4327 2.69685 17.0047 2.98245L15.7641 3.23057C15.4352 3.05702 15.0947 2.92606 14.8038 2.83117C14.2368 2.64627 13.5506 2.5 12.9153 2.5C11.7742 2.5 10.7894 2.79276 10.0067 3.37994C9.23299 3.96053 8.79716 4.72354 8.55799 5.42421C8.44774 5.74717 8.37433 6.07112 8.32722 6.38203C7.88449 6.24269 7.43307 6.05522 6.99112 5.82629C5.98845 5.30693 5.17766 4.64852 4.72028 4.07126C3.95293 3.10275 2.32673 3.17456 1.75608 4.43351C0.951793 6.20789 1.17242 8.31122 1.89537 10.0108C2.13768 10.5803 2.45289 11.1434 2.83798 11.6652C2.77206 11.666 2.70899 11.6663 2.6492 11.6665ZM8.33191 15.8333C5.11246 15.8333 3.44773 14.6672 2.58694 13.4614C2.54827 13.4072 2.58727 13.3333 2.65383 13.3332C3.52953 13.3307 5.32703 13.2892 6.51253 12.5954C6.57383 12.5595 6.56034 12.4691 6.49301 12.4465C3.72953 11.5173 2.15868 7.58216 3.27399 5.12158C3.29957 5.06517 3.3754 5.05772 3.41388 5.10628C4.68793 6.71432 7.4736 8.28933 9.89724 8.33242C9.94983 8.33333 9.98958 8.28558 9.98158 8.23361C9.88391 7.60044 9.51099 4.16667 12.9152 4.16667C13.7282 4.16667 14.9377 4.56319 15.3832 4.96942C15.4037 4.98819 15.4317 4.99672 15.459 4.99125L17.3315 4.61675C17.3995 4.60315 17.4534 4.67371 17.4224 4.73573L16.261 7.05849C16.2529 7.07462 16.2504 7.09312 16.2535 7.11088C17.0669 11.6833 13.3219 15.8333 8.33191 15.8333Z" fill="#5564D7"/>
<path fill-rule="evenodd" clip-rule="evenodd" d="M57.3346 3.33366H50.668C48.827 3.33366 47.3346 4.82604 47.3346 6.66699V13.3337C47.3346 15.1746 48.827 16.667 50.668 16.667H57.3346C59.1756 16.667 60.668 15.1746 60.668 13.3337V6.66699C60.668 4.82604 59.1756 3.33366 57.3346 3.33366ZM50.668 1.66699C47.9065 1.66699 45.668 3.90557 45.668 6.66699V13.3337C45.668 16.0951 47.9065 18.3337 50.668 18.3337H57.3346C60.0961 18.3337 62.3346 16.0951 62.3346 13.3337V6.66699C62.3346 3.90557 60.0961 1.66699 57.3346 1.66699H50.668Z" fill="#5564D7"/>
<path d="M58.1654 6.66667C58.6256 6.66667 58.9987 6.29357 58.9987 5.83333C58.9987 5.3731 58.6256 5 58.1654 5C57.7051 5 57.332 5.3731 57.332 5.83333C57.332 6.29357 57.7051 6.66667 58.1654 6.66667Z" fill="#5564D7"/>
<path fill-rule="evenodd" clip-rule="evenodd" d="M58.1654 9.99967C58.1654 12.3008 56.2999 14.1663 53.9987 14.1663C51.6975 14.1663 49.832 12.3008 49.832 9.99967C49.832 7.69849 51.6975 5.83301 53.9987 5.83301C56.2999 5.83301 58.1654 7.69849 58.1654 9.99967ZM56.4987 9.99967C56.4987 11.3804 55.3794 12.4997 53.9987 12.4997C52.6179 12.4997 51.4987 11.3804 51.4987 9.99967C51.4987 8.61892 52.6179 7.49967 53.9987 7.49967C55.3794 7.49967 56.4987 8.61892 56.4987 9.99967Z" fill="#5564D7"/>
<path fill-rule="evenodd" clip-rule="evenodd" d="M98.0013 16.667C101.683 16.667 104.668 13.6822 104.668 10.0003C104.668 6.31843 101.683 3.33366 98.0013 3.33366C94.3194 3.33366 91.3346 6.31843 91.3346 10.0003C91.3346 13.6822 94.3194 16.667 98.0013 16.667ZM98.0013 18.3337C102.604 18.3337 106.335 14.6027 106.335 10.0003C106.335 5.39795 102.604 1.66699 98.0013 1.66699C93.3989 1.66699 89.668 5.39795 89.668 10.0003C89.668 14.6027 93.3989 18.3337 98.0013 18.3337Z" fill="#5564D7"/>
<path d="M98.0013 8.33301C98.0013 7.87277 98.3744 7.49967 98.8346 7.49967H99.668C100.128 7.49967 100.501 7.12658 100.501 6.66634C100.501 6.20611 100.128 5.83301 99.668 5.83301H98.8346C97.4539 5.83301 96.3346 6.9523 96.3346 8.33301V9.99967H95.5013C95.0411 9.99967 94.668 10.3728 94.668 10.833C94.668 11.2933 95.0411 11.6663 95.5013 11.6663H96.3346V16.6663C96.3346 17.1266 96.7077 17.4997 97.168 17.4997C97.6282 17.4997 98.0013 17.1266 98.0013 16.6663V11.6663H99.668C100.128 11.6663 100.501 11.2933 100.501 10.833C100.501 10.3728 100.128 9.99967 99.668 9.99967H98.0013V8.33301Z" fill="#5564D7"/>
</svg>
