<svg width="601" height="483" viewBox="0 0 601 483" fill="none" xmlns="http://www.w3.org/2000/svg">
<path d="M518.275 397.489C518.275 398.277 517.017 398.989 514.472 399.317H508.003C505.46 398.989 504.201 398.277 504.201 397.47C504.201 396.662 505.46 395.969 508.003 395.623H514.472C517.017 395.969 518.275 396.662 518.275 397.489ZM546.421 397.285C546.472 397.675 546.203 398.074 545.558 398.45C544.91 398.835 543.86 399.188 542.621 399.317H536.152C533.608 398.989 532.35 398.277 532.35 397.47C532.35 396.662 533.608 395.969 536.152 395.623H542.621C543.929 395.829 544.776 395.997 545.391 396.258C546.009 396.526 546.369 396.876 546.421 397.285ZM559.812 372.24C560.485 372.24 561.093 373.714 561.373 376.695C561.405 379.096 561.404 382.083 560.687 384.716C559.591 387.788 558.23 388.687 557.682 388.285C557.06 387.856 557.285 386.337 557.657 383.686C558.242 381.464 558.244 379.328 558.217 376.695C558.514 373.714 559.105 372.24 559.812 372.24ZM559.812 339.288C560.485 339.288 561.093 340.762 561.373 343.742V351.314C561.093 354.291 560.485 355.764 559.795 355.764C559.105 355.764 558.514 354.291 558.217 351.314V343.742C558.514 340.762 559.105 339.288 559.812 339.288ZM559.812 306.337C560.485 306.337 561.093 307.811 561.373 310.79V318.363C561.093 321.339 560.485 322.813 559.795 322.813C559.105 322.813 558.514 321.339 558.217 318.363V310.79C558.514 307.811 559.105 306.337 559.812 306.337ZM552.075 276.587C552.377 275.941 553.938 275.951 556.182 278C557.877 279.943 559.235 282.297 560.117 284.882C560.876 288.094 560.282 289.787 559.641 289.866C558.923 289.978 558.297 288.621 557.191 286.265C556.473 284.154 555.36 282.228 553.972 280.637C552.531 278.535 551.703 277.336 552.075 276.587ZM524.305 274.029C524.305 273.241 525.564 272.529 528.109 272.202H534.577C537.121 272.529 538.379 273.241 538.379 274.049C538.379 274.857 537.121 275.55 534.577 275.896H528.109C525.564 275.55 524.305 274.857 524.305 274.029ZM496.488 276.39C496.158 275.759 496.945 274.179 499.586 272.933C501.862 272.121 504.371 272.182 506.427 272.202C508.971 272.529 510.231 273.241 510.231 274.049C510.231 274.857 508.971 275.55 506.427 275.896C504.182 275.879 502.314 275.83 500.426 276.494C498.155 276.898 496.854 277.14 496.488 276.39ZM488.461 305.929C487.787 305.929 487.179 304.455 486.899 301.475V293.903C487.002 292.457 487.35 291.189 487.67 290.455C487.997 289.705 488.344 289.397 488.684 289.463C489.024 289.529 489.317 289.954 489.539 290.68C489.771 291.423 489.873 292.37 490.055 293.903V301.475C489.759 304.455 489.167 305.929 488.461 305.929ZM488.461 338.88C487.787 338.88 487.179 337.407 486.899 334.427V326.855C487.179 323.878 487.787 322.404 488.477 322.404C489.167 322.404 489.759 323.878 490.055 326.855V334.427C489.759 337.407 489.167 338.88 488.461 338.88ZM488.461 371.832C487.787 371.832 487.179 370.358 486.899 367.378V359.806C487.179 356.829 487.787 355.356 488.477 355.356C489.167 355.356 489.759 356.829 490.055 359.806V367.378C489.759 370.358 489.167 371.832 488.461 371.832ZM501.495 397.218C501.41 397.946 499.947 398.588 497.229 397.598C495.053 396.485 493.087 394.826 491.481 392.783C489.805 390.1 489.844 388.273 490.42 387.932C491.056 387.528 492.054 388.533 493.801 390.28C495.115 391.952 496.724 393.311 498.502 394.218C500.479 395.587 501.616 396.362 501.495 397.218Z" fill="#BBCAEA"/>
<path d="M313.915 262.824C313.715 262.987 313.455 263.05 313.138 263.076C311.621 267.698 294.833 318.5 274.435 348.487C264.106 363.664 252.862 373.502 242.196 369.284C209.517 356.304 196.951 330.733 196.951 330.733L231.25 284.316C231.25 284.316 237.132 290.597 243.637 297.026C251.165 304.457 259.509 312.055 260.549 310.318C262.199 307.607 288.6 264.442 297.174 251.049C297.174 251.049 297.174 251.049 297.178 251.029C296.997 246.38 296.729 234.508 298.197 232.84C300.067 230.765 302.944 240.401 302.844 243.217C302.743 246.033 326.349 207.345 327.869 222.951C329.39 238.558 316.411 260.879 313.915 262.824Z" fill="#FEC9AC"/>
<path opacity="0.5" d="M273.283 350.145C263.266 364.216 252.285 373.265 241.71 369.14C209.311 356.444 196.613 332.259 196.613 332.259L229.921 289.266C229.921 289.266 235.799 295.25 242.293 301.384C244.495 311.875 247.864 321.998 253.153 330.786C258.205 339.179 265.26 346.224 273.283 350.145Z" fill="#FFAB90"/>
<path d="M53.9355 365.868C54.6027 366.258 55.2699 366.575 55.937 366.807L53.6332 393.14L52.1765 437.872H211.189L205.457 362.109L204.018 351.359C205.155 352.262 206.989 352.774 209.22 352.481C209.314 352.469 209.408 352.457 209.501 352.445C209.647 352.42 209.804 352.384 209.96 352.359C210.148 352.323 210.346 352.274 210.544 352.225C210.585 352.213 210.627 352.201 210.669 352.188C210.909 352.127 211.148 352.054 211.388 351.969C211.815 351.822 212.253 351.652 212.702 351.444C212.764 351.42 212.837 351.395 212.91 351.359C213.16 351.237 213.41 351.102 213.671 350.968C213.806 350.895 213.942 350.822 214.077 350.736C214.213 350.663 214.338 350.578 214.484 350.492C214.63 350.407 214.765 350.322 214.911 350.224C215.172 350.053 215.443 349.858 215.714 349.663C216.006 349.455 216.308 349.223 216.6 348.979C216.861 348.76 217.121 348.528 217.392 348.296C217.528 348.174 217.663 348.052 217.809 347.905C217.955 347.771 218.101 347.637 218.237 347.491C219.508 346.246 220.801 344.708 222.073 342.866C222.218 342.658 222.354 342.451 222.5 342.231C222.636 342.024 222.781 341.804 222.917 341.584C226.034 336.716 229.015 329.907 231.444 320.572C231.579 320.047 231.715 319.51 231.85 318.973C232.517 316.264 233.143 313.348 233.706 310.224C233.82 309.602 233.935 308.967 234.039 308.32C234.154 307.686 234.258 307.027 234.362 306.368C234.675 304.391 234.967 302.329 235.238 300.181C235.321 299.486 235.415 298.778 235.498 298.058C235.603 297.094 235.707 296.118 235.811 295.13C236.02 293.08 236.218 290.956 236.384 288.772C236.384 288.772 232.027 276.35 213.588 256.399C206.905 249.182 195.48 238.028 187.653 232.604C167.232 218.369 144.166 214.67 120.575 218.876C118.011 219.34 115.468 219.889 112.945 220.548C90.8466 226.173 70.5511 238.815 54.0815 256.435C48.7967 262.097 44.0747 267.515 39.9468 272.518C26.2602 289.065 19.0156 300.926 19.0156 300.926C19.0156 300.926 19.5263 302.488 20.4646 305.148C25.0719 318.241 39.9468 357.85 53.9355 365.868Z" fill="#FF8B6A"/>
<path d="M156.983 222.149C154.88 229.437 147.077 234.447 141.164 236.348C135.556 238.151 129.616 238.303 123.989 236.564C111.315 232.644 111.001 223.455 111.001 223.455C113.141 222.646 114.184 216.253 114.673 209.375C115.291 200.704 115.051 191.267 115.051 191.267H148.709C148.709 191.267 149.696 203.241 150.766 212.463C150.988 214.32 151.541 216.102 152.408 217.646C153.174 219.039 154.179 220.259 155.397 221.177C156.31 221.868 156.983 222.149 156.983 222.149Z" fill="#FEC9AC"/>
<path opacity="0.5" d="M152.409 217.646C140.906 222.516 127.329 220.928 117.588 212.29C116.564 211.383 115.596 210.411 114.673 209.375C115.291 200.704 115.051 191.267 115.051 191.267H148.71C148.71 191.267 149.697 203.241 150.767 212.463C150.988 214.32 151.542 216.102 152.409 217.646Z" fill="#FFAB90"/>
<path d="M160.002 177.958C159.096 185.504 157.787 193.462 153.385 199.074C149.478 204.05 143.596 206.419 137.825 206.737C134.693 206.914 131.52 206.537 128.559 205.322C122.557 202.871 117.914 197.282 113.744 191.682C112.196 189.614 110.671 187.504 109.234 185.321C107.746 183.061 105.887 181.2 103.892 179.561C103.883 179.553 103.873 179.546 103.864 179.538C102.273 178.23 100.974 176.484 99.7449 174.739C98.7578 173.348 97.7608 171.875 97.509 170.118C97.2774 168.526 97.7004 166.864 98.486 165.555C98.9694 164.777 99.5535 164.105 100.218 163.539C98.9291 155.38 99.6744 146.75 102.444 139.098C106.13 128.912 113.351 120.553 122.103 116.367L154.705 110.378C154.846 116.084 156.931 121.425 158.411 126.849C162.903 143.213 162.037 160.922 160.002 177.958Z" fill="#FEC9AC"/>
<path d="M173.188 128.61C171.881 132.16 170.241 135.625 167.812 138.252C165.383 140.878 162.067 142.567 158.787 142.076C156.062 141.658 153.67 139.825 151.142 138.526C149.466 137.645 147.197 137.92 145.163 138.685C142.943 139.55 140.613 139.984 138.283 139.738L136.236 139.536C136.544 137.804 138.64 137.732 139.811 136.606C131.551 135.581 123.006 141.615 119.924 150.65C118.801 153.97 115.349 165.863 115.349 165.863C115.349 165.863 111.934 163.15 110.442 162.471C108.457 161.577 106.2 160.927 104.092 161.548C102.44 162.024 100.911 163.41 100.442 165.329C99.6535 161.446 97.9917 158.308 96.5709 154.937C94.4392 149.88 93.7104 144.126 94.1543 138.512C94.5827 132.958 96.0286 127.309 97.3847 122.057C98.6669 117.135 99.9862 112.141 102.403 107.84C105.781 101.835 111.132 97.5773 116.927 95.167C122.71 92.7567 128.937 92.0787 135.077 92.1506C139.022 92.2084 142.993 92.5692 146.765 93.9407C150.526 95.3115 154.077 97.7795 156.481 101.446C158.386 104.371 159.459 107.806 161.093 110.928C163.485 115.504 167.085 119.214 171.265 121.408C172.005 121.797 172.794 122.158 173.324 122.894C174.433 124.424 173.879 126.762 173.188 128.61Z" fill="#2E363A"/>
<path opacity="0.5" d="M109 176.717C109.074 177.583 108.482 178.45 107.755 178.55C107.397 178.608 107.052 178.507 106.719 178.348C105.56 177.815 104.672 176.688 103.908 175.534C102.515 173.441 101.282 171.016 101.232 168.36C101.22 167.523 101.343 166.629 101.824 166.008C102.502 165.127 103.698 165.07 104.685 165.387C106.67 166.008 108.31 167.927 108.864 170.237L109 176.717Z" fill="#FFAB90"/>
<path d="M155.816 122.029C153.363 123.818 150.181 123.197 147.383 122.346C143.018 121.018 138.591 119.243 134.116 119.906C129.677 120.541 125.571 123.731 123.315 128.235C122.76 129.36 122.304 130.558 121.638 131.598C120.01 134.124 117.261 135.365 114.573 135.596C111.873 135.826 109.197 135.163 106.559 134.499C103.969 133.864 101.392 133.215 98.8156 132.565C97.5702 132.247 96.3496 131.944 95.0796 131.872C95.7084 128.567 96.5468 125.304 97.3853 122.057C98.6675 117.135 99.9868 112.141 102.403 107.84C105.782 101.835 111.133 97.5773 116.928 95.167C122.711 92.7567 128.937 92.0787 135.077 92.1506C139.023 92.2084 142.993 92.5692 146.766 93.9407C150.527 95.3115 154.078 97.7795 156.482 101.446C157.234 102.601 157.863 103.856 158.455 105.141C158.677 107.277 159.047 109.427 159.182 111.578C159.441 115.49 158.664 119.964 155.816 122.029Z" fill="#3A4146"/>
<path d="M125.636 156.787C125.505 156.697 125.485 156.358 125.692 155.797C125.902 155.247 126.353 154.462 127.215 153.737C128.72 152.605 130.659 152.249 132.388 152.784C133.398 153.165 134.032 153.749 134.376 154.198C134.719 154.658 134.787 154.989 134.684 155.126C134.45 155.45 133.666 154.815 132.027 154.462C130.66 154.045 129.191 154.316 127.999 155.204C126.529 156.129 125.951 157.016 125.636 156.787ZM146.77 151.822C146.571 151.598 147.011 150.44 148.781 149.335C150.318 148.554 152.017 148.243 153.684 148.437C155.656 148.856 156.377 149.801 156.243 150.094C156.098 150.473 155.217 150.211 153.54 150.16C152.127 149.992 150.669 150.26 149.367 150.924C147.783 151.573 147.012 152.139 146.77 151.822ZM139.876 181.29C140.002 181.158 140.418 181.547 141.197 182.183C141.585 182.486 142.09 182.843 142.683 182.99C143.248 183.133 144.053 183.01 144.469 182.47C145.22 181.677 144.681 179.286 144.494 177.426C144.23 175.479 143.88 173.547 143.453 171.64C142.547 167.11 141.97 164.867 142.299 164.716C142.569 164.585 143.683 166.612 144.882 171.199C145.566 174.247 146.022 177.197 146.3 180.184C146.341 180.716 146.367 181.289 146.275 181.91C146.189 182.526 145.944 183.199 145.509 183.698C144.412 184.813 143.184 184.689 142.344 184.368C141.486 183.997 140.973 183.416 140.613 182.954C139.916 181.997 139.762 181.408 139.876 181.29ZM142.228 192.496C142.265 192.661 141.953 192.967 141.224 193.239C140.5 193.5 139.341 193.766 137.794 193.567C135.199 193.106 132.717 191.726 130.885 189.407C129.863 187.965 129.514 186.477 129.559 185.523C129.599 184.555 129.887 184.157 130.025 184.196C130.392 184.247 130.093 186.007 131.988 188.254C133.513 190.196 135.737 191.466 138.011 191.855C140.705 192.433 142.143 192.047 142.228 192.496Z" fill="#4F2D2A"/>
<path d="M151.991 167.113C152.926 167.113 153.685 165.517 153.685 163.549C153.685 161.58 152.926 159.984 151.991 159.984C151.056 159.984 150.297 161.58 150.297 163.549C150.297 165.517 151.056 167.113 151.991 167.113Z" fill="#4F2D2A"/>
<path d="M132.131 169.074C133.066 169.074 133.824 167.478 133.824 165.51C133.824 163.541 133.066 161.945 132.131 161.945C131.195 161.945 130.437 163.541 130.437 165.51C130.437 167.478 131.195 169.074 132.131 169.074Z" fill="#4F2D2A"/>
<path d="M236.38 288.777C231.585 350.802 209.601 355.793 204.014 351.363L205.453 362.114C199.167 344.725 192.871 327.324 186.575 309.936C189.473 316.489 198.239 316.293 202.878 311.302C207.527 306.312 209.039 298.563 210.102 291.303C211.801 279.747 212.958 268.093 213.583 256.403C232.023 276.354 236.38 288.777 236.38 288.777Z" fill="#FF8B6A"/>
<path d="M201.255 326.271C199.233 322.476 197.158 318.705 195.063 314.947C193.708 312.506 192.353 310.066 190.987 307.638C190.206 309.346 189.372 311.018 188.475 312.665C188.309 312.995 188.121 313.336 187.933 313.666C178.635 330.456 164.365 343.464 148.125 349.748C129.976 356.765 109.556 355.325 92.2629 345.807C92.1148 345.725 91.9711 345.637 91.8235 345.554C82.6111 349.121 75.2848 357.659 67.8326 364.611C63.5052 368.647 59.2521 372.798 55.0432 377.01L53.632 393.141L52.1753 437.872H211.188L205.456 362.11L204.017 351.359C205.154 352.262 206.988 352.775 209.219 352.482C209.313 352.47 209.406 352.457 209.5 352.445C209.646 352.421 209.803 352.384 209.959 352.36C210.147 352.323 210.345 352.274 210.542 352.225C210.584 352.213 210.626 352.201 210.668 352.189C210.908 352.128 211.147 352.055 211.387 351.969C211.814 351.823 212.252 351.652 212.7 351.445C212.763 351.42 212.836 351.396 212.909 351.359C213.159 351.237 213.409 351.103 213.67 350.969C209.834 342.561 205.623 334.361 201.255 326.271Z" fill="#FF8B6A"/>
<path d="M62.7685 353.257C62.599 353.572 61.2807 353.102 58.9333 351.494C56.6111 349.863 53.2357 347.074 49.448 342.404C42.8504 333.814 40.0871 326.626 35.6659 314.47C31.7488 302.824 30.2426 296.843 30.8777 296.528C31.5128 296.213 34.1237 301.644 38.5705 313.028C42.962 325.096 45.595 331.864 51.7943 339.934C55.1748 344.58 58.1149 347.637 60.0483 349.722C62.0017 351.783 62.9672 352.891 62.7685 353.257Z" fill="white"/>
<path d="M152.125 237.06C152.351 237.314 151.753 238.689 149.93 240.854C148.103 242.976 144.973 245.909 140.036 248.161C131.589 251.691 121.984 251.041 113.912 246.524C109.208 243.822 106.18 240.125 105.201 237.062C104.185 233.962 104.86 232.278 105.118 232.341C105.527 232.327 105.599 233.842 106.868 236.044C108.119 238.26 110.807 240.963 115.262 243.186C122.603 247.291 131.329 247.88 138.987 244.677C143.563 242.936 146.69 240.67 148.748 239.143C150.801 237.585 151.858 236.753 152.125 237.06Z" fill="white"/>
<path d="M87.4756 437.872H309.529C310.54 437.872 311.359 436.913 311.359 435.73V429.393C311.359 428.21 310.54 427.251 309.529 427.251H87.4756C86.4652 427.251 85.646 428.21 85.646 429.393V435.73C85.646 436.913 86.4652 437.872 87.4756 437.872Z" fill="#2E363A"/>
<path d="M138.967 427.267H306.505L313.433 396.492L336.354 294.421C337.641 288.716 334.684 284.1 329.809 284.1H179.962C178.51 284.1 177.086 284.485 175.717 285.222C172.458 286.889 169.72 290.383 168.816 294.421L138.967 427.267Z" fill="#4A5258"/>
<path d="M138.967 427.268H306.505L313.433 396.493C308.696 397.454 303.904 398.127 299.084 398.481C268.824 400.628 237.989 388.478 214.959 365.333C194.612 344.88 180.591 316.06 175.717 285.223C172.458 286.89 169.72 290.383 168.816 294.422L138.967 427.268Z" fill="#3A4146"/>
<path d="M166.35 427.275H138.965L139.458 425.127C145.921 424.487 156.875 425.32 166.35 427.275Z" fill="#3A4146"/>
<path d="M252.412 361.638C254.719 353.49 251.832 345.04 245.965 342.763C240.098 340.487 233.472 345.247 231.166 353.395C228.859 361.543 231.745 369.994 237.612 372.27C243.479 374.546 250.105 369.786 252.412 361.638Z" fill="#3A4146"/>
<path d="M250.63 360.947C252.55 354.165 250.147 347.132 245.264 345.237C240.381 343.343 234.866 347.305 232.946 354.087C231.026 360.869 233.428 367.902 238.312 369.796C243.195 371.691 248.71 367.729 250.63 360.947Z" fill="white"/>
<path d="M130.867 433.534C130.878 439.567 100.58 444.856 79.8576 439.282C75.0111 437.966 68.4785 434.664 61.214 429.897C37.3847 414.254 5.81367 383.057 0.998972 356.167C0.288522 352.119 -0.0296775 348.308 0.00216905 344.758C0.193113 317.346 19.9077 303.988 19.9077 303.988C20.0243 304.199 20.141 304.411 20.279 304.634C20.279 304.646 20.2895 304.646 20.2895 304.659C20.3426 304.82 20.3955 304.982 20.4592 305.143C24.7966 317.446 38.18 353.162 51.3938 364.075C51.1181 364.373 50.8635 364.633 50.6409 364.894C50.5772 364.969 50.5242 365.055 50.5242 365.155C48.4351 370.592 82.9967 412.02 82.9967 412.02C82.9967 412.02 87.2174 414.974 92.9866 412.963C98.7768 410.952 109.668 407.029 111.036 412.876C112.383 418.748 87.5675 426.06 97.2286 424.968C105.246 424.086 123.041 426.408 128.937 430.679C130.146 431.535 130.867 432.504 130.867 433.534Z" fill="#FEC9AC"/>
<path opacity="0.5" d="M51.3941 364.075C51.1183 364.373 50.8638 364.633 50.6411 364.894C50.5775 364.969 50.5245 365.055 50.5245 365.155C41.3193 356.291 30.354 349.947 18.7308 346.893C12.5907 345.267 6.30173 344.571 0.00244141 344.758C0.193385 317.346 19.908 303.988 19.908 303.988C20.0246 304.199 20.1413 304.411 20.2793 304.634C20.2793 304.646 20.2897 304.646 20.2897 304.659C20.3428 304.82 20.3958 304.982 20.4595 305.143C24.7969 317.446 38.1803 353.162 51.3941 364.075Z" fill="#FFAB90"/>
<path d="M131.025 433.54C131.046 439.573 100.749 444.869 80.0082 439.288C75.1796 437.975 68.6395 434.661 61.3658 429.891C46.7168 420.278 29.1134 404.752 16.624 387.984H64.1369C73.081 399.934 83.146 412.026 83.146 412.026C83.146 412.026 87.3837 414.984 93.1498 412.957C95.2688 412.217 98.0598 411.239 100.831 410.547L98.019 423.093C95.0444 424.571 93.6999 425.383 97.3875 424.978C97.4485 424.978 97.53 424.953 97.6116 424.953C102.42 424.477 110.57 425.096 117.619 426.551C122.427 427.552 126.726 428.96 129.09 430.678C130.312 431.536 131.025 432.514 131.025 433.54Z" fill="#FEC9AC"/>
<path d="M600.5 474.972V475.962C600.5 479.847 597.806 483 594.475 483H76.2774C72.946 483 70.2523 479.847 70.2523 475.962V474.972C70.2523 471.087 67.5586 467.934 64.2402 467.934H21.4398C18.1216 467.934 15.4277 464.781 15.4277 460.896V459.236C15.4277 455.351 18.1216 452.198 21.4398 452.198H31.5509C34.8694 452.198 37.5632 449.044 37.5632 445.16C37.5632 441.26 40.2568 438.106 43.5881 438.106H574.916C578.235 438.106 580.928 441.26 580.928 445.16C580.928 447.109 580.252 448.861 579.172 450.141C578.078 451.405 576.582 452.198 574.916 452.198H571.194C567.876 452.198 565.182 455.351 565.182 459.236V460.896C565.182 464.781 567.876 467.934 571.194 467.934H594.475C597.806 467.934 600.5 471.087 600.5 474.972Z" fill="#CE704C"/>
<path d="M594.474 467.934H571.193C569.46 467.934 567.91 467.062 566.813 465.688H17.0581C18.1558 467.062 19.7059 467.934 21.4385 467.934H64.2388C67.5573 467.934 70.2509 471.088 70.2509 474.972V475.962C70.2509 479.847 72.9446 483 76.276 483H594.474C597.805 483 600.499 479.847 600.499 475.962V474.972C600.499 471.088 597.805 467.934 594.474 467.934Z" fill="#C16244"/>
<path d="M443.367 299.786C442.693 299.786 442.085 299.696 441.806 299.512V299.045C442.085 298.862 442.693 298.771 443.383 298.771C444.073 298.771 444.665 298.862 444.961 299.045V299.512C444.665 299.696 444.073 299.786 443.367 299.786Z" fill="#F3F6FD"/>
<path d="M412.862 239.753V314.909C412.862 318.055 415.041 320.605 417.728 320.605H519.489C522.176 320.605 524.355 318.055 524.355 314.909V239.753H412.862Z" fill="#F6F6FE"/>
<path d="M524.355 239.753V228.566C524.355 225.42 522.176 222.87 519.489 222.87H417.728C415.041 222.87 412.862 225.42 412.862 228.566V239.753H524.355Z" fill="#64D3FF"/>
<path d="M442.441 256.634V263.316C442.441 264.955 441.309 266.28 439.925 266.28H427.926C426.527 266.28 425.395 264.955 425.395 263.316V256.634C425.395 255.014 426.527 253.688 427.926 253.688H439.925C441.309 253.688 442.441 255.014 442.441 256.634ZM465.567 256.634V263.316C465.567 264.955 464.435 266.28 463.051 266.28H451.053C449.653 266.28 448.521 264.955 448.521 263.316V256.634C448.521 255.014 449.653 253.688 451.053 253.688H463.051C464.435 253.688 465.567 255.014 465.567 256.634ZM488.693 256.634V263.316C488.693 264.955 487.561 266.28 486.177 266.28H474.179C472.779 266.28 471.647 264.955 471.647 263.316V256.634C471.647 255.014 472.779 253.688 474.179 253.688H486.177C487.561 253.688 488.693 255.014 488.693 256.634ZM511.82 256.634V263.316C511.82 264.955 510.688 266.28 509.304 266.28H497.305C495.906 266.28 494.773 264.955 494.773 263.316V256.634C494.773 255.014 495.906 253.688 497.305 253.688H509.304C510.688 253.688 511.82 255.014 511.82 256.634Z" fill="#D1DCF8"/>
<path d="M442.442 276.828V283.51C442.442 285.149 441.31 286.474 439.926 286.474H427.928C426.528 286.474 425.396 285.149 425.396 283.51V276.828C425.396 275.208 426.528 273.883 427.928 273.883H439.926C441.31 273.883 442.442 275.208 442.442 276.828ZM465.569 276.828V283.51C465.569 285.149 464.436 286.474 463.052 286.474H451.054C449.654 286.474 448.522 285.149 448.522 283.51V276.828C448.522 275.208 449.654 273.883 451.054 273.883H463.052C464.436 273.883 465.569 275.208 465.569 276.828ZM488.695 276.828V283.51C488.695 285.149 487.563 286.474 486.179 286.474H474.18C472.781 286.474 471.649 285.149 471.649 283.51V276.828C471.649 275.208 472.781 273.883 474.18 273.883H486.179C487.563 273.883 488.695 275.208 488.695 276.828ZM511.821 276.828V283.51C511.821 285.149 510.689 286.474 509.305 286.474H497.307C495.907 286.474 494.775 285.149 494.775 283.51V276.828C494.775 275.208 495.907 273.883 497.307 273.883H509.305C510.689 273.883 511.821 275.208 511.821 276.828Z" fill="#D1DCF8"/>
<path d="M442.442 297.023V303.705C442.442 305.343 441.31 306.669 439.926 306.669H427.928C426.528 306.669 425.396 305.343 425.396 303.705V297.023C425.396 295.403 426.528 294.077 427.928 294.077H439.926C441.31 294.077 442.442 295.403 442.442 297.023ZM465.569 297.023V303.705C465.569 305.343 464.436 306.669 463.052 306.669H451.054C449.654 306.669 448.522 305.343 448.522 303.705V297.023C448.522 295.403 449.654 294.077 451.054 294.077H463.052C464.436 294.077 465.569 295.403 465.569 297.023ZM488.695 297.023V303.705C488.695 305.343 487.563 306.669 486.179 306.669H474.18C472.781 306.669 471.649 305.343 471.649 303.705V297.023C471.649 295.403 472.781 294.077 474.18 294.077H486.179C487.563 294.077 488.695 295.403 488.695 297.023ZM511.821 297.023V303.705C511.821 305.343 510.689 306.669 509.305 306.669H497.307C495.907 306.669 494.775 305.343 494.775 303.705V297.023C494.775 295.403 495.907 294.077 497.307 294.077H509.305C510.689 294.077 511.821 295.403 511.821 297.023Z" fill="#D1DCF8"/>
<path d="M436.22 222.848V231.209C436.22 233.83 438.027 235.965 440.268 235.965C442.508 235.965 444.332 233.83 444.332 231.209V222.848H436.22Z" fill="#42C1F4"/>
<path d="M443.112 216.964V229.354C443.112 231.976 441.288 234.111 439.048 234.111C436.808 234.111 435 231.976 435 229.354V216.964C435 214.341 436.808 212.207 439.048 212.207C440.161 212.207 441.18 212.75 441.922 213.6C442.663 214.468 443.112 215.644 443.112 216.964Z" fill="#E4ECF9"/>
<path d="M494.106 222.847V231.208C494.106 233.829 495.914 235.964 498.155 235.964C500.395 235.964 502.218 233.829 502.218 231.208V222.847H494.106Z" fill="#42C1F4"/>
<path d="M500.998 216.964V229.354C500.998 231.976 499.175 234.111 496.935 234.111C494.694 234.111 492.887 231.976 492.887 229.354V216.964C492.887 214.341 494.694 212.207 496.935 212.207C498.047 212.207 499.067 212.75 499.809 213.6C500.55 214.468 500.998 215.644 500.998 216.964Z" fill="#E4ECF9"/>
<path d="M529.308 113.589C556.103 113.589 577.824 88.1612 577.824 56.7945C577.824 25.4278 556.103 0 529.308 0C502.513 0 480.792 25.4278 480.792 56.7945C480.792 88.1612 502.513 113.589 529.308 113.589Z" fill="#D1DCF8"/>
<path d="M529.307 107.273C553.122 107.273 572.428 84.6729 572.428 56.7942C572.428 28.9156 553.122 6.31543 529.307 6.31543C505.492 6.31543 486.186 28.9156 486.186 56.7942C486.186 84.6729 505.492 107.273 529.307 107.273Z" fill="#F3F6FD"/>
<path d="M548.168 57.9933H523.523C522.974 57.9933 522.531 57.4739 522.531 56.8321C522.531 56.1903 522.974 55.6709 523.523 55.6709H548.168C548.717 55.6709 549.16 56.1903 549.16 56.8321C549.16 57.4739 548.717 57.9933 548.168 57.9933Z" fill="#D1DCF8"/>
<path d="M529.297 64.0455C529.024 64.0455 528.801 63.7858 528.801 63.4649V16.1626C528.801 15.8417 529.024 15.582 529.297 15.582C529.57 15.582 529.793 15.8417 529.793 16.1626V63.4649C529.793 63.7858 529.57 64.0455 529.297 64.0455Z" fill="#FE4C40"/>
<path d="M513.322 80.2857C513.212 80.2857 513.099 80.2426 513.008 80.1541C512.795 79.9512 512.764 79.586 512.939 79.3377L532.673 51.0933C532.845 50.845 533.161 50.8075 533.37 51.0117C533.583 51.2146 533.614 51.5798 533.44 51.8281L513.706 80.0725C513.609 80.2131 513.466 80.2857 513.322 80.2857Z" fill="#D1DCF8"/>
<path d="M529.297 58.7933C530.202 58.7933 530.935 57.9352 530.935 56.8766C530.935 55.8181 530.202 54.96 529.297 54.96C528.393 54.96 527.66 55.8181 527.66 56.8766C527.66 57.9352 528.393 58.7933 529.297 58.7933Z" fill="white"/>
<path d="M572.422 56.7949C572.422 84.6871 553.119 107.284 529.312 107.284C512.39 107.284 497.749 95.8811 490.686 79.2993C498.602 90.4699 510.545 97.5996 523.916 97.5996C547.723 97.5996 567.046 74.9793 567.046 47.1103C567.046 39.0748 565.439 31.4572 562.563 24.6992C568.732 33.4315 572.422 44.6022 572.422 56.7949Z" fill="#E4ECF9"/>
<path d="M470.736 217.691C471.412 217.679 472.033 219.142 472.378 222.096C472.44 224.604 472.518 227.115 472.671 229.579C472.565 232.554 472.244 233.777 471.649 234.112C470.968 234.481 469.971 232.833 469.525 229.855C469.365 227.28 469.287 224.74 469.224 222.198C469.453 219.19 470.032 217.704 470.736 217.691ZM470.95 184.732C471.623 184.756 472.209 186.249 472.443 189.23L472.328 196.789C472.004 199.756 471.373 201.223 470.683 201.217C469.992 201.211 469.424 199.73 469.173 196.739L469.288 189.144C469.629 186.163 470.243 184.708 470.95 184.732ZM454.535 171.87C454.535 171.082 455.794 170.37 458.341 170.043H464.813C467.358 170.37 468.617 171.082 468.617 171.889C468.617 172.697 467.358 173.39 464.813 173.736H458.341C455.794 173.39 454.535 172.697 454.535 171.87ZM426.389 171.87C426.389 171.082 427.648 170.37 430.193 170.043H436.663C439.206 170.37 440.465 171.082 440.465 171.889C440.465 172.697 439.206 173.39 436.663 173.736H430.193C427.648 173.39 426.389 172.697 426.389 171.87ZM398.224 171.87C398.224 171.082 399.484 170.37 402.031 170.043H408.504C411.049 170.37 412.309 171.082 412.309 171.889C412.309 172.697 411.049 173.39 408.504 173.736H402.031C399.484 173.39 398.224 172.697 398.224 171.87ZM396.28 141.233C396.953 141.233 397.562 142.707 397.841 145.686V153.259C397.562 156.236 396.953 157.709 396.263 157.709C395.573 157.709 394.982 156.236 394.686 153.259V145.686C394.982 142.707 395.573 141.233 396.28 141.233ZM396.28 108.282C396.953 108.282 397.562 109.756 397.841 112.735V120.308C397.562 123.284 396.953 124.758 396.263 124.758C395.573 124.758 394.982 123.284 394.686 120.308V112.735C394.982 109.756 395.573 108.282 396.28 108.282ZM396.28 75.3306C396.953 75.3306 397.562 76.8041 397.841 79.7834V87.3562C397.562 90.3328 396.953 91.8063 396.263 91.8063C395.573 91.8063 394.982 90.3328 394.686 87.3562V79.7834C394.982 76.8041 395.573 75.3306 396.28 75.3306ZM379.005 62.5622C379.005 61.7738 380.264 61.0618 382.809 60.7354H389.278C391.821 61.0618 393.079 61.7738 393.079 62.5816C393.079 63.3901 391.821 64.0826 389.278 64.4286H382.809C380.264 64.0826 379.005 63.3901 379.005 62.5622ZM350.857 62.5622C350.857 61.7738 352.115 61.0618 354.661 60.7354H361.129C363.672 61.0618 364.931 61.7738 364.931 62.5816C364.931 63.3901 363.672 64.0826 361.129 64.4286H354.661C352.115 64.0826 350.857 63.3901 350.857 62.5622ZM327.994 62.5622C327.994 61.7738 328.779 61.0618 330.369 60.7354H334.409C335.997 61.0618 336.783 61.7738 336.783 62.5816C336.783 63.3901 335.997 64.0826 334.409 64.4286H330.369C328.779 64.0826 327.994 63.3901 327.994 62.5622Z" fill="#BBCAEA"/>
<path d="M297.315 134.277L295.273 123.66L286.067 122.994C284.958 120.523 283.588 118.265 282.011 116.254L284.567 105.88L276.707 100.067L269.796 107.217C267.574 106.409 265.245 105.929 262.862 105.814L258.402 96.3633L249.327 98.7554L248.764 109.53C246.653 110.829 244.724 112.432 243.006 114.279L234.145 111.286L229.171 120.482L235.279 128.573C234.59 131.181 234.18 133.907 234.082 136.697L226.009 141.918L228.051 152.534L237.256 153.201C238.366 155.672 239.735 157.929 241.311 159.933L238.755 170.307L246.617 176.128L253.528 168.978C255.756 169.783 258.085 170.264 260.468 170.379L264.922 179.831L273.997 177.439L274.566 166.663C276.677 165.364 278.606 163.76 280.317 161.916L289.179 164.909L294.151 155.705L288.043 147.615C288.733 145.014 289.144 142.287 289.242 139.497L297.315 134.277ZM266.044 160.878C255.326 163.703 244.68 155.822 242.266 143.275C239.853 130.728 246.585 118.265 257.304 115.44C268.022 112.615 278.668 120.496 281.081 133.043C283.495 145.591 276.762 158.053 266.044 160.878Z" fill="#E2E8ED"/>
<path d="M261.675 155.428C269.822 155.428 276.427 147.696 276.427 138.159C276.427 128.621 269.822 120.89 261.675 120.89C253.528 120.89 246.923 128.621 246.923 138.159C246.923 147.696 253.528 155.428 261.675 155.428Z" fill="#E2E8ED"/>
<path d="M370.636 50.4401L366.313 35.9043L353.286 36.694C351.388 33.4293 349.155 30.514 346.664 27.9836L348.836 12.926L336.994 6.23073L328.261 17.5747C325.028 16.8563 321.689 16.6175 318.325 16.9035L310.764 4.45898L298.339 9.52247L299.022 24.7696C296.233 26.9909 293.743 29.6053 291.581 32.522L278.718 29.9782L272.987 43.8346L282.678 54.058C282.067 57.8525 281.863 61.761 282.107 65.6995L271.477 74.5504L275.799 89.0863L288.827 88.2962C290.724 91.561 292.958 94.4763 295.446 96.997L293.274 112.054L305.119 118.76L313.852 107.416C317.093 108.131 320.432 108.37 323.796 108.083L331.349 120.531L343.774 115.468L343.1 100.217C345.888 97.9961 348.379 95.3815 350.532 92.4686L363.394 95.0121L369.122 81.1457L359.432 70.9226C360.046 67.1378 360.25 63.2293 360.005 59.2908L370.636 50.4401ZM330.332 93.6869C315.656 99.6672 299.618 90.5879 294.509 73.4083C289.4 56.2288 297.156 37.4534 311.832 31.4732C326.507 25.4929 342.546 34.572 347.654 51.7515C352.763 68.931 345.007 87.7066 330.332 93.6869Z" fill="#E2E8ED"/>
<path d="M321.083 87.0038C332.606 87.0038 341.948 76.0682 341.948 62.5786C341.948 49.0889 332.606 38.1533 321.083 38.1533C309.559 38.1533 300.218 49.0889 300.218 62.5786C300.218 76.0682 309.559 87.0038 321.083 87.0038Z" fill="#E2E8ED"/>
<path d="M409.635 203.064C432.016 195.131 444.667 167.46 437.89 141.26C431.113 115.059 407.476 100.25 385.095 108.183C362.713 116.116 350.063 143.787 356.839 169.987C363.616 196.188 387.253 210.997 409.635 203.064Z" fill="#FE4C40"/>
<path d="M409.826 188.381C425.281 180.323 432.23 159.126 425.347 141.034C418.464 122.943 400.356 114.808 384.902 122.865C369.447 130.922 362.498 152.12 369.381 170.212C376.264 188.303 394.372 196.438 409.826 188.381Z" fill="#E4ECF9"/>
<path d="M376.323 155.624C376.323 169.228 385.744 180.255 397.364 180.255C408.985 180.255 418.405 169.228 418.405 155.624C418.405 142.021 408.985 130.993 397.364 130.993C385.744 130.993 376.323 142.021 376.323 155.624Z" fill="#FE4C40"/>
<path d="M386.34 155.624C386.34 162.75 391.275 168.527 397.362 168.527C403.449 168.527 408.384 162.75 408.384 155.624C408.384 148.498 403.449 142.721 397.362 142.721C391.275 142.721 386.34 148.498 386.34 155.624Z" fill="#E4ECF9"/>
<path d="M395.656 157.62H402.578L395.656 149.52V157.62Z" fill="#22252D"/>
<path d="M440.537 105.085H448.456V102.748H442.533V95.8145H440.537V105.085Z" fill="#2E363A"/>
<path d="M444.161 100.843H452.08V98.503H446.157V91.5723H444.161V100.843Z" fill="#2E363A"/>
<path d="M444.784 98.4643L396.894 154.523L398.306 156.176L446.195 100.117L444.784 98.4643Z" fill="#2E363A"/>
</svg>
