<svg width="28" height="28" viewBox="0 0 28 28" fill="none" xmlns="http://www.w3.org/2000/svg">
<path fill-rule="evenodd" clip-rule="evenodd" d="M9.52927 2.85289C9.74565 2.52833 10.1099 2.33337 10.5 2.33337H17.5C17.8901 2.33337 18.2543 2.52833 18.4707 2.85289L20.4577 5.83337H24.5C25.4283 5.83337 26.3185 6.20212 26.9749 6.8585C27.6313 7.51488 28 8.40512 28 9.33337V22.1667C28 23.095 27.6313 23.9852 26.9749 24.6416C26.3185 25.298 25.4283 25.6667 24.5 25.6667H3.5C2.57174 25.6667 1.6815 25.298 1.02513 24.6416C0.368749 23.9852 0 23.095 0 22.1667V9.33337C0 8.40512 0.368749 7.51488 1.02513 6.8585C1.6815 6.20212 2.57174 5.83337 3.5 5.83337H7.54228L9.52927 2.85289ZM11.1244 4.66671L9.13739 7.64719C8.92101 7.97176 8.55674 8.16671 8.16667 8.16671H3.5C3.19058 8.16671 2.89383 8.28962 2.67504 8.50842C2.45625 8.72721 2.33333 9.02395 2.33333 9.33337V22.1667C2.33333 22.4761 2.45625 22.7729 2.67504 22.9917C2.89384 23.2105 3.19058 23.3334 3.5 23.3334H24.5C24.8094 23.3334 25.1062 23.2105 25.325 22.9917C25.5438 22.7729 25.6667 22.4761 25.6667 22.1667V9.33337C25.6667 9.02396 25.5438 8.72721 25.325 8.50842C25.1062 8.28962 24.8094 8.16671 24.5 8.16671H19.8333C19.4433 8.16671 19.079 7.97176 18.8626 7.64719L16.8756 4.66671H11.1244Z" fill="white"/>
<path fill-rule="evenodd" clip-rule="evenodd" d="M14 11.6667C12.067 11.6667 10.5 13.2337 10.5 15.1667C10.5 17.0997 12.067 18.6667 14 18.6667C15.933 18.6667 17.5 17.0997 17.5 15.1667C17.5 13.2337 15.933 11.6667 14 11.6667ZM8.16667 15.1667C8.16667 11.945 10.7783 9.33337 14 9.33337C17.2217 9.33337 19.8333 11.945 19.8333 15.1667C19.8333 18.3884 17.2217 21 14 21C10.7783 21 8.16667 18.3884 8.16667 15.1667Z" fill="white"/>
</svg>
