<svg width="20" height="20" viewBox="0 0 20 20" fill="none" xmlns="http://www.w3.org/2000/svg">
<g clip-path="url(#clip0_44426_10764)">
<path fill-rule="evenodd" clip-rule="evenodd" d="M0.833252 9.99998C0.833252 4.93737 4.93731 0.833313 9.99992 0.833313C15.0625 0.833313 19.1666 4.93737 19.1666 9.99998C19.1666 15.0626 15.0625 19.1666 9.99992 19.1666C4.93731 19.1666 0.833252 15.0626 0.833252 9.99998Z" fill="#FF8B6A"/>
<path fill-rule="evenodd" clip-rule="evenodd" d="M14.4255 6.70239C14.7509 7.02783 14.7509 7.55547 14.4255 7.8809L9.25291 13.2976C8.92747 13.623 8.39984 13.623 8.0744 13.2976L5.5744 10.7976C5.24896 10.4721 5.24896 9.9445 5.5744 9.61906C5.89984 9.29362 6.42747 9.29362 6.75291 9.61906L8.66366 11.5298L13.247 6.70239C13.5724 6.37696 14.1001 6.37696 14.4255 6.70239Z" fill="white"/>
</g>
<defs>
<clipPath id="clip0_44426_10764">
<rect width="20" height="20" fill="white"/>
</clipPath>
</defs>
</svg>
