<svg width="20" height="20" viewBox="0 0 20 20" fill="none" xmlns="http://www.w3.org/2000/svg">
<path fill-rule="evenodd" clip-rule="evenodd" d="M3.3335 3.33317C3.11248 3.33317 2.90052 3.42097 2.74424 3.57725C2.58796 3.73353 2.50016 3.94549 2.50016 4.1665V15.8332C2.50016 16.0542 2.58796 16.2661 2.74424 16.4224C2.90052 16.5787 3.11248 16.6665 3.3335 16.6665H16.6668C16.8878 16.6665 17.0998 16.5787 17.2561 16.4224C17.4124 16.2661 17.5002 16.0542 17.5002 15.8332V6.6665C17.5002 6.44549 17.4124 6.23353 17.2561 6.07725C17.0998 5.92097 16.8878 5.83317 16.6668 5.83317H9.16683C8.8882 5.83317 8.62801 5.69392 8.47345 5.46209L7.05418 3.33317H3.3335ZM1.56573 2.39874C2.03457 1.9299 2.67045 1.6665 3.3335 1.6665H7.50016C7.77879 1.6665 8.03898 1.80575 8.19354 2.03759L9.61281 4.1665H16.6668C17.3299 4.1665 17.9658 4.4299 18.4346 4.89874C18.9034 5.36758 19.1668 6.00346 19.1668 6.6665V15.8332C19.1668 16.4962 18.9034 17.1321 18.4346 17.6009C17.9658 18.0698 17.3299 18.3332 16.6668 18.3332H3.3335C2.67045 18.3332 2.03457 18.0698 1.56573 17.6009C1.09689 17.1321 0.833496 16.4962 0.833496 15.8332V4.1665C0.833496 3.50346 1.09689 2.86758 1.56573 2.39874Z" fill="#E04343"/>
</svg>
