<svg width="20" height="20" viewBox="0 0 20 20" fill="none" xmlns="http://www.w3.org/2000/svg">
<path fill-rule="evenodd" clip-rule="evenodd" d="M8.92243 3.08909C9.24786 2.76366 9.24786 2.23602 8.92243 1.91058C8.59699 1.58514 8.06935 1.58514 7.74392 1.91058L4.65466 4.99984H4.1665C2.78579 4.99984 1.6665 6.11913 1.6665 7.49984C1.6665 8.33188 2.07298 9.06899 2.69818 9.52343L3.70225 15.5478C3.97013 17.1551 5.36077 18.3332 6.99023 18.3332H13.0094C14.6388 18.3332 16.0295 17.1551 16.2974 15.5478L17.3014 9.52348C17.9267 9.06905 18.3332 8.33192 18.3332 7.49984C18.3332 6.11913 17.2139 4.99984 15.8332 4.99984H15.345L12.2558 1.91058C11.9303 1.58514 11.4027 1.58514 11.0772 1.91058C10.7518 2.23602 10.7518 2.76366 11.0772 3.08909L12.988 4.99984H7.01168L8.92243 3.08909ZM5.00028 6.6665C4.99999 6.6665 4.99969 6.6665 4.99939 6.6665H4.1665C3.70627 6.6665 3.33317 7.0396 3.33317 7.49984C3.33317 7.96007 3.70627 8.33317 4.1665 8.33317H15.8332C16.2934 8.33317 16.6665 7.96007 16.6665 7.49984C16.6665 7.0396 16.2934 6.6665 15.8332 6.6665H15.0003C15 6.6665 14.9997 6.6665 14.9994 6.6665H5.00028ZM8.33317 11.6665C8.79341 11.6665 9.1665 12.0396 9.1665 12.4998V14.1665C9.1665 14.6267 8.79341 14.9998 8.33317 14.9998C7.87293 14.9998 7.49984 14.6267 7.49984 14.1665V12.4998C7.49984 12.0396 7.87293 11.6665 8.33317 11.6665ZM11.6665 11.6665C12.1267 11.6665 12.4998 12.0396 12.4998 12.4998V14.1665C12.4998 14.6267 12.1267 14.9998 11.6665 14.9998C11.2063 14.9998 10.8332 14.6267 10.8332 14.1665V12.4998C10.8332 12.0396 11.2063 11.6665 11.6665 11.6665Z" fill="#FF8B6A"/>
</svg>
