<svg width="20" height="20" viewBox="0 0 20 20" fill="none" xmlns="http://www.w3.org/2000/svg">
<path fill-rule="evenodd" clip-rule="evenodd" d="M4.33317 1.16671C4.49055 0.956869 4.73754 0.833374 4.99984 0.833374H14.9998C15.2621 0.833374 15.5091 0.956869 15.6665 1.16671L18.1665 4.50004C18.2747 4.64429 18.3332 4.81973 18.3332 5.00004V16.6667C18.3332 17.3297 18.0698 17.9656 17.6009 18.4345C17.1321 18.9033 16.4962 19.1667 15.8332 19.1667H4.1665C3.50346 19.1667 2.86758 18.9033 2.39874 18.4345C1.9299 17.9656 1.6665 17.3297 1.6665 16.6667V5.00004C1.6665 4.81973 1.72499 4.64429 1.83317 4.50004L4.33317 1.16671ZM5.4165 2.50004L3.33317 5.27782V16.6667C3.33317 16.8877 3.42097 17.0997 3.57725 17.256C3.73353 17.4122 3.94549 17.5 4.1665 17.5H15.8332C16.0542 17.5 16.2661 17.4122 16.4224 17.256C16.5787 17.0997 16.6665 16.8877 16.6665 16.6667V5.27782L14.5832 2.50004H5.4165Z" fill="#828FA2"/>
<path fill-rule="evenodd" clip-rule="evenodd" d="M1.6665 5.00004C1.6665 4.5398 2.0396 4.16671 2.49984 4.16671H17.4998C17.9601 4.16671 18.3332 4.5398 18.3332 5.00004C18.3332 5.46028 17.9601 5.83337 17.4998 5.83337H2.49984C2.0396 5.83337 1.6665 5.46028 1.6665 5.00004Z" fill="#828FA2"/>
<path fill-rule="evenodd" clip-rule="evenodd" d="M6.6665 7.50004C7.12674 7.50004 7.49984 7.87314 7.49984 8.33337C7.49984 8.99641 7.76323 9.6323 8.23207 10.1011C8.70091 10.57 9.3368 10.8334 9.99984 10.8334C10.6629 10.8334 11.2988 10.57 11.7676 10.1011C12.2364 9.6323 12.4998 8.99641 12.4998 8.33337C12.4998 7.87314 12.8729 7.50004 13.3332 7.50004C13.7934 7.50004 14.1665 7.87314 14.1665 8.33337C14.1665 9.43844 13.7275 10.4983 12.9461 11.2797C12.1647 12.0611 11.1049 12.5 9.99984 12.5C8.89477 12.5 7.83496 12.0611 7.05356 11.2797C6.27216 10.4983 5.83317 9.43844 5.83317 8.33337C5.83317 7.87314 6.20627 7.50004 6.6665 7.50004Z" fill="#828FA2"/>
</svg>
