<svg width="20" height="20" viewBox="0 0 20 20" fill="none" xmlns="http://www.w3.org/2000/svg">
<path fill-rule="evenodd" clip-rule="evenodd" d="M9.62718 0.921473C9.86179 0.80417 10.1379 0.80417 10.3725 0.921473L18.7059 5.08814C18.9882 5.2293 19.1665 5.51785 19.1665 5.8335C19.1665 6.14914 18.9882 6.43769 18.7059 6.57885L10.3725 10.7455C10.1379 10.8628 9.86179 10.8628 9.62718 10.7455L1.29385 6.57885C1.01153 6.43769 0.83319 6.14914 0.83319 5.8335C0.83319 5.51785 1.01153 5.2293 1.29385 5.08814L9.62718 0.921473ZM3.52991 5.8335L9.99986 9.06847L16.4698 5.8335L9.99986 2.59852L3.52991 5.8335Z" fill="#279145"/>
<path fill-rule="evenodd" clip-rule="evenodd" d="M0.921168 13.7941C1.12699 13.3825 1.62755 13.2156 2.0392 13.4215L9.99986 17.4018L17.9605 13.4215C18.3722 13.2156 18.8727 13.3825 19.0785 13.7941C19.2844 14.2058 19.1175 14.7064 18.7059 14.9122L10.3725 19.0788C10.1379 19.1962 9.86179 19.1962 9.62718 19.0788L1.29385 14.9122C0.882197 14.7064 0.715343 14.2058 0.921168 13.7941Z" fill="#279145"/>
<path fill-rule="evenodd" clip-rule="evenodd" d="M0.921168 9.62748C1.12699 9.21583 1.62755 9.04898 2.0392 9.25481L9.99986 13.2351L17.9605 9.25481C18.3722 9.04898 18.8727 9.21583 19.0785 9.62748C19.2844 10.0391 19.1175 10.5397 18.7059 10.7455L10.3725 14.9122C10.1379 15.0295 9.86179 15.0295 9.62718 14.9122L1.29385 10.7455C0.882197 10.5397 0.715343 10.0391 0.921168 9.62748Z" fill="#279145"/>
</svg>
