<svg width="20" height="20" viewBox="0 0 20 20" fill="none" xmlns="http://www.w3.org/2000/svg">
<g clip-path="url(#clip0_44451_38873)">
<path fill-rule="evenodd" clip-rule="evenodd" d="M10 2.50016C5.8579 2.50016 2.50004 5.85803 2.50004 10.0002C2.50004 14.1423 5.8579 17.5002 10 17.5002C14.1422 17.5002 17.5 14.1423 17.5 10.0002C17.5 5.85803 14.1422 2.50016 10 2.50016ZM0.833374 10.0002C0.833374 4.93755 4.93743 0.833496 10 0.833496C15.0626 0.833496 19.1667 4.93755 19.1667 10.0002C19.1667 15.0628 15.0626 19.1668 10 19.1668C4.93743 19.1668 0.833374 15.0628 0.833374 10.0002Z" fill="#2D2D2D"/>
<path fill-rule="evenodd" clip-rule="evenodd" d="M0.833374 10.0002C0.833374 9.53992 1.20647 9.16683 1.66671 9.16683H18.3334C18.7936 9.16683 19.1667 9.53992 19.1667 10.0002C19.1667 10.4604 18.7936 10.8335 18.3334 10.8335H1.66671C1.20647 10.8335 0.833374 10.4604 0.833374 10.0002Z" fill="#2D2D2D"/>
<path fill-rule="evenodd" clip-rule="evenodd" d="M7.50023 10.0002C7.55735 12.5625 8.43858 15.0295 10 17.0412C11.5615 15.0295 12.4427 12.5625 12.4998 10.0002C12.4427 7.43779 11.5615 4.97087 10 2.95916C8.43859 4.97087 7.55735 7.43779 7.50023 10.0002ZM10 1.66683L9.38475 1.10481C7.16412 3.53592 5.90213 6.69087 5.83355 9.98281C5.83331 9.99437 5.83331 10.0059 5.83355 10.0175C5.90213 13.3094 7.16412 16.4644 9.38475 18.8955C9.54263 19.0684 9.76594 19.1668 10 19.1668C10.2341 19.1668 10.4574 19.0684 10.6153 18.8955C12.836 16.4644 14.0979 13.3094 14.1665 10.0175C14.1668 10.0059 14.1668 9.99437 14.1665 9.98281C14.0979 6.69087 12.836 3.53592 10.6153 1.10481L10 1.66683Z" fill="#2D2D2D"/>
</g>
<defs>
<clipPath id="clip0_44451_38873">
<rect width="20" height="20" fill="white"/>
</clipPath>
</defs>
</svg>
