<svg width="32" height="32" viewBox="0 0 32 32" fill="none" xmlns="http://www.w3.org/2000/svg">
<path fill-rule="evenodd" clip-rule="evenodd" d="M14.6667 5.33335C9.51203 5.33335 5.33335 9.51203 5.33335 14.6667C5.33335 19.8213 9.51203 24 14.6667 24C19.8213 24 24 19.8213 24 14.6667C24 9.51203 19.8213 5.33335 14.6667 5.33335ZM2.66669 14.6667C2.66669 8.03927 8.03927 2.66669 14.6667 2.66669C21.2941 2.66669 26.6667 8.03927 26.6667 14.6667C26.6667 21.2941 21.2941 26.6667 14.6667 26.6667C8.03927 26.6667 2.66669 21.2941 2.66669 14.6667Z" fill="#828FA2"/>
<path fill-rule="evenodd" clip-rule="evenodd" d="M21.2572 21.2572C21.7779 20.7365 22.6221 20.7365 23.1428 21.2572L28.9428 27.0572C29.4635 27.5779 29.4635 28.4221 28.9428 28.9428C28.4221 29.4635 27.5779 29.4635 27.0572 28.9428L21.2572 23.1428C20.7365 22.6221 20.7365 21.7779 21.2572 21.2572Z" fill="#828FA2"/>
</svg>
