<svg width="20" height="20" viewBox="0 0 20 20" fill="none" xmlns="http://www.w3.org/2000/svg">
<path fill-rule="evenodd" clip-rule="evenodd" d="M4.1665 4.16683C3.70627 4.16683 3.33317 4.53993 3.33317 5.00016V16.6668C3.33317 17.1271 3.70627 17.5002 4.1665 17.5002H15.8332C16.2934 17.5002 16.6665 17.1271 16.6665 16.6668V5.00016C16.6665 4.53993 16.2934 4.16683 15.8332 4.16683H4.1665ZM1.6665 5.00016C1.6665 3.61945 2.78579 2.50016 4.1665 2.50016H15.8332C17.2139 2.50016 18.3332 3.61945 18.3332 5.00016V16.6668C18.3332 18.0475 17.2139 19.1668 15.8332 19.1668H4.1665C2.78579 19.1668 1.6665 18.0475 1.6665 16.6668V5.00016Z" fill="#2D2D2D"/>
<path fill-rule="evenodd" clip-rule="evenodd" d="M13.3332 0.833496C13.7934 0.833496 14.1665 1.20659 14.1665 1.66683V5.00016C14.1665 5.4604 13.7934 5.8335 13.3332 5.8335C12.8729 5.8335 12.4998 5.4604 12.4998 5.00016V1.66683C12.4998 1.20659 12.8729 0.833496 13.3332 0.833496Z" fill="#2D2D2D"/>
<path fill-rule="evenodd" clip-rule="evenodd" d="M6.6665 0.833496C7.12674 0.833496 7.49984 1.20659 7.49984 1.66683V5.00016C7.49984 5.4604 7.12674 5.8335 6.6665 5.8335C6.20627 5.8335 5.83317 5.4604 5.83317 5.00016V1.66683C5.83317 1.20659 6.20627 0.833496 6.6665 0.833496Z" fill="#2D2D2D"/>
<path fill-rule="evenodd" clip-rule="evenodd" d="M1.6665 8.3335C1.6665 7.87326 2.0396 7.50016 2.49984 7.50016H17.4998C17.9601 7.50016 18.3332 7.87326 18.3332 8.3335C18.3332 8.79373 17.9601 9.16683 17.4998 9.16683H2.49984C2.0396 9.16683 1.6665 8.79373 1.6665 8.3335Z" fill="#2D2D2D"/>
</svg>
