<svg width="298" height="234" viewBox="0 0 298 234" fill="none" xmlns="http://www.w3.org/2000/svg">
<path d="M227.315 77.9242L224.675 77.3481L224.074 74.7133C224.064 74.6682 224.039 74.6278 224.003 74.5989C223.967 74.5701 223.922 74.5543 223.876 74.5543C223.829 74.5546 223.784 74.5705 223.748 74.5992C223.711 74.628 223.686 74.6682 223.674 74.7133L223.073 77.3605L220.434 77.9863C220.388 77.9975 220.348 78.0236 220.319 78.0605C220.29 78.0975 220.275 78.1431 220.275 78.1899C220.275 78.2362 220.291 78.281 220.321 78.3167C220.35 78.3525 220.391 78.377 220.436 78.3861L223.076 78.9622L223.674 81.5971C223.686 81.6422 223.711 81.6823 223.748 81.7111C223.784 81.7399 223.829 81.7557 223.876 81.756C223.922 81.756 223.967 81.7403 224.003 81.7114C224.039 81.6825 224.064 81.6422 224.074 81.5971L224.678 78.9498L227.317 78.324C227.364 78.315 227.406 78.2902 227.436 78.2537C227.466 78.2172 227.482 78.1714 227.482 78.1241C227.482 78.0768 227.466 78.031 227.436 77.9946C227.406 77.9581 227.364 77.9332 227.317 77.9242H227.315ZM73.3484 116.168L70.7086 115.591L70.1076 112.957C70.0975 112.911 70.0723 112.871 70.0361 112.842C70 112.813 69.9552 112.798 69.9089 112.798C69.8625 112.798 69.8175 112.814 69.7811 112.843C69.7446 112.871 69.7188 112.911 69.7078 112.957L69.1068 115.604L66.467 116.23C66.4215 116.241 66.3811 116.267 66.3523 116.304C66.3234 116.341 66.3079 116.386 66.3081 116.433C66.3083 116.48 66.3245 116.524 66.3539 116.56C66.3833 116.596 66.4242 116.62 66.4695 116.629L69.1093 117.206L69.7078 119.84C69.7188 119.885 69.7446 119.926 69.7811 119.954C69.8175 119.983 69.8625 119.999 69.9089 119.999C69.9552 119.999 70 119.984 70.0361 119.955C70.0723 119.926 70.0975 119.886 70.1076 119.84L70.7111 117.193L73.3508 116.567C73.3973 116.558 73.4391 116.533 73.4692 116.497C73.4992 116.461 73.5157 116.415 73.5157 116.367C73.5157 116.32 73.4992 116.274 73.4692 116.238C73.4391 116.201 73.3973 116.177 73.3508 116.168H73.3484ZM213.982 67.3527L212.616 67.0547L212.308 65.6913C212.303 65.6675 212.29 65.6463 212.271 65.631C212.252 65.6157 212.228 65.6074 212.204 65.6074C212.18 65.6074 212.156 65.6157 212.137 65.631C212.118 65.6463 212.105 65.6675 212.1 65.6913L211.789 67.0621L210.423 67.3849C210.4 67.3905 210.379 67.4039 210.364 67.4228C210.349 67.4418 210.341 67.4652 210.341 67.4892C210.342 67.5134 210.35 67.5367 210.365 67.5552C210.381 67.5738 210.402 67.5865 210.426 67.5911L211.792 67.8891L212.1 69.2524C212.105 69.2762 212.118 69.2975 212.137 69.3127C212.156 69.328 212.18 69.3363 212.204 69.3363C212.228 69.3363 212.252 69.328 212.271 69.3127C212.29 69.2975 212.303 69.2762 212.308 69.2524L212.619 67.8816L213.984 67.5588C214.008 67.5528 214.028 67.5393 214.043 67.5205C214.058 67.5016 214.066 67.4784 214.066 67.4545C214.066 67.4304 214.058 67.407 214.042 67.3885C214.027 67.3699 214.006 67.3573 213.982 67.3527Z" fill="#4F3CC9"/>
<path d="M71.5234 42.6836L71.6923 38.3874C71.7122 37.8994 71.8479 37.4231 72.0882 36.9979C72.3286 36.5726 72.6666 36.2107 73.0744 35.9419C73.4822 35.6731 73.9481 35.5051 74.4337 35.4519C74.9192 35.3987 75.4104 35.4618 75.8668 35.6359C76.3235 35.8103 76.7322 36.0911 77.0588 36.455C77.3854 36.8188 77.6206 37.2553 77.7449 37.7281C77.8691 38.201 77.8789 38.6967 77.7735 39.1741C77.668 39.6515 77.4502 40.0969 77.1383 40.4734L74.4066 43.7862L71.5234 42.6836ZM70.3538 45.7654L67.6221 49.0782C67.3107 49.4546 67.0934 49.8999 66.9882 50.377C66.883 50.8541 66.8929 51.3494 67.0172 51.822C67.1414 52.2945 67.3764 52.7306 67.7027 53.0943C68.029 53.4579 68.4372 53.7387 68.8936 53.9132C69.3499 54.0879 69.8413 54.1514 70.3271 54.0985C70.8128 54.0455 71.279 53.8776 71.6869 53.6087C72.0949 53.3398 72.433 52.9776 72.6732 52.5521C72.9133 52.1266 73.0487 51.6499 73.0681 51.1617L73.2394 46.8655L70.3538 45.7654Z" fill="#FF8B6A"/>
<path d="M68.6274 43.3817L69.9684 46.2251C70.2288 46.7761 70.6973 47.2013 71.271 47.4071C71.8447 47.6129 72.4766 47.5825 73.0279 47.3227L75.7745 46.0289L74.436 43.1855C74.1755 42.6345 73.7072 42.2092 73.1336 42.003C72.5601 41.7967 71.9282 41.8264 71.3765 42.0854L68.6274 43.3817Z" fill="#4F3CC9"/>
<path d="M67.7584 45.0949C68.9118 45.0949 69.8469 44.1599 69.8469 43.0065C69.8469 41.853 68.9118 40.918 67.7584 40.918C66.605 40.918 65.6699 41.853 65.6699 43.0065C65.6699 44.1599 66.605 45.0949 67.7584 45.0949Z" fill="#4F3CC9"/>
<path d="M64.6255 41.0889L65.6128 39.9729L67.0207 41.2186L66.0334 42.3345L64.6255 41.0889Z" fill="#4F3CC9"/>
<path d="M64.1274 43.8301L64.1373 42.3401L66.0172 42.3526L66.0073 43.8425L64.1274 43.8301Z" fill="#4F3CC9"/>
<path d="M112.774 136.389L111.316 136.089C111.455 135.416 111.587 134.735 111.713 134.065L113.176 134.336C113.052 135.018 112.915 135.709 112.774 136.389ZM113.797 130.635L112.324 130.429C112.508 129.188 112.664 127.961 112.794 126.766L114.284 126.923C114.145 128.13 113.988 129.381 113.797 130.638V130.635ZM114.587 123.166L113.097 123.076C113.171 121.834 113.213 120.593 113.221 119.393H114.711C114.703 120.628 114.661 121.894 114.587 123.168V123.166ZM113.136 115.716C113.067 114.474 112.957 113.232 112.808 112.06L114.298 111.876C114.45 113.088 114.564 114.36 114.634 115.634L113.136 115.716ZM112.21 108.449C111.962 107.235 111.651 106.045 111.304 104.913L112.727 104.476C113.089 105.651 113.407 106.885 113.67 108.146L112.21 108.449ZM98.5517 101.993C98.1121 101.993 97.6651 101.975 97.2206 101.943L97.3323 100.453C97.7396 100.485 98.1643 100.495 98.5517 100.5C99.3276 100.501 100.102 100.44 100.869 100.319L101.117 101.789C100.272 101.923 99.4173 101.988 98.5616 101.985L98.5517 101.993ZM110.04 101.496C109.561 100.387 109.016 99.3093 108.406 98.2676L109.692 97.5226C110.333 98.6214 110.906 99.7584 111.408 100.927L110.04 101.496ZM93.3764 101.054C92.1336 100.517 91.0214 99.7184 90.1158 98.7122L91.2283 97.7188C91.992 98.5658 92.9298 99.2375 93.9774 99.6881L93.3764 101.054ZM104.874 100.649L104.248 99.2982C105.31 98.8108 106.292 98.1643 107.159 97.3811L108.165 98.4812C107.181 99.3681 106.067 100.099 104.862 100.649H104.874ZM106.397 95.2678C105.653 94.32 104.839 93.4301 103.96 92.6056L104.979 91.5179C105.908 92.394 106.77 93.3396 107.556 94.3465L106.397 95.2678ZM110.452 95.2678L109.141 94.56C109.716 93.4996 110.214 92.3991 110.631 91.2671L112.029 91.7837C111.583 92.9783 111.052 94.1394 110.439 95.2578L110.452 95.2678ZM88.1937 95.1908C88.065 94.7449 87.9655 94.2912 87.8957 93.8324C87.844 93.5038 87.8183 93.1717 87.8187 92.8391C87.8187 92.2508 87.9023 91.6655 88.067 91.1007L89.4974 91.5155C89.3748 91.9434 89.3129 92.3865 89.3137 92.8316C89.3137 93.0877 89.3336 93.3435 89.3733 93.5965C89.4316 93.9928 89.5145 94.3851 89.6216 94.7711L88.1937 95.1908ZM101.139 90.388C100.239 89.7762 99.2706 89.2712 98.2537 88.8831L98.0227 88.8186L98.4151 87.3807L98.6808 87.4552C99.8387 87.8784 100.939 88.4449 101.956 89.1414L101.139 90.388ZM91.3674 89.052L90.5901 87.783C91.7771 87.0949 93.1323 86.7509 94.5038 86.7897H94.5535L94.5411 88.2797H94.5038C93.4038 88.2371 92.3137 88.5011 91.355 89.0421L91.3674 89.052ZM113.064 88.0785L111.599 87.8029C111.822 86.6262 111.938 85.4319 111.947 84.2343H113.437C113.424 85.5214 113.295 86.8046 113.052 88.0686L113.064 88.0785ZM111.649 80.6683C111.44 79.4871 111.137 78.3245 110.742 77.1916L112.15 76.6949C112.572 77.9044 112.895 79.146 113.116 80.4075L111.649 80.6683ZM109.319 73.8664C108.765 72.7865 108.149 71.7393 107.474 70.73L108.716 69.9055C109.422 70.9619 110.066 72.0581 110.646 73.1885L109.319 73.8664ZM105.296 67.7798C104.551 66.8609 103.737 65.9346 102.873 65.0233L103.953 63.9976C104.844 64.9363 105.691 65.8924 106.454 66.8411L105.296 67.7798ZM100.25 62.4431C99.3736 61.6335 98.4374 60.8165 97.4689 60.0169L98.4201 58.8671C99.4134 59.6841 100.365 60.5185 101.261 61.3504L100.25 62.4431ZM94.5634 57.7247C93.5999 57.0046 92.5768 56.2819 91.5536 55.5767L92.393 54.335C93.4435 55.0527 94.474 55.7902 95.455 56.5228L94.5634 57.7247ZM88.4544 53.5503C87.4189 52.9021 86.3486 52.2589 85.2783 51.6406L86.0233 50.3492C87.1085 50.9775 88.1937 51.6282 89.2516 52.2887L88.4544 53.5503ZM82.0325 49.8501C80.0111 48.7847 78.7297 48.2086 78.7173 48.2012L79.3282 46.8428C79.3828 46.8676 80.6593 47.4437 82.7279 48.5314L82.0325 49.8501Z" fill="#4F3CC9"/>
<path d="M186.725 87.813L180.715 85.7915L180.122 68.7037C187.468 63.1286 183.35 59.133 183.35 59.133L183.037 51.3154H153.722C148.258 83.1741 162.15 80.1221 162.15 80.1221L161.797 86.76L154.422 90.0554L154.715 102.864H187.743L186.725 87.813Z" fill="white"/>
<path d="M188.54 103.61H153.987L153.667 89.584L161.077 86.2712L161.36 80.9519C160.354 80.9687 159.354 80.7849 158.42 80.4114C157.485 80.038 156.634 79.4822 155.917 78.7765C151.551 74.607 150.565 65.3243 152.987 51.1867L153.093 50.5684H183.77L184.1 58.8354C184.92 59.8536 185.33 61.1413 185.25 62.4461C185.113 64.6662 183.648 66.8888 180.892 69.0568L181.455 85.2481L187.445 87.2646L188.54 103.61ZM155.443 102.12H186.946L186.005 88.3597L179.98 86.3333L179.365 68.3465L179.672 68.1131C182.228 66.1711 183.646 64.182 183.75 62.3617C183.813 61.3789 183.485 60.411 182.836 59.6698L182.623 59.4637L182.325 52.0633H154.35C151.618 68.57 154.238 75.1186 156.945 77.7037C159.309 79.9586 161.964 79.4098 161.989 79.4023L162.945 79.1937L162.518 87.2621L155.179 90.5426L155.443 102.12Z" fill="#4F3CC9"/>
<path d="M170.412 53.0294C170.412 53.0294 164.139 57.0896 153.438 53.0294L152.919 56.7693C152.919 56.7693 148.201 53.4093 149.467 47.191C149.467 47.191 150.103 43.255 156.704 42.4926C156.704 42.4926 159.495 36.7809 165.589 39.1922C165.589 39.1922 170.159 36.401 174.601 40.5903C174.601 40.5903 178.535 40.4637 179.171 43.6349C179.171 43.6349 185.642 42.875 187.42 48.8499C187.42 48.8499 188.436 56.4712 182.977 59.7766C182.977 59.7766 179.041 57.2311 177.266 62.5629L174.981 63.1986L174.472 59.6449C174.472 59.6449 171.045 58.6144 170.412 53.0294Z" fill="#4F3CC9"/>
<path d="M155.244 66.4715C154.33 66.4715 153.436 66.2004 152.676 65.6926C151.916 65.1848 151.324 64.463 150.974 63.6186C150.625 62.7741 150.533 61.8449 150.711 60.9484C150.89 60.0519 151.33 59.2284 151.976 58.5821C152.622 57.9358 153.446 57.4956 154.342 57.3173C155.239 57.139 156.168 57.2305 157.013 57.5803C157.857 57.9301 158.579 58.5224 159.087 59.2824C159.594 60.0424 159.866 60.936 159.866 61.85C159.864 63.0753 159.377 64.25 158.51 65.1164C157.644 65.9828 156.469 66.4702 155.244 66.4715ZM155.244 58.2219C154.526 58.2219 153.825 58.4346 153.228 58.8333C152.632 59.232 152.167 59.7986 151.892 60.4616C151.617 61.1245 151.546 61.854 151.686 62.5578C151.826 63.2616 152.171 63.9081 152.679 64.4155C153.186 64.9229 153.832 65.2684 154.536 65.4084C155.24 65.5484 155.97 65.4766 156.632 65.202C157.295 64.9274 157.862 64.4623 158.261 63.8657C158.659 63.269 158.872 62.5676 158.872 61.85C158.872 60.888 158.489 59.9655 157.809 59.2852C157.129 58.605 156.206 58.2225 155.244 58.2219ZM165.145 66.4715C164.231 66.4715 163.338 66.2004 162.578 65.6926C161.818 65.1848 161.225 64.463 160.875 63.6186C160.526 62.7741 160.434 61.8449 160.612 60.9484C160.791 60.0519 161.231 59.2284 161.877 58.5821C162.524 57.9358 163.347 57.4956 164.243 57.3173C165.14 57.139 166.069 57.2305 166.914 57.5803C167.758 57.9301 168.48 58.5224 168.988 59.2824C169.496 60.0424 169.767 60.936 169.767 61.85C169.765 63.0753 169.278 64.25 168.412 65.1164C167.545 65.9828 166.37 66.4702 165.145 66.4715ZM165.145 58.2219C164.428 58.2219 163.726 58.4346 163.129 58.8333C162.533 59.232 162.068 59.7986 161.793 60.4616C161.519 61.1245 161.447 61.854 161.587 62.5578C161.727 63.2616 162.072 63.9081 162.58 64.4155C163.087 64.9229 163.733 65.2684 164.437 65.4084C165.141 65.5484 165.871 65.4766 166.534 65.202C167.196 64.9274 167.763 64.4623 168.162 63.8657C168.56 63.269 168.773 62.5676 168.773 61.85C168.773 60.888 168.39 59.9655 167.71 59.2852C167.03 58.605 166.107 58.2225 165.145 58.2219Z" fill="#4F3CC9"/>
<path d="M155.306 63.563C155.937 63.563 156.448 63.0515 156.448 62.4207C156.448 61.7898 155.937 61.2783 155.306 61.2783C154.675 61.2783 154.164 61.7898 154.164 62.4207C154.164 63.0515 154.675 63.563 155.306 63.563Z" fill="#4F3CC9"/>
<path d="M165.145 63.6284C165.776 63.6284 166.287 63.117 166.287 62.4861C166.287 61.8552 165.776 61.3438 165.145 61.3438C164.514 61.3438 164.002 61.8552 164.002 62.4861C164.002 63.117 164.514 63.6284 165.145 63.6284Z" fill="#4F3CC9"/>
<path d="M169.197 60.8555L174.811 60.0314L174.955 61.0142L169.341 61.8383L169.197 60.8555Z" fill="#4F3CC9"/>
<path d="M161.604 69.5162L157.305 69.0717L159.972 61.0952L160.916 61.4106L158.641 68.21L161.705 68.5278L161.604 69.5162ZM158.994 57.7353C158.974 57.7179 156.982 56.1633 153.076 56.6525L152.952 55.6592C157.31 55.1153 159.528 56.881 159.619 56.9555L158.991 57.7253L159.304 57.3404L158.994 57.7353ZM162.031 57.6086L161.286 56.9629C161.316 56.9282 164.216 53.6303 168.969 56.6153L168.44 57.4571C164.425 54.9365 162.125 57.4994 162.031 57.6086ZM158.318 73.8099C158.213 73.7064 158.132 73.5808 158.081 73.4422C158.03 73.3035 158.011 73.1553 158.025 73.0083C158.039 72.8613 158.085 72.7192 158.161 72.5924C158.236 72.4656 158.339 72.3572 158.462 72.2752C158.837 72.0198 159.278 71.8768 159.731 71.8629C160.913 71.8282 162.478 72.5881 163.208 72.9804C163.256 73.0062 163.298 73.0432 163.329 73.0884C163.36 73.1335 163.379 73.1855 163.386 73.2399C163.392 73.2942 163.386 73.3494 163.366 73.4006C163.347 73.4519 163.316 73.4977 163.275 73.5342C162.455 74.2544 159.96 75.5184 158.318 73.8099Z" fill="#4F3CC9"/>
<path d="M157.198 88.7093C157.198 88.7093 158.192 100.629 171.602 100.133C171.602 100.133 182.652 99.0151 185.881 87.5918C185.881 87.5918 200.647 91.282 212.661 97.699C214.881 98.8865 216.833 100.52 218.393 102.496C219.954 104.472 221.09 106.749 221.73 109.184L232.195 144.584L205.623 144.833L202.519 139.245L207.237 202.57H138.946L137.207 150.668L115.354 147.937L127.818 108.948C128.738 106.064 130.263 103.409 132.291 101.16C134.32 98.9122 136.804 97.1225 139.579 95.911L157.198 88.7093Z" fill="#FF8B6A"/>
<path d="M208.039 203.315H138.225L136.487 151.329L114.371 148.558L127.108 108.703C128.061 105.719 129.64 102.973 131.738 100.648C133.836 98.3219 136.406 96.4702 139.276 95.2158L157.851 87.6292L157.936 88.6399C157.978 89.1142 159.066 99.8323 171.542 99.3828C172.212 99.3083 182.151 98.0244 185.158 87.3809L185.354 86.6855L186.057 86.8619C186.206 86.8991 201.049 90.6489 213.006 97.0435C215.314 98.2831 217.342 99.9837 218.966 102.04C220.589 104.096 221.772 106.463 222.443 108.996L233.188 145.329L205.186 145.578L203.515 142.566L208.039 203.315ZM139.666 201.825H206.435L201.523 135.92L206.06 144.088L231.202 143.839L221.02 109.396C220.403 107.057 219.312 104.87 217.814 102.971C216.317 101.072 214.444 99.5016 212.313 98.3572C201.978 92.8368 189.429 89.3079 186.39 88.4934C185.025 92.9158 181.969 96.6205 177.887 98.8017C175.96 99.8627 173.856 100.564 171.678 100.873H171.631C171.351 100.873 171.078 100.888 170.807 100.888C164.072 100.888 160.541 97.7264 158.753 95.0122C157.709 93.411 156.982 91.6248 156.61 89.75L139.865 96.5891C137.191 97.759 134.797 99.4853 132.843 101.653C130.888 103.82 129.418 106.38 128.531 109.16L116.337 147.316L137.93 150.016L139.666 201.825Z" fill="#4F3CC9"/>
<path d="M95.6113 128.939H189.481V202.446H95.6113V128.939Z" fill="#5564D7"/>
<path d="M190.227 203.191H94.8667V128.194H190.227V203.191ZM96.3567 201.701H188.737V129.684H96.3567V201.701Z" fill="#4F3CC9"/>
<path d="M74.3789 148.682H130.999L153.846 129.063H95.4872L74.3789 148.682Z" fill="white"/>
<path d="M131.275 149.428H72.4844L95.1945 128.319H155.857L131.275 149.428ZM76.2739 147.938H130.724L151.832 129.809H95.7805L76.2739 147.938Z" fill="#4F3CC9"/>
<path d="M153.473 128.939H189.481V202.446H153.473V128.939Z" fill="#4F3CC9"/>
<path d="M204.754 148.682H165.517L153.597 129.063H189.606L204.754 148.682Z" fill="white"/>
<path d="M206.272 149.428H165.098L152.274 128.319H189.978L206.272 149.428ZM165.937 147.938H203.237L189.233 129.809H154.921L165.937 147.938Z" fill="#4F3CC9"/>
<path d="M95.6117 174.137C95.6117 174.137 88.7801 178.279 89.1029 185.808C89.1692 187.342 89.6724 188.825 90.5532 190.082C92.2592 192.513 96.1233 196.315 103.807 196.983C103.807 196.983 107.283 197.48 106.29 194.997C106.29 194.997 108.773 193.755 107.78 191.52C107.78 191.52 110.015 189.533 108.773 187.795C108.773 187.795 110.512 185.312 109.022 184.318C107.532 183.325 100.827 182.083 100.827 182.083C100.827 182.083 105.793 181.09 105.048 178.855C104.303 176.62 95.6117 176.95 95.6117 176.95V174.137Z" fill="white"/>
<path d="M104.485 197.772C104.23 197.774 103.975 197.757 103.722 197.723C95.6563 197.015 91.6284 192.898 89.9447 190.504C88.9802 189.131 88.4302 187.511 88.3603 185.835C88.0201 177.958 94.9312 173.667 95.2267 173.498L96.3566 172.812V176.185C99.0883 176.135 104.984 176.307 105.756 178.619C105.855 178.904 105.889 179.207 105.858 179.508C105.827 179.808 105.73 180.098 105.575 180.357C105.192 181.017 104.46 181.524 103.687 181.902C105.793 182.368 108.475 183.054 109.434 183.692C109.667 183.844 109.866 184.042 110.02 184.274C110.174 184.506 110.279 184.767 110.328 185.04C110.522 186.069 109.99 187.203 109.642 187.804C110.33 189.267 109.454 190.817 108.649 191.708C109.128 193.387 108.105 194.658 107.174 195.326C107.241 195.596 107.246 195.877 107.191 196.149C107.135 196.421 107.019 196.677 106.851 196.898C106.275 197.628 105.227 197.772 104.485 197.772ZM94.8666 175.609C93.029 177.119 89.6268 180.633 89.8478 185.771C89.907 187.162 90.3628 188.507 91.1615 189.647C92.6987 191.83 96.3914 195.59 103.871 196.24H103.911C104.574 196.332 105.463 196.24 105.674 195.977C105.761 195.868 105.731 195.602 105.597 195.267L105.349 194.631L105.962 194.326C106.148 194.229 107.78 193.332 107.105 191.817L106.883 191.321L107.291 190.961C107.306 190.946 109.007 189.394 108.172 188.229L107.862 187.794L108.162 187.362C108.493 186.886 108.977 185.907 108.863 185.314C108.851 185.236 108.823 185.162 108.78 185.096C108.737 185.031 108.681 184.975 108.614 184.934C107.621 184.271 103.231 183.28 100.695 182.81L96.893 182.105L100.685 181.348C101.822 181.119 103.809 180.444 104.293 179.609C104.343 179.532 104.373 179.445 104.382 179.354C104.391 179.263 104.379 179.171 104.346 179.085C104.013 178.08 99.4906 177.543 95.6539 177.69L94.8815 177.72L94.8666 175.609Z" fill="#4F3CC9"/>
<path d="M231.303 144.406L206.368 144.655L209.296 152.917L171.427 192.002C171.427 192.002 162.736 186.206 157.58 185.793C157.324 185.774 157.067 185.807 156.824 185.891C156.582 185.975 156.358 186.107 156.169 186.28C155.979 186.453 155.827 186.663 155.721 186.897C155.615 187.131 155.558 187.384 155.554 187.641C155.537 189.022 156.177 191.043 159.212 193.067C159.212 193.067 154.494 196.683 151.144 198.53C150.549 198.848 150.072 199.35 149.786 199.961C149.5 200.572 149.42 201.26 149.557 201.92C149.872 203.289 151.129 204.652 154.901 204.622C154.901 204.622 154.901 208.513 159.93 207.436C159.93 207.436 161.368 211.029 165.679 209.231C165.679 209.231 166.883 211.623 172.505 208.156L229.763 168.45C231.713 167.098 233.2 165.179 234.021 162.953C234.843 160.727 234.959 158.303 234.355 156.008L231.303 144.406Z" fill="white"/>
<path d="M167.521 210.793C167.172 210.796 166.825 210.751 166.488 210.659C166.112 210.557 165.763 210.374 165.465 210.123C164.06 210.619 162.786 210.619 161.668 210.147C160.78 209.762 160.033 209.109 159.532 208.28C157.836 208.548 156.493 208.28 155.532 207.513C154.875 206.964 154.423 206.208 154.25 205.37C150.381 205.228 149.162 203.537 148.832 202.099C148.659 201.281 148.756 200.429 149.108 199.671C149.46 198.913 150.048 198.289 150.784 197.892C153.225 196.541 156.468 194.195 157.953 193.092C155.348 191.066 154.792 189.039 154.809 187.644C154.815 187.285 154.893 186.931 155.041 186.604C155.188 186.277 155.401 185.984 155.666 185.742C155.931 185.5 156.242 185.315 156.581 185.199C156.921 185.082 157.28 185.036 157.638 185.063C162.247 185.421 169.334 189.782 171.318 191.043L208.439 152.73L205.318 143.919L231.874 143.656L235.075 155.825C235.714 158.267 235.587 160.847 234.714 163.216C233.84 165.584 232.26 167.628 230.188 169.071L172.913 208.804H172.895C170.747 210.128 168.944 210.793 167.521 210.793ZM166.339 208.903C166.647 209.343 168.237 209.924 172.096 207.547L229.339 167.839C231.159 166.57 232.547 164.774 233.315 162.693C234.083 160.611 234.195 158.344 233.635 156.197L230.73 145.156L207.419 145.39L210.15 153.103L171.529 192.965L171.013 192.62C170.928 192.565 162.423 186.931 157.523 186.548C157.368 186.536 157.212 186.556 157.065 186.607C156.918 186.658 156.784 186.738 156.669 186.844C156.554 186.947 156.462 187.073 156.398 187.214C156.335 187.354 156.301 187.507 156.299 187.661C156.277 189.335 157.427 190.994 159.627 192.459L160.494 193.037L159.664 193.671C159.47 193.82 154.854 197.343 151.504 199.196C151.05 199.435 150.686 199.815 150.467 200.278C150.247 200.742 150.183 201.264 150.285 201.766C150.612 203.197 152.167 203.912 154.896 203.889H155.641V204.634C155.657 204.965 155.739 205.289 155.883 205.588C156.026 205.886 156.228 206.153 156.475 206.373C157.173 206.929 158.281 207.048 159.771 206.73L160.384 206.599L160.618 207.182C160.954 207.898 161.535 208.469 162.257 208.792C163.121 209.149 164.174 209.072 165.388 208.568L166.088 208.275L166.339 208.903Z" fill="#4F3CC9"/>
<path d="M161.735 123.16L167.694 110.247L169.046 110.871L163.088 123.784L161.735 123.16Z" fill="#4F3CC9"/>
<path d="M148.755 104.106H150.245V123.476H148.755V104.106Z" fill="#4F3CC9"/>
<path d="M130.682 110.816L132.074 110.283L136.544 121.955L135.153 122.488L130.682 110.816Z" fill="#4F3CC9"/>
</svg>
