<svg width="20" height="20" viewBox="0 0 20 20" fill="none" xmlns="http://www.w3.org/2000/svg">
<path fill-rule="evenodd" clip-rule="evenodd" d="M3.3335 3.33329C3.11248 3.33329 2.90052 3.42109 2.74424 3.57737C2.58796 3.73365 2.50016 3.94561 2.50016 4.16663V15.8333C2.50016 16.0543 2.58796 16.2663 2.74424 16.4225C2.90052 16.5788 3.11248 16.6666 3.3335 16.6666H16.6668C16.8878 16.6666 17.0998 16.5788 17.2561 16.4225C17.4124 16.2663 17.5002 16.0543 17.5002 15.8333V6.66663C17.5002 6.44561 17.4124 6.23365 17.2561 6.07737C17.0998 5.92109 16.8878 5.83329 16.6668 5.83329H9.16683C8.8882 5.83329 8.62801 5.69404 8.47345 5.46221L7.05418 3.33329H3.3335ZM1.56573 2.39886C2.03457 1.93002 2.67045 1.66663 3.3335 1.66663H7.50016C7.77879 1.66663 8.03898 1.80588 8.19354 2.03771L9.61281 4.16663H16.6668C17.3299 4.16663 17.9658 4.43002 18.4346 4.89886C18.9034 5.3677 19.1668 6.00358 19.1668 6.66663V15.8333C19.1668 16.4963 18.9034 17.1322 18.4346 17.6011C17.9658 18.0699 17.3299 18.3333 16.6668 18.3333H3.3335C2.67045 18.3333 2.03457 18.0699 1.56573 17.6011C1.09689 17.1322 0.833496 16.4963 0.833496 15.8333V4.16663C0.833496 3.50358 1.09689 2.8677 1.56573 2.39886Z" fill="#FF8B6A"/>
<path d="M2.74424 3.57737C2.90052 3.42109 3.11248 3.33329 3.3335 3.33329H7.05418L8.47345 5.46221C8.62801 5.69404 8.8882 5.83329 9.16683 5.83329H16.6668C16.8878 5.83329 17.0998 5.92109 17.2561 6.07737C17.4124 6.23365 17.5002 6.44561 17.5002 6.66663V15.8333C17.5002 16.0543 17.4124 16.2663 17.2561 16.4225C17.0998 16.5788 16.8878 16.6666 16.6668 16.6666H3.3335C3.11248 16.6666 2.90052 16.5788 2.74424 16.4225C2.58796 16.2663 2.50016 16.0543 2.50016 15.8333V4.16663C2.50016 3.94561 2.58796 3.73365 2.74424 3.57737Z" fill="#FF8B6A"/>
</svg>
