<svg width="20" height="20" viewBox="0 0 20 20" fill="none" xmlns="http://www.w3.org/2000/svg">
<path fill-rule="evenodd" clip-rule="evenodd" d="M4.95951 10C4.70203 10 4.50618 10.2312 4.54851 10.4852L5.34665 15.274C5.48059 16.0777 6.1759 16.6667 6.99064 16.6667H13.0098C13.8245 16.6667 14.5198 16.0777 14.6538 15.274L15.4519 10.4852C15.4942 10.2312 15.2984 10 15.0409 10H4.95951ZM3.48393 8.33337C2.96898 8.33337 2.57728 8.79576 2.66194 9.30371L3.70266 15.548C3.97054 17.1553 5.36117 18.3334 6.99064 18.3334H13.0098C14.6393 18.3334 16.0299 17.1553 16.2978 15.548L17.3385 9.30371C17.4231 8.79576 17.0314 8.33337 16.5165 8.33337H3.48393Z" fill="#828FA2"/>
<path d="M8.33333 11.6666C7.8731 11.6666 7.5 12.0397 7.5 12.5V14.1666C7.5 14.6269 7.8731 15 8.33333 15C8.79357 15 9.16667 14.6269 9.16667 14.1666V12.5C9.16667 12.0397 8.79357 11.6666 8.33333 11.6666Z" fill="#828FA2"/>
<path d="M11.6667 11.6666C11.2064 11.6666 10.8333 12.0397 10.8333 12.5V14.1666C10.8333 14.6269 11.2064 15 11.6667 15C12.1269 15 12.5 14.6269 12.5 14.1666V12.5C12.5 12.0397 12.1269 11.6666 11.6667 11.6666Z" fill="#828FA2"/>
<path d="M8.92243 3.08921C9.24786 2.76378 9.24786 2.23614 8.92243 1.9107C8.59699 1.58527 8.06935 1.58527 7.74392 1.9107L4.41058 5.24404C4.08514 5.56947 4.08514 6.09711 4.41058 6.42255C4.73602 6.74798 5.26366 6.74798 5.58909 6.42255L8.92243 3.08921Z" fill="#828FA2"/>
<path d="M11.0772 3.08921C10.7518 2.76378 10.7518 2.23614 11.0772 1.9107C11.4027 1.58527 11.9303 1.58527 12.2558 1.9107L15.5891 5.24404C15.9145 5.56947 15.9145 6.09711 15.5891 6.42255C15.2637 6.74798 14.736 6.74798 14.4106 6.42255L11.0772 3.08921Z" fill="#828FA2"/>
<path fill-rule="evenodd" clip-rule="evenodd" d="M15.8332 6.66667H4.1665C3.70627 6.66667 3.33317 7.03976 3.33317 7.5C3.33317 7.96024 3.70627 8.33333 4.1665 8.33333H15.8332C16.2934 8.33333 16.6665 7.96024 16.6665 7.5C16.6665 7.03976 16.2934 6.66667 15.8332 6.66667ZM4.1665 5C2.78579 5 1.6665 6.11929 1.6665 7.5C1.6665 8.88071 2.78579 10 4.1665 10H15.8332C17.2139 10 18.3332 8.88071 18.3332 7.5C18.3332 6.11929 17.2139 5 15.8332 5H4.1665Z" fill="#828FA2"/>
</svg>
