<svg width="524" height="24" viewBox="0 0 524 24" fill="none" xmlns="http://www.w3.org/2000/svg">
<path fill-rule="evenodd" clip-rule="evenodd" d="M5 4C4.44772 4 4 4.44772 4 5V19C4 19.5523 4.44772 20 5 20H19C19.5523 20 20 19.5523 20 19V5C20 4.44772 19.5523 4 19 4H5ZM2 5C2 3.34315 3.34315 2 5 2H19C20.6569 2 22 3.34315 22 5V19C22 20.6569 20.6569 22 19 22H5C3.34315 22 2 20.6569 2 19V5Z" fill="#2D2D2D"/>
<path d="M4 5C4 4.44772 4.44772 4 5 4H19C19.5523 4 20 4.44772 20 5V19C20 19.5523 19.5523 20 19 20H5C4.44772 20 4 19.5523 4 19V5Z" fill="#2D2D2D"/>
<path fill-rule="evenodd" clip-rule="evenodd" d="M33 4C32.4477 4 32 4.44772 32 5V19C32 19.5523 32.4477 20 33 20H47C47.5523 20 48 19.5523 48 19V5C48 4.44772 47.5523 4 47 4H33ZM30 5C30 3.34315 31.3431 2 33 2H47C48.6569 2 50 3.34315 50 5V19C50 20.6569 48.6569 22 47 22H33C31.3431 22 30 20.6569 30 19V5Z" fill="#BAC1C1"/>
<path d="M32 5C32 4.44772 32.4477 4 33 4H47C47.5523 4 48 4.44772 48 5V19C48 19.5523 47.5523 20 47 20H33C32.4477 20 32 19.5523 32 19V5Z" fill="#BAC1C1"/>
</svg>
