<svg width="342" height="342" viewBox="0 0 342 342" fill="none" xmlns="http://www.w3.org/2000/svg">
<path d="M142.143 222.515C131.27 221.566 121.402 215.572 112.991 208.452C106.787 203.198 101.08 197.182 97.1064 190.018C93.1326 182.854 90.9801 174.432 92.1281 166.275C93.0994 159.365 96.3558 152.83 96.411 145.854C96.4551 140.323 94.4572 134.925 94.5013 129.384C94.5676 122.044 98.3427 115.034 103.785 110.255C109.227 105.475 116.192 102.782 123.267 101.6C137.264 99.2713 151.625 102.605 164.916 107.694C178.206 112.782 190.801 119.604 204.102 124.66C212.69 127.927 221.565 130.455 229.799 134.561C238.034 138.668 245.772 144.584 250.077 152.863C256.546 165.303 253.907 181.408 245.54 192.59C237.173 203.772 223.949 210.384 210.416 212.846C203.561 214.093 196.574 214.358 189.62 214.027C183.846 213.751 177.643 211.93 171.892 212.316C166.814 212.647 163.878 216.246 159.661 218.696C154.396 221.732 148.148 223.045 142.143 222.515Z" fill="#FFEDDC"/>
<path d="M100.638 218.94C100.318 218.774 99.987 218.597 99.678 218.421C97.967 217.438 96.3333 216.368 94.8983 215.231C93.1874 213.84 91.6089 212.283 90.2291 210.561C89.3129 209.435 88.3304 207.824 87.7013 206.301C87.2708 205.296 86.7851 203.695 86.4981 202.426C86.3325 201.731 86.1779 201.013 86.0565 200.296C86.4208 200.307 86.7851 200.307 87.1383 200.307C88.496 200.307 89.8317 199.998 91.1011 199.545C92.1166 199.203 93.0659 198.684 93.938 198.055C94.5561 197.624 95.1412 197.15 95.6379 196.587C96.9294 195.163 97.6138 193.341 98.0774 191.509C98.3754 190.416 98.4085 189.257 98.1878 188.142C98.0111 186.906 97.4482 185.725 96.3112 185.129C95.2295 184.544 93.4744 184.411 92.2712 184.654C91.2777 184.886 90.3505 185.361 89.5116 185.935C88.7389 186.498 88.1318 187.248 87.6461 188.076C86.9396 189.301 86.476 190.637 86.0786 191.984C85.615 193.507 85.3059 195.085 85.2949 196.675C85.2838 197.735 85.3721 198.783 85.5267 199.832C82.9326 199.688 81.2327 198.894 78.8484 197.415C75.4596 195.317 73.263 192.613 71.2981 189.103C70.4151 187.535 69.5541 185.957 68.8255 184.312C67.7438 181.895 66.7945 178.991 66.2536 176.21C65.9555 174.653 65.812 173.351 65.7016 171.75C65.5581 170.348 65.514 168.946 65.4809 167.545C65.3705 165.017 65.4367 162.478 65.6906 159.95C66.5295 151.473 69.6865 143.105 74.1571 135.721C75.5479 133.425 77.0712 131.195 78.6718 129.23C79.7094 127.994 80.6918 126.614 82.0275 125.676C81.1996 126.073 80.4932 126.658 79.8419 127.298C78.7932 128.303 77.9102 129.451 77.0381 130.61C74.7421 133.69 72.7773 137.001 71.0663 140.423C68.2295 146.207 66.1984 152.367 65.4036 158.714C64.951 162.136 64.929 165.591 65.0945 169.024C65.1166 170.238 65.2491 171.452 65.3484 172.666C65.4478 174.057 65.6575 175.437 65.9335 176.806C66.7393 180.647 68.1632 184.356 70.0729 187.789C70.9228 189.379 71.8169 190.957 72.8656 192.425C74.2123 194.291 75.846 195.935 77.7446 197.238C79.2789 198.265 80.8905 199.236 82.6456 199.821C83.606 200.119 84.5994 200.251 85.5929 200.307C85.7033 201.013 85.8468 201.709 86.0124 202.404C86.4098 204.126 86.9175 205.837 87.7013 207.426C88.6285 209.358 89.931 211.069 91.3991 212.614C92.8231 214.138 94.4016 215.518 96.1015 216.71C97.5807 217.758 99.2033 218.586 100.936 219.138C101.345 219.282 100.727 218.995 100.638 218.94ZM85.9903 194.247C86.2331 192.988 86.6084 191.763 87.0169 190.56C87.6681 188.771 88.5954 186.917 90.2732 186.001C91.1342 185.526 91.7855 185.195 92.7789 185.04C93.5295 184.941 95.1191 185.074 95.7924 185.394C97.0839 185.946 97.5806 187.005 97.7904 188.451C97.8787 188.959 97.9449 189.765 97.8456 190.449C97.8235 190.714 97.6027 191.708 97.4371 192.182C96.9735 193.827 96.2892 195.295 95.1522 196.487C93.8938 197.757 92.3264 198.728 90.6375 199.258C89.1473 199.766 87.8779 199.942 86.3214 199.887C86.2 199.887 86.0786 199.887 85.9682 199.876C85.6923 197.978 85.6371 196.057 85.9903 194.247ZM276.138 175.647C276.061 174.62 275.929 173.605 275.829 172.589C275.432 170.094 274.825 167.633 274.096 165.204C273.125 162.07 271.712 159.122 270.167 156.241C269.681 155.369 269.184 154.497 268.698 153.625C268.158 152.775 267.617 151.914 267.076 151.064C266.568 150.369 266.06 149.684 265.541 149C264.526 147.731 263.422 146.538 262.285 145.379C260.806 143.845 259.194 142.443 257.517 141.119C259.239 143.006 261.093 144.761 262.859 146.616C263.577 147.333 264.526 148.481 265.056 149.077C265.597 149.806 266.138 150.545 266.678 151.274C267.208 152.102 267.727 152.941 268.257 153.769C269.593 156.043 271.039 158.791 272.043 160.999L272.937 163.151C273.589 165.006 274.174 166.893 274.615 168.814C274.825 169.642 275.023 170.481 275.156 171.32C275.377 172.435 275.476 173.307 275.586 174.477C275.73 175.636 275.741 176.806 275.807 177.965C275.829 178.351 275.829 178.738 275.818 179.124C275.818 186.056 274.858 192.679 273.014 199.346C271.999 202.658 270.719 205.837 269.372 208.872C268.732 210.318 268.124 211.776 267.418 213.188C268.279 211.974 268.997 210.672 269.637 209.336C271.094 206.113 272.407 202.823 273.445 199.446C275.288 192.823 276.282 185.946 276.26 179.058C276.271 177.91 276.171 176.784 276.138 175.647Z" fill="#EFC7A5"/>
<path d="M165.765 63L165.379 66.1791M163.966 77.8467L162.652 88.7306L163.966 77.8467ZM164.33 74.8332L163.966 77.8467L164.33 74.8332Z" stroke="#FF8B17" stroke-width="10" stroke-miterlimit="10" stroke-linecap="round" stroke-linejoin="round"/>
<path d="M183.36 63L179.309 71.8859M175.269 80.7719L169.805 92.7375L175.269 80.7719Z" stroke="#279145" stroke-width="10" stroke-miterlimit="10" stroke-linecap="round" stroke-linejoin="round"/>
<path d="M212.414 68.9717L178.592 99.4378" stroke="#5288FF" stroke-width="10" stroke-miterlimit="10" stroke-linecap="round" stroke-linejoin="round"/>
<path d="M192.147 117.099L222.382 111.812M196.121 104.184L227.857 90.2539L196.121 104.184ZM180.723 110.94L190.746 106.547L180.723 110.94Z" stroke="#FF8B17" stroke-width="10" stroke-miterlimit="10" stroke-linecap="round" stroke-linejoin="round"/>
<path d="M266.569 96.623C269.764 96.623 272.353 94.0333 272.353 90.8388C272.353 87.6443 269.764 85.0547 266.569 85.0547C263.375 85.0547 260.785 87.6443 260.785 90.8388C260.785 94.0333 263.375 96.623 266.569 96.623Z" fill="#FF8B17"/>
<path d="M83.042 109.659C86.2364 109.659 88.8261 107.069 88.8261 103.875C88.8261 100.68 86.2364 98.0908 83.042 98.0908C79.8475 98.0908 77.2578 100.68 77.2578 103.875C77.2578 107.069 79.8475 109.659 83.042 109.659Z" fill="#FF8B6A"/>
<path d="M79.3125 94.918L79.4693 94.7325L93.0145 106.186L92.8577 106.372L79.3125 94.918Z" fill="white"/>
<path d="M78.4845 95.8938L78.6413 95.7084L92.1865 107.162L92.0297 107.348L78.4845 95.8938Z" fill="white"/>
<path d="M77.6641 96.876L77.8209 96.6905L91.3661 108.144L91.2093 108.33L77.6641 96.876Z" fill="white"/>
<path d="M76.8438 97.8438L77.0006 97.6583L90.5458 109.112L90.3889 109.298L76.8438 97.8438Z" fill="white"/>
<path d="M76.0176 98.8193L76.1744 98.6339L89.7196 110.088L89.5628 110.273L76.0176 98.8193Z" fill="white"/>
<path d="M75.1953 99.7861L75.3521 99.6007L88.8973 111.055L88.7405 111.24L75.1953 99.7861Z" fill="white"/>
<path d="M74.3691 100.762L74.5259 100.576L88.0711 112.03L87.9143 112.216L74.3691 100.762Z" fill="white"/>
<path d="M73.5566 101.736L73.7134 101.551L87.2586 113.005L87.1018 113.19L73.5566 101.736Z" fill="white"/>
<path d="M258.245 252.651C261.44 252.651 264.029 250.062 264.029 246.867C264.029 243.673 261.44 241.083 258.245 241.083C255.051 241.083 252.461 243.673 252.461 246.867C252.461 250.062 255.051 252.651 258.245 252.651Z" fill="#279145"/>
<path d="M253.797 255.981L267.766 245.049L267.916 245.24L253.947 256.173L253.797 255.981Z" fill="white"/>
<path d="M253.012 254.976L266.981 244.043L267.131 244.234L253.161 255.167L253.012 254.976Z" fill="white"/>
<path d="M252.227 253.971L266.196 243.038L266.345 243.229L252.376 254.162L252.227 253.971Z" fill="white"/>
<path d="M251.441 252.964L265.411 242.031L265.56 242.222L251.591 253.155L251.441 252.964Z" fill="white"/>
<path d="M250.658 251.959L264.627 241.026L264.777 241.217L250.808 252.15L250.658 251.959Z" fill="white"/>
<path d="M249.873 250.953L263.842 240.02L263.992 240.212L250.023 251.144L249.873 250.953Z" fill="white"/>
<path d="M249.08 249.955L263.049 239.022L263.199 239.214L249.23 250.146L249.08 249.955Z" fill="white"/>
<path d="M248.295 248.949L262.264 238.016L262.414 238.208L248.445 249.14L248.295 248.949Z" fill="white"/>
<path d="M98.0556 85.8279C98.9578 85.8279 99.6893 85.0965 99.6893 84.1942C99.6893 83.292 98.9578 82.5605 98.0556 82.5605C97.1533 82.5605 96.4219 83.292 96.4219 84.1942C96.4219 85.0965 97.1533 85.8279 98.0556 85.8279Z" fill="#FFC95F"/>
<path d="M99.456 81.3348C100.358 81.3348 101.09 80.6033 101.09 79.7011C101.09 78.7988 100.358 78.0674 99.456 78.0674C98.5537 78.0674 97.8223 78.7988 97.8223 79.7011C97.8223 80.6033 98.5537 81.3348 99.456 81.3348Z" fill="#FFC95F"/>
<path d="M102.636 87.2518C103.538 87.2518 104.269 86.5203 104.269 85.6181C104.269 84.7158 103.538 83.9844 102.636 83.9844C101.733 83.9844 101.002 84.7158 101.002 85.6181C101.002 86.5203 101.733 87.2518 102.636 87.2518Z" fill="#FFC95F"/>
<path d="M104.038 82.7586C104.94 82.7586 105.672 82.0272 105.672 81.1249C105.672 80.2226 104.94 79.4912 104.038 79.4912C103.136 79.4912 102.404 80.2226 102.404 81.1249C102.404 82.0272 103.136 82.7586 104.038 82.7586Z" fill="#FFC95F"/>
<path d="M243.708 71.2674C244.61 71.2674 245.342 70.536 245.342 69.6337C245.342 68.7314 244.61 68 243.708 68C242.806 68 242.074 68.7314 242.074 69.6337C242.074 70.536 242.806 71.2674 243.708 71.2674Z" fill="#FFC95F"/>
<path d="M248.145 69.7117C249.048 69.7117 249.779 68.9803 249.779 68.078C249.779 67.1758 249.048 66.4443 248.145 66.4443C247.243 66.4443 246.512 67.1758 246.512 68.078C246.512 68.9803 247.243 69.7117 248.145 69.7117Z" fill="#FFC95F"/>
<path d="M245.298 75.7937C246.2 75.7937 246.931 75.0623 246.931 74.1601C246.931 73.2578 246.2 72.5264 245.298 72.5264C244.395 72.5264 243.664 73.2578 243.664 74.1601C243.664 75.0623 244.395 75.7937 245.298 75.7937Z" fill="#FFC95F"/>
<path d="M249.735 74.2371C250.638 74.2371 251.369 73.5057 251.369 72.6034C251.369 71.7012 250.638 70.9697 249.735 70.9697C248.833 70.9697 248.102 71.7012 248.102 72.6034C248.102 73.5057 248.833 74.2371 249.735 74.2371Z" fill="#FFC95F"/>
<path d="M268.401 268.723C269.304 268.723 270.035 267.992 270.035 267.09C270.035 266.187 269.304 265.456 268.401 265.456C267.499 265.456 266.768 266.187 266.768 267.09C266.768 267.992 267.499 268.723 268.401 268.723Z" fill="#A288FF"/>
<path d="M272.839 267.167C273.741 267.167 274.472 266.435 274.472 265.533C274.472 264.631 273.741 263.899 272.839 263.899C271.936 263.899 271.205 264.631 271.205 265.533C271.205 266.435 271.936 267.167 272.839 267.167Z" fill="#A288FF"/>
<path d="M269.991 273.249C270.893 273.249 271.625 272.517 271.625 271.615C271.625 270.713 270.893 269.981 269.991 269.981C269.089 269.981 268.357 270.713 268.357 271.615C268.357 272.517 269.089 273.249 269.991 273.249Z" fill="#A288FF"/>
<path d="M274.429 271.692C275.331 271.692 276.062 270.961 276.062 270.058C276.062 269.156 275.331 268.425 274.429 268.425C273.526 268.425 272.795 269.156 272.795 270.058C272.795 270.961 273.526 271.692 274.429 271.692Z" fill="#A288FF"/>
<path d="M143.015 272.256C143.917 272.256 144.648 271.524 144.648 270.622C144.648 269.72 143.917 268.988 143.015 268.988C142.112 268.988 141.381 269.72 141.381 270.622C141.381 271.524 142.112 272.256 143.015 272.256Z" fill="#279145"/>
<path d="M146.866 274.971C147.768 274.971 148.5 274.24 148.5 273.338C148.5 272.436 147.768 271.704 146.866 271.704C145.964 271.704 145.232 272.436 145.232 273.338C145.232 274.24 145.964 274.971 146.866 274.971Z" fill="#279145"/>
<path d="M140.255 276.174C141.157 276.174 141.888 275.442 141.888 274.54C141.888 273.638 141.157 272.906 140.255 272.906C139.353 272.906 138.621 273.638 138.621 274.54C138.621 275.442 139.353 276.174 140.255 276.174Z" fill="#279145"/>
<path d="M144.097 278.889C144.999 278.889 145.73 278.158 145.73 277.256C145.73 276.354 144.999 275.622 144.097 275.622C143.194 275.622 142.463 276.354 142.463 277.256C142.463 278.158 143.194 278.889 144.097 278.889Z" fill="#279145"/>
<path d="M120.827 147.499L118.553 146.483M116.423 147.3L115.418 149.574L116.423 147.3ZM118.752 142.09L117.736 144.353L118.752 142.09ZM115.606 145.17L113.332 144.165L115.606 145.17Z" stroke="white" stroke-width="10" stroke-miterlimit="10" stroke-linecap="round" stroke-linejoin="round"/>
<path d="M250.253 119.803L247.979 118.799M245.849 119.616L244.844 121.89L245.849 119.616ZM248.178 114.395L247.162 116.668L248.178 114.395ZM245.032 117.485L242.758 116.481L245.032 117.485Z" stroke="#5288FF" stroke-width="10" stroke-miterlimit="10" stroke-linecap="round" stroke-linejoin="round"/>
<path d="M231.566 273.359L229.303 272.344M227.173 273.161L226.157 275.435L227.173 273.161ZM229.491 267.939L228.475 270.213L229.491 267.939ZM226.356 271.03L224.082 270.026L226.356 271.03Z" stroke="#FFC95F" stroke-width="10" stroke-miterlimit="10" stroke-linecap="round" stroke-linejoin="round"/>
<path d="M69.9082 70.8595L71.3101 65.1416L76.1228 68.2324L69.9082 70.8595ZM97.6036 273.702L99.9548 269.529L104.558 273.702H97.6036Z" fill="#CADDFF"/>
<path d="M115.12 182.91C136.049 154.221 140.685 114.229 125.353 83.3322C124.602 81.8199 125.187 79.9655 126.699 79.1928C135.056 74.9319 150.785 77.3935 160.698 114.163C163.159 123.28 165.5 129.087 172.001 135.963C187.83 132.531 203.659 129.109 219.875 124.804C226.73 122.982 234.004 125.775 237.801 131.758C242.139 138.602 243.508 147.41 240.66 155.027C250.816 160.458 254.469 175.238 248.023 184.775C257.45 190.968 257.726 207.029 247.935 211.875C252.869 222.052 247.228 235.905 236.587 239.736C217.259 246.701 197.941 253.666 178.094 261.382C161.879 267.685 143.434 263.789 131.236 251.392C120.076 240.056 112.206 225.22 109.192 209.402C107.426 200.141 109.568 190.526 115.12 182.91Z" fill="#FF8B6A"/>
<path d="M134.217 89.0506C133.588 87.1851 132.76 85.3859 131.656 83.7522C130.607 82.1295 129.338 80.6393 127.848 79.4141C129.426 81.3016 130.629 83.4652 131.7 85.6618C132.76 87.8253 133.543 89.9447 134.117 92.5277C134.515 94.04 134.824 95.5743 135.045 97.1197C135.21 98.1021 135.232 99.5813 134.747 100.652C135.199 100.122 135.619 98.6872 135.63 97.7379C135.718 94.7796 135.155 91.8433 134.217 89.0506ZM182.046 223.201C181.627 217.593 180.92 212.008 180.181 206.433C179.53 201.576 178.856 196.72 178.039 191.896C177.565 188.838 176.914 185.814 176.34 182.778C175.92 180.968 175.467 179.157 175.037 177.347C174.618 175.78 174.121 174.234 173.668 172.678C173.083 171.066 172.575 169.421 171.946 167.821C170.787 164.951 169.739 162.026 168.248 159.299C167.244 157.434 165.952 155.734 164.672 154.034C165.478 155.668 166.35 157.268 167.122 158.924C167.807 160.425 168.889 162.964 169.352 164.024C169.981 165.613 170.622 167.203 171.251 168.803C171.725 170.183 172.211 171.552 172.686 172.932C173.337 175.117 174.021 177.292 174.518 179.522C176.571 187.867 177.774 196.399 178.967 204.91C179.662 210.142 180.545 216.787 180.976 222.549C181.23 225.883 181.715 229.195 182.113 232.517C182.322 229.415 182.278 226.291 182.046 223.201ZM217.899 138.768C214.4 140.324 211.055 142.201 207.887 144.32C206.364 145.302 204.863 146.307 203.384 147.345C202.445 146.682 201.529 145.987 200.591 145.336C199.377 144.541 198.118 143.79 196.937 142.951C198.593 144.949 200.779 146.495 203.174 147.499C201.849 148.437 200.536 149.409 199.244 150.413C198.483 151.009 197.732 151.605 196.97 152.201C196.385 152.632 196.021 152.996 195.204 153.46C194.63 153.747 192.886 154.144 191.793 154.255C191.319 154.321 189.243 154.531 188.25 154.707C187.201 154.917 186.175 155.204 185.17 155.546C181.042 157.036 176.615 159.145 174.551 163.24C174.044 164.399 173.9 165.679 173.646 166.905C174.165 165.69 174.441 164.598 175.092 163.516C175.854 162.379 176.858 161.408 177.918 160.547C178.647 159.939 179.761 159.145 181.13 158.405C183.371 157.246 185.402 156.418 188.04 155.8C189.784 155.425 191.363 155.403 193.35 155.049C194.211 154.884 195.083 154.674 195.867 154.277C196.507 153.89 197.081 153.416 197.677 152.963C200.392 150.811 202.986 148.813 206.066 146.76C209.234 144.651 212.468 142.631 215.592 140.446C216.442 139.861 217.281 139.253 218.153 138.679C218.054 138.701 217.976 138.735 217.899 138.768ZM189.475 169.918C188.515 169.333 187.378 169.146 186.285 168.947C184.751 168.671 183.172 168.583 181.638 168.825C180.644 168.958 179.684 169.223 178.757 169.609C177.841 170.018 176.969 170.514 176.075 170.978C177.41 170.603 179.441 169.918 180.446 169.83C182.113 169.609 183.801 169.631 185.479 169.731C186.738 169.841 187.654 169.852 188.747 170.128C189.619 170.393 190.48 170.812 191.142 171.441C190.932 170.989 190.071 170.271 189.475 169.918ZM237.537 154.939C234.7 156.352 231.918 157.886 229.302 159.686C224.754 162.898 220.306 166.298 215.405 168.969C212.987 170.293 211 171.364 208.517 172.049C205.47 172.876 202.964 173.108 199.774 173.351C197.787 173.484 195.789 173.484 193.802 173.605C190.8 173.837 187.797 174.19 184.817 174.665C182.013 175.172 179.243 175.901 176.56 176.85C178.9 176.497 180.954 176.232 183.316 175.89C186.528 175.415 189.177 175.04 192.5 174.72C194.652 174.499 196.816 174.521 198.979 174.411C201.43 174.278 203.88 174.036 206.298 173.605C207.81 173.307 209.322 172.932 210.768 172.369C212.59 171.662 214.323 170.724 216.034 169.775C221.31 166.894 226.035 163.152 230.98 159.763C232.956 158.383 234.909 156.97 236.841 155.535C237.139 155.314 237.426 155.094 237.724 154.873L237.857 154.773C237.746 154.829 237.647 154.884 237.537 154.939ZM236.929 189.743C234.92 190.825 232.956 191.973 230.914 193C227.58 194.733 224.169 196.3 220.714 197.779C218.451 198.751 214.853 200.197 212.391 200.296C211.342 200.318 210.691 200.119 209.488 199.888C207.269 199.435 205.106 198.751 202.942 198.066C199.079 196.786 195.568 195.042 191.76 193.044C189.641 191.962 187.566 190.814 185.645 189.39C184.773 188.761 183.669 187.856 182.786 186.752C182.653 186.575 182.521 186.388 182.389 186.211C182.002 185.626 181.66 185.008 181.384 184.356C181.263 184.014 181.152 183.705 181.075 183.418C181.649 183.319 182.223 183.22 182.808 183.22C184.861 183.22 186.749 183.672 188.824 184.401C190.093 184.842 192.235 185.836 193.151 186.542C193.615 186.895 194.034 187.293 194.432 187.712C195.05 188.374 195.348 188.706 195.756 189.567C196.142 190.527 196.485 191.807 196.595 192.801L196.628 193.198C196.783 192.139 196.661 191.068 196.485 190.019C196.319 189.004 195.855 188.076 195.204 187.282C194.752 186.697 194.244 186.145 193.659 185.681C192.61 184.864 191.363 184.356 190.149 183.816C187.886 182.877 185.369 182.436 182.929 182.745C182.278 182.822 181.649 183.032 181.031 183.264C180.788 182.359 180.788 181.619 181.174 180.316C181.362 179.665 181.55 178.97 182.013 178.462C182.698 177.789 183.603 177.369 184.541 177.17C183.923 177.181 183.327 177.281 182.753 177.513C182.068 177.744 181.439 178.164 181.064 178.793C180.424 179.875 179.949 181.122 179.905 182.381C180.026 184.334 180.998 186.145 182.212 187.646C183.272 188.893 184.596 189.898 185.932 190.814C187.886 192.205 190.027 193.264 192.136 194.368C194.84 195.781 197.588 197.106 200.425 198.232C202.203 198.916 204.024 199.479 205.856 199.998C207.093 200.351 208.329 200.682 209.598 200.925C210.448 201.102 211.298 201.289 212.159 201.289C213.097 201.3 214.014 201.113 214.919 200.892C216.464 200.517 217.943 199.976 219.423 199.391C226.962 196.278 234.291 192.635 241.201 188.297C242.338 187.591 243.453 186.862 244.612 186.189C241.963 187.171 239.424 188.43 236.929 189.743ZM193.747 217.339C194.465 216.743 194.707 216.5 195.579 216.026C196.253 215.673 197.677 215.386 198.825 215.22C199.288 215.154 201.297 214.922 202.291 214.944C204.002 214.933 205.702 215.043 207.402 215.176C208.274 215.242 209.068 215.33 209.852 215.43C212.435 216.379 215.051 217.24 217.667 218.101C218.981 218.487 220.284 219.05 221.674 219.039C224.721 218.94 227.734 218.3 230.66 217.472C235.108 216.158 239.546 214.789 243.917 213.255C244.822 212.946 245.727 212.626 246.632 212.306C246.555 212.317 246.478 212.328 246.389 212.339C243.177 212.825 239.998 213.531 236.896 214.502C233.033 215.695 228.143 217.317 224.622 217.759C222.999 217.957 221.409 218.2 220.14 217.803C216.718 216.765 213.329 215.617 209.974 214.392C208.351 213.774 207.291 213.244 205.47 212.527C201.728 211.036 198.129 210.186 194.84 208.266C194.034 207.802 193.272 207.25 192.533 206.676C191.683 206.003 190.855 205.285 190.138 204.48C189.707 204.027 189.409 203.464 189.023 202.658C189.045 202.702 189.056 202.735 189.078 202.78C188.758 202.106 188.769 201.058 188.824 200.804C188.934 199.899 189.475 199.181 189.928 198.585C190.888 197.382 192.445 196.587 193.99 196.697C192.378 196.256 190.579 196.896 189.42 198.055C188.382 199.038 187.632 200.395 187.819 201.863C187.864 202.482 188.062 203.078 188.36 203.619C189.012 204.976 190.149 206.003 191.286 206.974C192.831 208.244 194.498 209.37 196.33 210.186C199.123 211.445 202.081 212.295 204.94 213.41C205.856 213.763 206.541 214.05 207.236 214.359C204.013 213.774 200.823 213.752 197.268 214.447C196.672 214.591 196.054 214.701 195.48 214.944C194.741 215.242 194.1 215.717 193.493 216.224C192.434 217.085 191.407 218.002 190.623 219.128C188.791 221.622 188.162 224.713 190.623 227.031C191.385 227.826 192.301 228.455 193.284 228.952C194.52 229.636 195.844 230.133 197.18 230.574C198.935 231.17 200.723 231.711 202.512 232.186C205.216 232.904 207.865 233.798 210.581 234.504C213.329 235.211 216.111 235.762 218.937 236.061C220.648 236.259 222.381 236.425 224.103 236.359C226.686 236.237 229.203 235.597 231.73 235.111C235.009 234.449 238.177 233.367 241.257 232.076C241.003 232.12 240.76 232.175 240.506 232.23C238.111 232.738 235.726 233.246 233.331 233.731C231.708 234.074 230.086 234.416 228.463 234.725C226.951 235.001 225.99 235.211 224.655 235.31C223.109 235.42 221.564 235.31 220.03 235.155C218.286 234.968 217.248 234.846 215.559 234.548C211.574 233.864 207.722 232.605 203.847 231.48C201.728 230.917 199.609 230.321 197.533 229.603C195.657 229.018 193.471 228.025 192.213 227.075C191.308 226.291 190.745 225.806 190.314 224.89C189.497 222.958 190.425 220.96 191.815 219.183C192.4 218.52 193.063 217.924 193.747 217.339Z" fill="#2E2E2E"/>
<path d="M202.115 203.862C201.861 203.243 201.541 202.647 201.099 202.14C200.757 201.753 200.349 201.433 199.94 201.113C198.858 200.329 197.666 199.7 196.408 199.281C195.768 199.071 195.094 198.96 194.432 198.883C193.67 198.784 192.898 198.784 192.147 198.972C191.518 199.126 190.845 199.314 190.403 199.821C190.767 199.546 191.22 199.446 191.672 199.391C192.147 199.336 192.633 199.314 193.118 199.358C194.763 199.59 196.198 200.086 197.567 200.826C198.98 201.577 200.26 202.173 201.154 203.299C201.717 204.049 202.347 205.087 202.49 206.124C202.512 206.202 202.501 206.489 202.523 206.268C202.634 205.451 202.402 204.623 202.115 203.862ZM206.155 226.877C205.194 224.481 203.152 222.693 200.912 221.523C199.3 220.64 197.468 220.276 195.635 220.298C194.52 220.32 192.644 220.441 191.882 221.324C192.831 220.574 194.907 220.85 195.69 220.927C197.644 221.17 199.079 221.633 200.625 222.528C202.435 223.543 203.837 224.592 205.095 226.192C205.868 227.252 206.409 228.411 206.652 229.691L206.685 229.923V229.835C206.74 228.819 206.508 227.815 206.155 226.877ZM173.459 137.167C171.947 136.229 170.997 135.478 169.706 134.143C168.646 133.072 168.061 132.167 167.244 130.743C165.997 128.447 164.65 125.732 163.811 123.723C162.255 119.914 160.997 115.985 159.959 112.011C160.125 114.384 160.445 116.746 161.085 119.042C161.858 121.89 163.028 124.628 164.319 127.277C165.357 129.341 166.328 131.46 167.686 133.337C168.26 134.132 168.944 134.838 169.651 135.523C170.434 136.273 171.273 136.98 172.201 137.543C174.872 139.121 177.102 139.739 180.192 139.055C177.411 139.11 175.766 138.569 173.459 137.167Z" fill="#2E2E2E"/>
<path d="M130.609 99.0404C131.514 100.222 133.369 99.9566 133.909 98.5658C134.506 97.0425 134.737 94.3712 132.938 89.9668C129.616 81.8536 127.916 80.5952 126.79 80.3303C126.282 80.2089 125.686 80.6394 125.189 81.1471C124.461 81.8757 124.196 82.9464 124.483 83.9399C125.465 87.3066 128.125 95.7841 130.609 99.0404ZM177.489 175.857C175.878 176.045 174.454 174.698 174.63 173.075C174.73 172.203 175.248 171.375 176.672 170.956C180.459 169.83 190.603 169.466 191.155 172.965C191.155 172.965 191.641 174.345 186.519 174.863C183.251 175.206 179.664 175.603 177.489 175.857ZM180.172 185.891C180.547 184.202 182.479 183.153 184.609 183.473C187.214 183.86 190.04 185.129 192.336 186.454C197.369 189.357 196.784 193.32 194.897 193.75C192.17 194.379 185.867 190.946 181.883 188.893C180.602 188.242 179.907 187.028 180.172 185.891ZM191.155 206.753C190.393 206.213 189.753 205.528 189.3 204.711C188.826 203.839 188.506 202.713 189.146 201.753C190.415 199.821 192.987 199.689 195.25 200.671C197.513 201.654 202.414 203.762 201.663 207.007C200.913 210.253 199.345 210.418 196.597 209.635C194.621 209.072 192.303 207.559 191.155 206.753ZM193.815 228.676C192.071 228.047 190.724 226.799 190.206 225.265C189.83 224.161 189.919 222.969 191.409 222.229C194.798 220.518 199.71 222.594 200.56 223.179C201.398 223.764 207.006 226.987 205.549 229.967C204.445 232.186 197.303 229.934 193.815 228.676Z" fill="#FFC95F"/>
<path d="M88.9473 244.008C91.2985 239.604 97.0274 238.401 102.017 238.291C107.006 238.18 112.426 238.555 116.532 235.719C120.087 233.268 121.842 228.941 124.944 225.927C128.266 222.704 132.958 221.214 137.561 220.905C142.175 220.596 146.789 221.38 151.337 222.163" stroke="#5564D7" stroke-width="18" stroke-miterlimit="10" stroke-linecap="round" stroke-linejoin="round"/>
<path d="M90.8574 259.782C93.8488 254.738 100.792 254.009 106.653 254.385C112.515 254.76 119.05 255.455 123.608 251.768C127.77 248.413 129.006 242.264 133.366 239.174C140.619 234.03 152.33 239.946 158.887 233.941" stroke="#FFC95F" stroke-width="18" stroke-miterlimit="10" stroke-linecap="round" stroke-linejoin="round"/>
<path d="M75.206 247.475C78.9431 247.475 81.9726 244.445 81.9726 240.708C81.9726 236.971 78.9431 233.941 75.206 233.941C71.4689 233.941 68.4395 236.971 68.4395 240.708C68.4395 244.445 71.4689 247.475 75.206 247.475Z" fill="#A288FF"/>
</svg>
