<svg width="41" height="12" viewBox="0 0 41 12" fill="none" xmlns="http://www.w3.org/2000/svg">
<path d="M14.3264 11.8281H17.6169L19.6772 0.202148H16.3846L14.3264 11.8281Z" fill="white"/>
<path d="M26.3149 4.87C25.1637 4.332 24.4592 3.973 24.4665 3.429C24.4665 2.946 25.0629 2.429 26.3523 2.429C27.4069 2.413 28.2568 2.62 29.1119 3.009L29.5587 0.489C28.9052 0.253 27.8828 0 26.6069 0C23.3537 0 21.0617 1.577 21.043 3.837C21.0243 5.507 22.6794 6.439 23.9283 6.995C25.2094 7.565 25.6406 7.928 25.6344 8.437C25.6261 9.216 24.6109 9.572 23.6644 9.572C22.2036 9.572 21.4669 9.355 20.1411 8.777L19.6788 11.38C20.4476 11.704 21.87 11.986 23.3465 12C26.8074 12 29.0537 10.441 29.0797 8.028C29.0911 6.706 28.2142 5.699 26.3149 4.87Z" fill="white"/>
<path d="M38.0018 0.212891H35.4573C34.6687 0.212891 34.0796 0.419891 33.7336 1.17689L28.844 11.8309H32.3008C32.3008 11.8309 32.866 10.3979 32.9938 10.0839C33.372 10.0839 36.7301 10.0889 37.2101 10.0889C37.3088 10.4959 37.6111 11.8309 37.6111 11.8309H40.6658L38.0018 0.212891ZM33.9414 7.70589C34.0775 7.37089 35.422 4.04989 35.69 3.34689C36.1347 5.35089 35.7014 3.40689 36.675 7.70589H33.9414Z" fill="white"/>
<path d="M11.5642 0.211079L8.34116 8.13908L7.99725 6.52808L6.84291 1.18608C6.64342 0.450079 6.06573 0.230078 5.35089 0.205078H0.0415603L0 0.447079C1.29149 0.748079 2.44583 1.18208 3.45782 1.72208L6.38471 11.8191L9.8685 11.8151L15.0521 0.212078H11.5642V0.211079Z" fill="white"/>
</svg>
