<svg width="20" height="20" viewBox="0 0 20 20" fill="none" xmlns="http://www.w3.org/2000/svg">
<path fill-rule="evenodd" clip-rule="evenodd" d="M9.1665 3.33329C5.94484 3.33329 3.33317 5.94496 3.33317 9.16663C3.33317 12.3883 5.94484 15 9.1665 15C12.3882 15 14.9998 12.3883 14.9998 9.16663C14.9998 5.94496 12.3882 3.33329 9.1665 3.33329ZM1.6665 9.16663C1.6665 5.02449 5.02437 1.66663 9.1665 1.66663C13.3086 1.66663 16.6665 5.02449 16.6665 9.16663C16.6665 13.3088 13.3086 16.6666 9.1665 16.6666C5.02437 16.6666 1.6665 13.3088 1.6665 9.16663Z" fill="#2D2D2D"/>
<path fill-rule="evenodd" clip-rule="evenodd" d="M13.2856 13.2857C13.611 12.9603 14.1387 12.9603 14.4641 13.2857L18.0891 16.9107C18.4145 17.2361 18.4145 17.7638 18.0891 18.0892C17.7637 18.4147 17.236 18.4147 16.9106 18.0892L13.2856 14.4642C12.9601 14.1388 12.9601 13.6111 13.2856 13.2857Z" fill="#2D2D2D"/>
</svg>
