<svg width="22" height="28" viewBox="0 0 22 28" fill="none" xmlns="http://www.w3.org/2000/svg">
<path d="M18.7102 5.61768C17.838 5.61863 17.0017 5.95116 16.3851 6.54234C15.7683 7.13351 15.4214 7.93503 15.4205 8.77103V16.6254C15.4298 17.1874 15.3223 17.7456 15.1043 18.2674C14.8863 18.7892 14.5622 19.2642 14.1508 19.6648C13.7394 20.0654 13.2489 20.3836 12.708 20.6007C12.1671 20.8179 11.5864 20.9297 11 20.9297C10.4135 20.9297 9.83294 20.8179 9.29201 20.6007C8.75108 20.3836 8.26063 20.0654 7.84923 19.6648C7.43782 19.2642 7.11369 18.7892 6.89569 18.2674C6.67769 17.7456 6.5702 17.1874 6.57945 16.6254V8.77103C6.57945 7.9348 6.23286 7.13281 5.61591 6.5415C4.99897 5.9502 4.16221 5.61801 3.28973 5.61801C2.41724 5.61801 1.58048 5.9502 0.963535 6.5415C0.346592 7.13281 0 7.9348 0 8.77103V17.457C-4.30506e-08 18.8415 0.284522 20.2125 0.837323 21.4916C1.39013 22.7707 2.20039 23.9329 3.22183 24.912C4.24326 25.891 5.4559 26.6676 6.79048 27.1974C8.12506 27.7272 9.55546 27.9999 11 27.9999C12.4445 27.9999 13.875 27.7272 15.2095 27.1974C16.5441 26.6676 17.7567 25.891 18.7781 24.912C19.7996 23.9329 20.6099 22.7707 21.1626 21.4916C21.7155 20.2125 22 18.8415 22 17.457V8.77103C21.999 7.93502 21.6522 7.1335 21.0355 6.54234C20.4187 5.95116 19.5824 5.61863 18.7102 5.61768ZM20.5607 17.4563C20.5607 19.8867 19.5534 22.2174 17.7604 23.9358C15.9675 25.6543 13.5357 26.6198 11 26.6198C8.46433 26.6198 6.03253 25.6543 4.23955 23.9358C2.44656 22.2174 1.43927 19.8867 1.43927 17.4563V8.77103C1.44348 8.3033 1.64028 7.85611 1.98686 7.52678C2.33343 7.19747 2.8017 7.0127 3.28973 7.0127C3.77775 7.0127 4.24602 7.19747 4.59259 7.52678C4.93915 7.85611 5.13597 8.3033 5.14018 8.77103V16.6254C5.14018 18.1149 5.75755 19.5435 6.85648 20.5967C7.9554 21.65 9.44588 22.2417 11 22.2417C12.5541 22.2417 14.0446 21.65 15.1436 20.5967C16.2424 19.5435 16.8598 18.1149 16.8598 16.6254V8.77103C16.8598 8.30065 17.0547 7.84953 17.4018 7.51693C17.7489 7.18432 18.2195 6.99746 18.7102 6.99746C19.2011 6.99746 19.6717 7.18432 20.0188 7.51693C20.3657 7.84953 20.5607 8.30065 20.5607 8.77103V17.4563Z" fill="#FF8B6A"/>
<path d="M10.2803 7.22536V16.3184C10.2803 16.5014 10.3561 16.6768 10.4911 16.8062C10.6261 16.9356 10.8091 17.0082 11 17.0082C11.1908 17.0082 11.3738 16.9356 11.5088 16.8062C11.6438 16.6768 11.7196 16.5014 11.7196 16.3184V7.22536C12.6487 7.05378 13.4778 6.55643 14.0449 5.83045C14.6119 5.10446 14.8763 4.20197 14.7864 3.29917C14.6965 2.39637 14.2588 1.55812 13.5586 0.94807C12.8584 0.338026 11.9462 0 11 0C10.0537 0 9.14148 0.338026 8.44134 0.94807C7.74119 1.55812 7.30342 2.39637 7.21351 3.29917C7.12359 4.20197 7.38799 5.10446 7.95507 5.83045C8.52214 6.55643 9.35119 7.05378 10.2803 7.22536ZM11 1.38094C11.4676 1.38094 11.9248 1.51386 12.3136 1.76289C12.7025 2.01191 13.0056 2.36586 13.1845 2.77998C13.3635 3.19409 13.4103 3.64977 13.3191 4.08939C13.2278 4.52901 13.0026 4.93282 12.6719 5.24976C12.3412 5.56669 11.9198 5.78252 11.4612 5.86995C11.0025 5.95739 10.5271 5.91248 10.095 5.74094C9.66294 5.56939 9.29366 5.27889 9.03385 4.90619C8.77405 4.53348 8.6354 4.09532 8.63543 3.64708C8.63616 3.04626 8.88551 2.47024 9.3288 2.0454C9.77208 1.62057 10.3731 1.3816 11 1.38094Z" fill="#FF8B6A"/>
</svg>
