<svg width="262" height="248" viewBox="0 0 262 248" fill="none" xmlns="http://www.w3.org/2000/svg">
<path d="M74 8C71.7909 8 70 6.20914 70 4C70 1.79086 71.7909 0 74 0L140 0V8L74 8Z" fill="#5564D7"/>
<path d="M188 8C190.209 8 192 6.20914 192 4C192 1.79086 190.209 0 188 0L140 0V8L188 8Z" fill="#FFC95F"/>
<path d="M50.5 48C48.2909 48 46.5 46.2091 46.5 44C46.5 41.7909 48.2909 40 50.5 40L139.5 40V48L50.5 48Z" fill="#5564D7"/>
<path d="M211.5 48C213.709 48 215.5 46.2091 215.5 44C215.5 41.7909 213.709 40 211.5 40L139.5 40V48L211.5 48Z" fill="#FFC95F"/>
<path d="M27 88C24.7909 88 23 86.2091 23 84C23 81.7909 24.7909 80 27 80H139V88H27Z" fill="#5564D7"/>
<path d="M235 88C237.209 88 239 86.2091 239 84C239 81.7909 237.209 80 235 80H139V88H235Z" fill="#FFC95F"/>
<path d="M12 128C9.79086 128 8 126.209 8 124C8 121.791 9.79086 120 12 120L166 120V128H12Z" fill="#5564D7"/>
<path d="M250 128C252.209 128 254 126.209 254 124C254 121.791 252.209 120 250 120H166V128H250Z" fill="#FFC95F"/>
<path d="M4 168C1.79086 168 0 166.209 0 164C0 161.791 1.79086 160 4 160H109V168H4Z" fill="#5564D7"/>
<path d="M258 168C260.209 168 262 166.209 262 164C262 161.791 260.209 160 258 160H109V168H258Z" fill="#FFC95F"/>
<path d="M54 208C51.7909 208 50 206.209 50 204C50 201.791 51.7909 200 54 200H124V208H54Z" fill="#5564D7"/>
<path d="M208 208C210.209 208 212 206.209 212 204C212 201.791 210.209 200 208 200H124V208H208Z" fill="#FFC95F"/>
<path d="M77.5 248C75.2909 248 73.5 246.209 73.5 244C73.5 241.791 75.2909 240 77.5 240H154.5V248H77.5Z" fill="#5564D7"/>
<path d="M184.5 248C186.709 248 188.5 246.209 188.5 244C188.5 241.791 186.709 240 184.5 240H154.5V248H184.5Z" fill="#FFC95F"/>
</svg>
