<svg width="131" height="137" viewBox="0 0 131 137" fill="none" xmlns="http://www.w3.org/2000/svg">
<circle cx="41.5" cy="41.5" r="41.5" fill="#F8F8F8"/>
<path d="M24.7402 128.76V66.671L69.624 97.3415L117.5 62.9307V128.76H24.7402Z" fill="#FF8B6A"/>
<path d="M27.7326 48.1899L21 51.9302M21 51.9302C21 77.9304 21 92.5076 21 118.508M21 51.9302L75.6085 90.8295M21 118.508L49.4264 99.0581M21 118.508H60.6473M117.5 118.508C117.5 92.5076 117.5 77.9304 117.5 51.9302M117.5 118.508L102.539 108.035M117.5 118.508H92.814M117.5 51.9302L69.624 25L53.9147 33.9767M117.5 51.9302C96.174 67.1213 84.2174 75.6384 62.8915 90.8295" stroke="#2D2D2D" stroke-width="1.5"/>
<path d="M34.4658 36.9766V57.9068C34.4658 59.5637 35.809 60.9068 37.4658 60.9068H100.288C101.944 60.9068 103.288 59.5637 103.288 57.9068V36.9766C103.288 35.3197 101.944 33.9766 100.288 33.9766H37.4658C35.809 33.9766 34.4658 35.3197 34.4658 36.9766Z" fill="white"/>
<path d="M44.1895 56.9453H59.8988" stroke="#E04343" stroke-width="1.5"/>
<path d="M44.1895 62.9307H81.5926" stroke="#2D2D2D" stroke-width="1.5"/>
<path d="M44.1895 71.9062H89.0732" stroke="#2D2D2D" stroke-width="1.5"/>
<path d="M44.1895 79.3877H75.6081" stroke="#2D2D2D" stroke-width="1.5"/>
<path d="M56.1592 100.365L68.1282 100.365" stroke="#2D2D2D" stroke-width="1.5"/>
<path d="M34.4658 60.9068V36.9766C34.4658 35.3197 35.809 33.9766 37.4658 33.9766H100.288C101.944 33.9766 103.288 35.3197 103.288 36.9766V60.9068" stroke="#2D2D2D" stroke-width="1.5"/>
<circle cx="117" cy="123" r="13.25" fill="white" stroke="#2D2D2D" stroke-width="1.5"/>
<path d="M111 122.5L116.217 126L123 120" stroke="#2D2D2D" stroke-width="1.5"/>
</svg>
