<svg width="32" height="32" viewBox="0 0 32 32" fill="none" xmlns="http://www.w3.org/2000/svg">
<path fill-rule="evenodd" clip-rule="evenodd" d="M13.3334 16C13.3334 14.5272 14.5273 13.3333 16 13.3333C17.4728 13.3333 18.6667 14.5272 18.6667 16C18.6667 17.4727 17.4728 18.6666 16 18.6666C14.5273 18.6666 13.3334 17.4727 13.3334 16Z" fill="#828FA2"/>
<path fill-rule="evenodd" clip-rule="evenodd" d="M22.6666 16C22.6666 14.5272 23.8605 13.3333 25.3333 13.3333C26.8061 13.3333 28 14.5272 28 16C28 17.4727 26.8061 18.6666 25.3333 18.6666C23.8605 18.6666 22.6666 17.4727 22.6666 16Z" fill="#828FA2"/>
<path fill-rule="evenodd" clip-rule="evenodd" d="M4 16C4 14.5272 5.19391 13.3333 6.66667 13.3333C8.13943 13.3333 9.33333 14.5272 9.33333 16C9.33333 17.4727 8.13943 18.6666 6.66667 18.6666C5.19391 18.6666 4 17.4727 4 16Z" fill="#828FA2"/>
</svg>
