<svg width="24" height="24" viewBox="0 0 24 24" fill="none" xmlns="http://www.w3.org/2000/svg">
<path fill-rule="evenodd" clip-rule="evenodd" d="M20 11.5002C20 6.06999 14.0662 2.31005 9.15088 4.7928L9.14709 4.79472L9.14709 4.79471C5.52862 6.60316 3.95647 11.2141 5.79263 14.8494C5.91284 15.0873 5.93303 15.3635 5.84871 15.6164L4.58117 19.4191L8.3838 18.1515C8.63674 18.0672 8.91289 18.0874 9.15088 18.2076C14.0075 20.6607 20.0139 16.8412 20 11.5028L20 11.5002ZM22 11.4991C21.9992 4.61399 14.5263 -0.161269 8.25106 3.00665C3.78432 5.24035 1.77608 10.7958 3.82401 15.366L2.05134 20.684C1.93157 21.0433 2.02509 21.4395 2.29292 21.7073C2.56075 21.9751 2.95692 22.0687 3.31625 21.9489L8.63399 20.1763C14.7713 22.9325 22.0163 18.1598 22 11.4991Z" fill="#36414F"/>
</svg>
