<?xml version="1.0" encoding="UTF-8" standalone="no"?>
<!DOCTYPE svg PUBLIC "-//W3C//DTD SVG 1.1//EN" "http://www.w3.org/Graphics/SVG/1.1/DTD/svg11.dtd">
<svg xmlns="http://www.w3.org/2000/svg" version="1.1" viewBox="0.00 0.00 1024.00 1024.00">
<g stroke-width="2.00" fill="none" stroke-linecap="butt">
<path stroke="#153d5d" vector-effect="non-scaling-stroke" d="
  M 615.26 345.37
  Q 611.89 345.68 608.93 346.41
  Q 608.06 346.63 607.40 347.10
  Q 606.55 347.71 605.38 348.02
  A 0.95 0.93 -35.5 0 1 604.62 347.90
  C 603.73 347.34 602.40 347.05 601.46 347.66
  Q 600.93 348.01 600.28 348.08
  Q 599.78 348.14 599.41 348.48
  Q 598.18 349.61 597.20 349.44"
/>
<path stroke="#153d5d" vector-effect="non-scaling-stroke" d="
  M 588.66 347.05
  Q 584.81 348.77 583.48 349.57
  Q 580.28 351.47 576.59 352.15
  Q 576.16 352.23 576.06 352.64
  Q 575.81 353.68 575.00 354.58
  Q 574.67 354.95 574.18 354.82
  L 572.96 354.49"
/>
<path stroke="#153d5d" vector-effect="non-scaling-stroke" d="
  M 374.91 433.66
  Q 374.10 433.22 373.71 432.41
  Q 373.51 431.99 373.09 431.79
  Q 372.60 431.57 372.04 431.44
  Q 371.63 431.35 371.31 431.10
  Q 369.81 429.92 368.14 431.08
  A 1.46 1.46 0.0 0 1 365.98 430.50
  Q 365.80 430.10 365.40 430.23
  Q 363.85 430.72 362.57 429.69
  A 0.66 0.65 53.2 0 0 361.89 429.59
  Q 360.91 430.00 360.01 429.49
  Q 359.74 429.33 359.79 429.64
  Q 359.80 429.70 359.75 429.72
  Q 359.45 429.85 359.37 429.51
  Q 359.17 428.67 358.40 428.76"
/>
<path stroke="#153d5d" vector-effect="non-scaling-stroke" d="
  M 563.42 380.61
  Q 564.48 380.38 564.66 381.30
  Q 564.78 381.89 565.20 381.46
  Q 565.86 380.79 566.92 380.31
  Q 570.48 378.70 574.08 377.44
  Q 575.06 377.10 576.17 376.18
  Q 577.62 374.98 578.65 375.46"
/>
<path stroke="#153d5d" vector-effect="non-scaling-stroke" d="
  M 598.89 358.97
  Q 598.69 361.73 600.36 363.32
  Q 601.18 364.10 601.07 362.98
  Q 600.83 360.49 599.25 358.60"
/>
<path stroke="#153d5d" vector-effect="non-scaling-stroke" d="
  M 684.06 577.19
  Q 683.30 577.61 682.84 578.36
  Q 682.51 578.90 681.99 578.53
  Q 681.61 578.26 681.15 578.48
  Q 680.61 578.74 680.02 578.58
  Q 677.16 577.84 674.66 578.77
  C 674.14 578.97 673.69 578.91 673.17 578.77
  Q 672.70 578.64 672.27 578.86
  L 668.45 580.78
  Q 668.04 580.99 667.75 581.35
  Q 667.13 582.18 666.27 582.72"
/>
<path stroke="#153d5d" vector-effect="non-scaling-stroke" d="
  M 553.64 582.15
  Q 553.18 582.39 554.58 583.77
  A 0.44 0.44 0.0 0 0 555.32 583.55
  Q 555.60 582.30 554.87 580.98"
/>
</g>
<path fill="#19476b" d="
  M 615.26 345.37
  Q 611.89 345.68 608.93 346.41
  Q 608.06 346.63 607.40 347.10
  Q 606.55 347.71 605.38 348.02
  A 0.95 0.93 -35.5 0 1 604.62 347.90
  C 603.73 347.34 602.40 347.05 601.46 347.66
  Q 600.93 348.01 600.28 348.08
  Q 599.78 348.14 599.41 348.48
  Q 598.18 349.61 597.20 349.44
  Q 594.56 343.49 590.82 338.69
  C 579.08 323.63 562.54 313.03 543.19 312.28
  Q 518.50 311.33 500.36 327.60
  Q 485.76 340.70 482.03 357.28
  Q 481.92 357.77 482.29 358.13
  Q 482.96 358.77 483.53 358.03
  C 491.16 348.07 501.34 337.31 512.56 332.23
  Q 529.70 324.46 546.00 325.75
  Q 570.79 327.72 588.66 347.05
  Q 584.81 348.77 583.48 349.57
  Q 580.28 351.47 576.59 352.15
  Q 576.16 352.23 576.06 352.64
  Q 575.81 353.68 575.00 354.58
  Q 574.67 354.95 574.18 354.82
  L 572.96 354.49
  Q 553.53 338.94 528.51 344.81
  C 511.37 348.82 498.65 362.36 493.17 378.61
  A 0.95 0.94 21.2 0 1 491.89 379.17
  Q 487.40 377.20 482.40 375.88
  Q 467.13 371.84 453.08 378.62
  Q 445.29 382.38 438.16 391.26
  Q 428.12 403.76 428.33 421.23
  Q 428.34 421.79 428.00 422.25
  Q 427.54 422.90 426.83 422.52
  C 422.29 420.09 417.23 417.66 412.28 416.97
  C 396.16 414.72 383.83 420.50 374.91 433.66
  Q 374.10 433.22 373.71 432.41
  Q 373.51 431.99 373.09 431.79
  Q 372.60 431.57 372.04 431.44
  Q 371.63 431.35 371.31 431.10
  Q 369.81 429.92 368.14 431.08
  A 1.46 1.46 0.0 0 1 365.98 430.50
  Q 365.80 430.10 365.40 430.23
  Q 363.85 430.72 362.57 429.69
  A 0.66 0.65 53.2 0 0 361.89 429.59
  Q 360.91 430.00 360.01 429.49
  Q 359.74 429.33 359.79 429.64
  Q 359.80 429.70 359.75 429.72
  Q 359.45 429.85 359.37 429.51
  Q 359.17 428.67 358.40 428.76
  Q 370.55 405.41 395.63 400.27
  C 400.50 399.27 405.26 399.47 410.33 399.37
  A 1.35 1.35 0.0 0 0 411.60 398.40
  Q 413.83 391.00 418.63 384.26
  C 426.17 373.65 434.70 365.38 446.84 360.73
  Q 454.46 357.82 462.26 356.20
  A 1.10 1.09 -1.2 0 0 463.13 355.30
  C 466.93 332.44 483.96 312.39 503.95 301.86
  Q 516.56 295.21 530.36 293.85
  C 538.69 293.03 549.00 293.11 557.39 294.81
  C 574.59 298.31 590.32 308.65 601.71 321.79
  Q 610.26 331.63 615.26 345.37
  Z"
/>
<path fill="#10324f" d="
  M 615.26 345.37
  Q 620.57 360.26 618.48 377.27
  Q 617.07 388.84 610.86 399.57
  A 0.96 0.96 0.0 0 0 611.77 401.01
  Q 622.41 400.17 633.00 401.26
  C 647.54 402.76 660.00 410.94 668.41 422.73
  Q 675.91 433.25 676.85 446.88
  C 678.09 465.05 670.54 481.26 656.16 491.81
  Q 641.90 502.28 622.23 502.26
  Q 535.65 502.13 444.45 502.29
  Q 438.41 502.30 431.88 501.45
  C 429.62 501.15 427.09 501.34 424.85 501.69
  Q 412.00 503.69 399.01 502.28
  Q 376.07 499.79 362.76 481.03
  Q 355.22 470.40 353.86 459.91
  C 352.47 449.18 353.29 438.40 358.40 428.76
  Q 359.17 428.67 359.37 429.51
  Q 359.45 429.85 359.75 429.72
  Q 359.80 429.70 359.79 429.64
  Q 359.74 429.33 360.01 429.49
  Q 360.91 430.00 361.89 429.59
  A 0.66 0.65 53.2 0 1 362.57 429.69
  Q 363.85 430.72 365.40 430.23
  Q 365.80 430.10 365.98 430.50
  A 1.46 1.46 0.0 0 0 368.14 431.08
  Q 369.81 429.92 371.31 431.10
  Q 371.63 431.35 372.04 431.44
  Q 372.60 431.57 373.09 431.79
  Q 373.51 431.99 373.71 432.41
  Q 374.10 433.22 374.91 433.66
  Q 367.21 448.35 372.00 462.37
  C 377.60 478.76 393.27 488.37 410.44 487.12
  Q 423.95 486.15 436.72 486.16
  Q 526.70 486.25 617.19 486.26
  C 628.46 486.26 638.54 485.00 647.38 477.30
  Q 648.71 476.13 650.25 475.17
  Q 650.75 474.86 650.19 474.69
  Q 648.78 474.28 647.50 474.28
  Q 616.69 474.24 580.00 474.26
  Q 517.75 474.31 455.50 474.41
  Q 451.81 474.42 447.55 474.12
  Q 436.34 473.33 427.70 465.84
  A 0.71 0.70 -54.4 0 0 426.63 466.02
  C 422.66 473.05 413.61 476.70 406.02 476.15
  C 396.74 475.49 389.39 470.39 385.75 461.98
  C 379.23 446.89 389.35 431.20 405.37 429.74
  Q 417.19 428.66 425.84 438.28
  Q 428.76 441.53 432.13 448.06
  Q 437.91 459.24 450.72 459.20
  C 475.91 459.10 501.09 459.37 526.25 459.02
  Q 581.37 458.25 636.90 458.56
  Q 642.47 458.59 647.60 458.90
  Q 653.07 459.22 658.40 458.86
  A 1.71 1.71 0.0 0 0 659.99 457.21
  L 660.27 448.73
  Q 660.32 447.26 658.85 447.26
  Q 591.61 447.21 526.93 447.30
  C 513.33 447.32 500.99 446.34 492.30 435.66
  Q 491.91 435.18 491.55 435.69
  Q 485.14 444.79 472.81 445.58
  Q 456.53 446.63 448.19 432.98
  Q 441.79 422.49 446.45 410.45
  Q 449.61 402.28 457.38 397.84
  Q 469.28 391.03 481.12 395.84
  C 488.35 398.78 494.83 406.48 496.87 413.92
  C 498.81 421.04 502.44 427.48 509.08 430.28
  Q 512.05 431.52 517.70 431.53
  Q 540.35 431.54 562.49 431.41
  Q 602.84 431.17 646.50 431.24
  Q 648.71 431.24 651.28 431.06
  A 1.10 1.10 0.0 0 0 651.99 429.19
  C 645.47 422.51 638.56 418.80 629.33 418.76
  Q 598.86 418.65 569.20 418.75
  Q 565.29 418.76 563.91 415.35
  C 562.67 412.30 562.64 407.67 565.35 405.24
  Q 568.00 402.86 568.41 398.23
  Q 569.32 388.21 563.42 380.61
  Q 564.48 380.38 564.66 381.30
  Q 564.78 381.89 565.20 381.46
  Q 565.86 380.79 566.92 380.31
  Q 570.48 378.70 574.08 377.44
  Q 575.06 377.10 576.17 376.18
  Q 577.62 374.98 578.65 375.46
  C 583.51 383.88 584.00 391.36 583.47 401.17
  Q 583.41 402.28 584.52 402.26
  L 591.75 402.14
  Q 593.01 402.11 592.98 400.85
  Q 592.83 393.38 592.29 387.98
  C 591.00 374.94 583.13 362.76 572.96 354.49
  L 574.18 354.82
  Q 574.67 354.95 575.00 354.58
  Q 575.81 353.68 576.06 352.64
  Q 576.16 352.23 576.59 352.15
  Q 580.28 351.47 583.48 349.57
  Q 584.81 348.77 588.66 347.05
  C 592.23 350.38 597.05 354.35 598.04 359.35
  A 0.36 0.35 -13.4 0 0 598.49 359.62
  Q 598.84 359.52 598.89 358.97
  Q 598.69 361.73 600.36 363.32
  Q 601.18 364.10 601.07 362.98
  Q 600.83 360.49 599.25 358.60
  L 597.20 349.44
  Q 598.18 349.61 599.41 348.48
  Q 599.78 348.14 600.28 348.08
  Q 600.93 348.01 601.46 347.66
  C 602.40 347.05 603.73 347.34 604.62 347.90
  A 0.95 0.93 -35.5 0 0 605.38 348.02
  Q 606.55 347.71 607.40 347.10
  Q 608.06 346.63 608.93 346.41
  Q 611.89 345.68 615.26 345.37
  Z
  M 478.6038 425.9875
  A 10.08 9.67 36.3 0 0 476.2048 412.2267
  A 10.08 9.67 36.3 0 0 462.3562 414.0525
  A 10.08 9.67 36.3 0 0 464.7552 427.8133
  A 10.08 9.67 36.3 0 0 478.6038 425.9875
  Z
  M 412.7154 457.7931
  A 7.49 7.23 38.7 0 0 411.3905 447.4675
  A 7.49 7.23 38.7 0 0 401.0246 448.4269
  A 7.49 7.23 38.7 0 0 402.3495 458.7525
  A 7.49 7.23 38.7 0 0 412.7154 457.7931
  Z"
/>
<path fill="#19476b" d="
  M 578.65 375.46
  Q 577.62 374.98 576.17 376.18
  Q 575.06 377.10 574.08 377.44
  Q 570.48 378.70 566.92 380.31
  Q 565.86 380.79 565.20 381.46
  Q 564.78 381.89 564.66 381.30
  Q 564.48 380.38 563.42 380.61
  C 557.91 373.54 549.09 369.04 540.00 371.14
  C 530.02 373.44 523.24 380.47 521.83 390.55
  C 521.27 394.54 523.18 398.50 524.81 402.20
  C 527.06 407.30 523.47 412.38 517.97 412.17
  C 511.51 411.93 507.21 405.22 506.66 399.53
  C 506.15 394.34 505.82 388.71 507.19 383.63
  C 510.68 370.61 520.64 360.97 533.48 357.28
  Q 543.09 354.51 553.19 356.83
  Q 569.13 360.49 578.65 375.46
  Z"
/>
<path fill="#19476b" d="
  M 599.25 358.60
  Q 600.83 360.49 601.07 362.98
  Q 601.18 364.10 600.36 363.32
  Q 598.69 361.73 598.89 358.97
  Q 599.07 358.78 599.25 358.60
  Z"
/>
<path fill="#10324f" d="
  M 321.56 600.56
  Q 322.40 601.12 322.41 600.11
  Q 322.70 578.70 322.63 548.25
  Q 322.63 547.08 322.79 545.96
  A 1.82 1.81 2.0 0 1 324.45 544.42
  Q 331.33 543.89 339.07 544.49
  A 1.55 1.54 2.2 0 1 340.50 546.03
  L 340.52 638.03
  A 1.55 1.55 0.0 0 1 338.97 639.58
  L 328.14 639.58
  A 3.97 3.96 -18.8 0 1 325.00 638.04
  Q 321.41 633.41 318.27 628.49
  Q 305.54 608.52 294.79 592.61
  Q 291.37 587.55 288.20 582.24
  A 0.46 0.46 0.0 0 0 287.40 582.24
  Q 287.31 582.38 287.25 582.52
  Q 287.14 582.74 287.16 582.97
  Q 287.42 585.84 287.47 588.54
  Q 287.87 611.49 287.65 635.04
  Q 287.63 636.60 287.47 638.17
  A 1.46 1.46 0.0 0 1 286.05 639.48
  L 273.03 639.78
  Q 269.71 639.86 269.71 636.53
  L 269.69 546.80
  Q 269.68 544.29 272.20 544.27
  L 282.39 544.18
  A 4.36 4.34 -16.9 0 1 286.06 546.13
  Q 302.96 571.61 319.83 597.45
  C 320.48 598.43 320.59 599.91 321.56 600.56
  Z"
/>
<path fill="#10324f" d="
  M 452.19 582.76
  C 454.18 582.06 455.81 580.93 457.84 580.21
  Q 467.93 576.65 477.05 580.09
  C 495.05 586.87 502.50 607.09 493.61 623.88
  Q 484.59 640.92 463.83 640.57
  Q 448.94 640.31 440.17 628.08
  C 435.90 622.12 434.41 616.48 434.44 608.89
  Q 434.55 577.84 434.45 547.16
  Q 434.44 544.59 437.00 544.41
  C 441.10 544.13 445.22 544.14 449.31 544.31
  Q 451.91 544.42 451.96 546.97
  Q 452.34 566.25 451.69 582.39
  Q 451.67 582.95 452.19 582.76
  Z
  M 465.0751 624.3300
  A 14.87 14.42 92.1 0 0 480.0303 609.9984
  A 14.87 14.42 92.1 0 0 466.1649 594.6100
  A 14.87 14.42 92.1 0 0 451.2097 608.9416
  A 14.87 14.42 92.1 0 0 465.0751 624.3300
  Z"
/>
<path fill="#19476b" d="
  M 684.06 577.19
  Q 683.30 577.61 682.84 578.36
  Q 682.51 578.90 681.99 578.53
  Q 681.61 578.26 681.15 578.48
  Q 680.61 578.74 680.02 578.58
  Q 677.16 577.84 674.66 578.77
  C 674.14 578.97 673.69 578.91 673.17 578.77
  Q 672.70 578.64 672.27 578.86
  L 668.45 580.78
  Q 668.04 580.99 667.75 581.35
  Q 667.13 582.18 666.27 582.72
  L 666.31 547.23
  Q 666.32 544.46 669.08 544.33
  Q 675.12 544.04 681.92 544.43
  Q 684.15 544.56 684.14 546.79
  L 684.06 577.19
  Z"
/>
<path fill="#10324f" d="
  M 717.27 578.56
  L 717.17 561.83
  Q 717.15 558.49 720.50 558.54
  L 732.76 558.76
  A 1.50 1.50 0.0 0 1 734.24 560.26
  L 734.25 578.72
  A 0.80 0.80 0.0 0 0 735.06 579.52
  Q 742.58 579.42 749.68 579.42
  C 751.20 579.42 752.63 580.15 753.56 581.33
  Q 758.26 587.30 753.93 593.00
  Q 752.93 594.32 751.16 594.41
  Q 742.49 594.83 735.18 594.53
  A 0.90 0.90 0.0 0 0 734.25 595.41
  Q 734.12 604.61 734.26 613.40
  C 734.35 618.99 737.64 625.46 743.73 625.27
  C 748.56 625.12 753.07 624.34 754.84 630.22
  C 756.22 634.80 753.10 638.43 748.86 639.62
  C 743.16 641.21 735.85 640.44 731.13 638.07
  C 722.07 633.52 717.48 624.20 717.32 613.86
  Q 717.17 603.96 717.26 595.66
  A 1.27 1.27 0.0 0 0 715.73 594.40
  Q 713.23 594.95 710.87 594.96
  C 706.39 594.99 703.96 590.62 704.51 586.52
  C 705.54 578.97 710.58 579.20 716.50 579.32
  Q 717.27 579.33 717.27 578.56
  Z"
/>
<path fill="#10324f" d="
  M 684.06 577.19
  L 684.22 623.27
  A 0.93 0.93 0.0 0 0 685.13 624.19
  Q 692.94 624.35 700.84 624.06
  C 710.76 623.69 710.03 639.47 702.79 639.47
  Q 685.63 639.46 669.69 639.60
  Q 668.35 639.61 667.21 638.90
  Q 666.72 638.60 666.72 638.03
  L 666.27 582.72
  Q 667.13 582.18 667.75 581.35
  Q 668.04 580.99 668.45 580.78
  L 672.27 578.86
  Q 672.70 578.64 673.17 578.77
  C 673.69 578.91 674.14 578.97 674.66 578.77
  Q 677.16 577.84 680.02 578.58
  Q 680.61 578.74 681.15 578.48
  Q 681.61 578.26 681.99 578.53
  Q 682.51 578.90 682.84 578.36
  Q 683.30 577.61 684.06 577.19
  Z"
/>
<path fill="#10324f" d="
  M 553.64 582.15
  Q 553.18 582.39 554.58 583.77
  A 0.44 0.44 0.0 0 0 555.32 583.55
  Q 555.60 582.30 554.87 580.98
  Q 555.42 579.43 557.00 579.35
  Q 563.37 579.02 569.64 579.01
  Q 571.10 579.01 571.09 580.46
  Q 571.04 606.49 571.03 631.48
  Q 571.03 634.99 570.38 638.57
  Q 570.18 639.67 569.06 639.77
  Q 562.61 640.29 556.96 639.42
  A 1.38 1.38 0.0 0 1 555.81 638.29
  L 555.41 636.02
  A 0.81 0.81 0.0 0 0 554.08 635.54
  C 549.31 639.57 542.92 640.62 536.51 640.38
  C 525.06 639.94 515.40 631.24 511.63 621.02
  C 506.49 607.12 511.15 592.30 523.34 583.69
  Q 533.29 576.65 545.52 579.28
  Q 548.07 579.82 553.64 582.15
  Z
  M 546.5108 623.2730
  A 14.27 13.85 65.0 0 0 553.0324 604.4867
  A 14.27 13.85 65.0 0 0 534.4492 597.4070
  A 14.27 13.85 65.0 0 0 527.9276 616.1933
  A 14.27 13.85 65.0 0 0 546.5108 623.2730
  Z"
/>
<path fill="#10324f" d="
  M 399.57 635.18
  Q 394.25 639.42 388.63 640.17
  Q 370.95 642.50 362.54 626.94
  Q 358.94 620.27 358.80 611.74
  Q 358.53 595.89 358.76 581.23
  A 2.14 2.14 0.0 0 1 360.87 579.12
  L 374.91 578.89
  A 0.78 0.77 89.6 0 1 375.69 579.67
  Q 375.54 596.14 375.65 610.75
  Q 375.67 613.57 376.38 616.49
  C 377.64 621.68 382.30 624.95 387.64 624.39
  C 397.96 623.32 400.27 616.39 400.26 607.18
  Q 400.24 596.03 400.05 585.83
  Q 400.00 583.07 400.36 580.31
  A 1.29 1.29 0.0 0 1 401.62 579.18
  L 416.17 578.97
  A 1.27 1.26 89.3 0 1 417.45 580.23
  Q 417.61 608.94 417.43 636.70
  C 417.41 639.82 415.38 639.98 412.99 639.97
  Q 407.49 639.93 403.09 639.55
  A 2.11 2.09 0.3 0 1 401.18 637.63
  Q 401.09 636.46 400.61 635.42
  Q 400.25 634.64 399.57 635.18
  Z"
/>
<path fill="#10324f" d="
  M 630.33 634.98
  A 0.95 0.94 -32.8 0 0 628.73 634.64
  C 623.58 640.26 616.06 641.12 608.76 640.14
  C 597.72 638.65 588.72 628.31 587.63 617.66
  Q 586.93 610.88 587.05 603.27
  Q 587.22 592.21 587.42 580.23
  A 1.17 1.17 0.0 0 1 588.58 579.07
  L 602.94 578.90
  A 1.34 1.34 0.0 0 1 604.29 580.26
  Q 604.07 595.60 604.15 611.50
  C 604.20 622.05 611.64 627.15 621.47 622.89
  Q 628.39 619.89 628.44 612.60
  Q 628.53 600.11 628.48 582.58
  Q 628.47 579.04 632.01 579.01
  L 644.48 578.93
  A 1.05 1.05 0.0 0 1 645.54 579.97
  Q 645.70 604.50 645.82 632.80
  Q 645.83 635.77 645.50 638.74
  A 1.36 1.35 3.5 0 1 644.13 639.95
  L 632.08 639.78
  A 1.69 1.68 6.1 0 1 630.45 637.77
  Q 630.75 636.24 630.33 634.98
  Z"
/>
<path fill="#19476b" d="
  M 554.87 580.98
  Q 555.60 582.30 555.32 583.55
  A 0.44 0.44 0.0 0 1 554.58 583.77
  Q 553.18 582.39 553.64 582.15
  Q 554.47 581.61 554.87 580.98
  Z"
/>
<path fill="#10324f" d="
  M 598.97 685.12
  A 0.92 0.84 -86.2 0 0 599.21 684.89
  Q 603.84 678.43 608.92 674.12
  Q 611.56 671.88 614.85 672.96
  C 617.82 673.94 618.88 676.10 616.88 678.70
  Q 613.00 683.76 608.00 688.90
  A 2.14 2.14 0.0 0 0 607.77 691.60
  Q 611.87 697.55 617.05 703.84
  C 618.82 705.99 620.64 709.87 617.52 711.73
  C 612.87 714.52 610.46 712.35 607.70 708.52
  Q 603.84 703.17 600.68 698.11
  A 1.06 1.06 0.0 0 0 598.76 698.36
  Q 597.33 703.10 597.43 708.39
  C 597.56 715.52 587.39 714.20 587.40 707.20
  Q 587.40 692.51 587.40 676.86
  Q 587.39 673.26 590.99 673.12
  Q 592.27 673.07 593.55 673.15
  Q 597.13 673.40 597.34 676.98
  Q 597.57 680.80 597.48 684.49
  Q 597.43 686.11 598.97 685.12
  Z"
/>
<path fill="#10324f" d="
  M 483.71 705.80
  C 482.99 709.17 482.34 712.71 477.96 712.64
  C 472.32 712.56 472.53 708.15 474.15 704.30
  Q 477.83 695.54 481.64 686.25
  C 483.15 682.58 484.41 678.77 486.19 675.30
  C 487.26 673.22 489.66 672.77 491.81 672.86
  Q 495.60 673.03 496.68 675.78
  Q 501.86 688.94 508.20 702.96
  C 509.57 705.99 511.10 711.04 506.45 712.16
  C 501.22 713.43 499.28 709.16 497.72 705.23
  A 2.00 2.00 0.0 0 0 495.75 703.97
  L 485.25 704.49
  Q 483.97 704.55 483.71 705.80
  Z
  M 488.24 693.99
  A 0.94 0.94 0.0 0 0 489.13 695.25
  L 493.18 695.22
  A 0.94 0.94 0.0 0 0 494.05 693.94
  L 491.98 688.50
  A 0.94 0.94 0.0 0 0 490.22 688.51
  L 488.24 693.99
  Z"
/>
<path fill="#10324f" d="
  M 554.43 692.12
  Q 554.53 692.04 554.65 692.07
  Q 555.37 692.28 555.36 691.51
  Q 555.27 683.73 555.44 677.17
  C 555.52 674.15 557.28 672.89 560.29 672.86
  Q 564.80 672.82 564.75 677.05
  Q 564.58 692.68 565.25 706.21
  C 565.36 708.44 565.01 711.60 562.30 712.14
  Q 557.21 713.15 554.81 709.96
  Q 548.18 701.17 541.50 691.87
  Q 541.08 691.29 540.74 691.92
  Q 540.41 692.54 540.50 693.22
  Q 541.57 701.02 540.68 709.34
  Q 540.31 712.83 536.81 712.59
  Q 535.92 712.53 535.06 712.40
  Q 531.18 711.81 531.22 707.89
  Q 531.35 692.45 530.96 677.55
  C 530.92 675.96 531.50 673.98 533.17 673.45
  C 536.93 672.26 539.70 673.00 541.94 676.11
  Q 546.97 683.09 552.67 690.03
  C 553.04 690.49 553.38 691.36 553.62 691.91
  Q 553.91 692.58 554.43 692.12
  Z"
/>
<path fill="#10324f" d="
  M 450.84 692.84
  C 452.92 695.43 454.95 698.48 454.50 701.92
  C 452.83 714.61 438.48 711.91 428.29 712.23
  Q 423.08 712.40 423.10 706.82
  Q 423.15 693.40 423.34 679.35
  C 423.37 677.12 423.34 673.36 426.43 673.30
  Q 434.17 673.14 441.04 673.29
  C 446.65 673.42 451.87 676.99 452.53 682.78
  Q 453.06 687.43 450.80 690.51
  A 1.91 1.91 0.0 0 0 450.84 692.84
  Z
  M 440.75 688.30
  A 2.19 2.19 0.0 0 0 442.22 687.20
  L 442.92 685.93
  A 2.19 2.19 0.0 0 0 441.19 682.70
  L 434.94 682.14
  A 2.19 2.19 0.0 0 0 432.55 684.24
  L 432.44 687.26
  A 2.19 2.19 0.0 0 0 435.08 689.49
  L 440.75 688.30
  Z
  M 442.23 703.20
  A 2.09 2.09 0.0 0 0 444.07 700.55
  L 443.56 698.74
  A 2.09 2.09 0.0 0 0 441.60 697.22
  L 434.55 697.04
  A 2.09 2.09 0.0 0 0 432.41 699.23
  L 432.54 701.86
  A 2.09 2.09 0.0 0 0 434.81 703.84
  L 442.23 703.20
  Z"
/>
<rect fill="#10324f" x="370.65" y="684.35" width="27.18" height="6.94" rx="3.37"/>
<rect fill="#10324f" x="642.43" y="684.34" width="25.94" height="7.00" rx="3.39"/>
</svg>
