<svg width="28" height="28" viewBox="0 0 28 28" fill="none" xmlns="http://www.w3.org/2000/svg">
<rect x="1.16699" y="4.66602" width="25.6667" height="18.6667" rx="2" stroke="#FF8B6A" stroke-width="1.5"/>
<path d="M11.667 8.16602L23.3337 8.16602" stroke="#FF8B6A" stroke-width="1.8" stroke-linecap="round"/>
<path d="M12.834 11.082H22.1673" stroke="#FF8B6A" stroke-width="1.8" stroke-linecap="round"/>
<path fill-rule="evenodd" clip-rule="evenodd" d="M5.28962 14.1938C5.28962 13.2488 6.05571 12.4827 7.00073 12.4827C7.94575 12.4827 8.71184 13.2488 8.71184 14.1938C8.71184 15.1388 7.94575 15.9049 7.00073 15.9049C6.05571 15.9049 5.28962 15.1388 5.28962 14.1938ZM3.58347 18.4669C4.09209 17.2226 5.45038 16.3716 7.00074 16.3716C8.55107 16.3716 9.90935 17.2226 10.418 18.4668C10.5322 18.7463 10.4142 19.0318 10.1988 19.1863C9.32756 19.8111 8.21161 20.1827 7.0007 20.1827C5.78983 20.1827 4.6739 19.8111 3.80268 19.1863C3.58722 19.0318 3.46922 18.7464 3.58347 18.4669Z" fill="#FF8B6A"/>
</svg>
