<svg width="20" height="20" viewBox="0 0 20 20" fill="none" xmlns="http://www.w3.org/2000/svg">
<path fill-rule="evenodd" clip-rule="evenodd" d="M13.0527 3.14457C11.5754 2.48633 9.92486 2.32326 8.34731 2.67968C6.76975 3.03611 5.34968 3.89294 4.29887 5.12238C3.24807 6.35182 2.62284 7.888 2.51642 9.50181C2.41001 11.1156 2.82811 12.7206 3.70838 14.0774C4.58865 15.4341 5.88392 16.47 7.40102 17.0305C8.91811 17.591 10.5757 17.6461 12.1267 17.1875C13.6776 16.7289 15.0388 15.7813 16.0072 14.4859C16.9755 13.1906 17.4992 11.6169 17.5002 9.99957V9.23338C17.5002 8.77315 17.8733 8.40005 18.3335 8.40005C18.7937 8.40005 19.1668 8.77315 19.1668 9.23338V10.0001C19.1657 11.9768 18.5256 13.9006 17.3421 15.4839C16.1585 17.0671 14.4948 18.2253 12.5992 18.7858C10.7036 19.3462 8.67765 19.2789 6.82343 18.5939C4.9692 17.9089 3.3861 16.6428 2.31021 14.9845C1.23432 13.3262 0.723305 11.3646 0.853366 9.39215C0.983428 7.41971 1.7476 5.54216 3.03192 4.03951C4.31624 2.53686 6.05188 1.48963 7.98 1.05399C9.90812 0.618361 11.9254 0.817669 13.731 1.62219C14.1514 1.80951 14.3403 2.30216 14.153 2.72255C13.9657 3.14294 13.4731 3.33189 13.0527 3.14457Z" fill="#5564D7"/>
<path fill-rule="evenodd" clip-rule="evenodd" d="M18.9226 2.74378C19.2482 3.06906 19.2485 3.59669 18.9232 3.92229L10.5899 12.264C10.4336 12.4204 10.2216 12.5083 10.0005 12.5083C9.77945 12.5084 9.5674 12.4206 9.41107 12.2643L6.91107 9.76426C6.58563 9.43882 6.58563 8.91118 6.91107 8.58574C7.23651 8.26031 7.76414 8.26031 8.08958 8.58574L10 10.4962L17.7441 2.74437C18.0694 2.41877 18.597 2.41851 18.9226 2.74378Z" fill="#5564D7"/>
</svg>
