<svg width="24" height="24" viewBox="0 0 24 24" fill="none" xmlns="http://www.w3.org/2000/svg">
<path d="M21 17.814C21 18.3277 20.5835 18.7442 20.0698 18.7442H3.93023C3.41648 18.7442 3 18.3277 3 17.814V17.7837C3 17.2867 3.40294 16.8837 3.9 16.8837V10.4009C3.9 5.76093 7.527 2 12 2C16.473 2 20.1 5.76093 20.1 10.4009V16.8837C20.5971 16.8837 21 17.2867 21 17.7837V17.814ZM5.7 16.8837H18.3V10.4009C18.3 6.78884 15.4794 3.86047 12 3.86047C8.5206 3.86047 5.7 6.78884 5.7 10.4009V16.8837ZM9.95561 20.6456C9.73121 20.141 10.1977 19.6744 10.75 19.6744H13.25C13.8023 19.6744 14.2688 20.141 14.0444 20.6456C13.9341 20.8937 13.7814 21.1221 13.591 21.3189C13.169 21.755 12.5967 22 12 22C11.4033 22 10.831 21.755 10.409 21.3189C10.2186 21.1221 10.0659 20.8937 9.95561 20.6456Z" fill="#2D2D2D"/>
</svg>
