<svg width="30" height="30" viewBox="0 0 30 30" fill="none" xmlns="http://www.w3.org/2000/svg">
<path d="M29.375 8.75H0.625V20.625H29.375V8.75Z" fill="#E6E6E6"/>
<path d="M2.5 25.625H27.5C28.5356 25.625 29.375 24.7856 29.375 23.75V20.625H0.625V23.75C0.625 24.7856 1.46438 25.625 2.5 25.625Z" fill="#E79800"/>
<path d="M27.5 4.375H2.5C1.46438 4.375 0.625 5.21438 0.625 6.25V9.375H29.375V6.25C29.375 5.21438 28.5356 4.375 27.5 4.375Z" fill="#1A1876"/>
<path d="M12.0234 18.0001H13.6541L14.6747 12.0151H13.0434L12.0234 18.0001Z" fill="#1A1876"/>
<path d="M17.9646 14.4181C17.3946 14.1413 17.0452 13.9563 17.049 13.6763C17.049 13.4275 17.3446 13.1613 17.9834 13.1613C18.5059 13.1531 18.9271 13.2594 19.3509 13.4594L19.5721 12.1619C19.249 12.0406 18.7427 11.9106 18.1102 11.9106C16.4984 11.9106 15.3627 12.7225 15.3534 13.8856C15.344 14.7456 16.164 15.2256 16.7827 15.5119C17.4177 15.805 17.6315 15.9925 17.6284 16.2544C17.6246 16.6556 17.1215 16.8388 16.6521 16.8388C15.9284 16.8388 15.5634 16.7269 14.9065 16.4294L14.6777 17.7694C15.059 17.9363 15.7634 18.0813 16.4952 18.0888C18.2102 18.0888 19.3234 17.2863 19.3359 16.0438C19.3402 15.3631 18.9059 14.845 17.9646 14.4181Z" fill="#1A1876"/>
<path d="M23.7543 12.0205H22.4937C22.103 12.0205 21.8112 12.1274 21.6393 12.5168L19.2168 18.0018H20.9299C20.9299 18.0018 21.2099 17.2643 21.2737 17.1024C21.4612 17.1024 23.1249 17.1049 23.363 17.1049C23.4118 17.3143 23.5618 18.0018 23.5618 18.0018H25.0755L23.7543 12.0205ZM21.743 15.8786C21.8105 15.7061 22.4762 13.9968 22.6093 13.6343C22.8299 14.6661 22.6149 13.6649 23.0974 15.8786H21.743Z" fill="#1A1876"/>
<path d="M10.6564 12.0194L9.05891 16.1006L8.88891 15.2712L8.31703 12.5206C8.21828 12.1419 7.93203 12.0287 7.57766 12.0156H4.94641L4.92578 12.14C5.56578 12.295 6.13766 12.5188 6.63953 12.7963L8.09016 17.9944L9.81641 17.9925L12.3845 12.0187H10.6564V12.0194Z" fill="#1A1876"/>
</svg>
