<svg width="18" height="18" viewBox="0 0 18 18" fill="none" xmlns="http://www.w3.org/2000/svg">
<path d="M9.1375 3.68106C10.4062 3.68029 11.6342 4.12178 12.604 4.92729L15.3204 2.38003C14.2777 1.43323 13.0252 0.738785 11.6623 0.351816C10.2994 -0.0351539 8.86373 -0.103999 7.46913 0.150743C6.07453 0.405486 4.75942 0.976804 3.62817 1.81936C2.49692 2.66191 1.58068 3.7525 0.952148 5.00459L4.01454 7.32894C4.37169 6.26844 5.05863 5.34546 5.97808 4.69076C6.89752 4.03606 8.00285 3.68281 9.1375 3.68106Z" fill="#E04343"/>
<path d="M3.73817 8.99739C3.73893 8.43001 3.83233 7.86644 4.01479 7.32826L0.952399 5.00391C0.325987 6.24478 0 7.61167 0 8.99739C0 10.3831 0.325987 11.75 0.952399 12.9909L4.01479 10.6665C3.83233 10.1283 3.73893 9.56477 3.73817 8.99739Z" fill="#FFC95F"/>
<path d="M17.9016 7.3623H9.1792V11.0433H14.1219C13.8279 12.0841 13.1542 12.9815 12.23 13.5636L15.2687 15.8703C17.2105 14.1542 18.3514 11.3636 17.9016 7.3623Z" fill="#5564D7"/>
<path d="M12.2285 13.5641C11.2895 14.0934 10.2189 14.3538 9.1375 14.3158C8.00285 14.3141 6.89752 13.9609 5.97808 13.3062C5.05864 12.6514 4.37169 11.7285 4.01454 10.668L0.952148 12.9923C1.70856 14.4938 2.87542 15.7577 4.32146 16.6418C5.76751 17.5259 7.43539 17.9952 9.1375 17.9969C11.3772 18.0568 13.5604 17.2993 15.2673 15.8701L12.2285 13.5641Z" fill="#FF8B6A"/>
</svg>
