<svg width="12" height="12" viewBox="0 0 12 12" fill="none" xmlns="http://www.w3.org/2000/svg">
<path fill-rule="evenodd" clip-rule="evenodd" d="M6.6991 0.541377C6.90271 0.629762 7.02368 0.841796 6.99614 1.06205L6.5664 4.50003H10.5C10.694 4.50003 10.8705 4.61226 10.9528 4.78795C11.0351 4.96364 11.0083 5.17108 10.8841 5.32012L5.88412 11.3201C5.74202 11.4906 5.50452 11.5471 5.30091 11.4587C5.0973 11.3703 4.97634 11.1583 5.00387 10.938L5.43361 7.50003H1.50001C1.306 7.50003 1.1295 7.3878 1.04721 7.21211C0.964921 7.03641 0.991694 6.82898 1.1159 6.67994L6.1159 0.679936C6.25799 0.509419 6.49549 0.452993 6.6991 0.541377ZM2.56753 6.50003H6.00001C6.14342 6.50003 6.27993 6.56161 6.37485 6.66913C6.46976 6.77664 6.51393 6.91974 6.49614 7.06205L6.20768 9.3698L9.43248 5.50003H6.00001C5.85659 5.50003 5.72008 5.43844 5.62517 5.33093C5.53025 5.22341 5.48608 5.08032 5.50387 4.93801L5.79234 2.63026L2.56753 6.50003Z" fill="#E04343"/>
</svg>
