<svg width="20" height="20" viewBox="0 0 20 20" fill="none" xmlns="http://www.w3.org/2000/svg">
<g clip-path="url(#clip0_44451_38584)">
<path fill-rule="evenodd" clip-rule="evenodd" d="M19.1667 2.49984C19.6269 2.49984 20 2.87293 20 3.33317V8.33317C20 8.79341 19.6269 9.1665 19.1667 9.1665H14.1667C13.7064 9.1665 13.3333 8.79341 13.3333 8.33317C13.3333 7.87293 13.7064 7.49984 14.1667 7.49984H18.3333V3.33317C18.3333 2.87293 18.7064 2.49984 19.1667 2.49984Z" fill="#5564D7"/>
<path fill-rule="evenodd" clip-rule="evenodd" d="M2.51564e-06 11.6665C2.51564e-06 11.2063 0.373098 10.8332 0.833336 10.8332H5.83334C6.29357 10.8332 6.66667 11.2063 6.66667 11.6665C6.66667 12.1267 6.29357 12.4998 5.83334 12.4998H1.66667V16.6665C1.66667 17.1267 1.29357 17.4998 0.833336 17.4998C0.373098 17.4998 2.51564e-06 17.1267 2.51564e-06 16.6665V11.6665Z" fill="#5564D7"/>
<path fill-rule="evenodd" clip-rule="evenodd" d="M11.8478 3.5957C10.766 3.28278 9.62253 3.24901 8.52414 3.49754C7.42576 3.74606 6.40823 4.26878 5.5665 5.01691C4.72477 5.76505 4.08628 6.71422 3.7106 7.77586C3.55707 8.20974 3.08088 8.437 2.64701 8.28346C2.21313 8.12993 1.98587 7.65374 2.13941 7.21987C2.60901 5.89282 3.40712 4.70635 4.45928 3.77118C5.51144 2.83601 6.78335 2.18261 8.15634 1.87196C9.52932 1.56131 10.9586 1.60352 12.3109 1.99466C13.6588 2.38456 14.8864 3.1085 15.8799 4.09927L19.7373 7.72391C20.0727 8.03906 20.0891 8.56645 19.774 8.90185C19.4588 9.23725 18.9314 9.25365 18.596 8.93849L14.7294 5.30516C14.723 5.2992 14.7168 5.29313 14.7106 5.28697C13.9145 4.49047 12.9296 3.90861 11.8478 3.5957ZM0.226042 11.0939C0.541201 10.7585 1.06858 10.7421 1.40398 11.0572L5.27065 14.6906C5.277 14.6965 5.28325 14.7026 5.28941 14.7088C6.08552 15.5053 7.07042 16.0871 8.15223 16.4C9.23403 16.713 10.3775 16.7467 11.4759 16.4982C12.5742 16.2497 13.5918 15.727 14.4335 14.9788C15.2752 14.2307 15.9137 13.2815 16.2894 12.2199C16.4429 11.786 16.9191 11.5587 17.353 11.7123C17.7869 11.8658 18.0141 12.342 17.8606 12.7759C17.391 14.1029 16.5929 15.2894 15.5407 16.2245C14.4886 17.1597 13.2166 17.8131 11.8437 18.1238C10.4707 18.4344 9.04138 18.3922 7.68913 18.0011C6.34117 17.6112 5.11356 16.8872 4.12009 15.8965L0.262689 12.2718C-0.0727107 11.9567 -0.089118 11.4293 0.226042 11.0939Z" fill="#5564D7"/>
</g>
<defs>
<clipPath id="clip0_44451_38584">
<rect width="20" height="20" fill="white"/>
</clipPath>
</defs>
</svg>
