<svg width="20" height="20" viewBox="0 0 20 20" fill="none" xmlns="http://www.w3.org/2000/svg">
<g clip-path="url(#clip0_44451_38867)">
<path d="M13.3334 19.1665C12.8334 19.1665 12.5 18.8331 12.5 18.3331V15.0831C12.5834 14.4165 12.3334 13.9165 11.9167 13.4998C11.6667 13.2498 11.5834 12.9165 11.75 12.6665C11.8334 12.3331 12.1667 12.1665 12.4167 12.0831C14.8334 11.8331 17.0834 10.9998 17.0834 7.08313C17.0834 6.16646 16.75 5.24979 16.0834 4.49979C15.8334 4.24979 15.8334 3.91646 15.9167 3.66646C16.1667 2.99979 16.1667 2.33312 16 1.66646C15.5834 1.74979 14.9167 1.99979 13.8334 2.74979C13.6667 2.91646 13.4167 2.91646 13.1667 2.83313C11.4167 2.33313 9.50005 2.33313 7.75005 2.83313C7.50005 2.91646 7.25005 2.91646 7.00005 2.74979C6.00005 1.99979 5.25005 1.74979 4.83338 1.66646C4.66671 2.33312 4.66671 2.99979 4.91671 3.66646C5.00005 3.99979 5.00005 4.33313 4.75005 4.49979C4.08338 5.24979 3.75005 6.16646 3.75005 7.08313C3.75005 10.9998 6.00005 11.8331 8.41671 12.0831C8.75005 12.0831 9.00005 12.3331 9.08338 12.6665C9.16671 12.9998 9.08338 13.3331 8.91671 13.4998C8.50005 13.9165 8.33338 14.4165 8.33338 14.9998V15.7498V15.8331V18.2498C8.33338 18.7498 8.00005 19.0831 7.50005 19.0831C7.00005 19.0831 6.66671 18.7498 6.66671 18.2498V16.8331C4.16671 17.2498 3.08338 15.8331 2.33338 14.9165C2.00005 14.4998 1.75005 14.1665 1.41671 14.0831C1.00005 13.9998 0.666714 13.4998 0.833381 13.0831C0.916714 12.6665 1.41671 12.3331 1.83338 12.4998C2.66671 12.7498 3.16671 13.3331 3.66671 13.9165C4.33338 14.8331 4.91671 15.4998 6.66671 15.1665V15.0831C6.66671 14.5831 6.75005 13.9998 6.91671 13.5831C4.58338 13.0831 2.08338 11.5831 2.08338 7.16646C2.08338 5.91646 2.50005 4.74979 3.25005 3.83313C2.91671 2.66646 3.00005 1.58312 3.50005 0.499792C3.58338 0.249792 3.75005 0.0831249 4.00005 -0.000208437C4.33338 -0.0835418 5.41671 -0.250208 7.66671 1.16646C9.50005 0.749792 11.4167 0.749792 13.1667 1.16646C15.3334 -0.250208 16.5 -0.0835418 16.8334 -0.000208437C17.0834 0.0831249 17.25 0.249792 17.3334 0.499792C17.75 1.58312 17.8334 2.66646 17.5834 3.74979C18.3334 4.66646 18.75 5.83313 18.75 7.08313C18.75 11.8331 15.9167 13.0831 13.9167 13.5831C14.0834 14.0831 14.1667 14.6665 14.1667 15.1665V18.3331C14.1667 18.8331 13.8334 19.1665 13.3334 19.1665Z" fill="#2D2D2D"/>
</g>
<defs>
<clipPath id="clip0_44451_38867">
<rect width="20" height="20" fill="white"/>
</clipPath>
</defs>
</svg>
